<?xml version="1.0" encoding="utf-8"?>
<!-- Generator: Adobe Illustrator 27.1.1, SVG Export Plug-In . SVG Version: 6.00 Build 0)  -->
<svg version="1.1" id="Layer_1" xmlns="http://www.w3.org/2000/svg" xmlns:xlink="http://www.w3.org/1999/xlink" x="0px" y="0px"
	 width="417px" height="404px" viewBox="0 0 417 404" style="enable-background:new 0 0 417 404;" xml:space="preserve">
<style type="text/css">
	.xst2{fill:#FFFFFF!important;}
	.xst3{fill:#FFFFFF!important;stroke:none!important;fill-opacity:0.2!important;}
	.xst10{fill:#797979!important;fill-opacity:0.3!important;}
	.xst11{fill:none!important;stroke:#FFFFFF!important;stroke-linecap:round!important;stroke-linejoin:round!important;}
	.xst12{fill:#FFFFFF!important;fill-opacity:0.1!important;}
</style>
<g>
	<g>
		<defs>
			<path id="SVGID_1_" d="M169.3,162.1l214.3,123.7c9.6,5.5,9.6,14.5,0,20l-117.4,67.8c-9.6,5.5-25.1,5.5-34.6,0L17.3,249.8
				c-9.6-5.5-9.6-14.5,0-20l117.4-67.8C144.3,156.5,159.8,156.5,169.3,162.1z"/>
		</defs>
		<clipPath id="SVGID_00000145027041396188084140000000518877088588865667_">
			<use xlink:href="#SVGID_1_"  style="overflow:visible;"/>
		</clipPath>
		<g style="clip-path:url(#SVGID_00000145027041396188084140000000518877088588865667_);">
			
				<linearGradient id="SVGID_00000083811944192274424120000007608132540917148057_" gradientUnits="userSpaceOnUse" x1="-25.157" y1="567.0508" x2="262.244" y2="567.0508" gradientTransform="matrix(0.866 0.5 0.866 -0.5 -393.2898 492.0302)">
				<stop  offset="0" style="stop-color:#475467"/>
				<stop  offset="1" style="stop-color:#667085"/>
			</linearGradient>
			<path style="fill:url(#SVGID_00000083811944192274424120000007608132540917148057_);" d="M169.3,162.1l214.3,123.7
				c9.6,5.5,9.6,14.5,0,20l-117.4,67.8c-9.6,5.5-25.1,5.5-34.6,0L17.3,249.8c-9.6-5.5-9.6-14.5,0-20l117.4-67.8
				C144.3,156.5,159.8,156.5,169.3,162.1z"/>
			<path class="xst2" d="M93.8,214.4l-3.2-1.8l9.4-5.5l3.3,1.9C110.3,213.7,97.3,217.7,93.8,214.4z M93.8,212.7c1.6,1,3.5,2,5.5,1.5
				c3.9-1.2,5.6-3.2,1-5.2L93.8,212.7z M100,218l9.4-5.5l6.1,3.5l-1.4,0.8l-4.4-2.6l-2.6,1.5l4.1,2.4l-1.4,0.8l-4.1-2.4l-2.6,1.5
				l4.5,2.6l-1.4,0.8L100,218z M111.1,224.4l-3.2-1.8l9.4-5.5l3.3,1.9C127.6,223.7,114.6,227.6,111.1,224.4z M111.1,222.7
				c1.6,1,3.5,2,5.5,1.5c3.9-1.2,5.6-3.2,1-5.2L111.1,222.7z M128.5,223.6L119,229l-1.7-1l9.4-5.5L128.5,223.6z M135.2,231.1l-1.7-1
				c1-0.7,0.5-1.9-0.5-2.3c-1.8-1-4.1-0.7-6,0.4c-4.3,2.2,0.6,5,3.3,3.7l1.7,1c-2.8,1.2-7.3,0.7-8.9-2c-0.9-3.9,5.6-5.4,8.6-4.9
				C134.3,226.1,138.4,228.8,135.2,231.1z M131.6,236.3l-1.8-1.1l12.8-3.5l2.1,1.2l-6.1,7.4l-1.8-1.1l5-5.8l-0.1,0L131.6,236.3z
				 M135.4,234.2l5,2.9l-1.4,0.8l-5-2.9L135.4,234.2z M146.3,235.5l1.4-0.8l7.5,4.4l-1.4,0.8l-2.9-1.7l-8,4.6l-1.7-1l8-4.6
				L146.3,235.5z M147.3,245.3l9.4-5.5l6.1,3.5l-1.4,0.8l-4.4-2.6l-2.6,1.5l4.1,2.4l-1.4,0.8L153,244l-2.6,1.5l4.5,2.6l-1.4,0.8
				L147.3,245.3z M158.4,251.7l-3.2-1.8l9.4-5.5l3.3,1.9C174.8,250.9,161.8,254.9,158.4,251.7z M158.3,250c1.6,1,3.5,2,5.5,1.5
				c3.9-1.2,5.6-3.2,1-5.2L158.3,250z"/>
			<path class="xst2" d="M72.3,227.7l0.8,0.4c-1.9,0.9-5,3.6-7.3,2.9c-6.4-1.9,0-4.2,2.4-5.7l0.8,0.4c-1.4,1.1-8,3.2-2.9,4.7
				C67.7,231,70.9,228.4,72.3,227.7z M73.6,229.3l0.7-0.4l4.7,2.7l-0.7,0.4l-2-1.1l-5.6,3.2l-0.8-0.4l5.6-3.2L73.6,229.3z
				 M80.9,232.7l-6.3,3.6l-0.8-0.4l6.3-3.6L80.9,232.7z M76.1,237.2l6.3-3.6l0.8,0.4l-5.6,3.2l2.9,1.7l-0.7,0.4L76.1,237.2z
				 M88.1,236.9l-6.3,3.6L81,240l6.3-3.6L88.1,236.9z M83.1,241.2l0.6-0.3l8.5-1l-3.4-2l0.7-0.4l4.3,2.5l-0.6,0.3l-8.5,1l3.4,2
				l-0.7,0.4L83.1,241.2z M89,244.6l-0.8-0.5l8.6-2.3l0.8,0.5l-4,5l-0.8-0.5l3.4-4.1l0,0L89,244.6z M91.7,243.4l3.2,1.9l-0.7,0.4
				l-3.2-1.9L91.7,243.4z M99.1,244l0.7-0.4l4.7,2.7l-0.7,0.4l-2-1.1l-5.6,3.2l-0.8-0.4l5.6-3.2L99.1,244z M106.4,247.5l-6.3,3.6
				l-0.8-0.4l6.3-3.6L106.4,247.5z M110.1,253.2c-1.8,1-4.2,1.3-6,0.3c-2.9-1.6,0.5-4,2.5-4.3C109.4,248.4,114.2,250.9,110.1,253.2z
				 M109.4,252.8c3.1-1.7-0.3-3.7-2.4-3c-1.5,0.2-4.3,2-2.1,3.3C106.2,253.9,108,253.6,109.4,252.8z M119.6,255l-6.3,3.6l-0.7-0.4
				l1.5-4.8l-0.1,0l-4.9,2.9l-0.8-0.4l6.3-3.6l0.7,0.4l-1.5,4.9l0.1,0l5-2.9L119.6,255z M117.2,261l6.3-3.6c1.1,0.7,4.9,2.2,2.3,3.6
				c-1.9,1.2-4.1-0.1-5.8-1.1l0.7-0.4c0.6,0.3,2,1.3,2.7,1.4c0.8,0.2,2.5-0.2,2.2-1.3c-0.2-0.4-1.6-1.1-2-1.3l-5.6,3.2L117.2,261z
				 M123,261l-1.3,2.5l-0.9-0.5l1.3-2.5L123,261z M123,264.3l-0.8-0.5l8.6-2.3l0.8,0.5l-4,5l-0.8-0.5l3.4-4.1l-0.1,0L123,264.3z
				 M125.8,263.1l3.2,1.9l-0.7,0.4l-3.2-1.9L125.8,263.1z M133.2,263.7l0.7-0.4l4.7,2.7l-0.7,0.4l-2-1.1l-5.6,3.2l-0.8-0.4l5.6-3.2
				L133.2,263.7z M140.5,267.1l-6.3,3.6l-0.8-0.4l6.3-3.6L140.5,267.1z M144.2,272.9c-2.1,1.2-5.7,1.5-7.1-0.8
				c-0.4-2.5,3.7-3.6,5.7-3.3C145.4,269,147.1,271.4,144.2,272.9z M143.4,272.5c2.2-1.1,1.2-2.9-0.8-3.1c-1.4-0.2-3.5,0.5-4.3,1.7
				C137.5,273.7,142,273.6,143.4,272.5z"/>
			<path class="xst2" d="M42,242.5l7.9-4.5l0.5,0.3l-7.9,4.5L42,242.5z M49.2,240.3c1.7-1.9-5-2.7-2.7-0.3c0.4,0.4,0.9,0.8,1.1,1.4
				c0.1,3-8,0.9-5.2-1.5l0.8,0.5c-1.9,1.9,5.4,2.9,2.9,0.4c-0.4-0.4-1.1-1.1-1.1-1.6c0.4-2.5,7.5-0.7,5,1.6L49.2,240.3z M48.4,245.3
				c-2.8-1.6,0.7-3.3,2.4-2.5l0,0c-1-2,2.9-2.1,4-1.2c2.3,1.3-0.6,3-2.2,2.3l0,0C54.1,246.1,49.6,246.4,48.4,245.3z M49.1,244.9
				c0.8,0.4,1.7,0.6,2.5,0.2c1.2-0.7-0.2-1.7-1-1.8C49.4,242.9,47.3,244,49.1,244.9z M52.1,243.2c0.9,0.8,3.9-0.1,2.1-1.2
				C53.3,241.2,50.4,242.1,52.1,243.2z M53.8,248.4c-3.5-2.5,6.4-6.1,7.3-2.8C60.6,248.2,56,249.7,53.8,248.4z M54.5,248
				c1.2,1.1,7.1-1.3,5.1-3C58.4,244,52.4,246.4,54.5,248z M59.2,251.6c-3.5-2.5,6.4-6.1,7.3-2.8C66.1,251.3,61.4,252.8,59.2,251.6z
				 M59.9,251.2c1.2,1.1,7.1-1.3,5.1-3C63.9,247.1,57.9,249.5,59.9,251.2z M62.8,253.5l6.3-3.6l0.8,0.4l-3.1,1.8l0.1,0l6-0.2l1,0.6
				l-5.5,0.1l-0.8,3.5l-0.9-0.5l0.7-3l-1.7,0.1l-2,1.2L62.8,253.5z"/>
			<path class="xst2" d="M223,347l7.9-4.5l0.5,0.3l-7.9,4.5L223,347z M230.2,344.8c1.7-1.9-5-2.7-2.7-0.3c0.4,0.4,0.9,0.8,1.1,1.4
				c0.1,3-8,0.9-5.2-1.5l0.8,0.5c-1.9,1.9,5.4,2.9,2.9,0.4c-0.4-0.4-1.1-1.1-1.1-1.6c0.4-2.5,7.5-0.7,5,1.6L230.2,344.8z M236,346.3
				l-6.3,3.6l-0.8-0.4l5.5-3.2l0,0l-2.6-0.3l0.8-0.4l2.6,0.3L236,346.3z M231.6,351.1c-0.8-0.6,0.7-1,1.1-0.6
				C233.5,351,232.1,351.4,231.6,351.1z M235.3,353.2c-2.8-1.9,2.3-4,4-4.1c1.5-0.4,4.7,0.9,2.9,2.5l-0.8-0.4
				c1.3-2.1-3.2-1.7-4.2-0.8l0.1,0C243.6,350.5,239.1,355.5,235.3,353.2z M236,352.8c0.8,0.5,2,0.4,2.8,0c1.5-0.9-0.2-2.1-1.3-1.9
				C236.4,350.8,234.5,351.9,236,352.8z M245.1,351.5l0.9,0.5l-3.1,4.3l0.1,0l7.4-1.8l0.9,0.5l-6.3,3.6l-0.7-0.4l4.8-2.8l-0.1,0
				l-6.8,1.6l-0.7-0.4l2.8-3.9l-0.1,0l-4.8,2.8l-0.7-0.4L245.1,351.5z"/>
			<path class="xst2" d="M252,338.9c-0.9-0.5-1.3-1.5-0.3-2.1l0.7,0.4c-0.9,0.7,0.3,1.5,1.1,1.6c2.6,0.4,3.6-2.1,0.5-2.4l-0.6-0.5
				l3.5-1.6l3.3,1.9l-0.7,0.4l-2.6-1.5l-2.1,0.9l0,0C260.2,337.1,254.8,340.8,252,338.9z M257.4,342c-3.5-2.5,6.4-6.1,7.3-2.8
				C264.2,341.7,259.6,343.2,257.4,342z M258.1,341.6c1.2,1.1,7.1-1.3,5.1-3C262,337.6,256,339.9,258.1,341.6z M265.2,345
				c1-1.1,4.8-0.3,2.8,1.2C267,347.3,263.2,346.5,265.2,345z M266.2,345.2c-1.8,0.9,0.3,1.5,1.2,0.7
				C268.5,345.2,266.7,344.7,266.2,345.2z M265.7,341.1c0.8-0.8,3.6-0.8,3.3,0.8c-0.3,0.5-1,0.8-1.6,0.9
				C266.3,343.2,264.1,342.1,265.7,341.1z M266.6,341.3c-1.8,0.9,0.3,1.5,1.2,0.7C269,341.3,267.2,340.8,266.6,341.3z M261.1,344
				l10.6-1.1l0.7,0.4l-10.6,1.1L261.1,344z"/>
			<path class="xst3" d="M57.4,233.2l201.8,116.5c1.2,0.7,1.2,1.8,0,2.5l0,0c-1.2,0.7-3.1,0.7-4.4,0L53,235.7c-1.2-0.7-1.2-1.8,0-2.5
				l0,0C54.2,232.5,56.2,232.5,57.4,233.2z"/>
			<path class="xst2" d="M57.2,233.3l80.5,46.5c1.2,0.7,1.2,1.8,0,2.5l0,0c-1.2,0.7-3.1,0.7-4.3,0l-80.5-46.5c-1.2-0.7-1.2-1.8,0-2.5
				l0,0C54.1,232.6,56,232.6,57.2,233.3z"/>
		</g>
	</g>
	
		<linearGradient id="SVGID_00000155117065971401749120000017428029313641565348_" gradientUnits="userSpaceOnUse" x1="-21.5928" y1="653.1876" x2="261.7161" y2="478.4242" gradientTransform="matrix(0.866 0.5 0.866 -0.5 -392.8568 492.2802)">
		<stop  offset="0" style="stop-color:#657084"/>
		<stop  offset="1" style="stop-color:#646E81"/>
	</linearGradient>
	<path style="fill:none;stroke:url(#SVGID_00000155117065971401749120000017428029313641565348_);" d="M168.9,162.3L383.2,286
		c9.3,5.4,9.3,14.1,0,19.5l-117.4,67.8c-9.3,5.4-24.4,5.4-33.8,0L17.8,249.6c-9.3-5.4-9.3-14.1,0-19.5l117.4-67.8
		C144.5,156.9,159.6,156.9,168.9,162.3z"/>
</g>
<g>
	<g>
		<defs>
			<path id="SVGID_00000103973164947020067770000012346766940604553089_" d="M226.8,97.3l158.7,189.8c7.1,8.5,4,16.9-6.9,18.8
				l-133.5,23.3c-10.9,1.9-25.4-3.4-32.5-11.9L53.8,127.5c-7.1-8.5-4-16.9,6.9-18.8l133.5-23.3C205.1,83.5,219.7,88.9,226.8,97.3z"
				/>
		</defs>
		<clipPath id="SVGID_00000165206502304202031460000000191142408774773382_">
			<use xlink:href="#SVGID_00000103973164947020067770000012346766940604553089_"  style="overflow:visible;"/>
		</clipPath>
		<g style="clip-path:url(#SVGID_00000165206502304202031460000000191142408774773382_);">
			
				<linearGradient id="SVGID_00000052819903172192378690000003744756316301136518_" gradientUnits="userSpaceOnUse" x1="-101.1786" y1="612.8248" x2="54.9989" y2="868.5201" gradientTransform="matrix(0.6416 0.7671 0.9851 -0.172 -495.1585 352.4509)">
				<stop  offset="0" style="stop-color:#42307D"/>
				<stop  offset="1" style="stop-color:#7F56D9"/>
			</linearGradient>
			<path style="fill:url(#SVGID_00000052819903172192378690000003744756316301136518_);" d="M226.8,97.3l158.7,189.8
				c7.1,8.5,4,16.9-6.9,18.8l-133.5,23.3c-10.9,1.9-25.4-3.4-32.5-11.9L53.8,127.5c-7.1-8.5-4-16.9,6.9-18.8l133.5-23.3
				C205.1,83.5,219.7,88.9,226.8,97.3z"/>
			<g>
				<path class="xst2" d="M159.4,139c6.1-1.1,1.9-5.2-0.4-7.8l-10.7,1.9C150.8,136.7,154.6,140.1,159.4,139z M153.9,136.9
					c-1-0.5-1.9-1.8-2.7-2.6l7.4-1.3c0.5,0.7,1.8,2,1.9,2.8C160.1,138.3,155.6,137.9,153.9,136.9z"/>
				<polygon class="xst2" points="145.3,127.3 148.3,126.8 151.3,130.5 152.9,130.2 149.9,126.5 152.8,126 156.1,129.9 157.7,129.7 
					153.2,124.2 142.4,126.1 147,131.6 148.6,131.3 				"/>
				<path class="xst2" d="M146.6,123.7c6.1-1.1,1.9-5.2-0.4-7.8l-10.7,1.9C138,121.4,141.8,124.8,146.6,123.7z M141.1,121.6
					c-1-0.5-1.9-1.8-2.7-2.6l7.4-1.3c0.5,0.7,1.8,2,1.9,2.8C147.3,122.9,142.8,122.6,141.1,121.6z"/>
				<polygon class="xst2" points="166,139.5 155.2,141.4 156.5,142.9 167.3,141.1 				"/>
				<path class="xst2" d="M167.4,151.1l-1.3-1.5c-3,0.3-6.6-4-1.8-4.6c2.1-0.4,4.4,0.1,5.7,1.7c0.8,0.8,0.8,2-0.4,2.3l1.3,1.5
					c3.7-1.1,0.8-5-1.5-6c-2.6-1.5-9.2-2.2-9.7,1.7C160.3,149.3,164.4,151.3,167.4,151.1z"/>
				<polygon class="xst2" points="191.1,171.8 192.7,171.5 188.2,166.1 177.4,167.9 182,173.4 183.6,173.1 180.3,169.2 183.3,168.6 
					186.3,172.3 187.9,172 184.9,168.4 187.8,167.9 				"/>
				<polygon class="xst2" points="185.5,165.1 187.1,164.8 181.5,158.1 179.9,158.4 182,161 172.9,162.6 174.2,164.1 183.3,162.5 
									"/>
				<path class="xst2" d="M177.7,153.5l-13.2-1.1l1.4,1.6l3.2,0.2l2.6,3.1l-2.1,1.2l1.4,1.6l8.3-4.8L177.7,153.5z M172.9,156.8
					l-1.9-2.3l5.3,0.4l0.1,0.1L172.9,156.8z"/>
			</g>
			<path class="xst2" d="M113,125.7l0.6,0.7c-2.1,0.2-5.9,1.6-7.8,0.2c-5.3-4,1.4-3.9,4.2-4.5l0.6,0.7c-1.7,0.6-8.6,0.3-4.3,3.4
				C107.6,127.2,111.5,125.8,113,125.7z M113.7,127.5l0.8-0.1l3.5,4.2l-0.8,0.1l-1.5-1.8l-6.4,1.1l-0.6-0.7l6.4-1.1L113.7,127.5z
				 M119.4,133.3l-7.2,1.3l-0.6-0.7l7.2-1.3L119.4,133.3z M113.4,135.9l7.2-1.3l0.6,0.7l-6.4,1.1l2.2,2.6l-0.8,0.1L113.4,135.9z
				 M124.7,139.7l-7.2,1.3l-0.6-0.7l7.2-1.3L124.7,139.7z M118.5,142.1l0.6-0.1l8.3,2l-2.5-3l0.8-0.1l3.2,3.8l-0.6,0.1l-8.3-2l2.5,3
				l-0.8,0.1L118.5,142.1z M122.9,147.3l-0.6-0.7l8.9,0.8l0.6,0.7l-5.5,3.3l-0.6-0.7l4.6-2.7l0,0L122.9,147.3z M125.9,147.1l2.4,2.9
				l-0.8,0.1l-2.4-2.9L125.9,147.1z M132.6,150.2l0.8-0.1l3.5,4.2l-0.8,0.1l-1.5-1.8l-6.4,1.1l-0.6-0.7l6.4-1.1L132.6,150.2z
				 M138.3,155.9l-7.2,1.3l-0.6-0.7l7.2-1.3L138.3,155.9z M139.8,162.6c-2,0.4-4.4-0.2-5.7-1.8c-2.2-2.5,1.9-3.6,3.8-3.1
				C140.8,157.8,144.4,161.9,139.8,162.6z M139.3,162c2.4-0.2,2.1-2.3,0.3-3.2c-1.3-0.7-3.5-0.8-4.7,0.1
				C133.3,161,137.5,162.5,139.3,162z M148.1,167.6l-7.2,1.3l-0.5-0.7l3.1-4l0-0.1l-5.6,1l-0.6-0.7l7.2-1.3l0.5,0.7l-3.1,4l0,0.1
				l5.6-1L148.1,167.6z M143.8,172.3l7.2-1.3c0.8,1.1,3.8,3.7,1,4.2c-2.2,0.5-3.8-1.5-5-3l0.8-0.1c0.5,0.5,1.4,1.9,2,2.2
				c0.7,0.5,2.5,0.6,2.5-0.4c-0.1-0.5-1.1-1.5-1.4-1.9l-6.4,1.1L143.8,172.3z M149.2,174.4l-2.1,1.9l-0.7-0.8l2.1-1.9L149.2,174.4z
				 M148.1,177.4l-0.6-0.7l8.9,0.8l0.6,0.7l-5.5,3.3l-0.6-0.7l4.6-2.7l0,0L148.1,177.4z M151.1,177.2l2.4,2.9l-0.8,0.1l-2.4-2.9
				L151.1,177.2z M157.9,180.3l0.8-0.1l3.5,4.2l-0.8,0.1l-1.5-1.8l-6.4,1.1l-0.6-0.7l6.4-1.1L157.9,180.3z M163.6,186.1l-7.2,1.3
				l-0.6-0.7l7.2-1.3L163.6,186.1z M165.1,192.8c-3.1,1.2-9.9-3.6-4.1-4.9C164,186.7,170.8,191.4,165.1,192.8z M164.5,192.1
				c4.5-1-0.6-4.6-3-3.6C157,189.5,162.1,193.1,164.5,192.1z"/>
			<path class="xst2" d="M79.6,129.1l9-1.6l0.4,0.4l-9,1.6L79.6,129.1z M87.1,129.5c2.2-1.2-3.8-4.2-2.4-1.2c0.2,0.5,0.6,1.1,0.6,1.7
				c-0.9,2.9-7.8-1.9-4.4-3.2l0.6,0.7c-2.4,1.2,4.1,4.6,2.6,1.3c-0.2-0.5-0.7-1.4-0.5-1.9c1.2-2.3,7.3,2,4.1,3.2L87.1,129.5z
				 M84.6,134c-2.1-2.5,1.8-2.9,3.1-1.5l0,0c-0.3-2.2,3.5-1,4.2,0.2c1.8,2-1.6,2.6-2.8,1.4l0,0C89.6,136.7,85.4,135.4,84.6,134z
				 M85.3,133.9c0.6,0.7,1.4,1.1,2.3,1c1.4-0.2,0.4-1.7-0.4-2.1C86.3,132,84,132.4,85.3,133.9z M88.7,133.3c0.5,0.7,2.6,1.4,2.7,0.1
				C91.4,131.9,87.4,131.2,88.7,133.3z M88.6,138.8c-2.4-3.6,8.1-3.6,7.8-0.2C95.1,140.9,90.2,140.7,88.6,138.8z M89.3,138.6
				c0.7,1.4,7.1,1.2,5.8-1C94.4,136.2,88,136.4,89.3,138.6z M92.6,143.6c-2.4-3.6,8.1-3.6,7.8-0.2C99.1,145.7,94.2,145.5,92.6,143.6
				z M93.3,143.4c0.7,1.4,7.1,1.2,5.8-1C98.5,141,92,141.2,93.3,143.4z M95.2,146.6l7.2-1.3l0.6,0.7l-3.6,0.6l0.1,0.1l5.7,1.9
				l0.7,0.9l-5.2-1.8l-2,3l-0.7-0.8l1.7-2.5l-1.6-0.5l-2.3,0.4L95.2,146.6z"/>
			<path class="xst2" d="M213.7,289.4l9-1.6l0.4,0.4l-9,1.6L213.7,289.4z M221.2,289.8c2.2-1.2-3.8-4.2-2.4-1.2
				c0.2,0.5,0.6,1.1,0.6,1.7c-0.9,2.9-7.8-1.9-4.4-3.2l0.6,0.7c-2.4,1.2,4.1,4.6,2.6,1.3c-0.2-0.5-0.7-1.4-0.5-1.9
				c1.2-2.3,7.3,2,4.1,3.2L221.2,289.8z M226.1,293.2l-7.2,1.3l-0.6-0.7l6.3-1.1l0,0l-2.3-1.2l0.9-0.2l2.4,1.2L226.1,293.2z
				 M220.3,296.2c-0.5-0.8,1-0.7,1.3-0.2C222.1,296.8,220.6,296.7,220.3,296.2z M223,299.5c-1.9-2.8,3.5-2.9,5.2-2.5
				c1.5,0.2,4.1,2.5,1.8,3.4l-0.6-0.7c1.9-1.5-2.4-2.7-3.7-2.2l0,0C231.7,299.8,225.8,302.9,223,299.5z M223.8,299.4
				c0.6,0.7,1.7,1.1,2.6,0.9c1.8-0.3,0.5-2-0.6-2.3C224.9,297.6,222.7,298,223.8,299.4z M232.8,301.3l0.7,0.8l-4.4,2.9l0.1,0.1
				l7.5,0.9l0.7,0.8l-7.2,1.3l-0.5-0.6l5.4-1l0-0.1l-6.9-0.8l-0.5-0.6l4-2.7l0-0.1l-5.4,1l-0.5-0.6L232.8,301.3z"/>
			<path class="xst2" d="M243.7,291.8c-0.7-0.7-0.7-1.9,0.4-2.1l0.5,0.7c-1.1,0.3-0.2,1.5,0.5,1.8c2.4,1.2,4.1-0.7,1.3-2.1l-0.4-0.6
				l3.8-0.3l2.4,2.9l-0.8,0.1l-1.9-2.3l-2.3,0.2l0,0C252,293,245.6,294.6,243.7,291.8z M247.6,296.5c-2.4-3.6,8.1-3.6,7.8-0.2
				C254.2,298.7,249.3,298.5,247.6,296.5z M248.4,296.4c0.7,1.4,7.1,1.2,5.8-1C253.5,294,247.1,294.1,248.4,296.4z M253.9,302.1
				c1-0.4,3.7,0.5,2.8,1.9c-0.5,0.3-1.2,0.4-1.8,0.3C253.8,304.3,252.1,302.4,253.9,302.1z M254.8,302.6c-2,0.2-0.2,1.5,0.9,1.1
				C257,303.4,255.5,302.3,254.8,302.6z M255.7,298.6c1.3-0.7,4.6,1.4,2.2,2.1C256.6,301.4,253.3,299.3,255.7,298.6z M256.6,299.1
				c-2,0.2-0.2,1.5,0.9,1.1C258.8,299.9,257.3,298.8,256.6,299.1z M250.4,299.8l10.4,2.6l0.5,0.6l-10.4-2.6L250.4,299.8z"/>
			<path class="xst3" d="M97.2,125.7l149.5,178.7c0.9,1.1,0.5,2.1-0.9,2.4c-2.7,0.3-4.4-1.8-4.1-1.5c-3-3.6-149.4-178.6-149.5-178.7
				c-0.8-1-0.4-2,0.9-2.3C94.4,124,96.3,124.6,97.2,125.7z"/>
			<path class="xst2" d="M97,125.7l59.7,71.3c0.9,1.1,0.5,2.1-0.9,2.3c-1.5,0.5-4.3-1.4-4.1-1.5c-1.3-1.5-59.6-71.2-59.7-71.4
				c-0.8-1-0.4-2,0.9-2.3C94.2,124,96.1,124.7,97,125.7z"/>
		</g>
	</g>
	
		<linearGradient id="SVGID_00000011743933740156728410000013318717212466022787_" gradientUnits="userSpaceOnUse" x1="-163.2596" y1="826.7552" x2="120.0494" y2="651.9918" gradientTransform="matrix(0.6416 0.7671 0.9851 -0.172 -494.7575 352.9714)">
		<stop  offset="0" style="stop-color:#6D4BBC"/>
		<stop  offset="1" style="stop-color:#6D4BBC;stop-opacity:0.2"/>
	</linearGradient>
	<path style="fill:none;stroke:url(#SVGID_00000011743933740156728410000013318717212466022787_);" d="M226.3,97.4L385,287.2
		c6.9,8.3,3.9,16.5-6.7,18.3l-133.5,23.3c-10.6,1.9-24.8-3.3-31.7-11.6L54.3,127.5c-6.9-8.3-3.9-16.5,6.7-18.3l133.5-23.3
		C205.2,84,219.4,89.2,226.3,97.4z"/>
</g>
<g>
	<g>
		<defs>
			<path id="SVGID_00000147189839197849584510000017549585356191542430_" d="M298.4,60.6l93.2,229.2c4.2,10.2-1.3,17.3-12.3,15.8
				L245,287c-10.9-1.5-23.2-11-27.3-21.3L124.5,36.5c-4.2-10.2,1.3-17.3,12.3-15.8l134.3,18.6C282,40.8,294.3,50.4,298.4,60.6z"/>
		</defs>
		<clipPath id="SVGID_00000007392285720296384680000005304771701353089153_">
			<use xlink:href="#SVGID_00000147189839197849584510000017549585356191542430_"  style="overflow:visible;"/>
		</clipPath>
		<g style="clip-path:url(#SVGID_00000007392285720296384680000005304771701353089153_);">
			
				<linearGradient id="SVGID_00000082349215706757831610000013560219491879317649_" gradientUnits="userSpaceOnUse" x1="-254.0667" y1="740.1719" x2="-97.8892" y2="995.8672" gradientTransform="matrix(0.3766 0.9264 0.9905 0.1372 -535.4952 207.1327)">
				<stop  offset="0" style="stop-color:#101828"/>
				<stop  offset="1" style="stop-color:#475467"/>
			</linearGradient>
			<path style="fill:url(#SVGID_00000082349215706757831610000013560219491879317649_);" d="M298.4,60.6l93.2,229.2
				c4.2,10.2-1.3,17.3-12.3,15.8L245,287c-10.9-1.5-23.2-11-27.3-21.3L124.5,36.5c-4.2-10.2,1.3-17.3,12.3-15.8l134.3,18.6
				C282,40.8,294.3,50.4,298.4,60.6z"/>
			
				<ellipse transform="matrix(0.4745 -0.8802 0.8802 0.4745 70.9104 266.9202)" class="xst10" cx="259" cy="74.1" rx="16.9" ry="30.5"/>
			<g>
				<path class="xst11" d="M269.2,84.3l-10.4-10.1 M258.9,74.2l2.9-8.2 M258.9,74.2l-13.4-1.9 M257.1,83.1l11.4,1.6
					c0.9,0.1,1.3,0.3,1.6-0.6c0,0,2.6-7.2,2.6-7.2c0.3-0.8-0.1-1-0.7-1.7c0,0-9-8.8-9-8.8c-0.8-0.8-1.2-1-2.3-1.2
					c0,0-11.4-1.6-11.4-1.6c-0.9-0.1-1.3-0.3-1.6,0.6c0,0-2.6,7.2-2.6,7.2c-0.2,0.5-0.2,0.6,0.1,1c-0.2,0,9.5,9.2,9.6,9.4
					C255.6,82.8,255.9,82.9,257.1,83.1z"/>
			</g>
			<g>
				<path class="xst2" d="M223.9,93c0.5,0.3,1.1,0.5,1.6,0.6l-0.7-1.8c-2.9-0.7-5.1-5.8-0.3-5c2.1,0.3,4.1,1.4,4.9,3.3
					c0.5,1,0.2,2.2-1.1,2.1l0.8,1.8c5.3-0.4,0.8-7.1-2.1-8.1C218.8,82.1,217.2,89.1,223.9,93z"/>
				<polygon class="xst2" points="211.7,64.3 214.7,64.7 216.5,69.1 218.1,69.3 216.3,64.9 219.2,65.3 221.2,70.1 222.8,70.3 
					220.1,63.7 209.3,62.2 212,68.8 213.7,69 				"/>
				<path class="xst2" d="M214,61.2c6.1,0.8,3.4-4.4,2-7.6l-10.8-1.5C206.6,56.4,209.2,60.8,214,61.2z M208.3,55.7l-0.6-1.5l7.4,1
					c0.3,0.8,1.1,2.5,0.9,3.2C214.5,61.2,208.9,58.3,208.3,55.7z"/>
				<path class="xst2" d="M221.6,79.7c6.1,0.8,3.4-4.4,2-7.6l-10.8-1.5C214.1,74.9,216.7,79.3,221.6,79.7z M215.8,74.2l-0.6-1.5
					l7.4,1c0.3,0.8,1.1,2.5,0.9,3.2C222.1,79.7,216.4,76.8,215.8,74.2z"/>
				<polygon class="xst2" points="227.7,82.2 216.9,80.7 217.6,82.5 228.4,84 				"/>
				<path class="xst2" d="M234.5,99.1l-12.3-5.1l0.8,2l3,1.2l1.5,3.8l-2.3,0.5l0.8,2l9.4-2.1L234.5,99.1z M229,100.8l-1.1-2.8l4.9,2
					l0,0.1L229,100.8z"/>
				<polygon class="xst2" points="253.6,167.4 256.6,167.8 258.4,172.2 260,172.4 258.2,168 261.1,168.4 263.1,173.1 264.7,173.4 
					262,166.8 251.2,165.3 253.9,171.9 255.6,172.1 				"/>
				<polygon class="xst2" points="260.7,163.5 251.1,159.7 251.1,159.5 258.5,158.1 257.7,156.1 248.3,158.1 249.2,160.4 
					261.5,165.5 				"/>
				<path class="xst2" d="M252.1,154.8c5,0.9,4.8-3.7,2-6.3c-2-2.2-8.1-5-9.8-1.4C243.9,151.1,248.3,154.4,252.1,154.8z M246.4,149.6
					c-1.3-3.1,3.2-2.5,4.9-1.6c1.7,0.7,4.4,3.7,2,4.9C250.8,153.5,247.4,152.1,246.4,149.6z"/>
				<path class="xst2" d="M267,179l-1.5-3.8l-10.8-1.5l0.7,1.8l4,0.5l0.8,1.9l-3.2,1.4l0.8,2l3.4-1.6C262.7,182.4,269,183.7,267,179z
					 M265.1,180.2c-2.3,0.7-3.6-2-4.1-3.8l3.6,0.5C264.8,177.7,266.1,179.5,265.1,180.2z"/>
				<polygon class="xst2" points="238.4,112.5 240,112.7 236.8,104.6 235.1,104.4 236.4,107.5 227.2,106.2 228,108.1 237.1,109.3 
									"/>
				<polygon class="xst2" points="232.3,114.8 235.2,115.2 237,119.6 238.6,119.8 236.8,115.4 239.8,115.8 241.7,120.6 243.3,120.8 
					240.7,114.2 229.9,112.7 232.6,119.4 234.2,119.6 				"/>
				<path class="xst2" d="M244.8,130.1c2.8-1.3-0.1-5.4-0.6-7.4l-10.8-1.5C234.9,126.5,238.6,131.5,244.8,130.1z M239.1,127.8
					c-1.9-0.8-2.8-2.7-3.4-4.6l7.4,1C245.5,128.8,243,129.3,239.1,127.8z"/>
				<path class="xst2" d="M245.9,143.8l-0.7-1.8c-2.9-0.7-5.1-5.8-0.3-5c2.1,0.3,4.1,1.4,4.9,3.3c0.5,1,0.2,2.2-1.1,2.1l0.8,1.8
					c3.9,0.1,2.3-4.5,0.4-6.2c-2-2.2-8.1-4.9-9.8-1.4C239.7,139.9,243,143.1,245.9,143.8z"/>
			</g>
			<g>
				<polygon class="xst2" points="182.9,71.2 190.1,75.6 190.8,75.7 188.9,71.1 188.1,71 189.6,74.7 182.3,70.2 181.7,70.1 
					183.6,74.8 184.4,74.9 				"/>
				<polygon class="xst2" points="188,68.9 180.8,67.9 181.1,68.7 188.3,69.7 				"/>
				<path class="xst2" d="M192.1,79l-8.2-3.5l0.3,0.9l2.3,1l1.1,2.7l-1.8,0.4l0.3,0.9l6.2-1.5L192.1,79z M188.3,80l-0.9-2.2l3.7,1.5
					l0,0.1L188.3,80z"/>
				<polygon class="xst2" points="183.6,59.9 184.4,60 182.3,54.9 181.5,54.8 182.4,56.9 176,56 176.3,56.9 182.7,57.8 				"/>
				<polygon class="xst2" points="184.9,61.2 177.7,60.2 178,61.1 185.2,62.1 				"/>
				<polygon class="xst2" points="179.8,63.6 186.2,64.5 185.9,63.7 178.7,62.7 180.3,66.6 181.1,66.7 				"/>
				<polygon class="xst2" points="209.5,123.6 210.3,123.7 208.2,118.7 207.5,118.6 208.3,120.7 201.9,119.8 202.2,120.6 
					208.7,121.5 				"/>
				<path class="xst2" d="M181.8,53.7l-0.3-0.8c-1.5-0.4-5.6-0.2-6.6-1.7c-3.1-4.2,3.4-1.9,5.2-1.9l-0.3-0.8c-2.8-0.3-9.2-2.4-5.4,3
					C175.7,53.4,179.8,53.3,181.8,53.7z"/>
				<polygon class="xst2" points="194.7,87.2 195.5,87.3 193.4,82.2 192.7,82.1 193.5,84.3 187.1,83.4 187.4,84.2 193.8,85.1 				"/>
				<polygon class="xst2" points="201.7,102.6 196,101.8 196,101.8 200.2,98.9 199.9,98.1 192.7,97.1 193,97.9 198.6,98.7 
					198.7,98.7 194.5,101.6 194.8,102.4 202,103.4 				"/>
				<path class="xst2" d="M201.1,110.7c0.8,1,3.3,2.1,3.8,0.5c0.2-0.7-0.9-2.8-1.2-3.5l-7.2-1l0.3,0.8l2.8,0.4c0,0.1,0.6,1.6,0.7,1.6
					l-2.3,1l0.4,0.9l2.4-1.1C200.9,110.5,201,110.6,201.1,110.7z M203.3,108.4c0.7,1.5,1.6,3.6-1,2.5c-1-0.4-1.4-1.9-1.8-2.9
					L203.3,108.4z"/>
				<path class="xst2" d="M206.9,115.5l-8.2-3.5l0.3,0.9l2.3,1l1.1,2.7l-1.8,0.4l0.3,0.9l6.2-1.5L206.9,115.5z M203.2,116.4l-0.9-2.2
					l3.7,1.5l0,0.1L203.2,116.4z"/>
				<polygon class="xst2" points="210.8,125 203.6,124 203.9,124.8 211.1,125.8 				"/>
				<polygon class="xst2" points="196,88.6 188.8,87.6 189.1,88.4 196.3,89.4 				"/>
				<path class="xst2" d="M213,130.2c-0.8-1.9-2.8-3.2-4.9-3.5c-4.6-0.7-2.4,4.3,0.3,5.3C210.1,133,214.3,133.2,213,130.2z
					 M212.3,131.1c-1.5,2.2-6.4-0.4-6-2.9C207.8,126,212.7,128.6,212.3,131.1z"/>
				<path class="xst2" d="M195.7,96.2c4.6,0.7,2.4-4.3-0.3-5.3c-1.7-1-5.9-1.3-4.6,1.8C191.6,94.6,193.6,95.9,195.7,96.2z
					 M191.6,92.8c-1-2.4,2.4-2,3.7-1.3c1.3,0.5,3.3,2.8,1.5,3.8C195,95.8,192.3,94.7,191.6,92.8z"/>
			</g>
			<path class="xst2" d="M148.6,45.9l9,1.2l0.2,0.5l-9-1.2L148.6,45.9z M155.6,48.6c2.5-0.4-2.3-5.2-2-1.9c0,0.7,0.4,1.8-0.4,2.2
				c-2.1,1-6.2-4.5-2.8-4.8l0.3,0.8c-2.7,0.4,2.5,5.6,2.1,2.1c-0.1-0.6-0.2-1.6,0.1-1.9c1.8-1.8,6.4,4.1,3,4.3L155.6,48.6z
				 M151.8,52.1c-1.2-3,2.6-2.2,3.4-0.5l0,0c0.4-2.2,3.6,0.1,3.9,1.5c1,2.5-2.3,2-3.1,0.5l0,0C155.8,56.2,152.1,53.6,151.8,52.1z
				 M152.6,52.2c0.2,1.4,3.4,2.7,2.7,0.4C155,51.2,151.7,49.8,152.6,52.2z M156,52.7c0.2,1.2,3.1,2.3,2.4,0.3
				C158.3,51.8,155.4,50.7,156,52.7z M154.2,57.8c-1.2-4.2,8.8-0.9,7.5,2.2C159.7,61.8,155.1,60.2,154.2,57.8z M154.9,57.9
				c0.3,1.6,6.4,3.4,5.9,0.8C160.6,57.2,154.4,55.4,154.9,57.9z M156.5,63.6c-1.2-4.2,8.8-0.9,7.5,2.2
				C162.1,67.6,157.5,65.9,156.5,63.6z M157.3,63.7c0.7,1.6,3.4,2.2,5.1,2c1.7-0.2,0.6-1.9-0.4-2.4C161,62.8,156.8,61.5,157.3,63.7z
				 M158.1,67.3l7.2,1l0.3,0.8l-3.6-0.5l0,0.1l4.8,3.5l0.4,1.1L163,70l-2.8,2.3l-0.4-1l2.4-1.9l-1.4-1l-2.3-0.3L158.1,67.3z"/>
			<path class="xst2" d="M227.3,239.5l9,1.2l0.2,0.5l-9-1.2L227.3,239.5z M234.3,242.2c2.5-0.4-2.3-5.2-2-1.9c0.1,0.6,0.2,1.2,0,1.8
				c-1.7,2.5-6.9-4.2-3.2-4.4l0.3,0.8c-2.7,0.4,2.5,5.6,2.1,2.1c-0.1-0.6-0.2-1.6,0.1-1.9c1.8-1.8,6.3,4.1,3,4.3L234.3,242.2z
				 M237.9,246.9l-7.2-1l-0.3-0.8l6.3,0.9l0,0l-1.8-1.8l0.9,0.1l1.9,1.8L237.9,246.9z M231.5,248c-0.3-1,1.2-0.4,1.3,0.2
				C233,249.1,231.6,248.6,231.5,248z M233.1,252c-1-3.2,4.2-1.7,5.7-0.8c1.4,0.6,3.2,3.6,0.7,3.8l-0.3-0.8c2.3-0.9-1.4-3.3-2.9-3.2
				l0,0.1C241.3,254.9,234.7,256.1,233.1,252z M233.9,252.1c0.4,0.9,1.3,1.6,2.2,1.7c1.8,0.3,1.1-1.8,0.1-2.3
				C235.5,250.7,233.3,250.5,233.9,252.1z M241.9,256.7l0.4,1l-5,1.5l0,0.1l6.9,3.1l0.4,1l-7.2-1l-0.3-0.8l5.5,0.8l0-0.1l-6.3-2.9
				l-0.3-0.7l4.6-1.3l0-0.1l-5.5-0.8l-0.3-0.8L241.9,256.7z"/>
			<path class="xst2" d="M255.1,250.9c-0.4-0.9-0.1-2,1-1.8l0.3,0.8c-1.2,0-0.7,1.4-0.1,1.9c1.9,1.9,4.1,0.5,1.9-1.6l-0.2-0.7
				l3.7,0.9l1.4,3.5l-0.8-0.1l-1.1-2.8l-2.2-0.5l0,0C262.7,254.6,256.1,254.2,255.1,250.9z M257.4,256.7c-1.2-4.2,8.8-0.9,7.5,2.2
				C263,260.7,258.4,259,257.4,256.7z M258.2,256.8c0.3,1.6,6.4,3.4,5.9,0.8C263.8,256,257.6,254.2,258.2,256.8z M261.7,263.9
				c1.4-0.2,4,2.7,1.4,2.7C261.8,266.8,259.2,263.8,261.7,263.9z M262.4,264.6c-2-0.4-0.7,1.4,0.5,1.3
				C264.2,266,263.1,264.5,262.4,264.6z M264.5,261.1c1.4-0.2,4,2.7,1.4,2.7C264.5,264,262,261.1,264.5,261.1z M265.1,261.8
				c-2-0.4-0.7,1.4,0.5,1.3C267,263.3,265.9,261.8,265.1,261.8z M259.1,260.6l9.1,5.6l0.3,0.8l-9.1-5.6L259.1,260.6z"/>
			<path class="xst3" d="M166.4,48l87.7,215.8c0.5,1.3-0.2,2.2-1.5,2c-2.7-0.5-3.7-3.1-3.5-2.7c-1.8-4.3-87.7-215.7-87.7-215.9
				c-0.5-1.2,0.2-2.1,1.6-1.9C164.3,45.5,165.8,46.7,166.4,48z"/>
			<path class="xst2" d="M166.1,48l35,86.2c0.5,1.3-0.2,2.2-1.5,2c-1.6,0-3.7-2.7-3.4-2.7c-0.7-1.8-35-86-35-86.2
				c-0.4-1.2,0.2-2.1,1.6-1.9C164.1,45.5,165.6,46.7,166.1,48z"/>
			<path class="xst12" d="M328.5,182.8l38.8,95.4c0.8,2-0.3,3.5-2.5,3.2l-17.8-2.5c-2.2-0.3-4.6-2.2-5.5-4.3l-38.8-95.4
				c-0.8-2,0.3-3.5,2.5-3.2l17.8,2.5C325.2,178.8,327.6,180.7,328.5,182.8z"/>
			<g>
				<polygon class="xst2" points="328,200.8 319.4,199.6 320,201 328.6,202.2 				"/>
				<path class="xst2" d="M325.5,207.4c0.4-0.4,0-1.6-0.1-2.2c-0.3-2.2,2.9,1,1.2,1.4l0.7,1.3c2.4-0.3,0.2-3.8-1-4.5
					c-1-0.7-2.8-0.7-2.3,1c1.2,4-3-0.1-1.1-0.6l-0.7-1.4C319,202.9,323.5,209.1,325.5,207.4z"/>
				<path class="xst2" d="M334.8,225.9c-5.7-2.7-5.3,3.2-1.1,4.8l-0.4-1.3c-1.3-0.4-2.4-3.1-0.2-2.7l1.7,4.2
					C339.4,231.9,337.4,226.9,334.8,225.9z M336.3,229.1c-0.1,0.5-0.6,0.5-1.1,0.5l-1.2-2.8C335.1,227,336.4,228,336.3,229.1z"/>
				<path class="xst2" d="M349.8,256.7c0.5,0.5,1.5,0.5,1.2-0.4C350.4,254.9,348.3,255.2,349.8,256.7z"/>
				<polygon class="xst2" points="319.8,192.1 321.1,192.3 319.8,189 322.1,189.3 323.6,193 324.9,193.2 322.8,188 314.2,186.8 
					314.8,188.3 318.5,188.8 				"/>
				<path class="xst2" d="M324.1,198.7c1.6-1.5-1-4.4-2.6-4.9l0.3,1.3c0.8,0.1,2.4,2.4,0.7,2.2c-1.3-0.8-1.5-3.2-3.1-3.8
					c-3.4-1.6-2.5,2.5-0.4,3.4l0,0l-0.9-0.1l0.6,1.4C319.5,198.2,323.5,199,324.1,198.7z M320.6,197c-1.3,0.1-3.3-3.3-0.9-2.3
					c0.8,0.6,1,1.7,1.7,2.4L320.6,197z"/>
				<path class="xst2" d="M332.2,223.1c1,1.2,4.1,2.8,4.8,0.7c0.2-0.9-1.2-3.6-1.5-4.5l-8.6-1.2l0.6,1.5l3.2,0.4l0.6,1.5l-2.5,1.2
					l0.7,1.6l2.7-1.3C332.2,223,332.2,223,332.2,223.1z M334.8,220.5c0.7,1.5,1.5,3.6-1.1,2.4c-1-0.5-1.4-1.9-1.8-2.8L334.8,220.5z"
					/>
				<polygon class="xst2" points="348.1,255.2 341.6,254.3 342.2,255.8 348.7,256.7 				"/>
				<path class="xst2" d="M348.1,259.5c0.6,0.3,1.6,1.4,1.1,2c-0.4,0.5-4.2-0.4-4.8-0.4l0.6,1.4c0.9,0,4.6,0.9,5.3,0.5
					c1.5-0.9-0.4-3.2-1.5-3.6l0-0.1l1.1,0.2l-0.6-1.4l-6.5-0.9l0.6,1.4C344.1,258.8,347.5,259.1,348.1,259.5z"/>
				<path class="xst2" d="M326.6,212.8c-1.3-0.4-2.4-3.1-0.2-2.7l1.7,4.2c5.8,1,1.4-5.7-1.9-5.6c-4.4-0.7-1.7,4.9,0.8,5.4
					L326.6,212.8z M328.2,210.6c1.1,0.4,2.4,2.8,0.4,2.6l-1.2-2.8C327.6,210.3,327.9,210.4,328.2,210.6z"/>
				<path class="xst2" d="M353.7,269l-1.1-0.1l0-0.1c2.1-1.7-2-4.5-3.9-4.5c-3.5-0.7-2.5,3-0.4,4l0,0.1c-0.7-0.1-1.9-0.1-2.4-0.7
					c-0.6-0.5-1.4-1.9-0.5-2.4l-0.9-1.3c-2.2,0.9,0.2,4.3,1.5,5.1c0.9,0.8,6.9,1.2,8.1,1.5L353.7,269z M352,268.1
					c-1.2,1.3-4.5-0.3-4.2-2.1C349,264.8,352.4,266.4,352,268.1z"/>
				<path class="xst2" d="M342.3,253c-0.3-0.4-0.3-1,0.4-0.8c0,0,3.4,0.5,3.4,0.5l0.5,1.2l1.2,0.2l-0.5-1.2l1.6,0.2l-0.6-1.4
					l-1.6-0.2l-0.3-0.9l-1.2-0.2l0.3,0.9c-1.9-0.1-6.7-1.9-4.1,2l1.1-0.1C342.3,253.1,342.3,253.1,342.3,253z"/>
				<path class="xst2" d="M343.2,247.6c0.7,0.4,1.2,1.1,1.3,1.9l1.4,0.2c-0.2-1-1-1.8-1.9-2.2l0-0.1l1.1,0.1l-0.6-1.4l-6.5-0.9
					l0.6,1.4C339.2,247,342.7,247.2,343.2,247.6z"/>
				<path class="xst2" d="M338,237.8c3.6,0.7,2.8-3,0.5-3.9l0-0.1l1.1,0.1l-0.6-1.4l-8.9-1.2l0.6,1.4l3.5,0.5l0,0.1
					C332,235.1,336.1,237.8,338,237.8z M334.7,234.7c-0.6-2.6,5-0.6,4.2,1.3C337.9,237.1,335.3,236,334.7,234.7z"/>
				<path class="xst2" d="M340.7,244.6c5.4,0.4,0.6-6-2.4-5.8C333,238.4,337.7,244.8,340.7,244.6z M337.4,241.4
					c-0.7-2.6,5.1-0.6,4.3,1.4C340.6,243.9,338,242.8,337.4,241.4z"/>
			</g>
		</g>
	</g>
	
		<linearGradient id="SVGID_00000139256852669699532890000011679490973733164936_" gradientUnits="userSpaceOnUse" x1="-316.1514" y1="954.0962" x2="-32.8424" y2="779.3328" gradientTransform="matrix(0.3766 0.9264 0.9905 0.1372 -535.2952 207.8658)">
		<stop  offset="0" style="stop-color:#445163"/>
		<stop  offset="1" style="stop-color:#445063"/>
	</linearGradient>
	<path style="fill:none;stroke:url(#SVGID_00000139256852669699532890000011679490973733164936_);" d="M297.9,60.5l93.2,229.2
		c4.1,10-1.3,16.9-12,15.4l-134.3-18.6c-10.7-1.5-22.6-10.8-26.7-20.7L125,36.6c-4.1-10,1.3-16.9,12-15.4l134.3,18.6
		C281.9,41.3,293.9,50.6,297.9,60.5z"/>
</g>
</svg>
