<svg xmlns="http://www.w3.org/2000/svg" xmlns:xlink="http://www.w3.org/1999/xlink" xml:space="preserve" width="417" height="404" viewBox="0 0 417 404">
  <defs>
    <path id="a" d="m169.3 162.1 214.3 123.7c9.6 5.5 9.6 14.5 0 20l-117.4 67.8c-9.6 5.5-25.1 5.5-34.6 0L17.3 249.8c-9.6-5.5-9.6-14.5 0-20L134.7 162c9.6-5.5 25.1-5.5 34.6.1z"/>
  </defs>
  <g>
    <linearGradient id="c" x1="-25.157" x2="262.244" y1="567.0508" y2="567.0508" gradientTransform="matrix(0.866 0.5 0.866 -0.5 -393.2898 492.0302)" gradientUnits="userSpaceOnUse">
      <stop offset="0" stop-color="#475467"/>
      <stop offset="1" stop-color="#667085"/>
    </linearGradient>
    <path fill="url(#c)" d="m169.3 162.1 214.3 123.7c9.6 5.5 9.6 14.5 0 20l-117.4 67.8c-9.6 5.5-25.1 5.5-34.6 0L17.3 249.8c-9.6-5.5-9.6-14.5 0-20L134.7 162c9.6-5.5 25.1-5.5 34.6.1z"/>
    <path fill="#fff" d="m93.8 214.4-3.2-1.8 9.4-5.5 3.3 1.9c7 4.7-6 8.7-9.5 5.4zm0-1.7c1.6 1 3.5 2 5.5 1.5 3.9-1.2 5.6-3.2 1-5.2l-6.5 3.7zm6.2 5.3 9.4-5.5 6.1 3.5-1.4.8-4.4-2.6-2.6 1.5 4.1 2.4-1.4.8-4.1-2.4-2.6 1.5 4.5 2.6-1.4.8-6.2-3.4zm11.1 6.4-3.2-1.8 9.4-5.5 3.3 1.9c7 4.7-6 8.6-9.5 5.4zm0-1.7c1.6 1 3.5 2 5.5 1.5 3.9-1.2 5.6-3.2 1-5.2l-6.5 3.7zm17.4.9L119 229l-1.7-1 9.4-5.5 1.8 1.1zm6.7 7.5-1.7-1c1-.7.5-1.9-.5-2.3-1.8-1-4.1-.7-6 .4-4.3 2.2.6 5 3.3 3.7l1.7 1c-2.8 1.2-7.3.7-8.9-2-.9-3.9 5.6-5.4 8.6-4.9 2.6.1 6.7 2.8 3.5 5.1zm-3.6 5.2-1.8-1.1 12.8-3.5 2.1 1.2-6.1 7.4-1.8-1.1 5-5.8h-.1l-10.1 2.9zm3.8-2.1 5 2.9-1.4.8-5-2.9 1.4-.8zm10.9 1.3 1.4-.8 7.5 4.4-1.4.8-2.9-1.7-8 4.6-1.7-1 8-4.6-2.9-1.7zm1 9.8 9.4-5.5 6.1 3.5-1.4.8-4.4-2.6-2.6 1.5 4.1 2.4-1.4.8-4.1-2.2-2.6 1.5 4.5 2.6-1.4.8-6.2-3.6zm11.1 6.4-3.2-1.8 9.4-5.5 3.3 1.9c6.9 4.6-6.1 8.6-9.5 5.4zm-.1-1.7c1.6 1 3.5 2 5.5 1.5 3.9-1.2 5.6-3.2 1-5.2l-6.5 3.7zm-86-22.3.8.4c-1.9.9-5 3.6-7.3 2.9-6.4-1.9 0-4.2 2.4-5.7l.8.4c-1.4 1.1-8 3.2-2.9 4.7 1.6.6 4.8-2 6.2-2.7zm1.3 1.6.7-.4 4.7 2.7-.7.4-2-1.1-5.6 3.2-.8-.4 5.6-3.2-1.9-1.2zm7.3 3.4-6.3 3.6-.8-.4 6.3-3.6.8.4zm-4.8 4.5 6.3-3.6.8.4-5.6 3.2 2.9 1.7-.7.4-3.7-2.1zm12-.3-6.3 3.6-.8-.5 6.3-3.6.8.5zm-5 4.3.6-.3 8.5-1-3.4-2 .7-.4 4.3 2.5-.6.3-8.5 1 3.4 2-.7.4-4.3-2.5zm5.9 3.4-.8-.5 8.6-2.3.8.5-4 5-.8-.5 3.4-4.1-7.2 1.9zm2.7-1.2 3.2 1.9-.7.4-3.2-1.9.7-.4zm7.4.6.7-.4 4.7 2.7-.7.4-2-1.1-5.6 3.2-.8-.4 5.6-3.2-1.9-1.2zm7.3 3.5-6.3 3.6-.8-.4 6.3-3.6.8.4zm3.7 5.7c-1.8 1-4.2 1.3-6 .3-2.9-1.6.5-4 2.5-4.3 2.8-.8 7.6 1.7 3.5 4zm-.7-.4c3.1-1.7-.3-3.7-2.4-3-1.5.2-4.3 2-2.1 3.3 1.3.8 3.1.5 4.5-.3zm10.2 2.2-6.3 3.6-.7-.4 1.5-4.8h-.1l-4.9 2.9-.8-.4 6.3-3.6.7.4-1.5 4.9h.1l5-2.9.7.3zm-2.4 6 6.3-3.6c1.1.7 4.9 2.2 2.3 3.6-1.9 1.2-4.1-.1-5.8-1.1l.7-.4c.6.3 2 1.3 2.7 1.4.8.2 2.5-.2 2.2-1.3-.2-.4-1.6-1.1-2-1.3l-5.6 3.2-.8-.5zm5.8 0-1.3 2.5-.9-.5 1.3-2.5.9.5zm0 3.3-.8-.5 8.6-2.3.8.5-4 5-.8-.5 3.4-4.1h-.1l-7.1 1.9zm2.8-1.2 3.2 1.9-.7.4-3.2-1.9.7-.4zm7.4.6.7-.4 4.7 2.7-.7.4-2-1.1-5.6 3.2-.8-.4 5.6-3.2-1.9-1.2zm7.3 3.4-6.3 3.6-.8-.4 6.3-3.6.8.4zm3.7 5.8c-2.1 1.2-5.7 1.5-7.1-.8-.4-2.5 3.7-3.6 5.7-3.3 2.6.2 4.3 2.6 1.4 4.1zm-.8-.4c2.2-1.1 1.2-2.9-.8-3.1-1.4-.2-3.5.5-4.3 1.7-.8 2.6 3.7 2.5 5.1 1.4zM42 242.5l7.9-4.5.5.3-7.9 4.5-.5-.3zm7.2-2.2c1.7-1.9-5-2.7-2.7-.3.4.4.9.8 1.1 1.4.1 3-8 .9-5.2-1.5l.8.5c-1.9 1.9 5.4 2.9 2.9.4-.4-.4-1.1-1.1-1.1-1.6.4-2.5 7.5-.7 5 1.6l-.8-.5zm-.8 5c-2.8-1.6.7-3.3 2.4-2.5-1-2 2.9-2.1 4-1.2 2.3 1.3-.6 3-2.2 2.3 1.5 2.2-3 2.5-4.2 1.4zm.7-.4c.8.4 1.7.6 2.5.2 1.2-.7-.2-1.7-1-1.8-1.2-.4-3.3.7-1.5 1.6zm3-1.7c.9.8 3.9-.1 2.1-1.2-.9-.8-3.8.1-2.1 1.2zm1.7 5.2c-3.5-2.5 6.4-6.1 7.3-2.8-.5 2.6-5.1 4.1-7.3 2.8zm.7-.4c1.2 1.1 7.1-1.3 5.1-3-1.2-1-7.2 1.4-5.1 3zm4.7 3.6c-3.5-2.5 6.4-6.1 7.3-2.8-.4 2.5-5.1 4-7.3 2.8zm.7-.4c1.2 1.1 7.1-1.3 5.1-3-1.1-1.1-7.1 1.3-5.1 3zm2.9 2.3 6.3-3.6.8.4-3.1 1.8h.1l6-.2 1 .6-5.5.1-.8 3.5-.9-.5.7-3-1.7.1-2 1.2-.9-.4zM223 347l7.9-4.5.5.3-7.9 4.5-.5-.3zm7.2-2.2c1.7-1.9-5-2.7-2.7-.3.4.4.9.8 1.1 1.4.1 3-8 .9-5.2-1.5l.8.5c-1.9 1.9 5.4 2.9 2.9.4-.4-.4-1.1-1.1-1.1-1.6.4-2.5 7.5-.7 5 1.6l-.8-.5zm5.8 1.5-6.3 3.6-.8-.4 5.5-3.2-2.6-.3.8-.4 2.6.3.8.4zm-4.4 4.8c-.8-.6.7-1 1.1-.6.8.5-.6.9-1.1.6zm3.7 2.1c-2.8-1.9 2.3-4 4-4.1 1.5-.4 4.7.9 2.9 2.5l-.8-.4c1.3-2.1-3.2-1.7-4.2-.8h.1c6.3.1 1.8 5.1-2 2.8zm.7-.4c.8.5 2 .4 2.8 0 1.5-.9-.2-2.1-1.3-1.9-1.1-.1-3 1-1.5 1.9zm9.1-1.3.9.5-3.1 4.3h.1l7.4-1.8.9.5-6.3 3.6-.7-.4 4.8-2.8h-.1l-6.8 1.6-.7-.4 2.8-3.9h-.1l-4.8 2.8-.7-.4 6.4-3.6zm6.9-12.6c-.9-.5-1.3-1.5-.3-2.1l.7.4c-.9.7.3 1.5 1.1 1.6 2.6.4 3.6-2.1.5-2.4l-.6-.5 3.5-1.6 3.3 1.9-.7.4-2.6-1.5-2.1.9c5.4 1.1 0 4.8-2.8 2.9zm5.4 3.1c-3.5-2.5 6.4-6.1 7.3-2.8-.5 2.5-5.1 4-7.3 2.8zm.7-.4c1.2 1.1 7.1-1.3 5.1-3-1.2-1-7.2 1.3-5.1 3zm7.1 3.4c1-1.1 4.8-.3 2.8 1.2-1 1.1-4.8.3-2.8-1.2zm1 .2c-1.8.9.3 1.5 1.2.7 1.1-.7-.7-1.2-1.2-.7zm-.5-4.1c.8-.8 3.6-.8 3.3.8-.3.5-1 .8-1.6.9-1.1.4-3.3-.7-1.7-1.7zm.9.2c-1.8.9.3 1.5 1.2.7 1.2-.7-.6-1.2-1.2-.7zm-5.5 2.7 10.6-1.1.7.4-10.6 1.1-.7-.4z"/>
    <path fill="#fff" fill-opacity=".2" d="m57.4 233.2 201.8 116.5c1.2.7 1.2 1.8 0 2.5s-3.1.7-4.4 0L53 235.7c-1.2-.7-1.2-1.8 0-2.5s3.2-.7 4.4 0z"/>
    <path fill="#fff" d="m57.2 233.3 80.5 46.5c1.2.7 1.2 1.8 0 2.5s-3.1.7-4.3 0l-80.5-46.5c-1.2-.7-1.2-1.8 0-2.5s3.1-.7 4.3 0z"/>
  </g>
  <linearGradient id="d" x1="-21.5928" x2="261.7161" y1="653.1876" y2="478.4242" gradientTransform="matrix(0.866 0.5 0.866 -0.5 -392.8568 492.2802)" gradientUnits="userSpaceOnUse">
    <stop offset="0" stop-color="#657084"/>
    <stop offset="1" stop-color="#646e81"/>
  </linearGradient>
  <path fill="none" stroke="url(#d)" d="M168.9 162.3 383.2 286c9.3 5.4 9.3 14.1 0 19.5l-117.4 67.8c-9.3 5.4-24.4 5.4-33.8 0L17.8 249.6c-9.3-5.4-9.3-14.1 0-19.5l117.4-67.8c9.3-5.4 24.4-5.4 33.7 0z"/>
  <defs>
    <path id="e" d="m226.8 97.3 158.7 189.8c7.1 8.5 4 16.9-6.9 18.8l-133.5 23.3c-10.9 1.9-25.4-3.4-32.5-11.9L53.8 127.5c-7.1-8.5-4-16.9 6.9-18.8l133.5-23.3c10.9-1.9 25.5 3.5 32.6 11.9z"/>
  </defs>
  <clipPath id="f">
    <use xlink:href="#e" overflow="visible"/>
  </clipPath>
  <g clip-path="url(#f)">
    <linearGradient id="g" x1="-101.1786" x2="54.9989" y1="612.8248" y2="868.5201" gradientTransform="matrix(0.6416 0.7671 0.9851 -0.172 -495.1585 352.4509)" gradientUnits="userSpaceOnUse">
      <stop offset="0" stop-color="#42307d"/>
      <stop offset="1" stop-color="#7f56d9"/>
    </linearGradient>
    <path fill="url(#g)" d="m226.8 97.3 158.7 189.8c7.1 8.5 4 16.9-6.9 18.8l-133.5 23.3c-10.9 1.9-25.4-3.4-32.5-11.9L53.8 127.5c-7.1-8.5-4-16.9 6.9-18.8l133.5-23.3c10.9-1.9 25.5 3.5 32.6 11.9z"/>
    <path fill="#fff" d="M159.4 139c6.1-1.1 1.9-5.2-.4-7.8l-10.7 1.9c2.5 3.6 6.3 7 11.1 5.9zm-5.5-2.1c-1-.5-1.9-1.8-2.7-2.6l7.4-1.3c.5.7 1.8 2 1.9 2.8-.4 2.5-4.9 2.1-6.6 1.1zm-8.6-9.6 3-.5 3 3.7 1.6-.3-3-3.7 2.9-.5 3.3 3.9 1.6-.2-4.5-5.5-10.8 1.9 4.6 5.5 1.6-.3zm1.3-3.6c6.1-1.1 1.9-5.2-.4-7.8l-10.7 1.9c2.5 3.6 6.3 7 11.1 5.9zm-5.5-2.1c-1-.5-1.9-1.8-2.7-2.6l7.4-1.3c.5.7 1.8 2 1.9 2.8-.4 2.4-4.9 2.1-6.6 1.1zm24.9 17.9-10.8 1.9 1.3 1.5 10.8-1.8zm1.4 11.6-1.3-1.5c-3 .3-6.6-4-1.8-4.6 2.1-.4 4.4.1 5.7 1.7.8.8.8 2-.4 2.3l1.3 1.5c3.7-1.1.8-5-1.5-6-2.6-1.5-9.2-2.2-9.7 1.7.6 3.1 4.7 5.1 7.7 4.9zm23.7 20.7 1.6-.3-4.5-5.4-10.8 1.8 4.6 5.5 1.6-.3-3.3-3.9 3-.6 3 3.7 1.6-.3-3-3.6 2.9-.5zm-5.6-6.7 1.6-.3-5.6-6.7-1.6.3 2.1 2.6-9.1 1.6 1.3 1.5 9.1-1.6zm-7.8-11.6-13.2-1.1 1.4 1.6 3.2.2 2.6 3.1-2.1 1.2 1.4 1.6 8.3-4.8-1.6-1.8zm-4.8 3.3-1.9-2.3 5.3.4.1.1-3.5 1.8zM113 125.7l.6.7c-2.1.2-5.9 1.6-7.8.2-5.3-4 1.4-3.9 4.2-4.5l.6.7c-1.7.6-8.6.3-4.3 3.4 1.3 1 5.2-.4 6.7-.5zm.7 1.8.8-.1 3.5 4.2-.8.1-1.5-1.8-6.4 1.1-.6-.7 6.4-1.1-1.4-1.7zm5.7 5.8-7.2 1.3-.6-.7 7.2-1.3.6.7zm-6 2.6 7.2-1.3.6.7-6.4 1.1 2.2 2.6-.8.1-2.8-3.2zm11.3 3.8-7.2 1.3-.6-.7 7.2-1.3.6.7zm-6.2 2.4.6-.1 8.3 2-2.5-3 .8-.1 3.2 3.8-.6.1-8.3-2 2.5 3-.8.1-3.2-3.8zm4.4 5.2-.6-.7 8.9.8.6.7-5.5 3.3-.6-.7 4.6-2.7-7.4-.7zm3-.2 2.4 2.9-.8.1-2.4-2.9.8-.1zm6.7 3.1.8-.1 3.5 4.2-.8.1-1.5-1.8-6.4 1.1-.6-.7 6.4-1.1-1.4-1.7zm5.7 5.7-7.2 1.3-.6-.7 7.2-1.3.6.7zm1.5 6.7c-2 .4-4.4-.2-5.7-1.8-2.2-2.5 1.9-3.6 3.8-3.1 2.9.1 6.5 4.2 1.9 4.9zm-.5-.6c2.4-.2 2.1-2.3.3-3.2-1.3-.7-3.5-.8-4.7.1-1.6 2.1 2.6 3.6 4.4 3.1zm8.8 5.6-7.2 1.3-.5-.7 3.1-4v-.1l-5.6 1-.6-.7 7.2-1.3.5.7-3.1 4v.1l5.6-1 .6.7zm-4.3 4.7 7.2-1.3c.8 1.1 3.8 3.7 1 4.2-2.2.5-3.8-1.5-5-3l.8-.1c.5.5 1.4 1.9 2 2.2.7.5 2.5.6 2.5-.4-.1-.5-1.1-1.5-1.4-1.9l-6.4 1.1-.7-.8zm5.4 2.1-2.1 1.9-.7-.8 2.1-1.9.7.8zm-1.1 3-.6-.7 8.9.8.6.7-5.5 3.3-.6-.7 4.6-2.7-7.4-.7zm3-.2 2.4 2.9-.8.1-2.4-2.9.8-.1zm6.8 3.1.8-.1 3.5 4.2-.8.1-1.5-1.8-6.4 1.1-.6-.7 6.4-1.1-1.4-1.7zm5.7 5.8-7.2 1.3-.6-.7 7.2-1.3.6.7zm1.5 6.7c-3.1 1.2-9.9-3.6-4.1-4.9 3-1.2 9.8 3.5 4.1 4.9zm-.6-.7c4.5-1-.6-4.6-3-3.6-4.5 1 .6 4.6 3 3.6zm-84.9-63 9-1.6.4.4-9 1.6-.4-.4zm7.5.4c2.2-1.2-3.8-4.2-2.4-1.2.2.5.6 1.1.6 1.7-.9 2.9-7.8-1.9-4.4-3.2l.6.7c-2.4 1.2 4.1 4.6 2.6 1.3-.2-.5-.7-1.4-.5-1.9 1.2-2.3 7.3 2 4.1 3.2l-.6-.6zm-2.5 4.5c-2.1-2.5 1.8-2.9 3.1-1.5-.3-2.2 3.5-1 4.2.2 1.8 2-1.6 2.6-2.8 1.4.5 2.6-3.7 1.3-4.5-.1zm.7-.1c.6.7 1.4 1.1 2.3 1 1.4-.2.4-1.7-.4-2.1-.9-.8-3.2-.4-1.9 1.1zm3.4-.6c.5.7 2.6 1.4 2.7.1 0-1.5-4-2.2-2.7-.1zm-.1 5.5c-2.4-3.6 8.1-3.6 7.8-.2-1.3 2.3-6.2 2.1-7.8.2zm.7-.2c.7 1.4 7.1 1.2 5.8-1-.7-1.4-7.1-1.2-5.8 1zm3.3 5c-2.4-3.6 8.1-3.6 7.8-.2-1.3 2.3-6.2 2.1-7.8.2zm.7-.2c.7 1.4 7.1 1.2 5.8-1-.6-1.4-7.1-1.2-5.8 1zm1.9 3.2 7.2-1.3.6.7-3.6.6.1.1 5.7 1.9.7.9-5.2-1.8-2 3-.7-.8 1.7-2.5-1.6-.5-2.3.4-.6-.7zm118.5 142.8 9-1.6.4.4-9 1.6-.4-.4zm7.5.4c2.2-1.2-3.8-4.2-2.4-1.2.2.5.6 1.1.6 1.7-.9 2.9-7.8-1.9-4.4-3.2l.6.7c-2.4 1.2 4.1 4.6 2.6 1.3-.2-.5-.7-1.4-.5-1.9 1.2-2.3 7.3 2 4.1 3.2l-.6-.6zm4.9 3.4-7.2 1.3-.6-.7 6.3-1.1-2.3-1.2.9-.2 2.4 1.2.5.7zm-5.8 3c-.5-.8 1-.7 1.3-.2.5.8-1 .7-1.3.2zm2.7 3.3c-1.9-2.8 3.5-2.9 5.2-2.5 1.5.2 4.1 2.5 1.8 3.4l-.6-.7c1.9-1.5-2.4-2.7-3.7-2.2 6 2.3.1 5.4-2.7 2zm.8-.1c.6.7 1.7 1.1 2.6.9 1.8-.3.5-2-.6-2.3-.9-.4-3.1 0-2 1.4zm9 1.9.7.8-4.4 2.9.1.1 7.5.9.7.8-7.2 1.3-.5-.6 5.4-1v-.1l-6.9-.8-.5-.6 4-2.7v-.1l-5.4 1-.5-.6 7-1.3zm10.9-9.5c-.7-.7-.7-1.9.4-2.1l.5.7c-1.1.3-.2 1.5.5 1.8 2.4 1.2 4.1-.7 1.3-2.1l-.4-.6 3.8-.3 2.4 2.9-.8.1-1.9-2.3-2.3.2c4.8 2.9-1.6 4.5-3.5 1.7zm3.9 4.7c-2.4-3.6 8.1-3.6 7.8-.2-1.2 2.4-6.1 2.2-7.8.2zm.8-.1c.7 1.4 7.1 1.2 5.8-1-.7-1.4-7.1-1.3-5.8 1zm5.5 5.7c1-.4 3.7.5 2.8 1.9-.5.3-1.2.4-1.8.3-1.1 0-2.8-1.9-1-2.2zm.9.5c-2 .2-.2 1.5.9 1.1 1.3-.3-.2-1.4-.9-1.1zm.9-4c1.3-.7 4.6 1.4 2.2 2.1-1.3.7-4.6-1.4-2.2-2.1zm.9.5c-2 .2-.2 1.5.9 1.1 1.3-.3-.2-1.4-.9-1.1zm-6.2.7 10.4 2.6.5.6-10.4-2.6-.5-.6z"/>
    <path fill="#fff" fill-opacity=".2" d="m97.2 125.7 149.5 178.7c.9 1.1.5 2.1-.9 2.4-2.7.3-4.4-1.8-4.1-1.5-3-3.6-149.4-178.6-149.5-178.7-.8-1-.4-2 .9-2.3 1.3-.3 3.2.3 4.1 1.4z"/>
    <path fill="#fff" d="m97 125.7 59.7 71.3c.9 1.1.5 2.1-.9 2.3-1.5.5-4.3-1.4-4.1-1.5-1.3-1.5-59.6-71.2-59.7-71.4-.8-1-.4-2 .9-2.3 1.3-.1 3.2.6 4.1 1.6z"/>
  </g>
  <linearGradient id="h" x1="-163.2596" x2="120.0494" y1="826.7552" y2="651.9918" gradientTransform="matrix(0.6416 0.7671 0.9851 -0.172 -494.7575 352.9714)" gradientUnits="userSpaceOnUse">
    <stop offset="0" stop-color="#6d4bbc"/>
    <stop offset="1" stop-color="#6d4bbc" stop-opacity=".2"/>
  </linearGradient>
  <path fill="none" stroke="url(#h)" d="M226.3 97.4 385 287.2c6.9 8.3 3.9 16.5-6.7 18.3l-133.5 23.3c-10.6 1.9-24.8-3.3-31.7-11.6L54.3 127.5c-6.9-8.3-3.9-16.5 6.7-18.3l133.5-23.3c10.7-1.9 24.9 3.3 31.8 11.5z"/>
  <defs>
    <path id="i" d="m298.4 60.6 93.2 229.2c4.2 10.2-1.3 17.3-12.3 15.8L245 287c-10.9-1.5-23.2-11-27.3-21.3L124.5 36.5c-4.2-10.2 1.3-17.3 12.3-15.8l134.3 18.6c10.9 1.5 23.2 11.1 27.3 21.3z"/>
  </defs>
  <clipPath id="j">
    <use xlink:href="#i" overflow="visible"/>
  </clipPath>
  <g clip-path="url(#j)">
    <linearGradient id="k" x1="-254.0667" x2="-97.8892" y1="740.1719" y2="995.8672" gradientTransform="matrix(0.3766 0.9264 0.9905 0.1372 -535.4952 207.1327)" gradientUnits="userSpaceOnUse">
      <stop offset="0" stop-color="#101828"/>
      <stop offset="1" stop-color="#475467"/>
    </linearGradient>
    <path fill="url(#k)" d="m298.4 60.6 93.2 229.2c4.2 10.2-1.3 17.3-12.3 15.8L245 287c-10.9-1.5-23.2-11-27.3-21.3L124.5 36.5c-4.2-10.2 1.3-17.3 12.3-15.8l134.3 18.6c10.9 1.5 23.2 11.1 27.3 21.3z"/>
    <ellipse cx="259" cy="74.1" fill="#797979" fill-opacity=".3" rx="16.9" ry="30.5" transform="matrix(0.4745 -0.8802 0.8802 0.4745 70.9104 266.9202)"/>
    <path fill="none" stroke="#fff" stroke-linecap="round" stroke-linejoin="round" d="m269.2 84.3-10.4-10.1m.1 0 2.9-8.2m-2.9 8.2-13.4-1.9m11.6 10.8 11.4 1.6c.9.1 1.3.3 1.6-.6l2.6-7.2c.3-.8-.1-1-.7-1.7l-9-8.8c-.8-.8-1.2-1-2.3-1.2l-11.4-1.6c-.9-.1-1.3-.3-1.6.6l-2.6 7.2c-.2.5-.2.6.1 1-.2 0 9.5 9.2 9.6 9.4.8 1 1.1 1.1 2.3 1.3z"/>
    <path fill="#fff" d="M223.9 93c.5.3 1.1.5 1.6.6l-.7-1.8c-2.9-.7-5.1-5.8-.3-5 2.1.3 4.1 1.4 4.9 3.3.5 1 .2 2.2-1.1 2.1l.8 1.8c5.3-.4.8-7.1-2.1-8.1-8.2-3.8-9.8 3.2-3.1 7.1zm-12.2-28.7 3 .4 1.8 4.4 1.6.2-1.8-4.4 2.9.4 2 4.8 1.6.2-2.7-6.6-10.8-1.5 2.7 6.6 1.7.2zm2.3-3.1c6.1.8 3.4-4.4 2-7.6l-10.8-1.5c1.4 4.3 4 8.7 8.8 9.1zm-5.7-5.5-.6-1.5 7.4 1c.3.8 1.1 2.5.9 3.2-1.5 2.8-7.1-.1-7.7-2.7zm13.3 24c6.1.8 3.4-4.4 2-7.6l-10.8-1.5c1.3 4.3 3.9 8.7 8.8 9.1zm-5.8-5.5-.6-1.5 7.4 1c.3.8 1.1 2.5.9 3.2-1.4 2.8-7.1-.1-7.7-2.7zm11.9 8-10.8-1.5.7 1.8 10.8 1.5zm6.8 16.9L222.2 94l.8 2 3 1.2 1.5 3.8-2.3.5.8 2 9.4-2.1-.9-2.3zm-5.5 1.7-1.1-2.8 4.9 2v.1l-3.8.7zm24.6 66.6 3 .4 1.8 4.4 1.6.2-1.8-4.4 2.9.4 2 4.7 1.6.3-2.7-6.6-10.8-1.5 2.7 6.6 1.7.2zm7.1-3.9-9.6-3.8v-.2l7.4-1.4-.8-2-9.4 2 .9 2.3 12.3 5.1zm-8.6-8.7c5 .9 4.8-3.7 2-6.3-2-2.2-8.1-5-9.8-1.4-.4 4 4 7.3 7.8 7.7zm-5.7-5.2c-1.3-3.1 3.2-2.5 4.9-1.6 1.7.7 4.4 3.7 2 4.9-2.5.6-5.9-.8-6.9-3.3zM267 179l-1.5-3.8-10.8-1.5.7 1.8 4 .5.8 1.9-3.2 1.4.8 2 3.4-1.6c1.5 2.7 7.8 4 5.8-.7zm-1.9 1.2c-2.3.7-3.6-2-4.1-3.8l3.6.5c.2.8 1.5 2.6.5 3.3zm-26.7-67.7 1.6.2-3.2-8.1-1.7-.2 1.3 3.1-9.2-1.3.8 1.9 9.1 1.2zm-6.1 2.3 2.9.4 1.8 4.4 1.6.2-1.8-4.4 3 .4 1.9 4.8 1.6.2-2.6-6.6-10.8-1.5 2.7 6.7 1.6.2zm12.5 15.3c2.8-1.3-.1-5.4-.6-7.4l-10.8-1.5c1.5 5.3 5.2 10.3 11.4 8.9zm-5.7-2.3c-1.9-.8-2.8-2.7-3.4-4.6l7.4 1c2.4 4.6-.1 5.1-4 3.6zm6.8 16-.7-1.8c-2.9-.7-5.1-5.8-.3-5 2.1.3 4.1 1.4 4.9 3.3.5 1 .2 2.2-1.1 2.1l.8 1.8c3.9.1 2.3-4.5.4-6.2-2-2.2-8.1-4.9-9.8-1.4-.4 3.3 2.9 6.5 5.8 7.2zm-63-72.6 7.2 4.4.7.1-1.9-4.6-.8-.1 1.5 3.7-7.3-4.5-.6-.1 1.9 4.7.8.1zm5.1-2.3-7.2-1 .3.8 7.2 1zm4.1 10.1-8.2-3.5.3.9 2.3 1 1.1 2.7-1.8.4.3.9 6.2-1.5-.2-.9zm-3.8 1-.9-2.2 3.7 1.5v.1l-2.8.6zm-4.7-20.1.8.1-2.1-5.1-.8-.1.9 2.1-6.4-.9.3.9 6.4.9zm1.3 1.3-7.2-1 .3.9 7.2 1zm-5.1 2.4 6.4.9-.3-.8-7.2-1 1.6 3.9.8.1zm29.7 60 .8.1-2.1-5-.7-.1.8 2.1-6.4-.9.3.8 6.5.9zm-27.7-69.9-.3-.8c-1.5-.4-5.6-.2-6.6-1.7-3.1-4.2 3.4-1.9 5.2-1.9l-.3-.8c-2.8-.3-9.2-2.4-5.4 3 1.3 1.9 5.4 1.8 7.4 2.2zm12.9 33.5.8.1-2.1-5.1-.7-.1.8 2.2-6.4-.9.3.8 6.4.9zm7 15.4-5.7-.8 4.2-2.9-.3-.8-7.2-1 .3.8 5.6.8h.1l-4.2 2.9.3.8 7.2 1zm-.6 8.1c.8 1 3.3 2.1 3.8.5.2-.7-.9-2.8-1.2-3.5l-7.2-1 .3.8 2.8.4c0 .1.6 1.6.7 1.6l-2.3 1 .4.9 2.4-1.1c.1.2.2.3.3.4zm2.2-2.3c.7 1.5 1.6 3.6-1 2.5-1-.4-1.4-1.9-1.8-2.9l2.8.4zm3.6 7.1-8.2-3.5.3.9 2.3 1 1.1 2.7-1.8.4.3.9 6.2-1.5-.2-.9zm-3.7.9-.9-2.2 3.7 1.5v.1l-2.8.6zm7.6 8.6-7.2-1 .3.8 7.2 1zM196 88.6l-7.2-1 .3.8 7.2 1zm17 41.6c-.8-1.9-2.8-3.2-4.9-3.5-4.6-.7-2.4 4.3.3 5.3 1.7 1 5.9 1.2 4.6-1.8zm-.7.9c-1.5 2.2-6.4-.4-6-2.9 1.5-2.2 6.4.4 6 2.9zm-16.6-34.9c4.6.7 2.4-4.3-.3-5.3-1.7-1-5.9-1.3-4.6 1.8.8 1.9 2.8 3.2 4.9 3.5zm-4.1-3.4c-1-2.4 2.4-2 3.7-1.3 1.3.5 3.3 2.8 1.5 3.8-1.8.5-4.5-.6-5.2-2.5zm-43-46.9 9 1.2.2.5-9-1.2-.2-.5zm7 2.7c2.5-.4-2.3-5.2-2-1.9 0 .7.4 1.8-.4 2.2-2.1 1-6.2-4.5-2.8-4.8l.3.8c-2.7.4 2.5 5.6 2.1 2.1-.1-.6-.2-1.6.1-1.9 1.8-1.8 6.4 4.1 3 4.3l-.3-.8zm-3.8 3.5c-1.2-3 2.6-2.2 3.4-.5.4-2.2 3.6.1 3.9 1.5 1 2.5-2.3 2-3.1.5-.2 2.6-3.9 0-4.2-1.5zm.8.1c.2 1.4 3.4 2.7 2.7.4-.3-1.4-3.6-2.8-2.7-.4zm3.4.5c.2 1.2 3.1 2.3 2.4.3-.1-1.2-3-2.3-2.4-.3zm-1.8 5.1c-1.2-4.2 8.8-.9 7.5 2.2-2 1.8-6.6.2-7.5-2.2zm.7.1c.3 1.6 6.4 3.4 5.9.8-.2-1.5-6.4-3.3-5.9-.8zm1.6 5.7c-1.2-4.2 8.8-.9 7.5 2.2-1.9 1.8-6.5.1-7.5-2.2zm.8.1c.7 1.6 3.4 2.2 5.1 2 1.7-.2.6-1.9-.4-2.4s-5.2-1.8-4.7.4zm.8 3.6 7.2 1 .3.8-3.6-.5v.1l4.8 3.5.4 1.1L163 70l-2.8 2.3-.4-1 2.4-1.9-1.4-1-2.3-.3-.4-.8zm69.2 172.2 9 1.2.2.5-9-1.2-.2-.5zm7 2.7c2.5-.4-2.3-5.2-2-1.9.1.6.2 1.2 0 1.8-1.7 2.5-6.9-4.2-3.2-4.4l.3.8c-2.7.4 2.5 5.6 2.1 2.1-.1-.6-.2-1.6.1-1.9 1.8-1.8 6.3 4.1 3 4.3l-.3-.8zm3.6 4.7-7.2-1-.3-.8 6.3.9-1.8-1.8.9.1 1.9 1.8.2.8zm-6.4 1.1c-.3-1 1.2-.4 1.3.2.2.9-1.2.4-1.3-.2zm1.6 4c-1-3.2 4.2-1.7 5.7-.8 1.4.6 3.2 3.6.7 3.8l-.3-.8c2.3-.9-1.4-3.3-2.9-3.2v.1c5 3.8-1.6 5-3.2.9zm.8.1c.4.9 1.3 1.6 2.2 1.7 1.8.3 1.1-1.8.1-2.3-.7-.8-2.9-1-2.3.6zm8 4.6.4 1-5 1.5v.1l6.9 3.1.4 1-7.2-1-.3-.8 5.5.8v-.1l-6.3-2.9-.3-.7 4.6-1.3v-.1l-5.5-.8-.3-.8 7.1 1zm13.2-5.8c-.4-.9-.1-2 1-1.8l.3.8c-1.2 0-.7 1.4-.1 1.9 1.9 1.9 4.1.5 1.9-1.6l-.2-.7 3.7.9 1.4 3.5-.8-.1-1.1-2.8-2.2-.5c3.7 4.1-2.9 3.7-3.9.4zm2.3 5.8c-1.2-4.2 8.8-.9 7.5 2.2-1.9 1.8-6.5.1-7.5-2.2zm.8.1c.3 1.6 6.4 3.4 5.9.8-.3-1.6-6.5-3.4-5.9-.8zm3.5 7.1c1.4-.2 4 2.7 1.4 2.7-1.3.2-3.9-2.8-1.4-2.7zm.7.7c-2-.4-.7 1.4.5 1.3 1.3.1.2-1.4-.5-1.3zm2.1-3.5c1.4-.2 4 2.7 1.4 2.7-1.4.2-3.9-2.7-1.4-2.7zm.6.7c-2-.4-.7 1.4.5 1.3 1.4.2.3-1.3-.5-1.3zm-6-1.2 9.1 5.6.3.8-9.1-5.6-.3-.8z"/>
    <path fill="#fff" fill-opacity=".2" d="m166.4 48 87.7 215.8c.5 1.3-.2 2.2-1.5 2-2.7-.5-3.7-3.1-3.5-2.7-1.8-4.3-87.7-215.7-87.7-215.9-.5-1.2.2-2.1 1.6-1.9 1.3.2 2.8 1.4 3.4 2.7z"/>
    <path fill="#fff" d="m166.1 48 35 86.2c.5 1.3-.2 2.2-1.5 2-1.6 0-3.7-2.7-3.4-2.7-.7-1.8-35-86-35-86.2-.4-1.2.2-2.1 1.6-1.9 1.3.1 2.8 1.3 3.3 2.6z"/>
    <path fill="#fff" fill-opacity=".1" d="m328.5 182.8 38.8 95.4c.8 2-.3 3.5-2.5 3.2l-17.8-2.5c-2.2-.3-4.6-2.2-5.5-4.3l-38.8-95.4c-.8-2 .3-3.5 2.5-3.2l17.8 2.5c2.2.3 4.6 2.2 5.5 4.3z"/>
    <path fill="#fff" d="m328 200.8-8.6-1.2.6 1.4 8.6 1.2zm-2.5 6.6c.4-.4 0-1.6-.1-2.2-.3-2.2 2.9 1 1.2 1.4l.7 1.3c2.4-.3.2-3.8-1-4.5-1-.7-2.8-.7-2.3 1 1.2 4-3-.1-1.1-.6l-.7-1.4c-3.2.5 1.3 6.7 3.3 5zm9.3 18.5c-5.7-2.7-5.3 3.2-1.1 4.8l-.4-1.3c-1.3-.4-2.4-3.1-.2-2.7l1.7 4.2c4.6 1 2.6-4 0-5zm1.5 3.2c-.1.5-.6.5-1.1.5l-1.2-2.8c1.1.2 2.4 1.2 2.3 2.3zm13.5 27.6c.5.5 1.5.5 1.2-.4-.6-1.4-2.7-1.1-1.2.4zm-30-64.6 1.3.2-1.3-3.3 2.3.3 1.5 3.7 1.3.2-2.1-5.2-8.6-1.2.6 1.5 3.7.5zm4.3 6.6c1.6-1.5-1-4.4-2.6-4.9l.3 1.3c.8.1 2.4 2.4.7 2.2-1.3-.8-1.5-3.2-3.1-3.8-3.4-1.6-2.5 2.5-.4 3.4l-.9-.1.6 1.4c.8 0 4.8.8 5.4.5zm-3.5-1.7c-1.3.1-3.3-3.3-.9-2.3.8.6 1 1.7 1.7 2.4l-.8-.1z"/>
    <path fill="#fff" d="M332.2 223.1c1 1.2 4.1 2.8 4.8.7.2-.9-1.2-3.6-1.5-4.5l-8.6-1.2.6 1.5 3.2.4.6 1.5-2.5 1.2.7 1.6 2.7-1.3v.1zm2.6-2.6c.7 1.5 1.5 3.6-1.1 2.4-1-.5-1.4-1.9-1.8-2.8l2.9.4zm13.3 34.7-6.5-.9.6 1.5 6.5.9zm0 4.3c.6.3 1.6 1.4 1.1 2-.4.5-4.2-.4-4.8-.4l.6 1.4c.9 0 4.6.9 5.3.5 1.5-.9-.4-3.2-1.5-3.6v-.1l1.1.2-.6-1.4-6.5-.9.6 1.4c.7.2 4.1.5 4.7.9zm-21.5-46.7c-1.3-.4-2.4-3.1-.2-2.7l1.7 4.2c5.8 1 1.4-5.7-1.9-5.6-4.4-.7-1.7 4.9.8 5.4l-.4-1.3zm1.6-2.2c1.1.4 2.4 2.8.4 2.6l-1.2-2.8c.2-.1.5 0 .8.2zm25.5 58.4-1.1-.1v-.1c2.1-1.7-2-4.5-3.9-4.5-3.5-.7-2.5 3-.4 4v.1c-.7-.1-1.9-.1-2.4-.7-.6-.5-1.4-1.9-.5-2.4l-.9-1.3c-2.2.9.2 4.3 1.5 5.1.9.8 6.9 1.2 8.1 1.5l-.4-1.6zm-1.7-.9c-1.2 1.3-4.5-.3-4.2-2.1 1.2-1.2 4.6.4 4.2 2.1zm-9.7-15.1c-.3-.4-.3-1 .4-.8l3.4.5.5 1.2 1.2.2-.5-1.2 1.6.2-.6-1.4-1.6-.2-.3-.9-1.2-.2.3.9c-1.9-.1-6.7-1.9-4.1 2l1.1-.1c-.2-.1-.2-.1-.2-.2zm.9-5.4c.7.4 1.2 1.1 1.3 1.9l1.4.2c-.2-1-1-1.8-1.9-2.2v-.1l1.1.1-.6-1.4-6.5-.9.6 1.4c.6.4 4.1.6 4.6 1zm-5.2-9.8c3.6.7 2.8-3 .5-3.9v-.1l1.1.1-.6-1.4-8.9-1.2.6 1.4 3.5.5v.1c-2.2 1.8 1.9 4.5 3.8 4.5zm-3.3-3.1c-.6-2.6 5-.6 4.2 1.3-1 1.1-3.6 0-4.2-1.3zm6 9.9c5.4.4.6-6-2.4-5.8-5.3-.4-.6 6 2.4 5.8zm-3.3-3.2c-.7-2.6 5.1-.6 4.3 1.4-1.1 1.1-3.7 0-4.3-1.4z"/>
  </g>
  <linearGradient id="l" x1="-316.1514" x2="-32.8424" y1="954.0962" y2="779.3328" gradientTransform="matrix(0.3766 0.9264 0.9905 0.1372 -535.2952 207.8658)" gradientUnits="userSpaceOnUse">
    <stop offset="0" stop-color="#445163"/>
    <stop offset="1" stop-color="#445063"/>
  </linearGradient>
  <path fill="none" stroke="url(#l)" d="m297.9 60.5 93.2 229.2c4.1 10-1.3 16.9-12 15.4l-134.3-18.6c-10.7-1.5-22.6-10.8-26.7-20.7L125 36.6c-4.1-10 1.3-16.9 12-15.4l134.3 18.6c10.6 1.5 22.6 10.8 26.6 20.7z"/>
</svg>