<?xml version="1.0" encoding="utf-8"?>
<!-- Generator: Adobe Illustrator 27.1.1, SVG Export Plug-In . SVG Version: 6.00 Build 0)  -->
<svg version="1.1" id="Layer_1" xmlns="http://www.w3.org/2000/svg" xmlns:xlink="http://www.w3.org/1999/xlink" x="0px" y="0px"
	 width="407px" height="406px" viewBox="0 0 407 406" style="enable-background:new 0 0 407 406;" xml:space="preserve">
<style type="text/css">
	.fst2{fill:#5D687C;}
	.fst3{fill:none;stroke:#FFFFFF;stroke-width:0.7556;stroke-linecap:round;stroke-linejoin:round;}
	.fst4{fill:#FFFFFF;}
	.fst5{fill:#FFFFFF;fill-opacity:0.2;}
	.fst15{fill:#4E5968;stroke:#354052;stroke-width:1.4836;}
	.fst16{fill:#FFFFFF;fill-opacity:0.1;}
</style>
<g>
	<g>
		<defs>
			<path id="SVGID_1_" d="M108.5,88.6l220-72c7.8-2.5,16.2,1.7,18.7,9.5l40.4,123.4c2.5,7.8-1.7,16.2-9.5,18.7l-220,72
				c-7.8,2.5-16.2-1.7-18.7-9.5L99,107.3C96.4,99.5,100.7,91.2,108.5,88.6z"/>
		</defs>
		<clipPath>
			<use xlink:href="#SVGID_1_"  style="overflow:visible;"/>
		</clipPath>
		<g>
			
				<linearGradient id="SVGID_00000044149657755295307900000018205126132846339004_" gradientUnits="userSpaceOnUse" x1="24.1996" y1="107.1217" x2="285.3116" y2="107.1217" gradientTransform="matrix(0.9504 -0.3111 -0.3111 -0.9504 129.5054 278.3541)">
				<stop  offset="0" style="stop-color:#475467"/>
				<stop  offset="1" style="stop-color:#667085"/>
			</linearGradient>
			<path style="fill:url(#SVGID_00000044149657755295307900000018205126132846339004_);" d="M108.5,88.6l220-72
				c7.8-2.5,16.2,1.7,18.7,9.5l40.4,123.4c2.5,7.8-1.7,16.2-9.5,18.7l-220,72c-7.8,2.5-16.2-1.7-18.7-9.5L99,107.3
				C96.4,99.5,100.7,91.2,108.5,88.6z"/>
			<path class="fst2" d="M135.2,96.3c25.3-7.6,37.4,29.2,12.5,38.1C122.3,141.9,110.3,105.1,135.2,96.3z"/>
			<g>
				<path class="fst3" d="M138.3,105.8l3.1,9.5 M141.5,115.3l7-7.5 M141.5,115.3l-10.1-1.9 M141.5,115.3l3.1,9.5 M151.5,117.3
					c-0.6,0-9.9-2.2-10.2-1.7c-0.2,0-6.5,7-6.8,7.3 M151.8,116.4c-0.3-0.6-2.6-9-3.3-9.1c0.2-0.1-9.3-1.8-9.4-1.9
					c-0.8-0.2-1-0.1-1.6,0.5c0,0-6.1,6.5-6.1,6.5c-0.6,0.6-0.7,0.9-0.4,1.7c0.1,0.3,2.8,8.8,2.9,8.8c0.1,0.6,9.2,1.9,9.8,2.2
					c0.8,0.2,1,0.1,1.6-0.5c0,0,6.1-6.5,6.1-6.5C152,117.5,152.1,117.2,151.8,116.4z"/>
			</g>
			<path class="fst4" d="M350.9,159.4l-2.1-6.4l0.4-0.1l2.1,6.4L350.9,159.4z M350.8,154.5c-1.2-1.8-3.9,1.5-1,1.3
				c0.5,0,1.1-0.1,1.6,0.1c2.9,1.4-1.7,4.8-2.8,2.1l0.6-0.2c1.2,2,4.2-1.6,1.1-1.4c-0.5,0-1.4,0.1-1.8-0.2c-2.4-1.6,1.9-4.3,2.8-1.9
				L350.8,154.5z M353.8,152.1l1.7,5.1l-0.6,0.2l-1.5-4.5l0,0l-1,1.2l-0.2-0.6l1-1.3L353.8,152.1z M357.1,156.7
				c-0.6,0.2-0.9-0.7-0.3-0.9C357.4,155.6,357.7,156.5,357.1,156.7z M360.1,155.7c-2.1,0.7-3.1-2.5-2.8-4.1c0.3-1.5,2.5-1.8,3.2-0.4
				l-0.6,0.2c-1.2-1.5-2.7,0.5-1.9,1.9l0,0C359.5,150,363.4,154.5,360.1,155.7z M359.9,155.2c1.4-0.4,0.7-2.8-0.7-2.3
				C357.7,153.3,358.5,155.7,359.9,155.2z M361.2,149.6l0.7-0.2l3.1,3.7l0.1,0l0.3-4.8l0.7-0.2l1.7,5.1l-0.6,0.2l-1.3-3.9l-0.1,0
				l-0.3,4.4l-0.6,0.2l-2.9-3.4l-0.1,0l1.3,3.9l-0.6,0.2L361.2,149.6z"/>
			<path class="fst4" d="M349.6,140.5c-0.8,0.3-1.7,0-2-0.8l0.6-0.2c0.4,0.9,1.9,0.6,2-0.4c0.3-1.4-1.6-2-2.4-0.9l-0.6,0.1l-0.5-2.6
				l2.7-0.9l0.2,0.6l-2.1,0.7l0.3,1.6l0,0C349.7,135.2,352.4,139.5,349.6,140.5z M353.9,139c-2.5,0.8-4.2-4.4-1.7-5.3
				C354.7,133,356.4,138.2,353.9,139z M353.8,138.5c1.6-0.6,0.3-4.6-1.4-4.2C350.8,134.9,352,138.9,353.8,138.5z M358.9,136.2
				c-0.8-1.4,1.4-2.5,1.9-0.9C361.7,136.7,359.4,137.8,358.9,136.2z M359.4,135.8c0.1,1,1.3,1,1.1,0
				C360.3,134.8,359.1,134.8,359.4,135.8z M355.4,134.1c-0.8-1.4,1.4-2.5,1.9-0.9C358.1,134.6,355.9,135.7,355.4,134.1z
				 M355.9,133.7c0.1,0.6,0.8,1.1,1.1,0.4c0.1-0.4-0.1-0.8-0.4-1.1C356.2,132.7,355.6,133.2,355.9,133.7z M356.9,138l1.8-6.3
				l0.6-0.2l-1.8,6.3L356.9,138z"/>
			<path class="fst5" d="M153.4,210.3l210.1-68.8c1-0.3,2,0.2,2.4,1.2l0,0c0.3,1-0.2,2-1.2,2.4l-210.1,68.8c-1,0.3-2-0.2-2.4-1.2l0,0
				C151.9,211.7,152.4,210.7,153.4,210.3z"/>
		</g>
	</g>
	
		<linearGradient id="SVGID_00000116236507886132388990000009342690101188131714_" gradientUnits="userSpaceOnUse" x1="27.6495" y1="185.7228" x2="285.0444" y2="26.9452" gradientTransform="matrix(0.9504 -0.3111 -0.3111 -0.9504 129.4549 278.5114)">
		<stop  offset="0" style="stop-color:#656F83"/>
		<stop  offset="1" style="stop-color:#656F83;stop-opacity:0.2"/>
	</linearGradient>
	<path style="fill:none;stroke:url(#SVGID_00000116236507886132388990000009342690101188131714_);stroke-width:0.7418;" d="
		M108.6,89l220-72c7.6-2.5,15.8,1.7,18.2,9.2l40.4,123.4c2.5,7.6-1.7,15.8-9.2,18.2l-220,72c-7.6,2.5-15.8-1.7-18.2-9.2L99.3,107.2
		C96.9,99.6,101,91.5,108.6,89z"/>
</g>
<g>
	<g>
		<defs>
			<path id="SVGID_00000140725026385414879460000016835016680420962484_" d="M79.5,137.2l220-72c7.8-2.5,16.2,1.7,18.7,9.5
				l40.4,123.4c2.5,7.8-1.7,16.2-9.5,18.7l-220,72c-7.8,2.5-16.2-1.7-18.7-9.5L70.1,155.9C67.5,148.1,71.8,139.7,79.5,137.2z"/>
		</defs>
		<clipPath id="SVGID_00000103965108673807748480000009504877082032567468_">
			<use xlink:href="#SVGID_00000140725026385414879460000016835016680420962484_"  style="overflow:visible;"/>
		</clipPath>
		<g style="clip-path:url(#SVGID_00000103965108673807748480000009504877082032567468_);">
			
				<linearGradient id="SVGID_00000136389461779532312310000004676690516748100537_" gradientUnits="userSpaceOnUse" x1="-4.731" y1="58.5416" x2="256.381" y2="58.5416" gradientTransform="matrix(0.9504 -0.3111 -0.3111 -0.9504 112.9561 271.7643)">
				<stop  offset="0" style="stop-color:#475467"/>
				<stop  offset="1" style="stop-color:#667085"/>
			</linearGradient>
			<path style="fill:url(#SVGID_00000136389461779532312310000004676690516748100537_);" d="M79.5,137.2l220-72
				c7.8-2.5,16.2,1.7,18.7,9.5l40.4,123.4c2.5,7.8-1.7,16.2-9.5,18.7l-220,72c-7.8,2.5-16.2-1.7-18.7-9.5L70.1,155.9
				C67.5,148.1,71.8,139.7,79.5,137.2z"/>
			<path class="fst2" d="M106.2,144.8c25.3-7.6,37.4,29.2,12.5,38.1C93.4,190.5,81.3,153.7,106.2,144.8z"/>
			<g>
				<path class="fst3" d="M109.4,154.4l3.1,9.5 M112.5,163.9l7-7.5 M112.5,163.9l-10.1-1.9 M112.5,163.9l3.1,9.5 M122.6,165.9
					c-0.6,0-9.9-2.2-10.2-1.7c-0.3,0.1-6.4,6.9-6.8,7.3 M122.9,165c-0.3-0.6-2.6-9-3.3-9.1c0.2-0.1-9.3-1.8-9.4-1.9
					c-0.8-0.2-1-0.1-1.6,0.5c0,0-6.1,6.5-6.1,6.5c-0.6,0.6-0.7,0.9-0.4,1.7c0.1,0.3,2.8,8.7,2.9,8.8c0.1,0.6,9.2,1.9,9.8,2.2
					c0.8,0.2,1,0.1,1.6-0.5c0,0,6.1-6.5,6.1-6.5C123.1,166.1,123.2,165.8,122.9,165z"/>
			</g>
			<path class="fst4" d="M322,208l-2.1-6.4l0.4-0.1l2.1,6.4L322,208z M321.9,203c-1.2-1.8-3.9,1.5-1,1.3c0.5,0,1.1-0.1,1.6,0.1
				c2.9,1.4-1.7,4.8-2.8,2.1l0.6-0.2c1.2,2,4.2-1.6,1.1-1.4c-0.5,0-1.4,0.1-1.8-0.2c-2.4-1.6,1.9-4.3,2.8-1.9L321.9,203z
				 M324.9,200.6l1.7,5.1l-0.6,0.2l-1.5-4.5l0,0l-1,1.2l-0.2-0.6l1-1.3L324.9,200.6z M328.2,205.3c-0.6,0.2-0.9-0.7-0.3-0.9
				C328.4,204.2,328.7,205.1,328.2,205.3z M331.2,204.3c-2.1,0.7-3.1-2.5-2.8-4.1c0.3-1.5,2.5-1.8,3.2-0.4l-0.6,0.2
				c-1.2-1.5-2.7,0.5-1.9,1.9l0,0C330.5,198.6,334.5,203.1,331.2,204.3z M331,203.8c1.4-0.4,0.7-2.8-0.7-2.3
				C328.8,201.9,329.5,204.3,331,203.8z M332.3,198.2l0.7-0.2l3.1,3.7l0.1,0l0.3-4.8l0.7-0.2l1.7,5.1l-0.6,0.2l-1.3-3.9l-0.1,0
				l-0.3,4.4l-0.6,0.2l-2.9-3.4l-0.1,0l1.3,3.9l-0.6,0.2L332.3,198.2z"/>
			<path class="fst4" d="M320.6,189c-0.8,0.3-1.7,0-2-0.8l0.6-0.2c0.4,0.9,1.9,0.6,2-0.4c0.3-1.4-1.6-2-2.4-0.9l-0.6,0.1l-0.5-2.6
				l2.7-0.9l0.2,0.6l-2.1,0.7l0.3,1.6l0,0C320.7,183.8,323.5,188.1,320.6,189z M325,187.6c-2.5,0.8-4.2-4.4-1.7-5.3
				C325.7,181.6,327.5,186.8,325,187.6z M324.8,187.1c1.6-0.6,0.3-4.6-1.4-4.2C321.9,183.5,323.1,187.5,324.8,187.1z M330,184.8
				c-0.8-1.4,1.4-2.5,1.9-0.9C332.7,185.3,330.5,186.4,330,184.8z M330.4,184.4c0.1,1,1.3,1,1.1,0
				C331.4,183.4,330.2,183.3,330.4,184.4z M326.5,182.7c-0.8-1.4,1.4-2.5,1.9-0.9C329.2,183.2,327,184.3,326.5,182.7z M326.9,182.3
				c0.1,0.4,0.3,0.9,0.8,0.7c0.6-0.2,0.3-1.1,0-1.4C327.2,181.3,326.7,181.8,326.9,182.3z M328,186.6l1.8-6.3l0.6-0.2l-1.8,6.3
				L328,186.6z"/>
			<path class="fst5" d="M124.5,258.9l210.1-68.8c1-0.3,2,0.2,2.4,1.2l0,0c0.3,1-0.2,2-1.2,2.4l-210.1,68.8c-1,0.3-2-0.2-2.4-1.2l0,0
				C123,260.3,123.5,259.2,124.5,258.9z"/>
		</g>
	</g>
	
		<linearGradient id="SVGID_00000095321431256633079800000000904583214021589163_" gradientUnits="userSpaceOnUse" x1="-1.2812" y1="137.1419" x2="256.1143" y2="-21.6361" gradientTransform="matrix(0.9504 -0.3111 -0.3111 -0.9504 112.9053 271.9217)">
		<stop  offset="0" style="stop-color:#656F83"/>
		<stop  offset="1" style="stop-color:#656F83;stop-opacity:0.2"/>
	</linearGradient>
	<path style="fill:none;stroke:url(#SVGID_00000095321431256633079800000000904583214021589163_);stroke-width:0.7418;" d="
		M79.7,137.6l220-72c7.6-2.5,15.8,1.7,18.2,9.2l40.4,123.4c2.5,7.6-1.7,15.8-9.2,18.2l-220,72c-7.6,2.5-15.8-1.7-18.2-9.2
		L70.4,155.8C67.9,148.2,72.1,140,79.7,137.6z"/>
</g>
<g>
	<g>
		<defs>
			<path id="SVGID_00000042713407083760941480000003034817639188073107_" d="M50.6,185.4l220-72c7.8-2.5,16.2,1.7,18.7,9.5
				l40.4,123.4c2.5,7.8-1.7,16.2-9.5,18.7l-220,72c-7.8,2.5-16.2-1.7-18.7-9.5L41.1,204.1C38.6,196.3,42.8,188,50.6,185.4z"/>
		</defs>
		<clipPath id="SVGID_00000005945074913877784490000000417879884686179752_">
			<use xlink:href="#SVGID_00000042713407083760941480000003034817639188073107_"  style="overflow:visible;"/>
		</clipPath>
		<g style="clip-path:url(#SVGID_00000005945074913877784490000000417879884686179752_);">
			
				<linearGradient id="SVGID_00000088106978328155341420000013548393393098175140_" gradientUnits="userSpaceOnUse" x1="-33.6607" y1="10.3246" x2="227.4513" y2="10.3246" gradientTransform="matrix(0.9504 -0.3111 -0.3111 -0.9504 96.5198 265.1569)">
				<stop  offset="0" style="stop-color:#475467"/>
				<stop  offset="1" style="stop-color:#667085"/>
			</linearGradient>
			<path style="fill:url(#SVGID_00000088106978328155341420000013548393393098175140_);" d="M50.6,185.4l220-72
				c7.8-2.5,16.2,1.7,18.7,9.5l40.4,123.4c2.5,7.8-1.7,16.2-9.5,18.7l-220,72c-7.8,2.5-16.2-1.7-18.7-9.5L41.1,204.1
				C38.6,196.3,42.8,188,50.6,185.4z"/>
			<path class="fst2" d="M77.3,193.1c25.3-7.6,37.4,29.2,12.5,38.1C64.5,238.7,52.4,201.9,77.3,193.1z"/>
			<g>
				<path class="fst3" d="M80.5,202.6l3.1,9.5 M83.6,212.1l7-7.5 M83.6,212.1l-10.1-1.9 M83.6,212.1l3.1,9.5 M93.7,214.1
					c-0.6,0-9.9-2.2-10.2-1.7c-0.2,0-6.5,7.1-6.8,7.3 M93.9,213.2c-0.3-0.6-2.6-9-3.3-9.1c0.2-0.1-9.3-1.8-9.4-1.9
					c-0.8-0.2-1-0.1-1.6,0.5c0,0-6.1,6.5-6.1,6.5c-0.6,0.6-0.7,0.9-0.4,1.7c0.1,0.3,2.8,8.8,2.9,8.8c0.1,0.6,9.2,1.9,9.8,2.2
					c0.8,0.2,1,0.1,1.6-0.5c0,0,6.1-6.5,6.1-6.5C94.2,214.3,94.2,214,93.9,213.2z"/>
			</g>
			<path class="fst4" d="M293,256.2l-2.1-6.4l0.4-0.1l2.1,6.4L293,256.2z M292.9,251.3c-1.2-1.8-3.9,1.5-1,1.3c0.7,0,1.5-0.2,2.1,0.3
				c1.8,1.9-2.4,4.1-3.3,1.8l0.6-0.2c1.2,2,4.2-1.6,1.1-1.4c-0.5,0-1.4,0.1-1.8-0.2c-2.4-1.6,1.9-4.3,2.8-1.9L292.9,251.3z
				 M295.9,248.9l1.7,5.1l-0.6,0.2l-1.5-4.5l0,0l-1,1.2l-0.2-0.6l1-1.3L295.9,248.9z M299.2,253.5c-0.6,0.2-0.9-0.7-0.3-0.9
				C299.5,252.4,299.8,253.3,299.2,253.5z M302.3,252.5c-2.1,0.7-3.1-2.5-2.8-4.1c0.3-1.5,2.5-1.8,3.2-0.4l-0.6,0.2
				c-1.2-1.5-2.7,0.5-1.9,1.9l0,0C301.6,246.8,305.5,251.3,302.3,252.5z M302.1,252c1.4-0.4,0.7-2.8-0.7-2.3
				C299.9,250.1,300.6,252.5,302.1,252z M303.3,246.4l0.7-0.2l3.1,3.7l0.1,0l0.3-4.8l0.7-0.2l1.7,5.1l-0.6,0.2l-1.3-3.9l0,0
				l-0.3,4.4l-0.6,0.2l-2.9-3.4l-0.1,0l1.3,3.9l-0.6,0.2L303.3,246.4z"/>
			<path class="fst4" d="M291.7,237.3c-0.8,0.3-1.7,0-2-0.8l0.6-0.2c0.4,0.9,1.9,0.6,2-0.4c0.3-1.4-1.6-2-2.4-0.9l-0.6,0.1l-0.5-2.6
				l2.7-0.9l0.2,0.6l-2.1,0.7l0.3,1.6l0,0C291.8,232,294.6,236.3,291.7,237.3z M296.1,235.8c-2.5,0.8-4.2-4.4-1.7-5.3
				C296.8,229.8,298.5,235,296.1,235.8z M295.9,235.3c1.6-0.6,0.3-4.6-1.4-4.2C292.9,231.7,294.2,235.7,295.9,235.3z M301.1,233
				c-0.8-1.4,1.4-2.5,1.9-0.9C303.8,233.5,301.6,234.6,301.1,233z M301.5,232.6c0.1,0.6,0.8,1.1,1.1,0.4c0.1-0.4-0.1-0.8-0.4-1.1
				C301.8,231.6,301.3,232.1,301.5,232.6z M297.6,230.9c-0.8-1.4,1.4-2.5,1.9-0.9C300.3,231.4,298.1,232.5,297.6,230.9z M298,230.5
				c0.1,1,1.3,1,1.1,0C299,229.5,297.7,229.5,298,230.5z M299,234.8l1.8-6.3l0.6-0.2l-1.8,6.3L299,234.8z"/>
			<path class="fst5" d="M95.5,307.1l210.1-68.8c1-0.3,2,0.2,2.4,1.2l0,0c0.3,1-0.2,2-1.2,2.4L96.7,310.7c-1,0.3-2-0.2-2.4-1.2l0,0
				C94,308.5,94.6,307.5,95.5,307.1z"/>
		</g>
	</g>
	
		<linearGradient id="SVGID_00000182519036787222900260000003543516564827102120_" gradientUnits="userSpaceOnUse" x1="-30.2104" y1="88.9257" x2="227.1848" y2="-69.8523" gradientTransform="matrix(0.9504 -0.3111 -0.3111 -0.9504 96.4692 265.3142)">
		<stop  offset="0" style="stop-color:#656F83"/>
		<stop  offset="1" style="stop-color:#656F83;stop-opacity:0.2"/>
	</linearGradient>
	<path style="fill:none;stroke:url(#SVGID_00000182519036787222900260000003543516564827102120_);stroke-width:0.7418;" d="
		M50.7,185.8l220-72c7.6-2.5,15.8,1.7,18.2,9.2l40.4,123.4c2.5,7.6-1.7,15.8-9.2,18.2l-220,72c-7.6,2.5-15.8-1.7-18.2-9.2L41.5,204
		C39,196.4,43.1,188.3,50.7,185.8z"/>
</g>
<g>
	<g>
		<defs>
			<path id="SVGID_00000040572459769878028620000007463193618838674847_" d="M22.1,233.6l220-72c7.8-2.5,16.2,1.7,18.7,9.5
				l40.4,123.4c2.5,7.8-1.7,16.2-9.5,18.7l-220,72c-7.8,2.5-16.2-1.7-18.7-9.5L12.6,252.3C10.1,244.6,14.3,236.2,22.1,233.6z"/>
		</defs>
		<clipPath id="SVGID_00000129894733833401663520000014557012202123649943_">
			<use xlink:href="#SVGID_00000040572459769878028620000007463193618838674847_"  style="overflow:visible;"/>
		</clipPath>
		<g style="clip-path:url(#SVGID_00000129894733833401663520000014557012202123649943_);">
			
				<linearGradient id="SVGID_00000177460656368706633360000016781354393054013834_" gradientUnits="userSpaceOnUse" x1="-2.5597" y1="-154.0463" x2="139.3324" y2="78.2607" gradientTransform="matrix(0.9504 -0.3111 -0.3111 -0.9504 80.1043 258.6803)">
				<stop  offset="0" style="stop-color:#101828"/>
				<stop  offset="1" style="stop-color:#475467"/>
			</linearGradient>
			<path style="fill:url(#SVGID_00000177460656368706633360000016781354393054013834_);" d="M22.1,233.6l220-72
				c7.8-2.5,16.2,1.7,18.7,9.5l40.4,123.4c2.5,7.8-1.7,16.2-9.5,18.7l-220,72c-7.8,2.5-16.2-1.7-18.7-9.5L12.6,252.3
				C10.1,244.6,14.3,236.2,22.1,233.6z"/>
			<path class="fst15" d="M49,243c24.4-7.3,36,28.1,12,36.7C36.7,286.9,25.1,251.5,49,243z"/>
			<g>
				<path class="fst3" d="M52,251.8l3.1,9.5 M55.1,261.3l7-7.5 M55.1,261.3L45,259.4 M55.1,261.3l3.1,9.5 M65.1,263.3
					c-0.6,0-9.9-2.2-10.2-1.7c-0.2,0-6.5,7.1-6.8,7.3 M65.4,262.5c-0.3-0.6-2.6-9-3.3-9.1c0.2-0.1-9.3-1.8-9.4-1.9
					c-0.8-0.2-1-0.1-1.6,0.5c0,0-6.1,6.5-6.1,6.5c-0.6,0.6-0.7,0.9-0.4,1.7c0.1,0.3,2.8,8.8,2.9,8.8c0.1,0.6,9.2,1.9,9.8,2.2
					c0.8,0.2,1,0.1,1.6-0.5c0,0,6.1-6.5,6.1-6.5C65.7,263.5,65.7,263.3,65.4,262.5z"/>
			</g>
			<path class="fst15" d="M71.6,234.8c24.4-7.3,36,28.1,12,36.7C59.2,278.7,47.6,243.3,71.6,234.8z"/>
			<g>
				<path class="fst3" d="M74.5,243.4l3.1,9.5 M77.6,253l7-7.5 M77.6,253L67.6,251 M77.6,253l3.1,9.5 M87.7,254.9
					c-0.6,0-9.9-2.2-10.2-1.7c-0.2,0-6.5,7.1-6.8,7.3 M88,254.1c-0.3-0.6-2.6-9-3.3-9.1c0.2-0.1-9.3-1.8-9.4-1.9
					c-0.8-0.2-1-0.1-1.6,0.5c0,0-6.1,6.5-6.1,6.5c-0.6,0.6-0.7,0.9-0.4,1.7c0.1,0.3,2.8,8.8,2.9,8.8c0.1,0.6,9.2,1.9,9.8,2.2
					c0.8,0.2,1,0.1,1.6-0.5c0,0,6.1-6.5,6.1-6.5C88.2,255.1,88.3,254.9,88,254.1z"/>
			</g>
			<path class="fst15" d="M94.1,227.2c24.4-7.3,36,28.1,12,36.7C81.8,271.2,70.2,235.7,94.1,227.2z"/>
			<g>
				<path class="fst3" d="M97.1,236.1l3.1,9.5 M100.2,245.6l7-7.5 M100.2,245.6l-10.1-1.9 M100.2,245.6l3.1,9.5 M110.3,247.5
					c-0.6,0-9.9-2.2-10.2-1.7c-0.3,0.1-6.4,6.9-6.8,7.3 M110.6,246.7c-0.3-0.6-2.6-9-3.3-9.1c0.2-0.1-9.3-1.8-9.4-1.9
					c-0.8-0.2-1-0.1-1.6,0.5c0,0-6.1,6.5-6.1,6.5c-0.6,0.6-0.7,0.9-0.4,1.7c0.1,0.3,2.8,8.8,2.9,8.8c0.1,0.6,9.2,1.9,9.8,2.2
					c0.8,0.2,1,0.1,1.6-0.5c0,0,6.1-6.5,6.1-6.5C110.8,247.8,110.8,247.5,110.6,246.7z"/>
			</g>
			<g>
				<path class="fst4" d="M88.1,311.8c-1.3-1.4,2-2.8,2.6-1.3l1.3-0.4c-1.4-3.9-8.4,0.5-4.6,3c0.7,0.3,1.9,0.3,2.7,0.2
					c4.1-0.3,0,4.2-1.4,1.5l-1.4,0.4c1.2,3.7,8.2,0.6,5.5-2.6C91.6,311.3,89.5,312.5,88.1,311.8z"/>
				<path class="fst4" d="M84.9,315.2c1.4-1.3,0.5-4-1.4-4.3c-1-0.2-3.5,0.9-4.5,1.1l2.5,7.7l1.4-0.5l-0.9-2.8
					c0.4-0.1,0.9-0.3,1.4-0.5l2.4,2.3l1.6-0.5l-2.7-2.5C84.8,315.2,84.8,315.2,84.9,315.2z M80.8,312.7c0.5-0.1,1.7-0.6,2.2-0.5
					c1,0.1,1.5,1.6,0.7,2.3c-0.3,0.3-1.4,0.6-2.1,0.8L80.8,312.7z"/>
				<path class="fst4" d="M57,319.2l-2.7,0.9l2.5,7.7l2.6-0.9C64.5,325.7,61.8,317.3,57,319.2z M57.9,326.1l-1.7-5.3
					c1.8-0.8,3.8-0.9,4.4,1.5C61.5,324.5,59.9,325.7,57.9,326.1z"/>
				
					<rect x="63.2" y="317.1" transform="matrix(0.9504 -0.3111 0.3111 0.9504 -96.7423 35.8395)" class="fst4" width="1.5" height="8.1"/>
				
					<rect x="94" y="307.1" transform="matrix(0.9504 -0.3111 0.3111 0.9504 -92.0891 44.8981)" class="fst4" width="1.5" height="8.1"/>
				<polygon class="fst4" points="70,321.6 69.9,321.7 65.9,316.3 64.4,316.8 69.6,323.6 71.4,323 71.6,314.4 70,314.9 				"/>
				<polygon class="fst4" points="76.1,320.2 75.4,318.1 78.8,317 78.4,315.8 75,316.9 74.3,314.8 78,313.6 77.6,312.5 72.6,314.1 
					75.1,321.8 80.1,320.1 79.7,319 				"/>
				<polygon class="fst4" points="148.3,296.5 147.6,294.4 150.9,293.3 150.5,292.2 147.2,293.3 146.5,291.2 150.1,290 149.7,288.8 
					144.7,290.5 147.3,298.2 152.3,296.5 151.9,295.4 				"/>
				<polygon class="fst4" points="101.3,308.3 98.1,309.3 97.4,307.3 101,306.1 100.6,304.9 95.6,306.5 98.2,314.2 99.6,313.8 
					98.5,310.5 101.7,309.5 				"/>
				<polygon class="fst4" points="142.2,298 142.1,298 138.1,292.6 136.6,293.1 141.8,300 143.5,299.4 143.7,290.8 142.2,291.3 				
					"/>
				<path class="fst4" d="M158,294.7l1.6-0.5l-2.7-2.5c0,0,0.1-0.1,0.1-0.1c1.4-1.3,0.5-4-1.4-4.3c-1-0.2-3.5,0.9-4.5,1.1l2.5,7.7
					l1.4-0.5l-0.9-2.8c0.4-0.1,0.9-0.3,1.4-0.5L158,294.7z M152.9,289.1c0.5-0.1,1.7-0.6,2.2-0.5c1,0.1,1.5,1.6,0.7,2.3
					c-0.3,0.3-1.4,0.6-2.1,0.8L152.9,289.1z"/>
				<path class="fst4" d="M128.3,301.5c0.1,2.9-4,2.7-4.4,0c-1.2-2.4,2-5,3.6-2.6l1.4-0.5c-2.1-4.1-8.3-0.6-6.4,3.5
					c0.9,4.4,7.9,3.6,7.2-0.9L128.3,301.5z"/>
				<path class="fst4" d="M130.4,299.4c1.4,5.3,9,2.8,7.1-2.3C136,291.8,128.4,294.3,130.4,299.4z M131.8,299c-1.4-3.5,3.4-5,4.3-1.4
					C137.4,301,132.7,302.6,131.8,299z"/>
				
					<rect x="103.1" y="304.1" transform="matrix(0.9504 -0.3111 0.3111 0.9504 -90.704 47.5755)" class="fst4" width="1.5" height="8.1"/>
				<polygon class="fst4" points="108.3,309.6 107.6,307.5 110.9,306.4 110.5,305.3 107.2,306.4 106.5,304.3 110.1,303.1 
					109.7,301.9 104.7,303.6 107.3,311.3 112.3,309.6 111.9,308.4 				"/>
				<path class="fst4" d="M113.8,300.6l-2.7,0.9l2.5,7.7l2.6-0.9C121.3,307.1,118.6,298.7,113.8,300.6z M114.7,307.5l-1.7-5.3
					c1.8-0.8,3.8-0.9,4.4,1.5C118.3,305.9,116.7,307.1,114.7,307.5z"/>
			</g>
			<g>
				<polygon class="fst4" points="91.9,335.3 88.1,336.5 88.3,337.1 89.9,336.6 91.4,341.1 92,340.9 90.5,336.4 92.1,335.8 				"/>
				<path class="fst4" d="M85.6,337.3l-0.2,5.7l0.7-0.2l0-1.6l2.1-0.7l1,1.3l0.7-0.2l-3.6-4.5L85.6,337.3z M86.1,340.6l0.1-2.6l0,0
					l1.6,2L86.1,340.6z"/>
				
					<rect x="78.8" y="339.6" transform="matrix(0.9504 -0.3111 0.3111 0.9504 -102.577 41.5925)" class="fst4" width="0.7" height="5.4"/>
				<polygon class="fst4" points="71.1,342.1 67.3,343.3 67.5,343.9 69.1,343.4 70.6,347.9 71.2,347.7 69.7,343.2 71.3,342.6 				"/>
				<path class="fst4" d="M65.7,343.9c0.2,1.2,2.4,4.6,0.1,5.1c-2.1,0.9-2.3-3.1-2.9-4.2l-0.6,0.2c0.7,1.6,1,5.7,3.7,4.6
					c2.8-0.7,0.7-4.2,0.3-5.9L65.7,343.9z"/>
				<polygon class="fst4" points="76.1,345.5 74.6,341 74,341.2 75.6,346.3 78.6,345.3 78.5,344.7 				"/>
				
					<rect x="72.9" y="341.5" transform="matrix(0.9504 -0.3111 0.3111 0.9504 -103.4604 39.873)" class="fst4" width="0.7" height="5.4"/>
				<polygon class="fst4" points="81.9,343.6 83.3,338.6 83.1,338.2 79.6,339.3 79.8,339.9 82.6,338.9 81.2,344 81.3,344.4 
					84.8,343.3 84.7,342.7 				"/>
				
					<rect x="93.7" y="334.7" transform="matrix(0.9504 -0.3111 0.3111 0.9504 -100.3109 46.0039)" class="fst4" width="0.7" height="5.4"/>
				<polygon class="fst4" points="119.7,326.2 115.8,327.5 116,328 117.6,327.5 119.1,332.1 119.7,331.9 118.2,327.3 119.8,326.7 
									"/>
				
					<rect x="121.4" y="325.6" transform="matrix(0.9503 -0.3112 0.3112 0.9503 -96.1379 54.2001)" class="fst4" width="0.7" height="5.4"/>
				<path class="fst4" d="M127.6,326.4c-1-3.5-5.8-1.9-4.5,1.5C124.1,331.4,129,329.8,127.6,326.4z M123.7,327.7
					c-1-2.6,2.6-3.8,3.3-1.1C128.1,329.3,124.4,330.5,123.7,327.7z"/>
				<path class="fst4" d="M113.4,328.3l-0.2,5.7l0.7-0.2l0-1.6l2.1-0.7l1,1.3l0.7-0.2L114,328L113.4,328.3z M113.9,331.6l0.1-2.6l0,0
					l1.6,2L113.9,331.6z"/>
				<path class="fst4" d="M95.4,337c1,3.5,5.8,1.9,4.5-1.5C99,332,94.1,333.6,95.4,337z M96,336.8c-1-2.6,2.6-3.8,3.3-1.1
					C100.4,338.3,96.7,339.5,96,336.8z"/>
				<polygon class="fst4" points="103.6,331.5 104.9,335.5 104.9,335.5 100.7,332.4 100.1,332.6 101.8,337.7 102.4,337.5 
					101.1,333.5 101.2,333.5 105.3,336.6 105.9,336.4 104.2,331.3 				"/>
				<path class="fst4" d="M111.1,332.2c0.9-0.8,0.3-2.5-0.9-2.7c-0.6-0.2-2.1,0.5-2.8,0.7l1.7,5.1l0.6-0.2l-0.7-2
					c0.4-0.1,0.8-0.2,1.2-0.4l1.7,1.7l0.7-0.2l-1.8-1.7C111,332.3,111.1,332.3,111.1,332.2z M108.2,330.6c0.4-0.1,1.4-0.5,1.8-0.4
					c0.7,0.1,1.1,1.2,0.6,1.8c-0.3,0.3-1.2,0.5-1.7,0.7L108.2,330.6z"/>
			</g>
			<path class="fst4" d="M71.2,367.2l-2.1-6.4l0.4-0.1l2.1,6.4L71.2,367.2z M71.1,362.2c-1.2-1.8-3.9,1.5-1,1.3
				c0.5,0,1.1-0.1,1.6,0.1c2.9,1.4-1.7,4.8-2.8,2.1l0.6-0.2c1.2,2,4.2-1.6,1.1-1.4c-0.5,0-1.4,0.1-1.8-0.2c-2.4-1.6,1.9-4.3,2.8-1.9
				L71.1,362.2z M75.6,365.1c-1.6,0.8-3.2-1.5-1.6-2.5l0,0c-1.6,0-1.6-2.5-0.1-2.7c1.4-0.6,2.9,1.3,1.6,2.3l0,0
				C77.4,362,77.4,364.8,75.6,365.1z M75.5,364.5c1.5-0.4,0.8-2.5-0.6-1.9C73.4,363,74,365.2,75.5,364.5z M74.7,362.1
				c1.3-0.3,0.6-2.2-0.6-1.7C72.8,360.7,73.5,362.6,74.7,362.1z M80,363.7c-2.5,0.8-4.2-4.4-1.7-5.3C80.7,357.6,82.5,362.8,80,363.7
				z M79.8,363.1c1.6-0.6,0.3-4.6-1.4-4.2C76.9,359.6,78.1,363.5,79.8,363.1z M84.4,362.2c-2.5,0.8-4.2-4.4-1.7-5.3
				C85.2,356.2,86.9,361.4,84.4,362.2z M84.2,361.7c1.6-0.6,0.3-4.6-1.4-4.2C81.3,358.1,82.5,362.1,84.2,361.7z M87.2,361.2
				l-1.7-5.1l0.6-0.2l0.8,2.5l0.1,0l1.5-3.3l0.8-0.3l-1.4,3L91,360l-0.8,0.2l-2.6-1.8l-0.4,0.9l0.5,1.7L87.2,361.2z"/>
			<path class="fst4" d="M264.3,304l-2.1-6.4l0.4-0.1l2.1,6.4L264.3,304z M264.2,299c-1.2-1.8-3.9,1.5-1,1.3c0.7,0,1.5-0.2,2.1,0.3
				c1.8,1.9-2.4,4.1-3.3,1.8l0.6-0.2c1.2,2,4.2-1.6,1.1-1.4c-0.5,0-1.4,0.1-1.8-0.2c-2.4-1.6,1.9-4.3,2.8-1.9L264.2,299z
				 M267.2,296.6l1.7,5.1l-0.6,0.2l-1.5-4.5l0,0l-1,1.2l-0.2-0.6l1-1.3L267.2,296.6z M270.5,301.3c-0.6,0.2-0.9-0.7-0.3-0.9
				C270.7,300.2,271,301.1,270.5,301.3z M273.5,300.3c-2.1,0.7-3.1-2.5-2.8-4.1c0.3-1.5,2.5-1.8,3.2-0.4l-0.6,0.2
				c-1.2-1.5-2.7,0.5-1.9,1.9l0,0C272.8,294.6,276.8,299.1,273.5,300.3z M273.3,299.8c1.4-0.4,0.7-2.8-0.7-2.3
				C271.1,297.9,271.9,300.3,273.3,299.8z M274.6,294.2l0.7-0.2l3.1,3.7l0.1,0l0.3-4.8l0.7-0.2l1.7,5.1l-0.6,0.2l-1.3-3.9l0,0
				l-0.3,4.4l-0.6,0.2l-2.9-3.4l0,0l1.3,3.9l-0.6,0.2L274.6,294.2z"/>
			<path class="fst4" d="M264.1,284.7c-0.8,0.3-1.7,0-2-0.8l0.6-0.2c0.4,0.9,1.9,0.6,2-0.4c0.3-1.4-1.6-2-2.4-0.9l-0.6,0.1l-0.5-2.6
				l2.7-0.9l0.2,0.6l-2.1,0.7l0.3,1.6l0,0C264.2,279.4,267,283.7,264.1,284.7z M268.5,283.2c-2.5,0.8-4.2-4.4-1.7-5.3
				C269.2,277.2,270.9,282.4,268.5,283.2z M268.3,282.7c1.6-0.6,0.3-4.6-1.4-4.2C265.3,279.1,266.6,283.1,268.3,282.7z M273.5,280.5
				c-0.8-1.4,1.4-2.5,1.9-0.9C276.2,280.9,274,282,273.5,280.5z M273.9,280c0.1,1,1.3,1,1.1,0C274.9,279,273.6,279,273.9,280z
				 M270,278.4c-0.8-1.4,1.4-2.5,1.9-0.9C272.7,278.8,270.4,279.9,270,278.4z M270.4,277.9c0.1,0.4,0.3,0.9,0.8,0.7
				c0.6-0.2,0.3-1.1,0-1.4C270.7,276.9,270.1,277.5,270.4,277.9z M271.4,282.2l1.8-6.3l0.6-0.2L272,282L271.4,282.2z"/>
			<path class="fst5" d="M66.9,354.9l210-68.7c1-0.3,2,0.2,2.4,1.2l0,0c0.3,1-0.2,2-1.2,2.4L68,358.4c-1,0.3-2-0.2-2.4-1.2l0,0
				C65.4,356.3,65.9,355.2,66.9,354.9z"/>
			<path class="fst4" d="M66.9,355l106.3-34.8c1-0.3,2,0.2,2.3,1.2l0,0c0.3,1-0.2,2-1.2,2.3L68.1,358.6c-1,0.3-2-0.2-2.3-1.2l0,0
				C65.4,356.4,65.9,355.4,66.9,355z"/>
			<path class="fst16" d="M160.7,204.6l79.7-26.1c1.6-0.5,3.2,0.3,3.7,1.9l4.4,13.3c0.5,1.6-0.3,3.2-1.9,3.7l-79.7,26.1
				c-1.6,0.5-3.2-0.3-3.7-1.9l-4.4-13.3C158.3,206.8,159.2,205.2,160.7,204.6z"/>
			<g>
				<path class="fst4" d="M185.2,203.5l0.8,2.3l0,0c-3.8-2.4-3.8,5.4,0,4.4c0.6-0.2,1-0.7,1.1-1.2l0.1,0l0.2,0.7l1.1-0.4l-2-6.2
					L185.2,203.5z M185.9,209.2c-1.5,0.5-2.5-2.5-1-3C186.4,205.7,187.3,208.7,185.9,209.2z"/>
				
					<rect x="168.5" y="208.9" transform="matrix(0.9504 -0.3111 0.3111 0.9504 -57.5984 63.1399)" class="fst4" width="1.2" height="6.5"/>
				<path class="fst4" d="M180.7,205.9c0.8-0.2,0.4-1.5-0.4-1.2C179.5,205,179.9,206.2,180.7,205.9z"/>
				<path class="fst4" d="M171.7,210.5L171.7,210.5l-0.3-0.8l-1,0.3l1.5,4.6l1.1-0.4l-0.9-2.7c-0.4-0.9,0.6-1.7,1.4-1.3
					c0.6,0.2,1.1,2.9,1.4,3.4l1.1-0.4c-0.3-0.7-0.9-3.4-1.5-3.8C173.6,208.6,171.7,209.2,171.7,210.5z"/>
				
					<rect x="181.1" y="206.4" transform="matrix(0.9504 -0.311 0.311 0.9504 -55.9552 66.8694)" class="fst4" width="1.1" height="4.9"/>
				<path class="fst4" d="M179.4,210.4c0.1,1.6-2.1,1.4-2.3-0.1c-0.7-1.3,1-2.7,1.8-1.4l1-0.3c-0.5-1.5-2.7-1.4-3.6-0.3
					c-1.4,1.7,0.3,5,2.6,4.1c1-0.3,1.7-1.3,1.4-2.3L179.4,210.4z"/>
				<path class="fst4" d="M190,207.2c-0.2-0.1-0.3-0.4-0.4-0.6l3.2-1.1c-0.3-2-2.7-2.8-4-1.3c-1.4,1.7,0.4,5,2.7,4.1
					c0.9-0.3,1.7-1,1.6-2l-1.1,0.2C192,207.5,190.6,207.9,190,207.2z M191.6,205.2l-2.2,0.7C189,204.5,191.1,203.7,191.6,205.2z"/>
				<path class="fst4" d="M230.1,194.1c-0.2-0.1-0.3-0.4-0.4-0.6l3.2-1.1c-0.3-2-2.7-2.8-4-1.3c-1.4,1.7,0.4,5,2.7,4.1
					c0.9-0.3,1.7-1,1.6-2l-1.1,0.2C232.1,194.3,230.7,194.7,230.1,194.1z M231.7,192l-2.2,0.7C229.1,191.4,231.3,190.5,231.7,192z"
					/>
				<path class="fst4" d="M227.8,192.3l-0.3-1c-0.7,0.1-1.3,0.6-1.3,1.3l0,0l-0.3-0.8l-1.1,0.3l1.5,4.6l1.1-0.4
					C227.2,195.3,225.4,192.3,227.8,192.3z"/>
				<path class="fst4" d="M236.7,186.6l-1.1,0.4l0.8,2.3l0,0c-3.8-2.4-3.8,5.4,0,4.4c0.6-0.2,1-0.7,1.1-1.2l0.1,0l0.2,0.7l1.1-0.4
					L236.7,186.6z M236.3,192.6c-1.5,0.5-2.5-2.5-1-3C236.8,189.2,237.8,192.2,236.3,192.6z"/>
				<path class="fst4" d="M222.7,192.9l0.9,2.7c0.4,0.8-0.6,1.7-1.4,1.3c-0.6-0.2-1.1-2.9-1.4-3.4l-1.1,0.4c0.3,0.7,0.9,3.4,1.5,3.8
					c0.9,0.9,2.7,0.3,2.7-1l0,0l0.3,0.8l1.1-0.3l-1.5-4.6L222.7,192.9z"/>
				<path class="fst4" d="M213.9,199.1c0.1,1.6-2.1,1.4-2.3-0.1c-0.7-1.3,1-2.7,1.8-1.4l1-0.3c-0.5-1.5-2.7-1.4-3.6-0.3
					c-1.4,1.7,0.3,5,2.6,4.1c1-0.3,1.7-1.3,1.4-2.3L213.9,199.1z"/>
				<path class="fst4" d="M218.8,197.5c0.1,1.6-2.1,1.4-2.3-0.1c-0.7-1.3,1-2.7,1.8-1.4l1-0.3c-0.5-1.5-2.7-1.4-3.6-0.3
					c-1.4,1.7,0.3,5,2.6,4.1c1-0.3,1.7-1.3,1.4-2.3L218.8,197.5z"/>
				<path class="fst4" d="M203.8,200.8c1.1,4.2,7.2,2.2,5.7-1.8C208.3,194.7,202.2,196.7,203.8,200.8z M204.9,200.4
					c-1.1-2.8,2.7-4,3.4-1.1C209.5,202.1,205.6,203.3,204.9,200.4z"/>
				<path class="fst4" d="M200.5,203.7l-0.8-2.4l0.9-0.3l-0.3-0.8l-0.9,0.3l-0.4-1.1l-1.1,0.4c0,0,0.2,0.5,0.4,1.1l-0.7,0.2l0.3,0.8
					l0.7-0.2c0.4,1.2,0.8,2.6,0.8,2.6c0.3,1.1,1.7,1.1,2.5,0.5l-0.5-0.8C201.2,204.2,200.6,204.2,200.5,203.7z"/>
				<path class="fst4" d="M194.3,203.1L194.3,203.1l-0.3-0.8l-1,0.3l1.5,4.6l1.1-0.4l-0.9-2.7c-0.4-0.9,0.6-1.7,1.4-1.3
					c0.6,0.2,1.1,2.9,1.4,3.4l1.1-0.4c-0.3-0.7-0.9-3.4-1.5-3.8C196.2,201.2,194.3,201.8,194.3,203.1z"/>
			</g>
		</g>
	</g>
	
		<linearGradient id="SVGID_00000111167070690336103750000004543797681791151489_" gradientUnits="userSpaceOnUse" x1="-61.9287" y1="-121.0629" x2="177.9095" y2="32.1391" gradientTransform="matrix(0.9504 -0.3111 -0.3111 -0.9504 80.0538 258.8377)">
		<stop  offset="0" style="stop-color:#414D5F"/>
		<stop  offset="1" style="stop-color:#414D5F;stop-opacity:0"/>
	</linearGradient>
	<path style="fill:none;stroke:url(#SVGID_00000111167070690336103750000004543797681791151489_);stroke-width:0.7418;" d="
		M22.2,234l220-72c7.6-2.5,15.8,1.7,18.2,9.2l40.4,123.4c2.5,7.6-1.7,15.8-9.2,18.2l-220,72c-7.6,2.5-15.8-1.7-18.2-9.2L13,252.2
		C10.5,244.6,14.6,236.5,22.2,234z"/>
</g>
</svg>
