<svg xmlns="http://www.w3.org/2000/svg" xml:space="preserve" width="407" height="406" viewBox="0 0 407 406">
  <linearGradient id="a111222333" x1="24.1996" x2="285.3116" y1="107.1217" y2="107.1217" gradientTransform="matrix(0.9504 -0.3111 -0.3111 -0.9504 129.5054 278.3541)" gradientUnits="userSpaceOnUse">
    <stop offset="0" stop-color="#475467"/>
    <stop offset="1" stop-color="#667085"/>
  </linearGradient>
  <path fill="url(#a111222333)" d="m108.5 88.6 220-72c7.8-2.5 16.2 1.7 18.7 9.5l40.4 123.4c2.5 7.8-1.7 16.2-9.5 18.7l-220 72c-7.8 2.5-16.2-1.7-18.7-9.5L99 107.3c-2.6-7.8 1.7-16.1 9.5-18.7z"/>
  <path fill="#5d687c" d="M135.2 96.3c25.3-7.6 37.4 29.2 12.5 38.1-25.4 7.5-37.4-29.3-12.5-38.1z"/>
  <path fill="none" stroke="#fff" stroke-linecap="round" stroke-linejoin="round" stroke-width=".7556" d="m138.3 105.8 3.1 9.5m.1 0 7-7.5m-7 7.5-10.1-1.9m10.1 1.9 3.1 9.5m6.9-7.5c-.6 0-9.9-2.2-10.2-1.7-.2 0-6.5 7-6.8 7.3m17.3-6.5c-.3-.6-2.6-9-3.3-9.1.2-.1-9.3-1.8-9.4-1.9-.8-.2-1-.1-1.6.5l-6.1 6.5c-.6.6-.7.9-.4 1.7.1.3 2.8 8.8 2.9 8.8.1.6 9.2 1.9 9.8 2.2.8.2 1 .1 1.6-.5l6.1-6.5c.6-.6.7-.9.4-1.7z"/>
  <path fill="#fff" d="m350.9 159.4-2.1-6.4.4-.1 2.1 6.4-.4.1zm-.1-4.9c-1.2-1.8-3.9 1.5-1 1.3.5 0 1.1-.1 1.6.1 2.9 1.4-1.7 4.8-2.8 2.1l.6-.2c1.2 2 4.2-1.6 1.1-1.4-.5 0-1.4.1-1.8-.2-2.4-1.6 1.9-4.3 2.8-1.9l-.5.2zm3-2.4 1.7 5.1-.6.2-1.5-4.5-1 1.2-.2-.6 1-1.3.6-.1zm3.3 4.6c-.6.2-.9-.7-.3-.9.6-.2.9.7.3.9zm3-1c-2.1.7-3.1-2.5-2.8-4.1.3-1.5 2.5-1.8 3.2-.4l-.6.2c-1.2-1.5-2.7.5-1.9 1.9 1.5-3.3 5.4 1.2 2.1 2.4zm-.2-.5c1.4-.4.7-2.8-.7-2.3-1.5.4-.7 2.8.7 2.3zm1.3-5.6.7-.2 3.1 3.7h.1l.3-4.8.7-.2 1.7 5.1-.6.2-1.3-3.9h-.1l-.3 4.4-.6.2-2.9-3.4h-.1l1.3 3.9-.6.2-1.4-5.2zm-11.6-9.1c-.8.3-1.7 0-2-.8l.6-.2c.4.9 1.9.6 2-.4.3-1.4-1.6-2-2.4-.9l-.6.1-.5-2.6 2.7-.9.2.6-2.1.7.3 1.6c1.9-2.5 4.6 1.8 1.8 2.8zm4.3-1.5c-2.5.8-4.2-4.4-1.7-5.3 2.5-.7 4.2 4.5 1.7 5.3zm-.1-.5c1.6-.6.3-4.6-1.4-4.2-1.6.6-.4 4.6 1.4 4.2zm5.1-2.3c-.8-1.4 1.4-2.5 1.9-.9.9 1.4-1.4 2.5-1.9.9zm.5-.4c.1 1 1.3 1 1.1 0-.2-1-1.4-1-1.1 0zm-4-1.7c-.8-1.4 1.4-2.5 1.9-.9.8 1.4-1.4 2.5-1.9.9zm.5-.4c.1.6.8 1.1 1.1.4.1-.4-.1-.8-.4-1.1-.4-.3-1 .2-.7.7zm1 4.3 1.8-6.3.6-.2-1.8 6.3-.6.2z"/>
  <path fill="#fff" fill-opacity=".2" d="m153.4 210.3 210.1-68.8c1-.3 2 .2 2.4 1.2.3 1-.2 2-1.2 2.4l-210.1 68.8c-1 .3-2-.2-2.4-1.2-.3-1 .2-2 1.2-2.4z"/>
  <linearGradient id="b" x1="27.6495" x2="285.0444" y1="185.7228" y2="26.9452" gradientTransform="matrix(0.9504 -0.3111 -0.3111 -0.9504 129.4549 278.5114)" gradientUnits="userSpaceOnUse">
    <stop offset="0" stop-color="#656f83"/>
    <stop offset="1" stop-color="#656f83" stop-opacity=".2"/>
  </linearGradient>
  <path fill="none" stroke="url(#b)" stroke-width=".7418" d="m108.6 89 220-72c7.6-2.5 15.8 1.7 18.2 9.2l40.4 123.4c2.5 7.6-1.7 15.8-9.2 18.2l-220 72c-7.6 2.5-15.8-1.7-18.2-9.2L99.3 107.2c-2.4-7.6 1.7-15.7 9.3-18.2z"/>
  <defs>
    <path id="c" d="m79.5 137.2 220-72c7.8-2.5 16.2 1.7 18.7 9.5l40.4 123.4c2.5 7.8-1.7 16.2-9.5 18.7l-220 72c-7.8 2.5-16.2-1.7-18.7-9.5L70.1 155.9c-2.6-7.8 1.7-16.2 9.4-18.7z"/>
  </defs>
  <linearGradient id="e111222333" x1="-4.731" x2="256.381" y1="58.5416" y2="58.5416" gradientTransform="matrix(0.9504 -0.3111 -0.3111 -0.9504 112.9561 271.7643)" gradientUnits="userSpaceOnUse">
    <stop offset="0" stop-color="#475467"/>
    <stop offset="1" stop-color="#667085"/>
  </linearGradient>
  <path fill="url(#e111222333)" d="m79.5 137.2 220-72c7.8-2.5 16.2 1.7 18.7 9.5l40.4 123.4c2.5 7.8-1.7 16.2-9.5 18.7l-220 72c-7.8 2.5-16.2-1.7-18.7-9.5L70.1 155.9c-2.6-7.8 1.7-16.2 9.4-18.7z"/>
  <path fill="#5d687c" d="M106.2 144.8c25.3-7.6 37.4 29.2 12.5 38.1-25.3 7.6-37.4-29.2-12.5-38.1z"/>
  <path fill="none" stroke="#fff" stroke-linecap="round" stroke-linejoin="round" stroke-width=".7556" d="m109.4 154.4 3.1 9.5m0 0 7-7.5m-7 7.5-10.1-1.9m10.1 1.9 3.1 9.5m7-7.5c-.6 0-9.9-2.2-10.2-1.7-.3.1-6.4 6.9-6.8 7.3m17.3-6.5c-.3-.6-2.6-9-3.3-9.1.2-.1-9.3-1.8-9.4-1.9-.8-.2-1-.1-1.6.5l-6.1 6.5c-.6.6-.7.9-.4 1.7.1.3 2.8 8.7 2.9 8.8.1.6 9.2 1.9 9.8 2.2.8.2 1 .1 1.6-.5l6.1-6.5c.6-.6.7-.9.4-1.7z"/>
  <path fill="#fff" d="m322 208-2.1-6.4.4-.1 2.1 6.4-.4.1zm-.1-5c-1.2-1.8-3.9 1.5-1 1.3.5 0 1.1-.1 1.6.1 2.9 1.4-1.7 4.8-2.8 2.1l.6-.2c1.2 2 4.2-1.6 1.1-1.4-.5 0-1.4.1-1.8-.2-2.4-1.6 1.9-4.3 2.8-1.9l-.5.2zm3-2.4 1.7 5.1-.6.2-1.5-4.5-1 1.2-.2-.6 1-1.3.6-.1zm3.3 4.7c-.6.2-.9-.7-.3-.9.5-.2.8.7.3.9zm3-1c-2.1.7-3.1-2.5-2.8-4.1.3-1.5 2.5-1.8 3.2-.4l-.6.2c-1.2-1.5-2.7.5-1.9 1.9 1.4-3.3 5.4 1.2 2.1 2.4zm-.2-.5c1.4-.4.7-2.8-.7-2.3-1.5.4-.8 2.8.7 2.3zm1.3-5.6.7-.2 3.1 3.7h.1l.3-4.8.7-.2 1.7 5.1-.6.2-1.3-3.9h-.1l-.3 4.4-.6.2-2.9-3.4h-.1l1.3 3.9-.6.2-1.4-5.2zm-11.7-9.2c-.8.3-1.7 0-2-.8l.6-.2c.4.9 1.9.6 2-.4.3-1.4-1.6-2-2.4-.9l-.6.1-.5-2.6 2.7-.9.2.6-2.1.7.3 1.6c1.9-2.4 4.7 1.9 1.8 2.8zm4.4-1.4c-2.5.8-4.2-4.4-1.7-5.3 2.4-.7 4.2 4.5 1.7 5.3zm-.2-.5c1.6-.6.3-4.6-1.4-4.2-1.5.6-.3 4.6 1.4 4.2zm5.2-2.3c-.8-1.4 1.4-2.5 1.9-.9.8 1.4-1.4 2.5-1.9.9zm.4-.4c.1 1 1.3 1 1.1 0-.1-1-1.3-1.1-1.1 0zm-3.9-1.7c-.8-1.4 1.4-2.5 1.9-.9.8 1.4-1.4 2.5-1.9.9zm.4-.4c.1.4.3.9.8.7.6-.2.3-1.1 0-1.4-.5-.3-1 .2-.8.7zm1.1 4.3 1.8-6.3.6-.2-1.8 6.3-.6.2z"/>
  <path fill="#fff" fill-opacity=".2" d="m124.5 258.9 210.1-68.8c1-.3 2 .2 2.4 1.2.3 1-.2 2-1.2 2.4l-210.1 68.8c-1 .3-2-.2-2.4-1.2-.3-1 .2-2.1 1.2-2.4z"/>
  <linearGradient id="f" x1="-1.2812" x2="256.1143" y1="137.1419" y2="-21.6361" gradientTransform="matrix(0.9504 -0.3111 -0.3111 -0.9504 112.9053 271.9217)" gradientUnits="userSpaceOnUse">
    <stop offset="0" stop-color="#656f83"/>
    <stop offset="1" stop-color="#656f83" stop-opacity=".2"/>
  </linearGradient>
  <path fill="none" stroke="url(#f)" stroke-width=".7418" d="m79.7 137.6 220-72c7.6-2.5 15.8 1.7 18.2 9.2l40.4 123.4c2.5 7.6-1.7 15.8-9.2 18.2l-220 72c-7.6 2.5-15.8-1.7-18.2-9.2L70.4 155.8c-2.5-7.6 1.7-15.8 9.3-18.2z"/>
  <defs>
    <path id="g" d="m50.6 185.4 220-72c7.8-2.5 16.2 1.7 18.7 9.5l40.4 123.4c2.5 7.8-1.7 16.2-9.5 18.7l-220 72c-7.8 2.5-16.2-1.7-18.7-9.5L41.1 204.1c-2.5-7.8 1.7-16.1 9.5-18.7z"/>
  </defs>
  <linearGradient id="i111222333" x1="-33.6607" x2="227.4513" y1="10.3246" y2="10.3246" gradientTransform="matrix(0.9504 -0.3111 -0.3111 -0.9504 96.5198 265.1569)" gradientUnits="userSpaceOnUse">
    <stop offset="0" stop-color="#475467"/>
    <stop offset="1" stop-color="#667085"/>
  </linearGradient>
  <path fill="url(#i111222333)" d="m50.6 185.4 220-72c7.8-2.5 16.2 1.7 18.7 9.5l40.4 123.4c2.5 7.8-1.7 16.2-9.5 18.7l-220 72c-7.8 2.5-16.2-1.7-18.7-9.5L41.1 204.1c-2.5-7.8 1.7-16.1 9.5-18.7z"/>
  <path fill="#5d687c" d="M77.3 193.1c25.3-7.6 37.4 29.2 12.5 38.1-25.3 7.5-37.4-29.3-12.5-38.1z"/>
  <path fill="none" stroke="#fff" stroke-linecap="round" stroke-linejoin="round" stroke-width=".7556" d="m80.5 202.6 3.1 9.5m0 0 7-7.5m-7 7.5-10.1-1.9m10.1 1.9 3.1 9.5m7-7.5c-.6 0-9.9-2.2-10.2-1.7-.2 0-6.5 7.1-6.8 7.3m17.2-6.5c-.3-.6-2.6-9-3.3-9.1.2-.1-9.3-1.8-9.4-1.9-.8-.2-1-.1-1.6.5l-6.1 6.5c-.6.6-.7.9-.4 1.7.1.3 2.8 8.8 2.9 8.8.1.6 9.2 1.9 9.8 2.2.8.2 1 .1 1.6-.5l6.1-6.5c.7-.6.7-.9.4-1.7z"/>
  <path fill="#fff" d="m293 256.2-2.1-6.4.4-.1 2.1 6.4-.4.1zm-.1-4.9c-1.2-1.8-3.9 1.5-1 1.3.7 0 1.5-.2 2.1.3 1.8 1.9-2.4 4.1-3.3 1.8l.6-.2c1.2 2 4.2-1.6 1.1-1.4-.5 0-1.4.1-1.8-.2-2.4-1.6 1.9-4.3 2.8-1.9l-.5.3zm3-2.4 1.7 5.1-.6.2-1.5-4.5-1 1.2-.2-.6 1-1.3.6-.1zm3.3 4.6c-.6.2-.9-.7-.3-.9.6-.2.9.7.3.9zm3.1-1c-2.1.7-3.1-2.5-2.8-4.1.3-1.5 2.5-1.8 3.2-.4l-.6.2c-1.2-1.5-2.7.5-1.9 1.9 1.4-3.3 5.3 1.2 2.1 2.4zm-.2-.5c1.4-.4.7-2.8-.7-2.3-1.5.4-.8 2.8.7 2.3zm1.2-5.6.7-.2 3.1 3.7h.1l.3-4.8.7-.2 1.7 5.1-.6.2-1.3-3.9-.3 4.4-.6.2-2.9-3.4h-.1l1.3 3.9-.6.2-1.5-5.2zm-11.6-9.1c-.8.3-1.7 0-2-.8l.6-.2c.4.9 1.9.6 2-.4.3-1.4-1.6-2-2.4-.9l-.6.1-.5-2.6 2.7-.9.2.6-2.1.7.3 1.6c1.9-2.5 4.7 1.8 1.8 2.8zm4.4-1.5c-2.5.8-4.2-4.4-1.7-5.3 2.4-.7 4.1 4.5 1.7 5.3zm-.2-.5c1.6-.6.3-4.6-1.4-4.2-1.6.6-.3 4.6 1.4 4.2zm5.2-2.3c-.8-1.4 1.4-2.5 1.9-.9.8 1.4-1.4 2.5-1.9.9zm.4-.4c.1.6.8 1.1 1.1.4.1-.4-.1-.8-.4-1.1-.4-.3-.9.2-.7.7zm-3.9-1.7c-.8-1.4 1.4-2.5 1.9-.9.8 1.4-1.4 2.5-1.9.9zm.4-.4c.1 1 1.3 1 1.1 0-.1-1-1.4-1-1.1 0zm1 4.3 1.8-6.3.6-.2-1.8 6.3-.6.2z"/>
  <path fill="#fff" fill-opacity=".2" d="m95.5 307.1 210.1-68.8c1-.3 2 .2 2.4 1.2.3 1-.2 2-1.2 2.4L96.7 310.7c-1 .3-2-.2-2.4-1.2-.3-1 .3-2 1.2-2.4z"/>
  <linearGradient id="j" x1="-30.2104" x2="227.1848" y1="88.9257" y2="-69.8523" gradientTransform="matrix(0.9504 -0.3111 -0.3111 -0.9504 96.4692 265.3142)" gradientUnits="userSpaceOnUse">
    <stop offset="0" stop-color="#656f83"/>
    <stop offset="1" stop-color="#656f83" stop-opacity=".2"/>
  </linearGradient>
  <path fill="none" stroke="url(#j)" stroke-width=".7418" d="m50.7 185.8 220-72c7.6-2.5 15.8 1.7 18.2 9.2l40.4 123.4c2.5 7.6-1.7 15.8-9.2 18.2l-220 72c-7.6 2.5-15.8-1.7-18.2-9.2L41.5 204c-2.5-7.6 1.6-15.7 9.2-18.2z"/>
  <defs>
    <path id="k" d="m22.1 233.6 220-72c7.8-2.5 16.2 1.7 18.7 9.5l40.4 123.4c2.5 7.8-1.7 16.2-9.5 18.7l-220 72c-7.8 2.5-16.2-1.7-18.7-9.5L12.6 252.3c-2.5-7.7 1.7-16.1 9.5-18.7z"/>
  </defs>
  <linearGradient id="m111222333" x1="-2.5597" x2="139.3324" y1="-154.0463" y2="78.2607" gradientTransform="matrix(0.9504 -0.3111 -0.3111 -0.9504 80.1043 258.6803)" gradientUnits="userSpaceOnUse">
    <stop offset="0" stop-color="#101828"/>
    <stop offset="1" stop-color="#475467"/>
  </linearGradient>
  <path fill="url(#m111222333)" d="m22.1 233.6 220-72c7.8-2.5 16.2 1.7 18.7 9.5l40.4 123.4c2.5 7.8-1.7 16.2-9.5 18.7l-220 72c-7.8 2.5-16.2-1.7-18.7-9.5L12.6 252.3c-2.5-7.7 1.7-16.1 9.5-18.7z"/>
  <path fill="#4e5968" stroke="#354052" stroke-width="1.4836" d="M49 243c24.4-7.3 36 28.1 12 36.7-24.3 7.2-35.9-28.2-12-36.7z"/>
  <path fill="none" stroke="#fff" stroke-linecap="round" stroke-linejoin="round" stroke-width=".7556" d="m52 251.8 3.1 9.5m0 0 7-7.5m-7 7.5L45 259.4m10.1 1.9 3.1 9.5m6.9-7.5c-.6 0-9.9-2.2-10.2-1.7-.2 0-6.5 7.1-6.8 7.3m17.3-6.4c-.3-.6-2.6-9-3.3-9.1.2-.1-9.3-1.8-9.4-1.9-.8-.2-1-.1-1.6.5l-6.1 6.5c-.6.6-.7.9-.4 1.7.1.3 2.8 8.8 2.9 8.8.1.6 9.2 1.9 9.8 2.2.8.2 1 .1 1.6-.5l6.1-6.5c.7-.7.7-.9.4-1.7z"/>
  <path fill="#4e5968" stroke="#354052" stroke-width="1.4836" d="M71.6 234.8c24.4-7.3 36 28.1 12 36.7-24.4 7.2-36-28.2-12-36.7z"/>
  <path fill="none" stroke="#fff" stroke-linecap="round" stroke-linejoin="round" stroke-width=".7556" d="m74.5 243.4 3.1 9.5m0 .1 7-7.5m-7 7.5-10-2m10 2 3.1 9.5m7-7.6c-.6 0-9.9-2.2-10.2-1.7-.2 0-6.5 7.1-6.8 7.3m17.3-6.4c-.3-.6-2.6-9-3.3-9.1.2-.1-9.3-1.8-9.4-1.9-.8-.2-1-.1-1.6.5l-6.1 6.5c-.6.6-.7.9-.4 1.7.1.3 2.8 8.8 2.9 8.8.1.6 9.2 1.9 9.8 2.2.8.2 1 .1 1.6-.5l6.1-6.5c.6-.7.7-.9.4-1.7z"/>
  <path fill="#4e5968" stroke="#354052" stroke-width="1.4836" d="M94.1 227.2c24.4-7.3 36 28.1 12 36.7-24.3 7.3-35.9-28.2-12-36.7z"/>
  <path fill="none" stroke="#fff" stroke-linecap="round" stroke-linejoin="round" stroke-width=".7556" d="m97.1 236.1 3.1 9.5m0 0 7-7.5m-7 7.5-10.1-1.9m10.1 1.9 3.1 9.5m7-7.6c-.6 0-9.9-2.2-10.2-1.7-.3.1-6.4 6.9-6.8 7.3m17.3-6.4c-.3-.6-2.6-9-3.3-9.1.2-.1-9.3-1.8-9.4-1.9-.8-.2-1-.1-1.6.5l-6.1 6.5c-.6.6-.7.9-.4 1.7.1.3 2.8 8.8 2.9 8.8.1.6 9.2 1.9 9.8 2.2.8.2 1 .1 1.6-.5l6.1-6.5c.6-.6.6-.9.4-1.7z"/>
  <path fill="#fff" d="M88.1 311.8c-1.3-1.4 2-2.8 2.6-1.3l1.3-.4c-1.4-3.9-8.4.5-4.6 3 .7.3 1.9.3 2.7.2 4.1-.3 0 4.2-1.4 1.5l-1.4.4c1.2 3.7 8.2.6 5.5-2.6-1.2-1.3-3.3-.1-4.7-.8z"/>
  <path fill="#fff" d="M84.9 315.2c1.4-1.3.5-4-1.4-4.3-1-.2-3.5.9-4.5 1.1l2.5 7.7 1.4-.5-.9-2.8c.4-.1.9-.3 1.4-.5l2.4 2.3 1.6-.5-2.7-2.5h.2zm-4.1-2.5c.5-.1 1.7-.6 2.2-.5 1 .1 1.5 1.6.7 2.3-.3.3-1.4.6-2.1.8l-.8-2.6zM57 319.2l-2.7.9 2.5 7.7 2.6-.9c5.1-1.2 2.4-9.6-2.4-7.7zm.9 6.9-1.7-5.3c1.8-.8 3.8-.9 4.4 1.5.9 2.2-.7 3.4-2.7 3.8zm4.07279-8.55018 1.4256-.46665 2.51991 7.69824-1.4256.46665zm30.81452-10.02728 1.4256-.46665 2.51991 7.69824-1.4256.46665zM70 321.6l-.1.1-4-5.4-1.5.5 5.2 6.8 1.8-.6.2-8.6-1.6.5zm6.1-1.4-.7-2.1 3.4-1.1-.4-1.2-3.4 1.1-.7-2.1 3.7-1.2-.4-1.1-5 1.6 2.5 7.7 5-1.7-.4-1.1zm72.2-23.7-.7-2.1 3.3-1.1-.4-1.1-3.3 1.1-.7-2.1 3.6-1.2-.4-1.2-5 1.7 2.6 7.7 5-1.7-.4-1.1zm-47 11.8-3.2 1-.7-2 3.6-1.2-.4-1.2-5 1.6 2.6 7.7 1.4-.4-1.1-3.3 3.2-1zm40.9-10.3h-.1l-4-5.4-1.5.5 5.2 6.9 1.7-.6.2-8.6-1.5.5zm15.8-3.3 1.6-.5-2.7-2.5.1-.1c1.4-1.3.5-4-1.4-4.3-1-.2-3.5.9-4.5 1.1l2.5 7.7 1.4-.5-.9-2.8c.4-.1.9-.3 1.4-.5l2.5 2.4zm-5.1-5.6c.5-.1 1.7-.6 2.2-.5 1 .1 1.5 1.6.7 2.3-.3.3-1.4.6-2.1.8l-.8-2.6zm-24.6 12.4c.1 2.9-4 2.7-4.4 0-1.2-2.4 2-5 3.6-2.6l1.4-.5c-2.1-4.1-8.3-.6-6.4 3.5.9 4.4 7.9 3.6 7.2-.9l-1.4.5zm2.1-2.1c1.4 5.3 9 2.8 7.1-2.3-1.5-5.3-9.1-2.8-7.1 2.3zm1.4-.4c-1.4-3.5 3.4-5 4.3-1.4 1.3 3.4-3.4 5-4.3 1.4zm-29.91225 5.51773 1.4256-.46665 2.51991 7.69824-1.4256.46665zM108.3 309.6l-.7-2.1 3.3-1.1-.4-1.1-3.3 1.1-.7-2.1 3.6-1.2-.4-1.2-5 1.7 2.6 7.7 5-1.7-.4-1.2zm5.5-9-2.7.9 2.5 7.7 2.6-.9c5.1-1.2 2.4-9.6-2.4-7.7zm.9 6.9-1.7-5.3c1.8-.8 3.8-.9 4.4 1.5.9 2.2-.7 3.4-2.7 3.8zm-22.8 27.8-3.8 1.2.2.6 1.6-.5 1.5 4.5.6-.2-1.5-4.5 1.6-.6zm-6.3 2-.2 5.7.7-.2v-1.6l2.1-.7 1 1.3.7-.2-3.6-4.5-.7.2zm.5 3.3.1-2.6 1.6 2-1.7.6zm-8.13592-.76634.66528-.21777 1.67994 5.13216-.66528.21777zM71.1 342.1l-3.8 1.2.2.6 1.6-.5 1.5 4.5.6-.2-1.5-4.5 1.6-.6zm-5.4 1.8c.2 1.2 2.4 4.6.1 5.1-2.1.9-2.3-3.1-2.9-4.2l-.6.2c.7 1.6 1 5.7 3.7 4.6 2.8-.7.7-4.2.3-5.9l-.6.2zm10.4 1.6-1.5-4.5-.6.2 1.6 5.1 3-1-.1-.6zm-4.03559-3.74459.66528-.21777 1.67994 5.13216-.66528.21777zM81.9 343.6l1.4-5-.2-.4-3.5 1.1.2.6 2.8-1-1.4 5.1.1.4 3.5-1.1-.1-.6zm10.96675-8.64729.66528-.21777 1.67994 5.13216-.66528.21777zM119.7 326.2l-3.9 1.3.2.5 1.6-.5 1.5 4.6.6-.2-1.5-4.6 1.6-.6zm.85524-.3619.66521-.21784 1.68048 5.13162-.66521.21784zM127.6 326.4c-1-3.5-5.8-1.9-4.5 1.5 1 3.5 5.9 1.9 4.5-1.5zm-3.9 1.3c-1-2.6 2.6-3.8 3.3-1.1 1.1 2.7-2.6 3.9-3.3 1.1zm-10.3.6-.2 5.7.7-.2v-1.6l2.1-.7 1 1.3.7-.2-3.7-4.6-.6.3zm.5 3.3.1-2.6 1.6 2-1.7.6zM95.4 337c1 3.5 5.8 1.9 4.5-1.5-.9-3.5-5.8-1.9-4.5 1.5zm.6-.2c-1-2.6 2.6-3.8 3.3-1.1 1.1 2.6-2.6 3.8-3.3 1.1zm7.6-5.3 1.3 4-4.2-3.1-.6.2 1.7 5.1.6-.2-1.3-4h.1l4.1 3.1.6-.2-1.7-5.1zm7.5.7c.9-.8.3-2.5-.9-2.7-.6-.2-2.1.5-2.8.7l1.7 5.1.6-.2-.7-2c.4-.1.8-.2 1.2-.4l1.7 1.7.7-.2-1.8-1.7c.2-.2.3-.2.3-.3zm-2.9-1.6c.4-.1 1.4-.5 1.8-.4.7.1 1.1 1.2.6 1.8-.3.3-1.2.5-1.7.7l-.7-2.1zm-37 36.6-2.1-6.4.4-.1 2.1 6.4-.4.1zm-.1-5c-1.2-1.8-3.9 1.5-1 1.3.5 0 1.1-.1 1.6.1 2.9 1.4-1.7 4.8-2.8 2.1l.6-.2c1.2 2 4.2-1.6 1.1-1.4-.5 0-1.4.1-1.8-.2-2.4-1.6 1.9-4.3 2.8-1.9l-.5.2zm4.5 2.9c-1.6.8-3.2-1.5-1.6-2.5-1.6 0-1.6-2.5-.1-2.7 1.4-.6 2.9 1.3 1.6 2.3 1.9-.2 1.9 2.6.1 2.9zm-.1-.6c1.5-.4.8-2.5-.6-1.9-1.5.4-.9 2.6.6 1.9zm-.8-2.4c1.3-.3.6-2.2-.6-1.7-1.3.3-.6 2.2.6 1.7zm5.3 1.6c-2.5.8-4.2-4.4-1.7-5.3 2.4-.8 4.2 4.4 1.7 5.3zm-.2-.6c1.6-.6.3-4.6-1.4-4.2-1.5.7-.3 4.6 1.4 4.2zm4.6-.9c-2.5.8-4.2-4.4-1.7-5.3 2.5-.7 4.2 4.5 1.7 5.3zm-.2-.5c1.6-.6.3-4.6-1.4-4.2-1.5.6-.3 4.6 1.4 4.2zm3-.5-1.7-5.1.6-.2.8 2.5h.1l1.5-3.3.8-.3-1.4 3L91 360l-.8.2-2.6-1.8-.4.9.5 1.7-.5.2zM264.3 304l-2.1-6.4.4-.1 2.1 6.4-.4.1zm-.1-5c-1.2-1.8-3.9 1.5-1 1.3.7 0 1.5-.2 2.1.3 1.8 1.9-2.4 4.1-3.3 1.8l.6-.2c1.2 2 4.2-1.6 1.1-1.4-.5 0-1.4.1-1.8-.2-2.4-1.6 1.9-4.3 2.8-1.9l-.5.3zm3-2.4 1.7 5.1-.6.2-1.5-4.5-1 1.2-.2-.6 1-1.3.6-.1zm3.3 4.7c-.6.2-.9-.7-.3-.9.5-.2.8.7.3.9zm3-1c-2.1.7-3.1-2.5-2.8-4.1.3-1.5 2.5-1.8 3.2-.4l-.6.2c-1.2-1.5-2.7.5-1.9 1.9 1.4-3.3 5.4 1.2 2.1 2.4zm-.2-.5c1.4-.4.7-2.8-.7-2.3-1.5.4-.7 2.8.7 2.3zm1.3-5.6.7-.2 3.1 3.7h.1l.3-4.8.7-.2 1.7 5.1-.6.2-1.3-3.9-.3 4.4-.6.2-2.9-3.4 1.3 3.9-.6.2-1.6-5.2zm-10.5-9.5c-.8.3-1.7 0-2-.8l.6-.2c.4.9 1.9.6 2-.4.3-1.4-1.6-2-2.4-.9l-.6.1-.5-2.6 2.7-.9.2.6-2.1.7.3 1.6c1.9-2.5 4.7 1.8 1.8 2.8zm4.4-1.5c-2.5.8-4.2-4.4-1.7-5.3 2.4-.7 4.1 4.5 1.7 5.3zm-.2-.5c1.6-.6.3-4.6-1.4-4.2-1.6.6-.3 4.6 1.4 4.2zm5.2-2.2c-.8-1.4 1.4-2.5 1.9-.9.8 1.3-1.4 2.4-1.9.9zm.4-.5c.1 1 1.3 1 1.1 0-.1-1-1.4-1-1.1 0zm-3.9-1.6c-.8-1.4 1.4-2.5 1.9-.9.8 1.3-1.5 2.4-1.9.9zm.4-.5c.1.4.3.9.8.7.6-.2.3-1.1 0-1.4-.5-.3-1.1.3-.8.7zm1 4.3 1.8-6.3.6-.2-1.8 6.3-.6.2z"/>
  <path fill="#fff" fill-opacity=".2" d="m66.9 354.9 210-68.7c1-.3 2 .2 2.4 1.2.3 1-.2 2-1.2 2.4L68 358.4c-1 .3-2-.2-2.4-1.2-.2-.9.3-2 1.3-2.3z"/>
  <path fill="#fff" d="m66.9 355 106.3-34.8c1-.3 2 .2 2.3 1.2.3 1-.2 2-1.2 2.3L68.1 358.6c-1 .3-2-.2-2.3-1.2-.4-1 .1-2 1.1-2.4z"/>
  <path fill="#fff" fill-opacity=".1" d="m160.7 204.6 79.7-26.1c1.6-.5 3.2.3 3.7 1.9l4.4 13.3c.5 1.6-.3 3.2-1.9 3.7l-79.7 26.1c-1.6.5-3.2-.3-3.7-1.9l-4.4-13.3c-.5-1.5.4-3.1 1.9-3.7z"/>
  <path fill="#fff" d="m185.2 203.5.8 2.3c-3.8-2.4-3.8 5.4 0 4.4.6-.2 1-.7 1.1-1.2h.1l.2.7 1.1-.4-2-6.2-1.3.4zm.7 5.7c-1.5.5-2.5-2.5-1-3s2.4 2.5 1 3zm-18.36721.05811 1.14048-.37332 2.02215 6.1776-1.14048.37332zM180.7 205.9c.8-.2.4-1.5-.4-1.2-.8.3-.4 1.5.4 1.2zm-9 4.6-.3-.8-1 .3 1.5 4.6 1.1-.4-.9-2.7c-.4-.9.6-1.7 1.4-1.3.6.2 1.1 2.9 1.4 3.4l1.1-.4c-.3-.7-.9-3.4-1.5-3.8-.9-.8-2.8-.2-2.8 1.1zm8.65264-3.79014 1.04544-.3421 1.5239 4.65696-1.04544.3421zM179.4 210.4c.1 1.6-2.1 1.4-2.3-.1-.7-1.3 1-2.7 1.8-1.4l1-.3c-.5-1.5-2.7-1.4-3.6-.3-1.4 1.7.3 5 2.6 4.1 1-.3 1.7-1.3 1.4-2.3l-.9.3zm10.6-3.2c-.2-.1-.3-.4-.4-.6l3.2-1.1c-.3-2-2.7-2.8-4-1.3-1.4 1.7.4 5 2.7 4.1.9-.3 1.7-1 1.6-2l-1.1.2c0 1-1.4 1.4-2 .7zm1.6-2-2.2.7c-.4-1.4 1.7-2.2 2.2-.7zm38.5-11.1c-.2-.1-.3-.4-.4-.6l3.2-1.1c-.3-2-2.7-2.8-4-1.3-1.4 1.7.4 5 2.7 4.1.9-.3 1.7-1 1.6-2l-1.1.2c0 .9-1.4 1.3-2 .7zm1.6-2.1-2.2.7c-.4-1.3 1.8-2.2 2.2-.7zm-3.9.3-.3-1c-.7.1-1.3.6-1.3 1.3l-.3-.8-1.1.3 1.5 4.6 1.1-.4c-.2-1-2-4 .4-4zm8.9-5.7-1.1.4.8 2.3c-3.8-2.4-3.8 5.4 0 4.4.6-.2 1-.7 1.1-1.2h.1l.2.7 1.1-.4-2.2-6.2zm-.4 6c-1.5.5-2.5-2.5-1-3 1.5-.4 2.5 2.6 1 3zm-13.6.3.9 2.7c.4.8-.6 1.7-1.4 1.3-.6-.2-1.1-2.9-1.4-3.4l-1.1.4c.3.7.9 3.4 1.5 3.8.9.9 2.7.3 2.7-1l.3.8 1.1-.3-1.5-4.6-1.1.3zm-8.8 6.2c.1 1.6-2.1 1.4-2.3-.1-.7-1.3 1-2.7 1.8-1.4l1-.3c-.5-1.5-2.7-1.4-3.6-.3-1.4 1.7.3 5 2.6 4.1 1-.3 1.7-1.3 1.4-2.3l-.9.3zm4.9-1.6c.1 1.6-2.1 1.4-2.3-.1-.7-1.3 1-2.7 1.8-1.4l1-.3c-.5-1.5-2.7-1.4-3.6-.3-1.4 1.7.3 5 2.6 4.1 1-.3 1.7-1.3 1.4-2.3l-.9.3zm-15 3.3c1.1 4.2 7.2 2.2 5.7-1.8-1.2-4.3-7.3-2.3-5.7 1.8zm1.1-.4c-1.1-2.8 2.7-4 3.4-1.1 1.2 2.8-2.7 4-3.4 1.1zm-4.4 3.3-.8-2.4.9-.3-.3-.8-.9.3-.4-1.1-1.1.4s.2.5.4 1.1l-.7.2.3.8.7-.2c.4 1.2.8 2.6.8 2.6.3 1.1 1.7 1.1 2.5.5l-.5-.8c-.2.2-.8.2-.9-.3zm-6.2-.6-.3-.8-1 .3 1.5 4.6 1.1-.4-.9-2.7c-.4-.9.6-1.7 1.4-1.3.6.2 1.1 2.9 1.4 3.4l1.1-.4c-.3-.7-.9-3.4-1.5-3.8-.9-.8-2.8-.2-2.8 1.1z"/>
  <linearGradient id="n" x1="-61.9287" x2="177.9095" y1="-121.0629" y2="32.1391" gradientTransform="matrix(0.9504 -0.3111 -0.3111 -0.9504 80.0538 258.8377)" gradientUnits="userSpaceOnUse">
    <stop offset="0" stop-color="#414d5f"/>
    <stop offset="1" stop-color="#414d5f" stop-opacity="0"/>
  </linearGradient>
  <path fill="none" stroke="url(#n)" stroke-width=".7418" d="m22.2 234 220-72c7.6-2.5 15.8 1.7 18.2 9.2l40.4 123.4c2.5 7.6-1.7 15.8-9.2 18.2l-220 72c-7.6 2.5-15.8-1.7-18.2-9.2L13 252.2c-2.5-7.6 1.6-15.7 9.2-18.2z"/>
</svg>