<svg xmlns="http://www.w3.org/2000/svg" width="58.2" height="64" fill="#171717" xmlns:v="https://vecta.io/nano"><path d="M13.9 39.7h3.4l-3.9 10.2h3.7l6.3-16.6h5.5l-1.3-3.5h-2.8l5-13-5.3-14.4L6.2 49.9h3.7l4-10.2h0zm10.5-27.5l1.6 4.5-7.5 19.5h-3.4l9.3-24z"/><path d="M33.2 36.2h-7.4l-1.3 3.5h10l3.8 10.2H42l-6.1-16.6h3.4l6.1 16.6h3.7L31.5 2.3l-1.9 4.9 8.3 22.6h-3.4l-4.8-13-1.9 5c0 0 5.4 14.4 5.4 14.4zM6.9 61.4v1.2H.1c-.1-1.5-.2-4 1.9-4h2.9c1-.1.9-1.6-.1-1.6H0v-1.2c.6.1 5.1-.1 5.6.2 2 .7 1.4 3.8-.7 3.9-.7.2-3.7-.6-3.6.8h0v.8c0 0 5.6-.1 5.6-.1zm7.6 1.2h-1.4L11 58.5l-2.1 4.1H7.5l3.5-6.8 3.5 6.8zm2.7-3.4a2.22 2.22 0 0 0 2.2 2.2h3.4v1.2h-3.4c-4.5.1-4.5-6.9 0-6.8h3.4V57c-1.8.1-5.7-.7-5.6 2.2zm12.1 2.2l.6 1.2h-1.4c-.7-.9-1-3-2.3-3.1H25v3.1h-1.2v-6.8c.5.1 4.6-.1 5 .1 1.7.6 1.3 3.4-.5 3.5h0l1 2zM28 58.2c.8 0 .8-1.3 0-1.2h-3.1v1.3l3.1-.1zm2 4.4h0 0 0zm6.9-6.8l-2.6 3.4-.1.2v3.2H33v-3.2l-.2-.2-2.6-3.4h1.5l1.9 2.4 1.9-2.4h1.4 0zm-.1 6.8h0 0 0zm6.2-6.3c1.1 1 .4 3-1.1 3.1h-.1 0-3.3v3.1h-1.2v-6.8c1.2.2 5-.4 5.7.6h0 0 0zm-1 1.9c.6-.2.4-1.2-.3-1.2h-3.1v1.3c.2-.1 3.4 0 3.4-.1h0zm9.3-2.4V57h-2.8v5.6h-1.2V57h-2.8v-1.2h6.8zm6.9 3.4c.1 4-6.1 4.6-6.7.7-1-4.8 6.8-5.6 6.7-.7zm-1.2 0c.1-2.6-3.9-3-4.3-.4-.6 3 4.3 3.5 4.3.4h0 0z"/></svg>