<svg xmlns="http://www.w3.org/2000/svg" width="146" height="80" xmlns:v="https://vecta.io/nano"><path d="M42.2 3.4C41.8 6 44.3 5.1 45.9 5c2.4-.2 2.5-.3 2.4-2.6 0-2.5-3.5-.8-5-1-1.1.1-1.2 1.2-1.1 2zM61 33.7l-3 8.5 6.3-.5-3.1-8H61zm-46.8 7.9c2.6-.5 6.7.5 7.9-2.5 1.3-4.8-5.2-2.8-7.9-3h0v5.5h0zm21.5-1.4c3-.5 9.3.3 8.5-4.3-1.3-3.2-5.8-1.1-8.5-1.4h0v5.7zm-14.8 4.3c-2.2-.1-4.5 0-6.7.2h0v6c3.2-.4 9.5.4 8.9-4.4-.1-1-.8-1.7-2.2-1.8zm103.2-13.4c3.6 1.4 8 .6 10.6 3.9h0v-7h-.1c-.2 1.8-2.6 3.4-3.8 1.4-.5-1-1.3-2-2.3-2.4-2.5-1.6-8.3 1.8-4.4 4.1zm-35.7-3.8c-3.1.3-6.4.5-9.8.8L88 41.2h.2c.1-4.7-.2-9.3.2-13.9zm-40.8-18c-.2-1.7-2.4-.8-3.5-.8-.9.1-1.1.4-1.1 1.3.5 2.5-1.2 18.5 1.1 17.9 1.5-.2 3.9.1 3.6-2l-.1-16.4zm53.8 34.2c3.5-.4 8-.1 9-4.3 1.8-7-.4-11.4-8.2-10-1.8-.7-.5 12.5-.8 14.3zM116.7 21c2.4.4 4.8-.1 7.1-.8 2.4-.7 1.9-.9 2-2.6.1-4-9.1 2.7-9.1-2.5-.1-2.2.1-4.4 0-6.6-.1-6.2 10.2.4 9.1-5.3 0-.7-.3-1.1-1-1.2-5-1.2-12.7.3-12.8 6.5.1 4.5-1.4 11.5 4.7 12.5zm-95 7.2c0 1.1.4 1.4 1.5 1.4 1.3-.2 3.3.1 3.1-1.7.6-3.2-1.8-13.8 2.2-14.2 2-.2 5.4-1.1 5.4 1.9v11.6c-.1 1.8 1.8 1.3 3 1.2 1.3-.1 1.7-.5 1.7-1.7-1-5.4 2.9-15-4.4-16.9-14.6-1.9-12.6 7.7-12.5 18.4zm-8.9-2c0 .2-.4.4-.7.4-2.1-.1-6.2 1.5-6.9-1.2-.3-3.9 5-2.8 7.6-3.2 0 1.4.1 2.7 0 4zm4.6 2.2c-.3-9.6 3-19.9-11.2-16.4-2 .2-1.9 1.2-1.8 2.9.3 3.3 9.5-3 8.4 3.4-15-.9-15.8 13.3-4.6 12.6l7.6-.7c1.3-.1 1.6-.4 1.6-1.8zm123.1-13.1c-2.4-.2-7 2-7.6-1.5.3-3.6 5-2.3 7.6-2.9v4.4zm4.6-10C145-.4 138.2-.5 134 .7c-2 .4-2 .5-2 2.5-.2 3 4.7.4 6.4.8 1.6 0 2.3 1.5 2 3-14.7-.9-15.7 12.4-5.8 12.6 14.9-1 9.6.5 10.5-14.3zM51.8 25.8c0 1.7 2.1.8 3.2.9 1.1-.1 1.4-.4 1.4-1.5V13.8c-.1-2.9 2.8-3 5-3 1.9-.1 2.6.5 2.6 2.4v10.9c0 .9.1 1.9 1.1 1.7 1.3-.2 3.6.3 3.5-1.7V12.7c-.1-2.9 2.7-2.9 4.9-3 4.9-.9 2.1 9 2.8 12 .1 1-.5 3.1 1.1 3 1.3-.2 3.5.4 3.5-1.6-.9-5.3 2.7-14.8-4-17-3.4-.6-7.7-.4-10.5 1.8-3.2-1.4-6.9-1-10.2-.1-7.2 2.7-3.5 12.1-4.4 18zm45-9.1c1.9.1 1.5 2.9-.3 2.7-1.9 0-1.4-2.8.3-2.7zm4.9-.4c1.9.1 1.4 2.8-.3 2.8-2-.1-1.5-2.9.3-2.8zM82.3 6.6c.6-.1 1.1-.4 1.5-.5 1.6 1.4 3.1 2.8 4.9 4.3-1.1.4-2 .7-2.8.9-.9-1.6-3-.9-3.1.7.1 1.8 2 2.1 3.2.3 2.8 1.2 2.6.7 3 3.7 1.3 5 6.1 7.9 11.3 6.9 12.5-2 13-21.3-.9-20.6-2 .2-3.9.8-5.6 2-1 .7-2-.9-2.8-1.2.9-2-1-3.1-2.4-2.1-1.3 1.3-.6 3.3 1.7 2.8.2 1 .3 2 .5 3.1-2.1-1-4.8-1-6.3-2.5-.3-1.1-1.1-1.6-2.2-1.4-2.1.2-2.4 3.8 0 3.6zm51.4 35.6c-3.9 4.5-15 4.5-15.4-2.5 0-.9.7-1.7 1.5-1.9 1.8-.6 2.4 1.5 3.1 2.8 1.8 3 8.5 1.5 8.1-2.3-1.7-4.1-9.1-1.3-11.5-5.4-2.2-3.2.3-7 3.3-8.5l-14.3 1.3.1.1c6.6 1 7.8 9 6 14.3-1.8 7-9.9 6.9-15.8 7.1-1.5.1-1.8-1.3-1.8-2.6.5-4-1.3-15.9 1.1-18-2.1.1-4.2.2-6.1.4.7 5.8.1 11.6.3 17.4 0 1.5 0 3.3-1.7 3.7-3.7 1.6-9.3-10.8-12.2-13.6h0V47c.1 2.7-4.2 3.3-4 .1.2-6.2-.4-12.4.4-18.6l-11.3 1c2.9 5.8 5.2 11.8 7.6 17.7.8 2.1-3 4.1-3.9 1.5-.9-1.1-.8-3.6-2.3-3.8l-8 .7c-1.1 1.8-1 5.5-3.7 5.6-.8 0-1.5-.4-1.6-1 .8-7 5.1-13.5 7.2-20.3l-13.5 1.2c6 2.3 3.7 10.1-1.7 11.1 2.2 1.5 8.8 8.5 3.5 9.6-1 .1-1.7-.4-2.2-1.2-2.4-3.3-4.1-8.5-9.1-7.2-.5 2.9 1.8 9.3-2.6 9.5-1-.1-1.6-.7-1.7-1.9 0-6.2-.5-12.6.3-18.7l-7.9.7c3.8 1.9 3.9 7 0 9.1 3.3 1.3 5.1 4.7 3.1 7.9-2.4 4.3-8.1 3.5-12.3 4.1-1.4.1-2.8.6-4.1-.3C41.7 64 77 70.8 109.5 79.9c.5.1.8.1 1.1-.4 8-12.9 17-25.3 24.6-38.4-.8.3-1.1.7-1.5 1.1z" fill="#2c2c2c"/></svg>