<svg xmlns="http://www.w3.org/2000/svg" width="152" height="64" xmlns:v="https://vecta.io/nano"><path d="M4.8 12.1L0 17.7l3.2-1.5 1.6-4.1z" fill="#d9d9d9"/><path d="M0,17.7L5,20l-1.8-3.8L0,17.7z" fill="#919191"/><path d="M0 17.7l.5 7.9L5 20l-5-2.3z" fill="#868686"/><path d="M5 20v3.3L.5 25.6 5 20z" fill="#d9d9d9"/><path d="M5,20l7.1,4.5L5,23.3V20z" fill="#bbb"/><path d="M12.1 22.4v2.1L5 20l7.1 2.4zM.5 25.6l4.6 1-.1-3.3-4.5 2.3z" fill="#919191"/><g fill="#868686"><path d="M12.1 24.5l-7 2.1-.1-3.3 7.1 1.2z"/><path d="M3.2 32.4l1.9-5.8-4.6-1 2.7 6.8z"/></g><path d="M12.1 24.5l-4.8 5.6-2.2-3.5 7-2.1z" fill="#bbb"/><path d="M3.2 32.4l4.1-2.3-2.2-3.5-1.9 5.8z" fill="#d9d9d9"/><path d="M12.1 22.4l6.8 3.8-6.8-1.7v-2.1z" fill="#7c7c7c"/><path d="M17 28.4l1.9-2.2-6.8-1.7 4.9 3.9z" fill="#949494"/><path d="M15.8 29.9l1.2-1.5-4.9-3.9 3.7 5.4z" fill="#444"/><path d="M7.3 30.1l8.5-.2-3.7-5.4-4.8 5.6z" fill="#7c7c7c"/><path d="M7.1 35.7l.2-5.6-4.1 2.3 3.9 3.3z" fill="#919191"/><path d="M12.8 36.8l-5.5-6.7-.2 5.6 5.7 1.1z" fill="#949494"/><path d="M15.8 29.9l-3 6.9-5.5-6.7 8.5-.2z" fill="#868686"/><g fill="#444"><path d="M17 28.4l4.7.3-1.9 1.8-2.8-2.1z"/><path d="M19.8 30.5l-2.2 1.9-1.8-2.5 1.2-1.5 2.8 2.1z"/><path d="M15.8 29.9l1.8 2.5-4.8 4.4 3-6.9z"/></g><path d="M21.9 32.1l-2.1-1.6-2.2 1.9 2.2 3.3 2.1-3.6z" fill="#4a4a4a"/><path d="M21.7 28.7l.2 3.4-2.1-1.6 1.9-1.8z" fill="#444"/><path d="M12.8 36.8l7-1.1-2.2-3.3-4.8 4.4z" fill="#7c7c7c"/><path d="M12.7 42.3l.1-5.5-5.7-1.1 5.6 6.6z" fill="#868686"/><path d="M18.2 38.6l-5.4-1.8-.1 5.5 5.5-3.7z" fill="#d9d9d9"/><path d="M19.8 35.7l-1.6 2.9-5.4-1.8 7-1.1z" fill="#bbb"/><path d="M16.4 46l1.8-7.4-5.5 3.7 3.7 3.7z" fill="#919191"/><path d="M20,44.2L16.4,46l1.8-7.4L20,44.2z" fill="#949494"/><path d="M22.2 39.4L20 44.2l-1.8-5.6 4 .8z" fill="#868686"/><path d="M19.8 35.7l2.4 3.7-4-.8 1.6-2.9z" fill="#7c7c7c"/><path d="M26.3 37.7l-6.5-2 2.4 3.7 4.1-1.7z" fill="#5a5a5a"/><path d="M21.9 32.1l4.4 5.6-6.5-2 2.1-3.6z" fill="#535353"/><path d="M26.3 45.1l-4.1-5.7 4.1 1.6v4.1z" fill="#444"/><path d="M26.3 37.7V41l-4.1-1.6 4.1-1.7zm-4.6-9l4.6 3.4h-4.4l-.2-3.4z" fill="#4a4a4a"/><path d="M22.9 21.3l-4 4.9-1.9 2.2 4.7.3 4.6-4.4-3.4-3z" fill="#5a5a5a"/><path d="M26.3 20.3l-3.4 1 3.4 3v-4z" fill="#616161"/><path d="M26.3 17.2v3.1l-3.4 1 3.4-4.1z" fill="#686868"/><path d="M26.3 28.7v3.4l-4.6-3.4h4.6z" fill="#535353"/><path d="M47.8 12.1l4.8 5.6-3.2-1.5-1.6-4.1z" fill="#b4b4b4"/><path d="M52.6 17.7l-5 2.3 1.8-3.8 3.2 1.5z" fill="#878787"/><path d="M52.6 17.7l-.5 7.9-4.5-5.6 5-2.3z" fill="#6d6d6d"/><path d="M47.6,20v3.3l4.5,2.3L47.6,20z" fill="#b4b4b4"/><path d="M47.6,20l-7.1,4.5l7.1-1.2V20z" fill="#a4a4a4"/><path d="M40.5 22.4v2.1l7.1-4.5-7.1 2.4zm11.6 3.2l-4.6 1 .1-3.3 4.5 2.3z" fill="#878787"/><g fill="#6d6d6d"><path d="M40.5 24.5l7 2.1.1-3.3-7.1 1.2z"/><path d="M49.4 32.4l-1.9-5.8 4.6-1-2.7 6.8z"/></g><path d="M40.5 24.5l4.9 5.6 2.1-3.5-7-2.1z" fill="#a4a4a4"/><path d="M49.4 32.4l-4-2.3 2.1-3.5 1.9 5.8z" fill="#b4b4b4"/><path d="M40.5,22.4l-6.8,3.8l6.8-1.7V22.4z" fill="#484848"/><path d="M35.6 28.4l-1.9-2.2 6.8-1.7-4.9 3.9z" fill="#5c5c5c"/><path d="M36.8 29.9l-1.2-1.5 4.9-3.9-3.7 5.4z" fill="#1b1b1b"/><path d="M45.4 30.1l-8.6-.2 3.7-5.4 4.9 5.6z" fill="#484848"/><path d="M45.5 35.7l-.1-5.6 4 2.3-3.9 3.3z" fill="#878787"/><path d="M39.8 36.8l5.6-6.7.1 5.6-5.7 1.1z" fill="#6d6d6d"/><path d="M36.8 29.9l3 6.9 5.6-6.7-8.6-.2z" fill="#5c5c5c"/><g fill="#1b1b1b"><path d="M35.6 28.4l-4.7.3 1.9 1.8 2.8-2.1z"/><path d="M30.9 28.7l-.2 3.4 2.1-1.6-1.9-1.8zm5.9 1.2L35 32.4l4.8 4.4-3-6.9z"/><path d="M32.8 30.5l2.2 1.9 1.8-2.5-1.2-1.5-2.8 2.1z"/></g><path d="M30.7 32.1l2.1-1.6 2.2 1.9-2.2 3.3-2.1-3.6z" fill="#2e2e2e"/><path d="M39.8 36.8l-7-1.1 2.2-3.3 4.8 4.4z" fill="#484848"/><path d="M39.9 42.3l-.1-5.5 5.7-1.1-5.6 6.6z" fill="#6d6d6d"/><path d="M34.4 38.6l5.4-1.8.1 5.5-5.5-3.7z" fill="#b4b4b4"/><path d="M32.8 35.7l1.6 2.9 5.4-1.8-7-1.1z" fill="#a4a4a4"/><path d="M36.2,46l-1.8-7.4l5.5,3.7L36.2,46z" fill="#878787"/><path d="M32.6 44.2l3.6 1.8-1.8-7.4-1.8 5.6z" fill="#6d6d6d"/><path d="M30.4 39.4l2.2 4.8 1.8-5.6-4 .8z" fill="#5c5c5c"/><path d="M32.8 35.7l-2.4 3.7 4-.8-1.6-2.9z" fill="#484848"/><path d="M26.3 37.7l6.5-2-2.4 3.7-4.1-1.7z" fill="#464646"/><path d="M30.7 32.1l-4.4 5.6 6.5-2-2.1-3.6z" fill="#3d3d3d"/><path d="M26.3 45.1l4.1-5.7-4.1 1.6v4.1z" fill="#232323"/><path d="M26.3 37.7V41l4.1-1.6-4.1-1.7zm4.6-9l-4.6 3.4h4.4l.2-3.4z" fill="#2e2e2e"/><path d="M33.7 26.2l-3.9-4.9-3.5 3 4.6 4.4 4.7-.3-1.9-2.2z" fill="#3d3d3d"/><path d="M26.3 20.3l3.5 1-3.5 3v-4z" fill="#464646"/><path d="M26.3 17.2v3.1l3.5 1-3.5-4.1z" fill="#828282"/><path d="M26.3 28.7v3.4l4.6-3.4h-4.6z" fill="#3d3d3d"/><path d="M66.7 17.6L53.3 44.5h6.6l1.5-3.5h10.8l1.5 3.5h6.6L66.7 17.6zm3.4 18.7h-3.4-3.4l3.4-8.1 3.4 8.1zm24.5-17.9l-6.1 14.5-6.1-14.5h-6.6l12.4 27.1h.3.3l12.5-27.1h-6.7zm18.2.4h13V22h-13v-3.2z"/><path d="M117.5 21.5h3.6v12.3h-3.6V21.5zm22.4-2.7h3.5v15h-3.5v-15zm7.9 15l-4.2-6.2h4l4.4 6.2h-4.2z"/><path d="M150.1 23.6c0 1.3-.5 2.4-1.3 3.2s-2 1.3-3.2 1.3h-2.2v-2.4h1.5c.5 0 1-.2 1.4-.6s.6-.8.6-1.4c0-1.1-.9-2-2-2h-1.5v-2.9h2.2c2.5.2 4.5 2.3 4.5 4.8zm-17.5-2.4l-1.4-2.8-1.4 2.8-6.3 12.6h3.8l.9-2.1h6.1l.9 2.1h3.8l-6.4-12.6h0zm-3.3 7.8l1.9-4.5 1.9 4.5h-3.8 0zm-18.5-9.9v3.7c-2.3-1.5-4.5-1.8-5.1-.9-1.2 2.5 6.3 2.7 6.3 7.5 0 5.6-5.7 5.5-9.4 4.2l-.3-4c2.4 1.3 6 2.5 6.2.1-.1-2.6-6.3-2-6.3-7.6 0-2.1 2.6-5 8.6-3zm.9 19h-1.2l-4.2 7.2h1.2l4.2-7.2z"/><path d="M110.6 38.1h1.2l4.2 7.2h-1.2l-4.2-7.2zm5.9 0h1v7.2h-1v-7.2zm9.3 0h1v7.2h-1v-7.2zm19.6 0h1v7.2h-1v-7.2z"/><path d="M145.4 44.3h6.5v1h-6.5v-1zm-14.2-6.2h1v7.2h-1v-7.2zM108.1 43h6v.8h-6V43zm32.5-4.9h-1.2l-4.2 7.2h1.2l4.2-7.2z"/><path d="M139.4 38.1h1.2l4.2 7.2h-1.2l-4.2-7.2z"/><path d="M137 43h6v.8h-6V43zm-12.5-2.7c0 .6-.2 1.2-.7 1.6-.4.4-1 .7-1.6.7h-5.7v-.7h5.5c.4 0 .8-.2 1.1-.4.3-.3.4-.6.4-1.1a1.54 1.54 0 0 0-1.5-1.5h-5.5v-.7h5.7c1.2-.1 2.3.9 2.3 2.1zm3.1-2.2h8.1v.9h-8.1v-.9zm-22.7 5c0 .7-.6 1.2-1.2 1.2h-3.9c-.7 0-1.2-.6-1.2-1.2v-2.8c0-.7.6-1.2 1.2-1.2h3.9c.7 0 1.2.6 1.2 1.2v.2h1.1c0-1.3-1.1-2.4-2.4-2.4h-3.7c-1.3 0-2.4 1.1-2.4 2.4v2.4c0 1.3 1.1 2.4 2.4 2.4h3.7c1.3 0 2.4-1.1 2.4-2.4h-1.1c0 0 0 .2 0 .2z"/></svg>