<svg xmlns="http://www.w3.org/2000/svg" width="171.2" height="64" xmlns:v="https://vecta.io/nano"><path d="M29.9 34.6c0-6.8-8.4-23.9-16.7-23-15.8 12.3-19.7 32.7 1.4 43h.2c8.1-3.3 15.9-14.5 15.1-20z" fill="#171717"/><path d="M14.7 29.2c3.5.1 3.5-5.5 0-5.4-3.5-.1-3.5 5.4 0 5.4z" fill="#969696"/><g fill="#fff"><path d="M14.9 53c0-.2 0-1.3-.3-.8.1.2.2 1.5.3.8zm4.2-30.5c.5 0 1.2-.8 1.5-1.3-.6.2-1.5.8-1.5 1.3zM9.4 47.4c-.2.1-.8 0-.8.5.1.2 1.2-.4.8-.5zm7.4 4.9c-.3.3-.6.9-.7 1.4.3-.1 1.1-1.1.7-1.4zm-3.3-4.5c0-.1 0 0 0 0h0zm-.4-19.7h0c0 .1.1.1 0 0zm-1.4-8.2c.2.4.3 1 .7 1.3.5 0-.6-2.2-.7-1.3zm10 17.4h0 0zm-9.9 10.6s-.1 0 0 0c0 .1 0 0 0 0zM5.7 26.1c0-.3-.8-1.1-1-.7.4 0 .6.7 1 .7zm-.2 16.7c-.2-.2-.7 1.1-.4 1.1.3-.2.4-.7.4-1.1zm-1.2-1.2c-.4.6-.2.8.3.2.3-.6.3-.7-.3-.2zm8.8-25.2c.4-.1 1-1.2 1.1-1.8-.3.3-1.2 1.4-1.1 1.8zm-7 27.4c-.2.1-.7.9-.3 1.1.2-.1.5-.9.3-1.1zm14.4-3.2h0 0zm-17-1.2c.3-.6-.8.1-.8.4.2.4.7-.2.8-.4zm16.9-5.3s-.1 0 0 0h0zM4 40.2c-.3 0-1.1.6-.7.9.1 0 .8-.7.7-.9zm11.4-15.4h0 0zm4.9 9.4h0c0-.1 0-.1 0 0zM8.7 48s0-.1 0 0c0-.1 0 0 0 0z"/><path d="M15.4 24.8h0 0zM8.8 47.1c.5 0 .5-.3.1-.3-.6-.2-.7.3-.1.3zm8.8.1h0 0zm-.8-32.1c.3.1.6.6.8.6-.1-.7-2-1.8-.8-.6zm1.4 10.2c.4.5-.2 2 .4 1.9.3-.5-.3-2.9-.4-1.9zm1.5 1.2c0 .1 0 0 0 0h0zm.4-1.4c-.1.2-.8.6-.5.7.5-.2 1.4-1.6.5-.7zm-.2 1.3c-.5.5.9.2 1.2.1.8-.3-.9-.3-1.2-.1zm2.1-1.8c.2.1 1.2-.8 1.1-1.1-.5.1-1 .7-1.1 1.1zm1.3 3.2h0s0 .1 0 0zM21.6 48c-.2-.1-.8-.2-1 0 .1.3 1.1.4 1 0zm-6.5-33.5v.4c.5 1.7.2-2.9 0-.4zm6.8 32.6c-.3 0-1.3-.4-1.1.1.3.2 1 .2 1.1-.1zm-7.4-28.6c.1.5-.3 2.1.4 1.9 0-.5.3-2.1-.4-1.9zm-4.4 18.9h0 0zM22.7 34h0 0zm-6.2-13c.4.3.5-.3.6-.6 1-1.8-1-.4-.6.6zM19 33.4c-.1 0-.1.1 0 0-.1 0 0 0 0 0zm-5.4 19.9c-.2-.2-.5-.8-.7-.8-.4.3 1.2 1.7.7.8zm13.5-9.6c-.3-.1-.5-.4-.8-.5-.7.1 1.1 1.1.8.5zM26 44.8c-.2-.1-.7-.8-.7-.2.2.5 1.4 1 .7.2zm.5-1c0-.1 0-.1 0 0 0-.1 0 0 0 0zm.8-10.5c.1.3.7.7.9.3-.1-.3-1.2-1.1-.9-.3zm.3-1.6c-1.2.4 1.3.5.5 0-.1 0-.4.1-.5 0zm-.9-.6c.4-.3 1-.4 1.3-.8-.2-.2-1.7.4-1.3.8zm2.4 7.8c-.3-.4-1.5-.2-.6.1.1.3 1 .3.6-.1zm-20.5-12c.2 0 .8.2.8-.1 0-.2-1-.1-.8.1zM2.8 38.4h0c1.5-1.6-1.9.8 0 0zm25.8 2.1c-.2-.2-.9-.6-.8-.2.2.2 1.1.9.8.2zm-.6 1.6c-.2-.2-.7-.7-1-.5-.1.3 1 .8 1 .5zM6.7 23.7c.1.4.4.6.7.7.5 0-1.3-1.9-.7-.7zm4.4 3.1c.6 1.4-.2-1.2.3-1.7-.4-.4-.6 1.3-.3 1.7zm-8.7 4.3c.3.1.7.3 1 .2 0-.4-1.5-.7-1-.2zm16.3 10.5h0 0zm2.8-4.1h0 0z"/><path d="M21.5 37.5s0-.1 0 0h0zM3.2 32.6c.6-.6-.6-.3-.7.1 0 .3.4-.2.7-.1zm-.5 1.5c.4.1.7-.7 1-1-.2-.1-.9.7-1 1zm9-7.1c1 4.5 7.8 2.4 6.1-1.7-1.4-3.5-7.2-2.2-6.1 1.7zm.7-.1h0 0zm.6 1.2c-.1-.1 0-.1 0 0h0 0zm-.6-2.2c4.7-7.6 7.2 7.7.4 1.8-.3-.4-.4-1.2-.4-1.8zm6.4 15.7h0 0zm-7.4-16.7c-.1.1 0 0 0 0h0z"/><path d="M13.6 28.2c.7.2-.4-.8-.6-1-.3.4.3.8.6 1zm1.9-3.4c.2.3.7.5.8.9.6 2.8.8-1.1-.7-1.1-.1-.2-.4 0-.1.2zm-6.4-2.6c.1.2.3.6.6.5.1-.6-1.4-2-.6-.5zm15.1 6.4c-3.5-2.9-6.9 2.1-10.5 1.2-1.6-.8-3.2-2.1-5.1-1.7-10 3.4 16.6 4 15.6.5zM5.8 30h0 0zm.3.3c-.1-.1-.1-.1 0 0h0zm.5.1h0 0zM24.9 46c-.7-1.3-.6.2.1.5.2 0 0-.4-.1-.5z"/><path d="M25 25.1c-.4.4-1.1.7-1.2 1.2.5 0 1.6-1.1 1.2-1.2zM7.1 32.4c.2 1.1 2.2.4 1.4-.6-.4-.6-1.4-.1-1.4.6zm16.7 3.9c-.3-7.2-9.8 1.2-8.7-2.5-1 2 .1 6.1-.3 8.9-.1.6 4.3-1.8 1.7 1.5-1.1.7-1.5-1.1-2.5-.4-2.4 2.1-2.2-3.2 0-.8.7-2.1.1-7-.5-9.4.1 2.7-.5.3-2.1.1-7.8-1.6-6 8.4.2 9.1-.8 6.8 13.5-2.8 12.2-6.5zm-9.8-.8h0 0zm-2.1-1.3c.5.1.8.6 1.1.6 1.3 1.6.3 4.9.8 7.2-.8-2.1-.7-6-1.9-7.8zm-1.5-.3c2.4.7 2.4 5.7 2.5 7.7-.9-1.9-1.5-5.8-2.5-7.7zm-3.6 4.9h0c0-.1 0 0 0 0zm.5.7h0s.1.1 0 0zm.2.3h0 0zm1.6.6c-1.3-1-2.8-2.7-2.2-4.5.9.6 1.7 3.2 2.2 4.5zm1.1.8c-1.4-1.4-1.5-4.3-3.1-5.9 1.4-1.9 3.2 5.1 3.1 5.9zm.6.3c-.7-2.4-1.2-4.9-2.7-6.9 1.2-1.5 3.7 6.8 2.7 6.9zm.6-1.7h0s-.1 0 0 0zm.8 2.1c-1-1.2-.5-2.5-1.4-4-2.9-8.2 1.5 0 1.4 4zm10.7-6.5c0 .1 0 .1 0 0 0 .1 0 .1 0 0zm-.3-.6s0 .1 0 0c0 .1 0 0 0 0zm-7.3 4.4h0s0 .1 0 0zm1-2.2c.2 10.1-3.6-1.4 1.2-2.7-.6.8-1.1 1.8-1.2 2.7zm.3 5.2c-.1 0 0-.1 0 0 0-.1 0 0 0 0zm.4.1h0 0 0zm0-3.1c-.8 5.7-1.2-4.7 1.7-5.2 2-.7-2.1 3.4-1.7 5.2zm.6 1.8c-1.4 1.2 1.1-7.8 3.8-7.1 0 1.6-3.6 4.5-3.8 7.1zm.5.5c-1 .9 2-6.3 4.1-6.8 1.3 1.6-3.8 4.2-4.1 6.8zm4.7-3.5c-.5 1.1-1.2 1.9-2.2 2.5-1.3 1.1 1.8-2.8 2.2-2.5zm.1-.2c-.1 0 0-.1 0 0h0zm.1-.6c-2.1.9-2.8 4-4.6 4.6.5-1.3 4.4-7.2 4.6-4.6z"/><path d="M14.9 42.4h0zm4.3-1h0 0zm-10.1-8s-.1 0 0 0c-.1 0-.1 0 0 0zm3.7-5.7h0c0 .1 0 .1 0 0zm3.4 16c.5.2 1-.7.4-.8-.3-.1-.7.5-.4.8zM9.6 25.8c-.8-.6.3 1.2.3.3l-.3-.3zm13.5 5.8c-.5-1.2-2.3.1-1.2.9.6.1 1.4-.2 1.2-.9zm-9.8 11.6c0-.4-.6-.5-.7-.2-.2.6.6.8.7.2zm-.6-.2h0 0zm10-8.9h0 0zM19 41.5h0c0-.1.1-.1 0 0zm2.5-4h0 0zm-10.6.7h0 0zm9.2 2.7c0 .1.2-.1 0 0 .1-.1.1-.1 0 0zm-4.8-1.7h0c-.1 0 0 .1 0 0zm-8.6-.5c0 .1.1.1 0 0 .1.1.1 0 0 0zm3.4-1.3c.1 0 .1-.1 0 0h0z"/><path d="M16.6 42.1s0 .1 0 0c0 .1 0-.1 0 0zm-5.3-2.3h0c.1 0 0-.1 0 0zm11.5-2.1h0 0zm-.2-2.8h0 0zm.3.5h0 0zm-8.9.1h0 0zm-3.1 2.7h0 0zm.3 1.2h0c0-.1 0 0 0 0zm-3.9.1h0 0zm.2.2h0 0zm3.9.2h0 0zm5.6 2.4h0 0zm3.4-8.2s-.1 0 0 0c-.1 0 0 0 0 0z"/><path d="M20.4 34.1h0 0z"/><path d="M20.4 34.1h0 0z"/><path d="M20.4 34.1h0 0z"/><path d="M20.4 34.1h0 0zm2.3-.1h0 0zm-8.5 4.9h0 0zm8.5-4h0 0zm-11.5 4.4h0 0zm-3.9.2h0 0zm12-4.3h0 0zM9.1 40.4h0 0zm11.4.2h0c0 .1 0 .1 0 0zm-.3.2h0 0z"/><path d="M20.2 40.8h0 0z"/><path d="M20.2 40.8h0 0z"/><path d="M20.2 40.8h0 0zm-7.2-6h0 0zm-1.8 7.6h0 0zm10.3-5h0c0 .1 0 .1 0 0zM16.8 44c-.1 0-.1 0 0 0-.1 0 0 0 0 0zm-.1 0h0 0zm6.2-8.5h0 0zm-2.6-1.3h0c0-.1 0 0 0 0zM6 30.2s.1.1 0 0h0zm6.9-2.3h0s0 .1 0 0zm-.1-.2h0 0zm.2.3s-.1 0 0 0c-.1 0 0 0 0 0zm.1.1h0 0zm0 .1h0 0zm6.6-1.7s0 .1 0 0h0zm-7 16.5h0c0-.1 0 0 0 0zm-4 4.9h0 0zm6.8-23.3h0 0zm2.3 23c-1-1.3-4.2-.7-5.7-.2-2 .5 5.5.3 5.7.2zm-5.4-.2h0 0zm.1 0h0 0zm.2-.1h0c.1.1 0 0 0 0z"/><path d="M13.1 47.1c-.5-2-1.2-.3-.8.5.1-.1 1.1-.3.8-.5zm3.3-.1c.9.8.8-.8.5-1.2-.2.3-1 1.2-.5 1.2z"/></g><path d="M42.1 25.5h5.3c4.9-.3 6.8 5.2 3.8 7.9 3.9 2.4 2 9-3.2 8.7h-5.8c0 0-.1-16.6-.1-16.6zm4.1 3.7v3c2.5.7 3.4-2.8.7-3h-.7zm1.2 9.1c2.3.2 2.5-3.5 0-3.4h-1.1v3.4h1.1zm16.9 1.3h-4.9l-.7 2.4h-4.2l5.6-16.6h3.5L69.2 42H65l-.7-2.4zm-3.9-3.3h2.8l-1.4-4.7c0 0-1.4 4.7-1.4 4.7zm11-10.8h5.3c4.9-.3 6.8 5.2 3.8 7.9 3.9 2.4 2 9-3.2 8.7h-5.8l-.1-16.6zm4.1 3.7v3c2.5.7 3.4-2.8.7-3h-.7zm1.2 9.1c2.3.2 2.5-3.5 0-3.4h-1.1v3.4h1.1zm8-4.5c-.3-11.3 16.9-11.3 16.6 0 .3 11.3-16.9 11.3-16.6 0zm4.2 0c-.2 6.1 8.3 6.1 8.2 0 .2-6.1-8.4-6.1-8.2 0zm14.5 0c-.3-11.3 16.9-11.3 16.6 0 .3 11.3-16.9 11.3-16.6 0zm4.3 0c-.2 6.1 8.3 6.1 8.2 0 .2-6.1-8.4-6.1-8.2 0zm24.4 8.2v-3.8l-4.9-5.6V42h-4.1V25.5h2.8l6.2 7v-7h4.1V42h-4.1z" fill="#171717"/><path d="M148.5 42l-5.4-16.6h4.4l2.7 9.6 2.7-9.6h4.4L151.8 42h-3.3zm9.5-8.2c-.3-6.9 7.5-11 13.2-7.4v4c-11.6-6.2-11.4 13.3 0 7v4c-5.8 3.6-13.5-.8-13.2-7.6z" fill="#969696"/></svg>