<svg xmlns="http://www.w3.org/2000/svg" width="144" height="64" xmlns:v="https://vecta.io/nano"><path d="M49.6 25.9h-6.4v4.6h6.4v3.8h-6.4v4.5h6.4v3.9H39V22.1h10.6v3.8zm11.9 5l-3.1 1.5 3.1 1.5v6.5l-3.7 2.3H51v-3.9h6.4v-4.5H51v-3.8h6.4v-4.6H51v-3.8h6.8l3.7 2.3v6.5zm4.9-6.3H72v3.1h-5.3v3.2H72V34h-5.3v6.3h-3.4V26.4c0 0 3.1-1.8 3.1-1.8zm12.5 0h-5.6v3.1h5.4v3.2h-5.4V34h5.4v6.3h3.4V26.4c0 0-3.2-1.8-3.2-1.8zm13.7 0v3.2h-5.3v3.1h5.3v3.2h-5.3v6.2h-3.4V24.6h8.7zm10 9.2l-2.6-1.3 2.6-1.2v-4.8l-3.2-1.9h-5.6v3.2h5.4v3.1h-5.4v3.2h5.4v6.2h3.4v-6.5h0zm4.9-9.2l5.6 5.3V34l-5.3-5v11.3h-3.4V24.6h3.1 0zm12.6 0l-5.6 5.3V34l5.3-5v11.3h3.4V24.6h-3.1 0zm12 8.7l-8.2-8.8h5l5.3 6.1 5.4-6.1h4.4l-8.2 8.7v7.1h-3.7v-7zM37.8 14.8L27.1 21l-8.2-4.8-8.2 4.8L0 14.8l1 9.4.8 7.9 2.7 1.6v7.8l14.4 8.4 14.4-8.4v-7.8l2.7-1.6.8-7.9c0 0 1-9.4 1-9.4z" fill="#303030"/><path d="M24.1 24.9l11.4-6.7L35 23l-3.4 2-3.7 2.2c0 0-3.8-2.3-3.8-2.3zM6.3 40.4v-7.8L3.5 31 3 26.2l6.3 3.7v8.8l8.4 4.9.9.5c.1 0 .2.1.3.1s.2 0 .3-.1h0l9.3-5.4v-8.8l3.7-2.2 2.5-1.5-.5 4.8-2.8 1.6v7.8l-12.5 7.3c0 0-12.6-7.3-12.6-7.3zM6.1 25l-3.4-2-.5-4.7L13.6 25l-3.8 2.2L6.1 25zm18.4-3.3l-3 1.7-2.7-1.6-2.7 1.6-3-1.7 5.6-3.3 5.8 3.3zm-5.6 10.8l6.4-3.7-6.4-3.8-6.5 3.7 6.5 3.8zm-.6 1l-6.4-3.7v7.5l6.4 3.7v-7.5zm1.2 0V41l6.4-3.7v-7.5l-6.4 3.7z" fill="#fff"/></svg>