<svg xmlns="http://www.w3.org/2000/svg" width="153.9" height="64" fill="#191919" xmlns:v="https://vecta.io/nano"><path d="M103.5 26.9h0c1.6-.6 2.4-1.8 2.4-3.2 0-1.2-.6-2.1-1.5-2.7s-2.1-.9-3.8-.9V22h0c1.7 0 2.7.6 2.7 2 0 1.2-1 2-2.7 2.1V28c1.7 0 3.1.7 3.1 2.3 0 1.7-1.4 2.4-3.1 2.4v2c2.1-.1 3.6-.5 4.5-1.3.8-.7 1.4-1.7 1.4-3-.1-2-1.5-3.1-3-3.5h0zm-7-6.5v14.1c.6.1 1.5.2 2.6.2V20.1l-2.6.3zm12.3 0v14.1c.6.1 1.5.2 2.6.2V20.1l-2.6.3zm7 6.5h0c1.6-.6 2.4-1.8 2.4-3.2 0-1.2-.6-2.1-1.5-2.7s-2.1-.9-3.8-.9V22c1.7 0 2.7.6 2.7 2 0 1.2-1 2-2.7 2.1V28c1.7 0 3.1.7 3.1 2.3 0 1.7-1.4 2.4-3.1 2.4v2c2.1-.1 3.6-.5 4.5-1.3.8-.7 1.4-1.7 1.4-3-.1-2-1.5-3.1-3-3.5h0zm13.4-6.2c-.7-.4-1.8-.7-3.3-.7v2.2c1.3 0 2.2.4 2.7.7l.6-2.2zm-3.2 5.5c-.1 0-.2-.1-.2-.1v2.7c.9.5 1.3 1 1.3 1.8s-.4 1.4-1.3 1.7v2.3c2.7-.5 3.9-2.2 3.9-4.2s-1.2-3.2-3.7-4.2zm-5.6 7.7c.8.5 2.4.9 3.9.9h0v-2.2c-1.2 0-2.4-.3-3.4-.9l-.5 2.2zm.2-9.8c0 2 1.4 3.3 3.7 4.1v-2.8c-.7-.4-1.1-.9-1.1-1.6 0-.6.3-1.1 1.1-1.5V20c-2.3.6-3.7 2.1-3.7 4.1zM81.3 36.8v2.4h4.8v-2.4h-4.8zm0 6.8V46h4.4v-2.4h-4.4zm-1.5 8V36.8h-2.9v16h2.9v-1.2zm8.5-10.4v11.6h2.9V41.2h-2.9zm1.5-4.8c-1 0-1.6.7-1.6 1.6s.6 1.6 1.6 1.6 1.7-.7 1.7-1.6c-.1-.9-.7-1.6-1.7-1.6zm4.5 4.8c.1 1 .1 2.1.1 3.4v8.1h2.4V41.2h-2.5zm6.5-.2c-1 0-1.9.3-2.5.7v2.2c.4-.3.9-.5 1.5-.5 1.6 0 2.2 1.3 2.2 2.9v6.5h2.9V46c0-3.7-2.1-5-4.1-5h0zm16.2 9v-4.2c0-2.5-1.1-4.9-4.8-4.9-1.8 0-3.3.5-4.2 1l.6 1.9c.8-.5 2-.8 3.1-.8 2 0 2.3 1.3 2.3 2v7.7h3V50h0zm-4.4-2.7v-1.9c-3.4.3-5.4 1.7-5.4 4.3 0 1.8 1.3 3.4 3.6 3.4.6 0 1.2-.1 1.7-.3v-1.9c-.2.1-.5.1-.8.1-.9 0-1.7-.5-1.7-1.7.1-1.3 1.2-1.9 2.6-2h0zm13.8-6.3c-1 0-1.8.3-2.5.7v2.2c.4-.3.9-.5 1.4-.5 1.6 0 2.2 1.3 2.2 2.9v6.5h2.9V46c.1-3.7-2-5-4-5h0zm-6.4.2c.1 1 .1 2.1.1 3.4v8.1h2.4V41.2H120zm17.8 2.4v-2.5c-3.1.6-4.9 3-4.9 6 0 3.2 1.9 5.4 4.9 5.8v-2.6c-1.2-.5-1.9-1.7-1.9-3.4 0-1.4.7-2.7 1.9-3.3zm3.9 6.7c-.6.2-1.3.4-2.3.4h-.1V53c1.2-.1 2.3-.3 2.8-.6l-.4-2.1zm-2.4-9.3h0v2.3h.1c1 0 1.7.2 2.2.4l.5-2.2c-.6-.3-1.7-.5-2.8-.5zm10.4 0v2.1c1.2.4 1.5 1.8 1.5 2.7h-5.1c.1-1 .7-2.4 2.1-2.7v-2c-3.2.4-4.9 3.2-4.9 6.2 0 3.2 1.8 5.4 4.9 5.8v-2.3c-1.2-.4-2-1.3-2.1-2.8h7.7c0-.3.1-.7.1-1.2.1-2.6-1-5.4-4.2-5.8zm0 9.8V53c1.5 0 2.7-.3 3.6-.7l-.4-2c-.9.4-1.8.5-3.2.5h0zM29.8 33.9c-3.8 0-6.9-3.1-6.9-6.9s3.1-6.9 6.9-6.9 6.9 3.1 6.9 6.9-3.1 6.9-6.9 6.9zm0-12c-2.8 0-5.1 2.3-5.1 5.1s2.3 5.1 5.1 5.1 5.1-2.3 5.1-5.1-2.3-5.1-5.1-5.1zm28.4 35.9c-6.5 0-11.7-5.3-11.7-11.7 0-6.5 5.3-11.7 11.7-11.7 6.5 0 11.7 5.3 11.7 11.7 0 6.5-5.3 11.7-11.7 11.7zm0-21.3c-5.3 0-9.6 4.3-9.6 9.6s4.3 9.6 9.6 9.6 9.6-4.3 9.6-9.6c-.1-5.3-4.4-9.6-9.6-9.6zM8 35c-4.4 0-8-3.6-8-8s3.6-8 8-8 8 3.6 8 8-3.5 8-8 8zm0-14.2c-3.5 0-6.3 2.8-6.3 6.3s2.8 6.3 6.3 6.3 6.3-2.8 6.3-6.3-2.8-6.3-6.3-6.3z"/><path d="M33 29.8c-5.4 0-9.9-4.4-9.9-9.8v-.1c0-5.4 4.4-9.9 9.8-9.9h.1c5.4 0 9.9 4.4 9.9 9.8v.1c0 5.5-4.5 9.9-9.9 9.9zM33 12a7.85 7.85 0 0 0-7.9 7.9c0 4.3 3.5 7.9 7.8 7.9h.1a7.85 7.85 0 0 0 7.9-7.9A7.85 7.85 0 0 0 33 12zm34.6 7.1a6.38 6.38 0 0 1-6.4-6.4c0-3.5 2.9-6.4 6.4-6.4S74 9.2 74 12.7s-2.9 6.4-6.4 6.4zm0-10.9c-2.4 0-4.4 2-4.4 4.4s2 4.4 4.4 4.4 4.4-2 4.4-4.4c-.1-2.4-2-4.4-4.4-4.4zM19.9 49.8a4.23 4.23 0 0 1-4.2-4.2 4.23 4.23 0 0 1 4.2-4.2 4.23 4.23 0 0 1 4.2 4.2 4.23 4.23 0 0 1-4.2 4.2zm0-6.7c-1.4 0-2.5 1.1-2.5 2.5s1.1 2.5 2.5 2.5 2.5-1.1 2.5-2.5-1.1-2.5-2.5-2.5zM21 26.4h2.8v1.7H21v-1.7zm-5.8 0h4v1.7h-4v-1.7zm10.5 7.4l.9-1.7 1.5.8-.9 1.7-1.5-.8zm-2.4 4.4l1.6-2.9 1.5.8-1.6 2.9-1.5-.8z"/><path d="M21.1 42.4l1.5-2.7 1.5.8-1.5 2.7-1.5-.8zM39 26.2l1.7-1.6 5.3 5.7-1.7 1.6-5.3-5.7zm7.7 8.3l1.7-1.6 3.9 4.2-1.7 1.6-3.9-4.2zm-5.4-18.1L48 15l.5 2.3-6.7 1.4-.5-2.3zm9-1.8l5.8-1.2.5 2.3-5.8 1.2-.5-2.3zm7.6-1.6l4-.8.5 2.3-4 .8-.5-2.3z"/></svg>