<svg xmlns="http://www.w3.org/2000/svg" width="152.3" height="64" fill="#343434" xmlns:v="https://vecta.io/nano"><path d="M25.6 18.5c-2.3-1.9-5.5-2.8-9.5-2.8H6h0v1.4h9.9c3.4 0 6.5.7 8.4 2.3s3.3 4 3.3 7c0 2.9-1.2 5-3.2 6.6s-5.5 2.3-9 2.3H4.1h0v1.4h11.4c4.2 0 7.6-.9 9.9-2.7 2.4-1.8 3.6-4.4 3.6-7.7.1-3.3-1.1-5.9-3.4-7.8z"/><path d="M24.8 20.5c-1.4-1.1-3.1-1.9-7.7-1.9H9.3h0V20h7.6c4 0 5.4.5 6.8 1.5 1.7 1.3 2.8 2.8 2.8 5 0 2.1-1.1 3.6-2.8 4.8-1.8 1.3-4.4 1.3-5.5 1.3h-5.8 0V34h4.3c3.8-.1 6-.3 8.1-1.8 2-1.4 3-3.3 3-5.7-.1-3.4-1.7-5-3-6z"/><path d="M24.1 22.3c-1.1-.7-2-1.1-6.5-1.1H12h0v.9h5.4c3.9 0 5.4.7 5.9 1 .9.5 2.1 1.4 2.1 3.2 0 1.1-.7 2.6-1.7 3.1-.9.5-2.6 1-5.5 1H0h0v.9h18.3c3.6 0 4.8-.4 6-1.1 1.3-.7 2.1-2.1 2.1-3.9 0-2-1.2-3.3-2.3-4z"/><path d="M27.6 32.2c-2.3-1.9-5.5-2.8-9.5-2.8h-6.7 0v1.4h6.5c3.4 0 6.5.7 8.4 2.3s3.3 4 3.3 7c0 2.9-1.2 5-3.2 6.6s-5.5 2.3-9 2.3H6.1h0v1.4h11.4c4.2 0 7.6-.9 9.9-2.7 2.4-1.8 3.6-4.4 3.6-7.7.1-3.3-1.1-5.9-3.4-7.8z"/><path d="M26.8 34.2c-1.4-1.1-3.1-1.9-7.7-1.9H8.6h0v1.4H19c4 0 5.4.5 6.8 1.5 1.7 1.3 2.8 2.8 2.8 5 0 2.1-1.1 3.6-2.8 4.8-1.8 1.3-4.4 1.3-5.5 1.3h-5.8 0v1.4h4.3c3.8-.1 6-.3 8.1-1.8 2-1.4 3-3.3 3-5.7-.2-3.4-1.8-5-3.1-6zm-16 4.6h9.9V38h-9.9v.8zm4 2.7h5.7v-.7h-5.7v.7zm-8.7-2.7H9V38H6.1v.8zm-1.8 2.7h8.9v-.8H4.3v.8zM6.5 22H10v-.6H6.5v.6zm-2.4 5.1H12v-.7H4.1v.7zm.2 20.4h8.4v-.9H4.3v.9zm-2.1 2.9h2.1v-1.3H2.2v1.3zm5.3-25.5h13.1v-.7H7.5v.7zm6.5 2.2h6.3v-.7H14v.7zm12.1 9c-1.1-.6-2-1.1-6.5-1.1h-7.1 0v.9h6.9c3.9 0 5.4.7 5.9.9.9.5 2.1 1.4 2.1 3.1 0 1.1-.7 2.5-1.7 3-.9.5-2.6.9-5.5.9H2h0v.9h18.3c3.6 0 4.8-.4 6-1 1.3-.7 2.1-2 2.1-3.8 0-1.9-1.2-3.1-2.3-3.8zm18.7-1.9v7.9c11.2 1.9 14.9-7.6 3.7-7.9h-3.7zm0-9.5v7.1c8.8 1.7 13.4-6.6 3.7-7.1h-3.7zm-3.2 19.8V22.4c3.4.2 10.8-.7 13.5 1.4 4.1 2.6 1.6 8.1-2.7 8.9h0v.1c10.1.8 6 13-2.8 11.7h-8zm20.5 0h3.1V28.7h-3.1v15.8zm1.6-19.8c-2.6.2-2.6-3.4 0-3.3 2.6-.1 2.6 3.4 0 3.3zm15.4 19.6c-3.3 1.3-8.5.2-8.1-4.1h0v-9.3h-3.4v-2.2H71v-3.8l3.1-.8v4.7H79V31h-4.9c.5 3.4-2.2 14.9 4.9 11.3v2h.1zm28.6.2h-2.9c.1-3.2-.2-14.6.2-17.6h-.1c-.3.9-.5 1.6-.8 2h0l-8.6 15.6h-1.4c-.5-1-9.8-17-9.4-17.6h-.1c.1.8.1 2.1.1 4h0v13.6h-2.9V24.2h3.9c.9 1.7 8.5 15.1 8.9 16.6h0 .1c.5-1.1.9-1.9 1.2-2.5l7.9-14.1h3.7v20.3h.2zm15.9-8c-19.1.1-3 13.2 0 1.6h0v-1.6zm3.2 8h-3.1V42c-6.8 8.8-20.6-4.5-5.9-6.9l5.9-.7c.2-5.7-7.4-4.3-10.4-2.1h0v-2.6c4.5-2.4 14.2-2.4 13.6 4.4h0v10.4h-.1zm14.6-13.2c-3.4-1.8-7.4 1.1-7.1 5.2h0v8h-3.1V28.7h3.1v3.2h.1c1-2.8 4.4-4.1 7-3.3v2.7z"/><path d="M152.3 44.3c-3.3 1.3-8.5.2-8.1-4.1h0v-9.3h-3.4v-2.2h3.4v-3.8l3.1-.8v4.7h4.9V31h-4.9c.5 3.4-2.2 14.9 4.9 11.3v2h.1z"/></svg>