<svg xmlns="http://www.w3.org/2000/svg" width="118.2" height="64" xmlns:v="https://vecta.io/nano"><path d="M13.3 21.1l-2.4 2.2c-1-1.2-2.3-1.8-3.8-1.5-.9.1-1.7.5-2.3 1.3-1.2 1.5-1.1 4.2.3 5.5 1.3 1.2 4 1.5 5.8-.6l2.4 2.2c-.5.6-1 1-1.6 1.4-1.1.7-2.3 1-3.6 1.1-1.4.1-2.8-.1-4.1-.7-2.3-1.1-3.7-3-3.9-5.6-.2-2.2.5-4.2 2.2-5.8 1.1-1 2.4-1.6 3.9-1.8 1.4-.2 2.8-.1 4.2.4 1.1.4 2 1 2.9 1.9-.1-.2-.1-.1 0 0zm17.9 10v1h-3.5V16.4h3.7v6h.1c1-.9 2.2-1.1 3.4-1 2.6.3 4.3 2 4.6 4.6.2 1.6-.1 3-1 4.3a4.94 4.94 0 0 1-3.7 2c-.8 0-1.7 0-2.4-.4-.5-.3-.8-.6-1.2-.8zm4.6-4.4c0-.2 0-.4-.1-.7-.2-.9-.9-1.6-1.8-1.7-1-.1-1.9.3-2.3 1.1-.3.7-.3 1.4-.2 2.1.2.9.9 1.6 1.7 1.8 1.1.2 1.9-.2 2.4-1.1.2-.5.3-.9.3-1.5zm-14.2-4.4v-.8h3.7v10.6h-3.5v-1c-.1 0-.1 0-.1.1-.6.7-1.4 1-2.3 1.1-.8.1-1.7 0-2.5-.2-1.2-.4-2.2-1.2-2.8-2.3-.9-1.8-1-3.7-.1-5.5.8-1.8 2.3-2.7 4.3-2.8.7 0 1.5 0 2.2.3.3 0 .7.2 1.1.5zm0 4.5c0-.3-.1-.6-.1-.8-.2-1-.8-1.6-1.7-1.8-1-.2-1.9.2-2.3 1-.3.6-.4 1.3-.3 1.9.1 1.1.9 2 2 2 1 .1 2-.5 2.2-1.5.2-.2.2-.5.2-.8zM58.7 32H55v-.3-5.2c0-.3-.1-.7-.1-1.1-.2-.6-.6-1-1.3-1.1-1.3-.2-2.2.6-2.4 1.9v.7 4.7.3h-3.7V21.3H51v1.1c.1-.1.1-.1.2-.1 1.1-1 2.4-1.3 3.8-1.2.9.1 1.7.4 2.4.9.9.7 1.2 1.7 1.4 2.8 0 .3.1.7.1 1v5.7c-.2.3-.2.4-.2.5zM41.3 21.4H45V32h-3.7V21.4zm3.9-3.5a2.22 2.22 0 0 1-2.2 2.2 2.22 2.22 0 0 1-2.2-2.2 2.22 2.22 0 0 1 2.2-2.2 2.22 2.22 0 0 1 2.2 2.2z" fill="#2f2f2f"/><path d="M59.3 37.2l-2.9 1.5c-.1-.1-.2-.3-.3-.4a2.39 2.39 0 0 0-2.3-1c-1 .2-1.6.8-1.8 1.8-.2.9-.1 1.8.5 2.5.9 1.1 2.6 1 3.5-.1.2-.2.3-.4.4-.6.9.5 1.9 1 2.9 1.4-.3.7-.6 1.2-1.2 1.7-.8.6-1.6 1-2.6 1.2a7.69 7.69 0 0 1-3.7-.3c-2.3-.8-3.8-3.1-3.5-5.6.3-2.4 1.6-3.9 3.8-4.6 1.6-.5 3.3-.5 4.9.2 1.1.4 1.8 1.2 2.3 2.3zm-11.1-2.7l-4.4 10.6h-3.3c-.5 0-.5 0-.7-.5-1.3-3.3-2.7-6.6-4.1-9.9 0-.1-.1-.1-.1-.2h.2 3.4c.2 0 .2.1.3.2l2.4 6c0 .1.1.1.1.2.1-.1.1-.2.1-.2l2.5-6c.1-.2.2-.2.3-.2h3 .3zM35.9 43a2.22 2.22 0 0 1-2.2 2.2 2.22 2.22 0 0 1-2.2-2.2 2.22 2.22 0 0 1 2.2-2.2 2.22 2.22 0 0 1 2.2 2.2z" fill="#4d4d4d"/><path d="M118.2 22.4v19.2c0 3.2-1.7 6.2-4.5 7.8L97 59c-2.8 1.6-6.2 1.6-9 0l-5.6-3.2h0 0 0l-.6-.3h0c-7.1-4.7-10.4-26.1 6.6-32.9h.1.1c.8-.3 1.6-.6 2.4-.8h.1c6.7-2 11.6-1.2 15 .3-4-2-15.4-6.5-26.7-.2-6.3 3.5-10.1 8.2-12.4 12.4V22.4c0-3.2 1.7-6.2 4.5-7.8L88 5c2.8-1.6 6.2-1.6 9 0l16.7 9.6c2.7 1.6 4.5 4.6 4.5 7.8z" fill="#2f2f2f"/><g fill="#fff"><path d="M105.9 21.9c-3.4-1.5-8.3-2.4-15-.3h-.1c-.8.2-1.6.5-2.4.8h-.1-.1c-17 6.8-13.8 28.2-6.6 32.9l-10.4-6c-2.8-1.6-4.5-4.6-4.5-7.8V34c2.3-4.2 6.1-8.9 12.4-12.4 11.5-6.2 22.8-1.7 26.8.3z"/><path d="M107.4 22.8c-.5-.2-8.5-3.3-16.5-1.1 6.7-2 11.6-1.2 15 .3.1 0 .2.1.3.1.7.3 1.1.6 1.2.7z"/></g><path d="M111.7 26.4l-10.9 10.3c-12.6-8.2-20 3.5-20 3.5-3.6 6.8-1.5 11.6.1 13.9h0c.4.5.8 1 1.2 1.4 0 0 0 .1.1.1l.1.1h0l-.6-.3h0c-7.1-4.7-10.4-26.1 6.6-32.9h.1.1c.8-.3 1.6-.6 2.4-.8h.1c6.7-2 11.6-1.2 15 .3.1 0 .2.1.3.1 3.7 1.7 5.4 4.3 5.4 4.3z" fill="#4d4d4d"/></svg>