<svg xmlns="http://www.w3.org/2000/svg" width="126.1" height="64" xmlns:v="https://vecta.io/nano"><path d="M51.2 31.7v25.4c0 .4-.1.5-.5.5h0H.5c-.4 0-.5-.1-.5-.5V6.3c0-.4.1-.5.5-.5h50.1c.4 0 .5.1.5.5l.1 25.4zm10.2-9.6c-.7 0-1.4-.1-2-.4s-1.1-.6-1.6-1.1c-.4-.4-.8-1-1-1.6-.3-.6-.4-1.3-.4-2h0c0-.7.1-1.3.4-1.9.2-.6.6-1.1 1-1.6s1-.8 1.6-1.1 1.3-.4 2-.4c.4 0 .8 0 1.2.1l1 .3c.3.1.6.3.8.5.3.2.5.4.7.6L64 14.8c-.4-.4-.8-.7-1.2-.9s-.9-.3-1.5-.3c-.5 0-.9.1-1.3.3s-.7.4-1 .7-.5.7-.7 1.1-.2.9-.2 1.3h0c0 .5.1.9.2 1.3.2.4.4.8.7 1.1s.6.6 1 .7.8.3 1.3.3c.6 0 1.1-.1 1.5-.3s.8-.5 1.3-.9l1.1 1.1c-.2.3-.5.5-.8.7s-.6.4-.9.5a1.69 1.69 0 0 1-1 .3c-.2.3-.6.3-1.1.3zm9.4-9.9h1.6l4.3 9.8h-1.8l-1-2.3h-4.6l-1 2.3h-1.7l4.2-9.8zm2.5 5.9l-1.7-3.9-1.7 3.9h3.4zm5.3-5.8h1.8l3 4.6 3-4.6h1.8V22h-1.7v-7l-3.1 4.6h-.1l-3-4.6v7h-1.7v-9.7zm12.3 0h4.3c1.1 0 2 .3 2.5.9.4.4.7 1 .7 1.6h0c0 .3 0 .6-.1.8l-.3.6c-.1.2-.3.3-.4.5-.2.1-.3.2-.5.3.3.1.5.2.8.4.2.1.4.3.6.5s.3.4.4.7c.1.2.1.5.1.9h0c0 .4-.1.8-.3 1.2-.2.3-.4.6-.7.8s-.7.4-1.1.5-.9.2-1.5.2h-4.5c0 0 0-9.9 0-9.9zm4 4.1c.6 0 1-.1 1.3-.3s.5-.5.5-1h0c0-.4-.1-.7-.4-.9s-.7-.3-1.3-.3h-2.4v2.6h2.3v-.1zm.5 4.1c.6 0 1-.1 1.4-.3.3-.2.5-.6.5-1h0c0-.4-.2-.7-.5-1-.3-.2-.8-.3-1.5-.3h-2.7v2.7h2.8v-.1zm5.8-8.2h1.7V22h-1.7v-9.7zm8.5 9.8c-.6 0-1.2-.1-1.7-.3s-.9-.5-1.3-.8c-.4-.4-.6-.8-.8-1.3s-.3-1.1-.3-1.9v-5.6h1.7v5.5c0 .9.2 1.6.7 2.1.4.5 1 .7 1.8.7s1.4-.2 1.8-.7c.5-.6.7-1.3.7-2v-5.6h1.7v5.5c0 .7-.1 1.4-.3 1.9s-.5 1-.8 1.4c-.4.4-.8.6-1.3.8-.7.2-1.2.3-1.9.3h0zm6.8-9.8h1.8l3 4.6 3-4.6h1.8V22h-1.8v-7l-3.1 4.6h-.1l-3-4.6v7h-1.7v-9.7h.1zm-55 24.8c-.8 0-1.4-.1-2.1-.4-.6-.3-1.1-.6-1.6-1.1-.4-.4-.8-1-1-1.6s-.4-1.3-.4-2h0c0-.7.1-1.3.4-1.9s.6-1.1 1-1.6 1-.8 1.6-1.1 1.3-.4 2-.4c.4 0 .8 0 1.2.1.3.1.7.1 1 .3.3.1.6.2.8.4.3.2.5.3.8.6l-1.1 1.3c-.2-.2-.4-.3-.6-.4l-.6-.3c-.2-.1-.4-.2-.7-.2s-.5-.1-.8-.1c-.4 0-.9.1-1.2.3-.4.2-.7.4-1 .7s-.5.7-.7 1.1-.2.9-.2 1.3h0c0 .5.1 1 .2 1.4.2.4.4.8.7 1.1s.6.5 1 .7.8.3 1.3.3.9-.1 1.3-.2.7-.3 1-.5V33h-2.5v-1.5h4.1v4.1c-.2.2-.5.4-.8.6s-.6.3-.9.5c-.3.1-.7.2-1.1.3-.3 0-.7.1-1.1.1h0zm6.5-9.9h4.3c.6 0 1.2.1 1.6.3.5.2.9.4 1.2.7s.5.6.6.9c.1.4.2.7.2 1.2h0c0 .4-.1.8-.2 1.1s-.3.6-.5.8-.4.5-.7.6c-.3.2-.6.3-.9.4l2.6 3.7h-2l-2.4-3.4h0-2.1v3.4H68v-9.7zm4.2 4.8c.6 0 1.1-.1 1.5-.4s.5-.7.5-1.2h0c0-.5-.2-.9-.5-1.2s-.8-.4-1.5-.4h-2.5V32h2.5zm10.7 5.1c-.7 0-1.4-.1-2.1-.4-.6-.3-1.2-.6-1.6-1.1s-.8-1-1-1.6-.4-1.3-.4-1.9h0c0-.7.1-1.3.4-1.9s.6-1.1 1.1-1.6 1-.8 1.6-1.1 1.3-.4 2.1-.4 1.4.1 2.1.4 1.2.6 1.6 1.1.8 1 1 1.6.4 1.3.4 1.9h0c0 .7-.1 1.3-.4 1.9-.2.6-.6 1.1-1.1 1.6s-1 .8-1.6 1.1c-.7.2-1.3.4-2.1.4zm0-1.6c.5 0 .9-.1 1.3-.3s.7-.4 1-.7.5-.7.7-1.1.2-.9.2-1.3h0c0-.5-.1-.9-.2-1.3-.2-.4-.4-.8-.7-1.1s-.6-.6-1-.7-.8-.3-1.3-.3-.9.1-1.3.3-.7.4-1 .7-.5.7-.7 1.1-.2.9-.2 1.3h0c0 .5.1.9.2 1.3.2.4.4.8.7 1.1s.6.6 1 .7.9.3 1.3.3zm6.6-8.3h1.9l2.9 7.5 2.9-7.5H99L95 37h-1.5l-4-9.8h0zm11.5 0h7.2v1.5h-5.5v2.5h4.9v1.5h-4.9v2.6h5.6v1.5H101v-9.6zM61.4 52.1c-.7 0-1.4-.1-2-.4s-1.1-.6-1.6-1.1c-.4-.4-.8-1-1-1.6-.3-.6-.4-1.3-.4-2h0c0-.7.1-1.3.4-1.9.2-.6.6-1.1 1-1.6s1-.8 1.6-1.1 1.3-.4 2-.4c.4 0 .8 0 1.2.1l1 .3c.3.1.6.3.8.5.3.2.5.4.7.6L64 44.8c-.4-.4-.8-.7-1.2-.9s-.9-.3-1.5-.3c-.5 0-.9.1-1.3.3s-.7.4-1 .7-.5.7-.7 1.1-.2.9-.2 1.3h0c0 .5.1.9.2 1.3.2.4.4.8.7 1.1s.6.6 1 .7.8.3 1.3.3c.6 0 1.1-.1 1.5-.3s.8-.5 1.3-.9l1.1 1.1c-.2.3-.5.5-.8.7s-.6.4-.9.5a1.69 1.69 0 0 1-1 .3c-.2.2-.6.3-1.1.3h0zm9.4-10h1.6l4.3 9.8h-1.8l-1-2.3h-4.6l-1 2.3h-1.7l4.2-9.8h0zm2.5 5.9l-1.7-3.9-1.7 3.9h3.4zm5.3-5.8h3.8c.6 0 1.1.1 1.5.2s.8.4 1.2.7c.3.3.6.6.7 1 .2.4.3.8.3 1.3h0c0 .5-.1 1-.3 1.4s-.5.8-.8 1c-.4.3-.8.5-1.2.6s-1 .2-1.5.2h-2v3.1h-1.7v-9.5zm3.7 5c.6 0 1.2-.2 1.5-.5s.6-.7.6-1.3h0c0-.6-.2-1-.6-1.3s-.9-.4-1.5-.4h-2v3.5h2zm5.9-5h1.7v9.7h-1.7v-9.7zm6.9 1.6H92v-1.6h7.9v1.6h-3.1v8.1h-1.7v-8.1h0zm10.3-1.7h1.6l4.3 9.8h-1.8l-1-2.3h-4.6l-1 2.3h-1.7l4.2-9.8zm2.4 5.9l-1.7-3.9-1.7 3.9h3.4zm5.3-5.8h1.7v8.2h5.1v1.5h-6.8v-9.7z" fill="#272727"/><path d="M17.6 31.9c0 8.9 6.8 15.4 16.2 15.5h0 0 .3 0 1.4V30.8h-.3-1.5-.9v1.7h.9v12.9c-8.2-.2-14.2-5.8-14.2-13.5 0-6.7 4.5-13.5 14.5-13.5h0 1.4v-2H34c-9.6-.1-16.4 6.3-16.4 15.5zm17.9-9v-3.3h-1.4 0-.1-.2 0c-7.5.2-12.6 5.1-12.6 12.2 0 6.4 4.4 11.2 11 12.1v-2c-5.5-.7-8.9-4.8-8.9-10.1 0-6.9 5.3-10.1 10.6-10.2v1.3h1.6zm-1.4-10.1c-12 0-20.3 7.8-20.3 19.1C13.8 43 22.3 51 34.1 51h1.4v-2h-1.4 0c-10.6 0-18.3-7.2-18.3-17.1 0-10.2 7.4-17.1 18.3-17.1h0 1.4v-2h-1.4z" fill="#fff"/></svg>