<svg xmlns="http://www.w3.org/2000/svg" width="225.2" height="64" xmlns:v="https://vecta.io/nano"><path d="M22.9 27.5c-4.1 0-7.4 3.1-7.4 7.3s3.1 7.3 7.4 7.3 7.4-3.2 7.4-7.3-3.2-7.3-7.4-7.3zm0 11.6c-2.4 0-4.1-1.8-4.1-4.3s1.7-4.3 4.1-4.3 4.1 1.9 4.1 4.3c0 2.5-1.8 4.3-4.1 4.3zm8.3-8.4h2.1v11.2h3.3V27.8h-5.3l-.1 2.9h0zm-24-.2c1.7 0 3.1 1.1 3.6 2.6h3.5c-.6-3.4-3.4-5.7-7.1-5.7-4.1 0-7.4 3.1-7.4 7.3S2.9 42 7.2 42c3.6 0 6.4-2.3 7-5.7h-3.5c-.5 1.6-1.9 2.7-3.6 2.7C4.7 39 3 37.2 3 34.7c.2-2.3 1.8-4.2 4.2-4.2zm86.4 3l-2.4-.4c-1.1-.2-2-.5-2-1.4 0-1 1.1-1.5 2.5-1.5 1.6 0 2.6.7 2.8 1.8h3.2c-.4-2.8-2.5-4.5-5.9-4.5-3.5 0-5.8 1.8-5.8 4.3 0 2.4 1.5 3.8 4.5 4.2l2.4.4c1.2.2 1.8.6 1.8 1.5 0 1.1-1.1 1.6-2.7 1.6-1.9 0-3-.8-3.2-2h-3.2c.3 2.8 2.5 4.7 6.4 4.7 3.6 0 6-1.6 6-4.4 0-2.6-1.7-3.9-4.4-4.3zM34.9 22c-1.2 0-2.1.9-2.1 2.1s.9 2.1 2.1 2.1 2.1-.9 2.1-2.1-.9-2.1-2.1-2.1zm48.2 10.6c0-3.1-1.9-5.1-5.8-5.1-3.7 0-5.8 1.9-6.2 4.8h3.3c.2-1.1 1-2 2.9-2 1.7 0 2.5.7 2.5 1.6 0 1.2-1.5 1.5-3.4 1.7-2.5.3-5.6 1.1-5.6 4.4 0 2.5 1.9 4.2 4.9 4.2 2.4 0 3.8-1 4.6-2.5.1 1.4 1.1 2.3 2.6 2.3h1.9v-3h-1.6l-.1-6.4h0zm-3.2 3.6c0 1.9-1.6 3.3-3.6 3.3-1.2 0-2.3-.5-2.3-1.6 0-1.4 1.7-1.8 3.2-1.9s2.3-.5 2.7-1.1c0 0 0 1.3 0 1.3zm-17.5-8.7c-1.8 0-3.4.8-4.5 2v-7.7h-3.3v20.1h3.2V40c1.1 1.3 2.7 2.1 4.5 2.1 3.9 0 6.9-3.1 6.9-7.3s-2.9-7.3-6.8-7.3zm-.5 11.6c-2.4 0-4.1-1.8-4.1-4.3s1.8-4.3 4.1-4.3c2.4 0 4.1 1.8 4.1 4.3s-1.7 4.3-4.1 4.3zM46.8 27.5c-2.1 0-3.5.9-4.4 2.1v-1.8h-3.3v14.1h3.3v-7.7c0-2.2 1.4-3.7 3.4-3.7 1.9 0 3.1 1.3 3.1 3.3v8.1h3.3v-8.3c0-3.6-1.8-6.1-5.4-6.1zm66.9 6.9c0-4-3-6.9-6.9-6.9-4.2 0-7.3 3.2-7.3 7.3 0 4.4 3.3 7.3 7.4 7.3 3.4 0 6.1-2 6.8-4.9h-3.4c-.5 1.3-1.7 2-3.3 2-2.1 0-3.7-1.3-4.1-3.6h10.9l-.1-1.2h0zM103 33.3c.5-2 2-2.9 3.7-2.9 1.9 0 3.3 1.1 3.6 2.9H103z" fill="#222"/><path d="M125.8 41.7l-5.2-14.3h1.7l4.5 12.5h.4l4.5-12.5h1.7l-5.2 14.2-2.4.1h0zm9.9 0V27.4h9.2V29h-7.5v4.8h7.1v1.5h-7.1v4.9h7.5v1.5h-9.2zm12.3 0V27.4h2.7l6.4 12.3h.4V27.4h1.6v14.2h-2.7L150 29.3h-.4v12.3H148v.1zm18.4 0V29h-4.7v-1.5h11V29H168v12.7h-1.6zm14.2.2c-1 0-2-.2-2.8-.7-.9-.5-1.5-1.2-2-2.1s-.7-1.9-.7-3v-8.7h1.6v8.7c0 .8.2 1.6.5 2.2a2.94 2.94 0 0 0 1.4 1.5c.6.4 1.3.5 2 .5s1.4-.2 2-.5c.6-.4 1.1-.9 1.4-1.5.3-.7.5-1.4.5-2.2v-8.7h1.6v8.7c0 1.1-.2 2.1-.7 3s-1.2 1.6-2 2.1c-.8.4-1.7.7-2.8.7zm9.1-.2V27.4h6.2c.7 0 1.4.2 2 .6a4.63 4.63 0 0 1 1.5 1.6c.4.7.5 1.4.5 2.2s-.2 1.6-.5 2.2-.9 1.2-1.5 1.6-1.3.6-2 .6h-1.7v-.4l6.1 5.9h-2l-5.7-5.5h-1.2v5.5h-1.7zm6.2-7c.4 0 .9-.1 1.2-.4.4-.2.7-.6.9-1s.3-.9.3-1.5-.1-1.1-.3-1.5-.5-.8-.9-1-.8-.4-1.2-.4h-4.6v5.7h4.6v.1zm7.2 7V27.4h9.2V29h-7.5v4.8h7.1v1.5h-7.1v4.9h7.5v1.5h-9.2zm17 .2c-1.1 0-2-.2-2.8-.6s-1.4-.9-1.9-1.6c-.4-.7-.7-1.4-.7-2.2h1.6c0 .5.1 1 .4 1.4s.7.8 1.3 1c.6.3 1.2.4 2 .4 1.2 0 2.1-.2 2.7-.7s.9-1.1.9-1.8c0-.6-.2-1.1-.6-1.5s-1-.7-1.8-.8l-2.7-.5c-.8-.1-1.4-.4-1.9-.7s-.9-.7-1.2-1.2-.4-1.1-.4-1.8c0-.8.2-1.5.6-2.1s1-1.1 1.7-1.4c.7-.4 1.6-.5 2.6-.5 1.1 0 2 .2 2.8.6s1.4.9 1.8 1.6.7 1.4.7 2.2h-1.6c0-.5-.1-1-.4-1.4s-.7-.8-1.3-1c-.5-.3-1.2-.4-2-.4-1 0-1.8.2-2.4.7s-.9 1.1-.9 1.8c0 .6.2 1.1.6 1.4.4.4 1 .7 1.8.8l2.2.4c.9.2 1.7.4 2.3.8.6.3 1 .8 1.3 1.3s.4 1.1.4 1.8c0 .8-.2 1.5-.6 2.1s-1 1.1-1.8 1.4c-.6.3-1.6.5-2.7.5z"/></svg>