<svg xmlns="http://www.w3.org/2000/svg" width="138.3" height="64" xmlns:v="https://vecta.io/nano"><path d="M138.2 5.2H0v52.9h138.3V5.2h-.1z" fill="#171717"/><path d="M115.1 29.3c0 1-.2 1.9-.6 2.6s-1 1.4-1.8 1.9c-1.3.8-3.2 1.3-5.4 1.3h0-1.7-2.6V15.5h3.1 1.3c2.2 0 3.7.4 4.8 1.2.6.5 1.1 1 1.3 1.7.3.6.4 1.3.4 2.1 0 1.4-.5 2.7-1.5 3.6.3.2.6.5.9.7.6.6 1 1.2 1.3 1.9.3.8.5 1.7.5 2.6zM106 18.2v6c.7-.1 1.4-.3 2-.6 1-.4 1.7-.8 2.3-1.4.5-.4.8-1 .8-1.7 0-1-.3-1.3-.6-1.5-.7-.6-2.2-.7-3.2-.7h0l-1.3-.1zm6.3 11.1c0-1-.3-1.9-1-2.5-.4-.4-.9-.7-1.5-1l-.8.3c-1.1.5-2.2.7-3 .9h0v5.3h1.3c1.7 0 3-.3 3.9-.8.8-.5 1.1-1.2 1.1-2.2zm11.6 5.8c-2-.1-4.1-.9-6.2-2.4h0l1.7-2.5c2.9 2 5.6 2.4 7.5 1 1.3-1 1.9-2.8 1.5-4.2-.2-.7-.7-1.2-1.3-1.6-.8-.5-1.9-.7-3.3-.7h0-2.6l3.4-6.2H119v-3h10.8l-3.5 6.4c.9.2 1.7.5 2.5 1 1.2.8 2.1 1.9 2.6 3.2.4 1.3.4 2.8 0 4.2-.5 1.4-1.3 2.6-2.5 3.4a7.1 7.1 0 0 1-4.4 1.5c-.3-.1-.4-.1-.6-.1h0zM99.4 15.5H87.3v2.8h12.1c0 0 0-2.8 0-2.8zm-.1 8h-12v2.8h12v-2.8zm.1 8.8H87.3v2.8h12.1v-2.8zM6.5 15.5v32.1h31.9V15.5H6.5zm10.4 27.6h-3.8V32.7h3.8v10.4zm7.5 0h-3.9V27.3h3.9v15.8zm7.5 0H28V19.9h3.9v23.2zm20.8-26.4c1.7.9 3 2 3.9 3.5a9.48 9.48 0 0 1 0 10c-.9 1.5-2.2 2.7-3.9 3.5-1.7.9-3.6 1.3-5.8 1.3h-4.6V15.4h4.6c2 0 4 .4 5.8 1.3zm-1.8 14.6c1.2-.6 2.1-1.4 2.7-2.5s1-2.2 1-3.5-.3-2.5-1-3.5c-.6-1.1-1.5-1.9-2.7-2.5s-2.5-.9-4-.9h-1.4v13.8h1.4c1.6 0 2.9-.3 4-.9zM71 14.7l5.5 13.1 4-12.4H84l-7.1 20.4-6-13.9-5.8 14L58 15.5h3.5l4 12.4L71 14.7zM46 47.5c-.3.3-.8.5-1.3.5-.7 0-1.2-.2-1.6-.6s-.6-1-.6-1.8.2-1.4.7-1.9c.4-.4.9-.6 1.4-.6.8 0 1.4.3 1.7.8.2.3.3.6.3.9h-1c-.1-.2-.1-.4-.2-.5-.2-.2-.4-.3-.8-.3s-.6.1-.8.4-.3.7-.3 1.2.1.9.3 1.2.5.4.8.4.6-.1.8-.3c.1-.1.2-.3.2-.5h1c0 .4-.2.8-.6 1.1zm14.5-.6h-1.7l-.3 1h-1l1.7-4.6h1.1l1.6 4.6h-1.1c0 0-.3-1-.3-1zm-.3-.8l-.6-1.8-.6 1.8h1.2zm14.5.1h-1v1.7h-1v-4.6h2c.5 0 .8.1 1.1.4.3.2.4.6.4 1.1s-.1.9-.4 1.2c-.2.1-.6.2-1.1.2zm.5-.9c.1-.1.2-.3.2-.5s-.1-.4-.2-.5-.3-.2-.5-.2h-.9v1.4h.9c.2-.1.3-.1.5-.2zm12.1-2.1h1v4.6h-1v-4.6zm15.6 0v.8h-1.4v3.8h-1V44h-1.4v-.8h3.8zm13.1 3.7h-1.7l-.3 1h-1l1.7-4.6h1.1l1.6 4.6h-1.1l-.3-1zm-.2-.8l-.6-1.8-.6 1.8h1.2 0zm12.5-2.9h1V47h2.3v.8h-3.3v-4.6z" fill="#fff"/></svg>