<svg xmlns="http://www.w3.org/2000/svg" width="59.6" height="64" fill="#484848" xmlns:v="https://vecta.io/nano"><path d="M.8 58.6c-.3-.3-.4-.6-.4-1h0V40.5h1.5v17.1h10V59H1.8c-.4 0-.7-.2-1-.4zm24.4-5H17L15 59h-1.5l7-18.4h.7c.4 0 .8.3.9.8h0L28.8 59h-1.5l-2.1-5.4zm-7.8-1.3h7.4l-3.6-9.8-3.8 9.8zm13.7 6.3c-.3-.3-.4-.6-.4-1h0V40.5h7.7c1.5 0 2.6.4 3.5 1.1s1.3 1.7 1.3 2.9h0V46c0 .7-.2 1.4-.5 2s-.8 1.1-1.3 1.4c.9.2 1.6.6 2.1 1.3.5.6.8 1.4.8 2.3h0v1.4c0 1.3-.5 2.5-1.3 3.3-.9.8-2.1 1.2-3.6 1.2h0H32c-.3.1-.7-.1-.9-.3zm7.8-9.5c.9 0 1.6-.3 2.1-.8.5-.6.8-1.3.8-2.2h0v-1.5c0-.7-.3-1.4-.9-1.9s-1.5-.8-2.5-.8h0-6.2v7.2h6.7zm.5 8.6c1.1 0 2-.3 2.6-.9s1-1.3 1-2.3h0V53c0-.8-.3-1.5-.9-2s-1.3-.8-2.2-.8h0-7.7v7.4l7.2.1h0zm8.5.1c-.9-.9-1.4-2.2-1.4-3.8h0 1.4c0 1.2.4 2.2 1 2.8.6.7 1.6 1.1 2.7 1.1h0 2.9c1.1 0 2-.2 2.7-.8.7-.5 1-1.2 1-2h0v-1.8c0-.7-.3-1.3-.8-1.7-.5-.5-1.2-.8-2-.9h0l-4.7-.8c-1.3-.2-2.2-.6-3-1.3-.7-.7-1.1-1.6-1.1-2.6h0v-1.5c0-1.2.5-2.2 1.3-2.9.9-.8 2.1-1.1 3.6-1.1h0 3c1.4 0 2.6.4 3.4 1.3.9.9 1.3 2 1.3 3.4h0-1.4c0-1-.3-1.8-.9-2.5-.6-.6-1.4-.9-2.4-.9h0-3c-1.1 0-1.9.2-2.6.8-.6.5-.9 1.2-.9 2h0v1.5c0 .7.2 1.3.7 1.8s1.1.8 2 .9h0l4.7.8c1.3.2 2.3.7 3 1.3.7.7 1.1 1.5 1.1 2.6h0v1.8c0 1.2-.5 2.2-1.4 3s-2.2 1.1-3.7 1.1h0-3c-1.3-.2-2.6-.7-3.5-1.6h0zM15.4 5.6c-1.2-.6-2.5-.8-4.1-.8h0H.5v19.5c0 .9.3 1.6.9 2.2s1.3.8 2.3.8h0 7.8c2.8 0 4.9-.7 6.4-2.2.5-.5.9-1.1 1.2-1.6h0L15.4 5.6zm.1 13.1c0 1.5-.4 2.7-1.1 3.5s-1.8 1.2-3.2 1.2h0-6.3V8.7h6.2c1.3 0 2.3.4 3.1 1.1.8.8 1.2 1.8 1.2 2.9h0l.1 6zm43.9-10V4.8H46.2l-.1.4-3.6 17.9v4.3h4.4v-8.8h11.3v-3.9H46.9v-6h12.5 0zM44.3 4.8l-1.8 9.1-2.2 11c-.2.9-.5 1.5-.9 1.9-.5.4-1.1.6-1.9.6h0-1.9l-4.8-15.5h-.1l-4.9 15.5h-1.9c-.8 0-1.3-.2-1.8-.5-.5-.4-.8-1-1.1-2h0l-1.2-5.7L17.3 7l-.4-2.1h4.5l2.7 16h.1L29.1 6h1.6c.5 0 1 .1 1.4.4s.7.8.9 1.5h0l3.9 12.9h.1l2.8-16h4.5zm8.5 32.9c-2.5 0-4.1-1.8-5.4-3.2-.9-1-1.8-1.9-2.6-1.9-.9 0-1.7.9-2.6 1.9-1.2 1.3-2.7 3-5 3-2.2 0-3.5-1.6-4.5-2.8-1-1.3-1.7-2.1-2.9-2.1s-2 .8-3.1 2c-1.1 1.3-2.5 2.9-4.9 2.9s-3.6-1.7-4.5-2.9c-.9-1.3-1.5-1.9-2.7-1.9-1.4 0-2.2.8-3.5 2.2-1.1 1.3-2.4 2.7-4.5 2.7-2.3 0-3.7-1.7-4.9-3-.5-.6-1.3-1.5-1.7-1.5v-3c1.8 0 3 1.4 4 2.6s1.7 2 2.6 2c.7 0 1.3-.6 2.3-1.7 1.3-1.4 2.9-3.2 5.7-3.2s4.2 1.9 5.1 3.2c.9 1.2 1.3 1.7 2.1 1.7 1 0 1.6-.7 2.6-1.8 1.2-1.4 2.7-3 5.3-3 2.7 0 4.2 1.8 5.3 3.2 1 1.2 1.5 1.7 2.2 1.7.9 0 1.6-.8 2.8-2 1.2-1.4 2.7-2.9 4.8-2.9s3.5 1.6 4.8 2.9c1.2 1.4 2.1 2.2 3.2 2.2s1.9-.9 2.9-2.3c1-1.3 2.1-2.7 3.9-2.7v3c-.3 0-1 .9-1.5 1.5-1.1 1.2-2.6 3.2-5.3 3.2h0z"/></svg>