<svg xmlns="http://www.w3.org/2000/svg" viewBox="0 0 379.9 80" xmlns:v="https://vecta.io/nano"><path d="M126.4 13h-18.7v7.5h15.9v7h-15.9v14.3h-8.2V5.7h26.9V13zm8.1 28.8V5.7h26.6V13h-18.5v7.1h16.6V27h-16.6v7.5h18.7v7.3h-26.8 0zm58.4-36.1h8.2v36.1h-9.4l-13.4-23.4v23.4h-8.2V5.7h9.3l13.4 23.6.1-23.6h0zM235 23.3c2 .6 3.4 1.8 4.4 3.2 1 1.5 1.5 3.2 1.5 5.2 0 3.1-1 5.6-3 7.4s-4.8 2.7-8.4 2.7h-18.1V5.7h17.3c3.6 0 6.4.9 8.5 2.6s3 4 3 6.9c0 1.9-.5 3.5-1.3 4.8-1 1.4-2.3 2.5-3.9 3.3zm-15.5-10.5v7.5h7.9c1.3 0 2.4-.4 3.2-1s1.2-1.6 1.2-2.7-.4-2.1-1.1-2.7c-.8-.6-1.8-1-3.2-1l-8-.1h0zm9 21.9c1.3 0 2.3-.4 3.1-1.1s1.1-1.7 1.1-2.9-.4-2.2-1.2-2.9-1.8-1.1-3.1-1.1h-8.9v7.9h9zm42.9 6.8c-2 .7-4.3 1.1-6.8 1.1-2.6 0-4.8-.4-6.8-1.1s-3.6-1.8-4.8-3c-1.2-1.3-2.2-2.9-2.9-4.7s-1-3.8-1-6V5.7h8.2v21.7c0 2.4.6 4.3 1.8 5.7s3 2.1 5.4 2.1c2.5 0 4.3-.7 5.5-2.1s1.8-3.3 1.8-5.7V5.7h8.2v22.2c0 2.2-.4 4.1-1 6-.6 1.8-1.6 3.3-2.9 4.7-1 1.2-2.7 2.2-4.7 2.9zm33.1 1.2c-7.2 0-12.6-2.3-16.3-7.1l5.5-5c2.5 3.2 6.1 4.8 10.9 4.8 2 0 3.6-.4 4.7-1.1s1.8-1.6 1.8-2.7c0-.5-.1-.9-.2-1.3-.2-.4-.5-.7-.8-1-.4-.3-.8-.5-1.2-.7s-.9-.4-1.6-.5c-.7-.2-1.3-.3-1.8-.4s-1.2-.2-2-.4c-3.4-.6-5.8-1.2-7.4-1.8-3.6-1.5-5.7-3.9-6.3-7.2-.1-.7-.2-1.5-.2-2.2 0-3.4 1.3-6.1 4-8.2s6.2-3 10.7-3c3.3 0 6.2.5 8.8 1.6s4.8 2.6 6.4 4.7l-5.5 5c-1-1.3-2.4-2.3-4.1-3s-3.6-1.1-5.7-1.1c-1.9 0-3.3.4-4.4 1s-1.7 1.5-1.7 2.6c0 .4.1.8.2 1.2s.4.6.8.9c.4.2.7.5 1.1.6s.9.4 1.5.5c.6.2 1.2.3 1.7.4s1.2.2 1.9.4c3.3.5 5.8 1.1 7.4 1.6 3.7 1.4 6 3.8 6.7 7.2.2.9.2 1.8.2 2.7 0 3.5-1.3 6.3-4 8.3-2.8 2.2-6.4 3.2-11.1 3.2zm47.1-37h8.2v36.1h-8.2V27.2h-14.9v14.6h-8.2V5.7h8.2v14.2h14.9V5.7zm18.5 36.1V5.7h8.2v36.1h-8.2zM112.6 78.9c-3.5 0-6.4-1.2-8.5-3.5-2.2-2.3-3.3-5.4-3.3-9.2 0-2.5.5-4.7 1.5-6.7s2.3-3.4 4.1-4.5 3.9-1.6 6.2-1.6c2.2 0 4.3.5 6.1 1.6s3.2 2.6 4.1 4.5l-4.5 2.5c-.8-1.3-1.6-2.2-2.5-2.7-.9-.6-1.9-.8-3.2-.8-1.9 0-3.3.7-4.4 2.1s-1.7 3.3-1.7 5.6.6 4.2 1.7 5.6 2.6 2.1 4.5 2.1c1.3 0 2.3-.3 3.2-.9s1.7-1.6 2.4-3l4.6 2.4c-1.1 2.1-2.5 3.7-4.3 4.8a11.32 11.32 0 0 1-6 1.7zm52.2-.6l-1.6-4.7h-9.3l-1.6 4.7h-5.8l9.1-24.3h6.2l9.1 24.3h-6.1zm-9.3-9.3h6.1l-3-8.7-3.1 8.7zm52.2-15c2.6 0 4.6.7 6 2.1 1.5 1.4 2.2 3.4 2.2 5.8 0 2.5-.7 4.3-2.2 5.7s-3.4 2.1-6 2.1h-6v8.6h-5.5V54h11.5zm-.7 11c1.1 0 1.9-.3 2.4-.8.6-.5.8-1.3.8-2.2s-.3-1.7-.8-2.2c-.6-.5-1.3-.8-2.4-.8h-5.3v6h5.3 0zm34.3 13.3V54h5.5v24.3h-5.5zM292.7 54v4.9h-7.4v19.4h-5.5V58.9h-7.5V54h20.4zm39.5 24.3l-1.6-4.7h-9.3l-1.6 4.7h-5.8L323 54h6.2l9.1 24.3h-6.1zm-9.3-9.3h6.1l-3-8.7-3.1 8.7zm46.2 4.4h10.8v4.9h-16.3V54h5.5v19.4zM28.6 1.1L0 20v27.5 27.3l14.4-9.3V38l14.2-9.4z" fill="#393939"/><path d="M82.9 10.5v27.2L34.6 1.1z" fill="#717171"/><path d="M82.9 37.7l-48.3-9.3V1.1zm-14.6 37l-48.4-9.4V38z" fill="#393939"/><path d="M68.3 47.4v27.3L19.9 38z" fill="#717171"/></svg>