<svg xmlns="http://www.w3.org/2000/svg" width="123.5" height="64" xmlns:v="https://vecta.io/nano"><path d="M0,5h123.5v54H0V5z" fill="#171717"/><path d="M14.7 15.7v4.9h3.6V23h-3.6v6.9h-3V13.2h8.2l-1 2.5h-4.2zm11 14.2c0-.1-.1-.3-.1-.5s-.1-.4-.1-.5h0c-.3.3-.7.6-1.1.9s-1 .4-1.8.4c-.9 0-1.6-.3-2.1-.8s-.8-1.3-.8-2.4v-8.7h2.9v8.3c0 .5.1.9.3 1.2s.5.4.9.4.7-.2 1-.5.4-.7.4-1.2v-8.1h2.9v10 .8c0 .3.1.6.2.8h0l-2.6-.1h0zm9.3 0v-8c0-.6-.1-.9-.3-1.2s-.5-.3-.8-.3c-.2 0-.3 0-.5.1s-.3.2-.5.3c-.1.2-.3.3-.3.6-.1.2-.1.5-.1.8v7.6h-2.9V19.6v-.8c0-.2-.1-.5-.1-.7h2.7c0 .1 0 .2.1.3 0 .1 0 .3.1.4v.4.3h0c.3-.5.7-.9 1.2-1.3s1.1-.5 1.8-.5c.8 0 1.5.3 1.9.9s.7 1.4.7 2.3v8.7h-3v.3zm10.1 0c0-.1-.1-.3-.1-.5-.1-.2-.1-.5-.1-.6h0c-.1.1-.2.3-.4.4-.1.2-.3.3-.5.4s-.5.2-.7.3c-.4.1-.7.1-1.1.1-1 0-1.8-.3-2.3-.9s-.7-1.4-.7-2.5v-5.3c0-1.1.3-2 .9-2.6s1.3-.9 2.1-.9c.4 0 .7 0 1 .1s.5.2.7.3.3.2.5.4l.3.3h0v-5.6h2.9v14.8c0 .3 0 .6.1.9 0 .3.1.6.2.7h0-2.8v.2zm-.4-8.3a1.69 1.69 0 0 0-.3-1c-.2-.3-.5-.5-1-.5-.4 0-.7.1-1 .4-.2.3-.3.6-.3 1.1v5c0 .4.1.7.3.9s.5.4 1 .4c.4 0 .7-.1.9-.4s.4-.6.4-1v-4.9zm9.9 8.3c0-.1-.1-.3-.1-.5-.1-.2-.1-.5-.1-.6h0c-.2.3-.6.7-1.1 1s-1 .5-1.7.5c-1 0-1.7-.2-2.2-.7s-.7-1.2-.7-2.1v-.4c0-.7.2-1.4.7-2s1.1-1 1.9-1.4c.1-.1.4-.1.6-.3s.5-.2.8-.4l.8-.3c.2-.1.4-.2.5-.2v-.9c0-.3-.1-.6-.3-.9s-.5-.4-1-.4c-.4 0-.7.1-.9.4a1.69 1.69 0 0 0-.3 1v.5c0 .2 0 .3.1.4h-2.4c0-.1 0-.3-.1-.5s0-.5 0-.7c0-1 .3-1.8 1-2.4s1.6-.8 2.8-.8c1.5 0 2.5.3 3.1 1s.9 1.7.9 2.9v6.3.9c0 .3.1.5.2.7h0-2.5v-.1zm-.6-5.7c-.1 0-.2.1-.3.2s-.3.1-.4.2c-.2.1-.3.2-.5.3l-.9.6c-.3.2-.4.5-.4.9v.4c0 .3.1.6.4.8s.5.3.9.3c.3 0 .6-.1.9-.4.3-.2.4-.5.4-.9l-.1-2.4h0zm15.1 5.7v-8c0-.5-.1-.9-.3-1.1s-.5-.3-.8-.3c-.4 0-.7.2-1 .5-.2.4-.4.7-.4 1.2V30h-2.9v-8.2c0-.8-.3-1.3-1-1.3-.2 0-.4.1-.6.2a.78.78 0 0 0-.4.4c-.1.2-.2.3-.3.5s-.1.4-.1.6V30h-2.9V19.8v-.9c0-.2-.1-.4-.1-.6H61c0 .1.1.3.1.6s.1.5.1.8h0c.1-.2.3-.4.5-.6l.6-.6c.2-.2.5-.3.8-.4s.6-.2 1-.2c.6 0 1.1.2 1.4.5.3.4.6.8.7 1.2.3-.5.7-.9 1.2-1.2.5-.4 1.1-.5 1.8-.5.8 0 1.5.3 2 .9s.7 1.4.7 2.4v8.6h-2.8v.1zm12.2-7.8v1.3c0 .5 0 .9-.1 1.2h-5v1.9c0 .5.1.8.3 1.1s.6.4 1.1.4c.4 0 .7-.1.9-.4a1.69 1.69 0 0 0 .3-1V26v-.4h2.3a.9.9 0 0 0 .1.5v.7c0 1-.3 1.8-.9 2.4s-1.5.9-2.7.9c-1.3 0-2.3-.3-3-.9-.8-.6-1.1-1.6-1.1-2.8v-4.5c0-1.4.3-2.4 1-3s1.7-1 3.1-1c1.2 0 2.2.3 2.8 1s.9 1.8.9 3.2h0zm-2.6-.6c0-.4-.1-.8-.3-1.1s-.5-.4-.9-.4-.7.1-1 .4a1.69 1.69 0 0 0-.3 1v1.3h2.5v-.2-.3-.4-.3zm9.4 8.4v-8c0-.6-.1-.9-.3-1.2s-.5-.3-.8-.3c-.2 0-.3 0-.5.1s-.3.2-.5.3-.3.3-.3.6c-.1.2-.1.5-.1.8v7.6h-2.9V19.6v-.8c0-.2-.1-.5-.1-.7h2.7c0 .1 0 .2.1.3 0 .1 0 .3.1.4v.4.3h0c.3-.5.7-.9 1.2-1.3s1.1-.5 1.8-.5c.8 0 1.5.3 1.9.9s.7 1.4.7 2.3v8.7h-3v.3zm10.2 0c-.2 0-.5.1-.8.1h-1.2c-1.1 0-2-.3-2.5-.8s-.8-1.3-.8-2.4v-6.5h-1.2v-1.9h.5c.3 0 .5-.1.8-.3s.4-.4.6-.7.3-.6.4-1 .2-.8.2-1.2h1.5v2.9h2.4v2.1h-2.4v6.4c0 .8.4 1.2 1.2 1.2h.7c.2 0 .4 0 .5-.1v2.2h.1zm6.4 0c0-.1-.1-.3-.1-.5-.1-.2-.1-.5-.1-.6h0c-.2.3-.6.7-1.1 1s-1 .5-1.7.5c-1 0-1.7-.2-2.2-.7s-.7-1.2-.7-2.1v-.4c0-.7.2-1.4.7-2s1.1-1 1.9-1.4c.1-.1.4-.1.6-.3.3-.1.5-.2.8-.4l.8-.3c.2-.1.4-.2.5-.2v-.9c0-.3-.1-.6-.3-.9s-.5-.4-1-.4c-.4 0-.7.1-.9.4a1.69 1.69 0 0 0-.3 1v.5c0 .2 0 .3.1.4h-2.3c0-.1 0-.3-.1-.5v-.7c0-1 .3-1.8 1-2.4s1.6-.8 2.8-.8c1.5 0 2.5.3 3.1 1s.9 1.7.9 2.9v6.3.9c0 .3.1.5.2.7h0-2.6v-.1zm-.5-5.7c-.1 0-.2.1-.3.2s-.3.1-.4.2c-.2.1-.3.2-.5.3l-.9.6c-.3.2-.4.5-.4.9v.4c0 .3.1.6.4.8s.5.3.9.3c.3 0 .6-.1.9-.4.3-.2.4-.5.4-.9l-.1-2.4h0zm4.5 5.7V13.4h2.9v16.5h-2.9zM46.3 50.6V33.9h3v14.2h4.2v2.5c0 0-7.2 0-7.2 0zm13.8 0c0-.1-.1-.3-.1-.5-.1-.2-.1-.5-.1-.6h0c-.2.3-.6.7-1.1 1s-1 .5-1.7.5c-1 0-1.7-.2-2.2-.7s-.7-1.2-.7-2.1v-.4c0-.7.2-1.4.7-2s1.1-1 1.9-1.4c.1-.1.4-.2.6-.3s.5-.2.8-.4l.8-.3c.2-.1.4-.2.5-.2v-.9c0-.3-.1-.6-.3-.9s-.5-.4-1-.4c-.4 0-.7.1-.9.4a1.69 1.69 0 0 0-.3 1v.5c0 .2 0 .3.1.4h-2.3c0-.1 0-.3-.1-.5v-.7c0-1 .3-1.8 1-2.4s1.6-.8 2.8-.8c1.5 0 2.5.3 3.1 1s.9 1.7.9 2.9v6.3.9c0 .3.1.5.2.7h0l-2.6-.1h0zm-.5-5.6c-.1 0-.2.1-.3.2s-.3.1-.4.2c-.2.1-.3.2-.5.3l-.9.6c-.3.2-.4.5-.4.9v.4c0 .3.1.6.4.8s.5.3.9.3c.3 0 .6-.1.9-.4.3-.2.4-.5.4-.9l-.1-2.4h0zm12.8 2.4c0 .5-.1.9-.2 1.3-.2.4-.4.8-.7 1.1s-.6.5-1 .7-.8.3-1.3.3c-.7 0-1.4-.1-1.9-.4s-.9-.7-1.3-1.1h0l-.6 1.4h-1.2V34.1h2.9V40h0c.3-.4.6-.7 1.1-1s1-.4 1.6-.4c.4 0 .8.1 1.1.2.3.2.6.4.9.7s.4.6.6 1 .2.8.2 1.3v5.6h-.2zm-2.9-4.9c0-.4-.1-.8-.3-1.1s-.5-.5-.9-.5c-.5 0-.8.2-1 .5-.2.4-.4.7-.4 1.2v4.7c0 .4.1.7.4 1 .2.3.6.4 1 .4s.7-.1.9-.4a1.69 1.69 0 0 0 .3-1v-4.8zm11.6 5.1c0 1-.3 1.8-1 2.4s-1.6.9-2.8.9c-.7 0-1.3-.1-1.7-.3-.5-.2-.8-.4-1.1-.7s-.5-.7-.6-1.1-.2-.8-.2-1.3v-.6c0-.2 0-.4.1-.4h2.3c0 .1 0 .2-.1.3v.4c0 .5.1.9.3 1.2.2.2.6.3 1.1.3.4 0 .7-.1.9-.3s.3-.4.3-.7-.1-.5-.2-.7-.5-.4-.9-.7l-1.9-1.1c-.5-.3-1-.7-1.3-1.2s-.4-1.1-.4-1.8c0-1.1.3-1.9 1-2.6s1.6-.9 2.8-.9c1.1 0 2 .3 2.6.8s1 1.4 1 2.5v.6.5h-2.1v-.4-.4c0-.5-.1-.9-.4-1.1-.2-.2-.6-.4-1.1-.4-.3 0-.6.1-.8.3s-.3.4-.3.7c0 .2.1.4.2.6s.3.4.7.6l2.1 1.2c.6.4 1.1.8 1.4 1.4s.1 1.1.1 2z" fill="#fff"/></svg>