<svg xmlns="http://www.w3.org/2000/svg" width="128.1" height="64" fill="#3f3f3f" xmlns:v="https://vecta.io/nano"><path d="M15.3 31.5l-.3-.3c-.3-.3-.7-.1-.7.3h0v4.9c0 .2.2.4.4.4h0 4.9c.4 0 .5-.4.3-.7-.2-.2-.2-.4 0-.6h0l5.2-5.2c.2-.1.2-.4.1-.5l-.1-.1h0l-.5-.5c-.3-.3-.1-.7.3-.7h0 4.9c.2 0 .4.2.4.4h0v4.9c0 .4-.4.5-.7.3h0l-.3-.3c-.2-.2-.4-.2-.6 0h0l-8.7 8.7c-.1.2-.4.2-.5.1l-.1-.1h0L8.5 31.8c-.2-.1-.2-.4-.1-.5l.1-.1h0l14.8-14.8c.2-.1.2-.4.1-.5l-.1-.1h0l-3.5-3.5c-.1-.2-.4-.2-.5-.1l-.1.1h0L.1 31.6c-.2.1-.2.4-.1.5l.1.1h0l19.1 19.1c.1.2.4.2.5.1l.1-.1h0l19.1-19.1c.2-.2.2-.4 0-.6h0L27.6 20.3c-.2-.2-.4-.2-.6 0h0L15.8 31.5c-.1.2-.4.2-.5 0zM60 24.9v-1.1c0-.7-.6-1.2-1.2-1.2h-.9c-.7 0-1.2.5-1.2 1.2v.3c-1.3-1.5-2.9-2.2-5-2.2-2 0-3.8.8-5.4 2.2-1.5 1.5-2.3 3.6-2.3 6.2s.8 4.7 2.2 6.2c1.5 1.6 3.2 2.3 5.2 2.3 2.2 0 4-.9 5.3-2.7v2.7c0 3.2-2.1 5-4.6 5-2 0-3.4-1-4.2-3-.3-.7-1-1-1.7-.7l-1 .4c-.6.2-.9.9-.7 1.5.5 1.5 1.1 2.7 2.3 3.6 1.5 1.1 3.2 1.7 5.1 1.7 2.2 0 4.1-.8 5.7-2.3s2.4-3.7 2.4-6.5v-1.8c-1-1.6-1.4-3.6-1.4-5.9-.1-2.3.4-4.3 1.4-5.9zm-4.8 9.2c-1 .9-2 1.4-3.3 1.4s-2.4-.5-3.2-1.4c-.9-.9-1.3-2.2-1.3-3.8-.2-2.6 1.7-4.8 4.2-5.1 1.3-.1 2.7.3 3.7 1.3.9.9 1.4 2.1 1.4 3.8-.1 1.6-.6 2.9-1.5 3.8zm19.3-11.5h-.7c-.7 0-1.2.6-1.2 1.2v.4c-1.1-1.6-2.7-2.4-4.9-2.4-2.1 0-3.9.8-5.5 2.3-1.5 1.6-2.3 3.8-2.3 6.6s.8 4.9 2.2 6.5c1.5 1.6 3.2 2.4 5.2 2.4 2.1 0 3.8-.8 5.3-2.3v.7c0 .7.6 1.2 1.2 1.2h2V23.9c-.1-.7-.6-1.3-1.3-1.3h0zm-6.8 13.7a4.1 4.1 0 0 1-3.1-1.4c-.9-1-1.3-2.3-1.3-4.1 0-3.6 2.1-5.5 4.6-5.5 1.3 0 2.3.5 3.3 1.4.9 1 1.4 2.3 1.4 4.1 0 3.5-2.5 5.5-4.9 5.5zM85.8 26c.4-.6.8-1.1 1.3-1.5 1.1-1 2.3-1.7 3.6-2.1h-8.3V18c0-.5-.4-.9-.9-.9h-1.8c-.5 0-.9.4-.9.9v4.5h-1.5V26h1.5v13.3h1.9c1 0 1.7-.8 1.7-1.7V26h3.4zm15 10.8h-7.2c-2.1-.1-3.7-1.3-4.2-3.5h11.5c.1-.6.1-1.2.1-2 0-2.6-.7-4.5-2.1-5.9s-3.2-2.1-5.2-2.1c-.9 0-1.8.1-2.6.4-1.2.4-2.2 1-3.2 1.8-.2.2-.4.4-.5.6-1.3 1.4-1.9 3.3-1.9 5.6 0 2.6.8 4.7 2.5 6.2 1.5 1.4 3.4 2.2 5.4 2.2h0 7.6c-.4-.5-.6-1.2-.6-1.9.1-.5.2-1 .4-1.4zm-7.2-10.4c1 0 2 .3 2.7 1 .8.7 1.2 1.7 1.2 2.9h-8.2c.1-2.5 2.3-3.9 4.3-3.9z"/><circle cx="103.6" cy="38.2" r="1.8"/><path d="M108.1 17c-1.2 0-2.3 1-2.3 2.2v.1a2.26 2.26 0 1 0 4.6 0c.1-1.2-1-2.3-2.3-2.3zm.7 7.4h-1.3a1.11 1.11 0 0 0-1.1 1.1v11.2c.2.4.4.9.4 1.4s-.1 1-.4 1.4v.5h2.2c.8 0 1.4-.6 1.4-1.4V25.5c-.1-.6-.6-1.1-1.2-1.1h0zm17 1.8c-1.6-1.6-3.6-2.4-6-2.4s-4.3.8-5.9 2.4-2.4 3.6-2.4 6 .8 4.4 2.4 6 3.5 2.4 5.9 2.4 4.4-.8 6-2.4 2.3-3.6 2.3-6-.8-4.4-2.3-6zm-2.5 9.7c-.9 1-2.1 1.5-3.5 1.5s-2.6-.5-3.5-1.5-1.4-2.2-1.4-3.7.5-2.7 1.4-3.7c.9-.9 2.1-1.4 3.5-1.4s2.6.5 3.5 1.4c.9 1 1.4 2.2 1.4 3.7s-.5 2.7-1.4 3.7z"/></svg>