<svg xmlns="http://www.w3.org/2000/svg" width="106.4" height="64" xmlns:v="https://vecta.io/nano"><path d="M51.1 36.6c0-.3 0-.6-.2-.9s-.4-.5-.7-.6l-11.1-6.5a.78.78 0 0 1-.4-.4c-.1-.2-.1-.4-.1-.6 0-4.1-.1-8.2.1-12.3.1-.5 0-1-.3-1.5-.3-.4-.6-.8-1.1-1-3.8-2.1-7.5-4.3-11.2-6.5-.1-.1-.3-.1-.5-.1s-.3.1-.5.1l-12.1 7a.78.78 0 0 0-.4.4c-.1.2-.1.3-.1.5v13c0 .3 0 .6-.2.9-.1.3-.4.5-.6.6L.6 35.1c-.2.1-.4.3-.5.5-.1.1-.2.4-.1.6v6.9V50c0 .3.1.5.2.7s.3.4.6.5l11.7 6.9c.2.2.5.2.7.2.3 0 .5-.1.7-.2l11.3-6.6c.1-.1.2-.1.4-.1.1 0 .3 0 .4.1l11.5 6.8c.2.1.4.2.6.2s.4-.1.6-.2l11.8-6.9c.2-.1.4-.3.6-.5.1-.2.2-.5.2-.8-.2-4.6-.3-9-.2-13.5zM12.5 55.9c0 .5-.1.5-.5.3l-10.3-6-.3-.3c-.1-.1-.1-.3-.1-.4v-6-5.9c0-.4 0-.6.5-.3l10.2 6 .3.3c.1.1.1.3.1.4.1 4 .1 8 .1 11.9zm.4-13.7L2 35.8l4.3-2.5 6.3-3.7c.1-.1.3-.1.4-.1s.3 0 .4.1l10.3 6.1c.3.2.4.3 0 .5l-10.4 6c-.1.1-.2.1-.3.1.1 0 0 0-.1-.1zm11.7 8l-10.5 6.1c-.1 0-.2.1-.3.1V56 44.1c0-.1 0-.3.1-.4l.3-.3h0l10.4-6.1s.1-.1.2-.1h.2 0v12.3c-.1.3-.1.5-.4.7zm.3-15.5c-.2.1-.3-.1-.5-.2l-10.2-6c-.3-.1-.4-.3-.4-.6V15.5v-.2h0l2.3 1.4 8.3 4.9a.78.78 0 0 1 .4.4c.1.2.1.4.1.5v12.2zm.3-14.3l-10.2-6c-.4-.2-.5-.3 0-.6l10.3-6c.1-.1.2-.1.3-.1s.2 0 .3.1h0L36.5 14c.1 0 .1.1.2.1h0l-5.2 3c-1.8 1.1-3.6 2.2-5.5 3.2-.1.1-.2.1-.4.1-.2.1-.3.1-.4 0zm1.5 1.1l10.2-5.9c.1-.1.3-.1.5-.2h0V28c0 .1 0 .2-.1.3 0 .1-.1.2-.2.2h0l-10.6 6.2h-.2v-.5-11.9c0-.2 0-.3.1-.5 0-.1.1-.2.3-.3zm10.6 34.9c0 .1 0 .1-.1.2h0l-6-3.6-4.5-2.7c-.1-.1-.2-.1-.3-.3-.1-.1-.1-.3-.1-.4V37.3v-.2h0l2.4 1.4 8.3 4.9c.2.1.4.3.4.6-.1 4.1-.1 8.2-.1 12.4h0zm1-14.1c-.1.1-.2.1-.3.1s-.2 0-.3-.1l-10.4-6.1h0l-.4-.2 10.8-6.3c.1-.1.2-.1.3-.1s.2 0 .3.1h0L48.9 36l.1.1-2.4 1.4-8.3 4.8zm11.1 8l-10.3 6h0l-.4.2v-4.3-8.1c0-.1 0-.3.1-.4l.3-.3 10.4-6.1h0l.3-.1v.5h0v11.9.4c-.2.2-.3.3-.4.3h0zm23.9-10.6h-7.9c-1.2 0-2.1-1-2.1-2.1V26.9c0-1.2 1-2.1 2.1-2.1h7.9c1.2 0 2.1 1 2.1 2.1v1.7c0 .2-.2.4-.4.4h-1.5c-.2 0-.4-.2-.4-.4v-1.3c0-.2-.2-.4-.4-.4l-7.2.1c-.2 0-.4.2-.4.4l.1 9.9c0 .2.2.4.4.4l7.2-.1c.2 0 .4-.2.4-.4v-2.9c0-.2-.2-.4-.4-.4h-3.4c-.2 0-.4-.2-.4-.4V32c0-.2.2-.4.4-.4h5.5c.2 0 .4.2.4.4v5.5c.1 1.3-.8 2.2-2 2.2h0zm16.4-8c.3-.5.6-1.1.6-1.8v-2a3.12 3.12 0 0 0-3.1-3.1h-7.7c-.4 0-.6.3-.6.6v7.7h0v6c0 .4.3.6.6.6h8.1a3.33 3.33 0 0 0 3.3-3.3v-2.3c-.1-.9-.5-1.8-1.2-2.4h0zM81.6 27h5.5c.5 0 .9.4.9.9v2c0 .5-.4.9-.9.9h-5.5c-.4 0-.6-.3-.6-.6v-2.6c.1-.3.3-.6.6-.6zm7 9.5a1.11 1.11 0 0 1-1.1 1.1h-5.9c-.4 0-.6-.3-.6-.6v-3.2c0-.4.3-.6.6-.6h5.5.1.4a1.11 1.11 0 0 1 1.1 1.1v2.2h-.1zm9.4 2.6l-5.8-14.3h2.1c.3 0 .6.2.7.5l4.4 11.3 4.3-11.3c.1-.3.4-.5.7-.5l2-.1-5.6 14.3c-.2.4-.5.7-1 .7H99c-.5.1-.9-.2-1-.6h0z" fill="#424242"/></svg>