<svg xmlns="http://www.w3.org/2000/svg" width="133.4" height="64" fill="#171717" xmlns:v="https://vecta.io/nano"><path d="M44 38.6c1.3-.9 2.3-2.2 2.8-3.8.6-1.9.5-4-.5-5.8-.2-.4-.5-.8-.8-1.2l1.4-1.7-1.8-1.6-1.4 1.7c-1.2-.7-2.5-1.1-3.9-1.1-4.3 0-7.2 3.1-7.2 7.5 0 4.3 3 7.4 7.2 7.4 2.3 0 4.8 1 4.8 3.7 0 3.4-3.7 3.7-4.8 3.7-2.3 0-4.7-1-4.7-3.7v-.6h-2.5v.6c0 1.9.7 3.5 2.2 4.6 1.3 1 3.1 1.6 5.1 1.6 4.5 0 7.3-2.4 7.3-6.2 0-2.3-1.1-4.1-3.2-5.1zm.6-6a4.76 4.76 0 0 1-1.4 3.4c-.9.9-2.1 1.4-3.4 1.5-3.1 0-4.7-2.5-4.7-4.9 0-3.6 2.4-4.9 4.7-4.9 3 0 4.8 1.9 4.8 4.9zM56 25.2c-1.1-.1-2.1.2-3.1.7-.4.2-.8.5-1.1.9v-1.4h-2.4v15.3h2.5v-8.8c0-2.3 1.8-4.1 4.1-4.2.7 0 1.5.2 2.1.6l.5.3 1.2-2.1-.5-.3c-1-.7-2.2-1-3.3-1zm-43.6-2.1c-3.2.3-6.2 1.6-8.4 3.9-5.2 5.2-5.2 13.8 0 19 2.4 2.4 5.6 3.8 9 3.9h.5c7 0 12.8-5.4 13.4-12.4V23l-14.5.1h0zm2.4 12v-9.6h9.6v9.6h-9.6zm9.6 2.5c-.3 2.7-1.5 5.1-3.4 7-4.3 4.1-11.2 3.9-15.4-.3-2-2.1-3.1-4.8-3.1-7.7S3.6 31 5.6 29c1.8-1.9 4.3-3.1 6.9-3.3v12h11.9zm-1.9-9.1l.5-.1v-1.5h-.6c-.7 0-1.4.3-2 .7-.2.2-.5.4-.7.7-.2-.3-.4-.5-.7-.7-.6-.4-1.3-.7-2.1-.7h-.6v1.5l.5.1c.4.1.8.3 1 .6.3.3.4.7.4 1.2a1.92 1.92 0 0 1-.4 1.2c-.3.3-.6.5-1 .6l-.5.1v1.5h.6c.7 0 1.4-.3 2-.7.3-.2.5-.4.7-.7.2.3.4.5.7.7.6.4 1.3.7 2 .7h.6v-1.5l-.5-.1c-.4-.1-.8-.3-1-.6-.3-.3-.4-.7-.4-1.1s.1-.8.4-1.1c.3-.5.7-.7 1.1-.8zm95.2 5.6l-1.1 2.8-4.6-11.5h-2.7l5.9 14.6-2.9 6.6h2.8l9.1-21.2h-2.8zm15.2-17.9l.5-.1v-1.7h-.6c-1 0-2 .4-2.8 1-.4.3-.8.8-1.1 1.2-.9-1.3-2.4-2.2-4-2.2h-.6v1.7l.5.1c.7.1 1.4.4 1.9 1a2.91 2.91 0 0 1 0 3.9c-.5.5-1.1.9-1.9 1l-.5.1v1.1l.1.6h.6c1 0 2-.4 2.8-1 .4-.3.8-.8 1.1-1.2.9 1.3 2.4 2.2 4 2.2h.6v-1.7l-.5-.1c-.7-.1-1.4-.4-1.9-1-.5-.5-.7-1.2-.7-2 0-.7.3-1.4.7-2 .4-.4 1-.8 1.8-.9zM107 38c-.6.3-1.3.5-1.9.5-1.5 0-2-.6-2-2.6v-8.1h4.8v-2.3H103v-4.3l-2.5.3v4.1h-3v2.3h3V36c0 1.6.3 2.8 1 3.7.8 1 2 1.5 3.6 1.5 1 0 2-.3 2.9-.8l.5-.2-.9-2.2h-.6zm-23.1-1l-4.8-11.6h-2.8l6.4 15.3H85l6.5-15.3h-2.8zm10.2-17.3c-.4 0-.9.2-1.2.5s-.5.7-.5 1.2.2.9.5 1.2.8.5 1.2.5.9-.2 1.2-.5h0c.3-.3.5-.7.5-1.2 0-.4-.2-.9-.5-1.2a1.58 1.58 0 0 0-1.2-.5zm-20.9 7.6c-1.3-1.4-3.2-2.2-5.2-2.1-4.3.1-7.7 3.6-7.7 7.9s3.5 7.8 7.7 7.9h.1c1.9 0 3.8-.8 5.1-2.1v1.9h2.5V25.4h-2.5v1.9zM68 38.4h0c-1.4 0-2.7-.6-3.7-1.6s-1.5-2.3-1.5-3.7.5-2.7 1.5-3.7 2.3-1.6 3.7-1.6c3.7 0 5.3 2.8 5.3 5.4 0 2.4-1.6 5.2-5.3 5.2zm24.8-13.1h2.5v15.4h-2.5z"/></svg>