<svg xmlns="http://www.w3.org/2000/svg" width="132.5" height="64" xmlns:v="https://vecta.io/nano"><g fill="#2d2d2d"><path d="M6.5 35.7L24.4 5.9 0 13.7l21.7-5.9L7.3 31.1 0 14l6.5 21.7zm.6 0L24.8 6.3l16.6 30.2-33.9.3 28.8-2.6L24.4 8.7l-17.3 27zM25 6l16.9 30.1 12.9-21.6-12.6 16.8L26.4 7l25 6.4L25 6z"/><path d="M29 .7l-4.6 4.8L.3 13.6 25 2.5 14.1 8.2l10-4L29 .7z"/><path d="M53.4 13.5L29 .7l-4.2 5 26.6 7.7-24.1-8.6 2.1-3.3 24 12zm1.4 1v33L42.1 37l11.2-19.6-8.4 19.4 8.1 5.1 1.8-27.4z"/><path d="M41.9 37.2l-9.8 20 22.7-9.7-28.9 15.8 16-26.1zM7.1 37h34.3L26 62.4l11.5-23.3L9 38l12.5 18.6L7.1 37zm-.6.2L0 46.6l20.2 13.1L3.1 46.9l4-4.9 18.5 21.3L6.5 37.2z"/><path d="M0 14l6.1 22.2L0 46.6v-27l.7 23.6L3 36.5 0 14z"/></g><path d="M132.5 20.1H129c-.3-1.5-1.3-1.9-2.7-1.9h-6.9c-1.6 0-2.6.7-2.6 1.9s.9 1.9 2.5 1.9h6.6c3.8 0 6.7 2.9 6.6 6.5s-2.9 6.3-6.6 6.4h-6.5c-3.5-.1-6.4-3.1-6.1-6.3h3.4c.4 2.4 2.1 2.8 4.2 2.7 1.6-.1 3.2 0 4.9 0 2 0 3.1-1.1 3.1-2.8s-1.2-2.8-3.1-2.8h-6.6c-3.6 0-6-2.3-6-5.7 0-3.2 2.5-5.5 6-5.5h7.7c3.3.1 5.5 2.3 5.6 5.6h0zM83.2 31.3v-3.9h-6.5v-3.5h10.1V35h-1.4c-3.5-.1-7.1.2-10.6-.3-5.1-.7-8.6-5.4-8.4-10.3.3-5.2 4.4-9.5 9.7-9.8 3.5-.2 7.1 0 10.7 0v3.5c-.4 0-.8.1-1.3.1-3 0-6-.1-9 0-3.2.1-5.9 2.4-6.3 5.4-.5 3.3 1.3 6.4 4.5 7.3 1.2.4 2.6.3 3.9.4 1.4.1 2.9 0 4.6 0zm6.7-16.7h20.2v3.5h-8.2v16.7h-3.7V18.2h-8.3v-3.6zm-9.1 26.1h-4.9c-.9 0-1.4.3-1 1.4h3.7c.3 0 .7.4 1 .6-.3.2-.6.7-1 .7-1.2.1-2.5 0-3.7 0-.3 2-.2 2.1 1.6 2.1H80c1 0 1 0 .9 1.3h-5.8c-1 0-1.6-.7-1.6-1.7-.1-1.3-.1-2.6 0-3.9 0-1.3.9-1.8 2.1-1.9 1.6-.1 3.2-.1 4.7 0 .3 0 .6.6.9.9-.1.2-.2.4-.4.5h0zm42.7 0h-4.9c-.9 0-1.4.3-1.1 1.4h3.8c.8 0 1.2.3.8 1.3h-4.6c-.3 2-.2 2.1 1.6 2.1h3.5c.9 0 .9 0 .9 1.3-2 0-4.1.1-6-.1-.6-.1-1.3-1.1-1.4-1.8-.2-1-.1-2.1-.1-3.2 0-1.6.7-2.3 2.3-2.4h4.3c1 0 1.2.5.9 1.4zm8.3.7c-.5 0-1 .1-1.1 0-1-1.2-2.4-.5-3.6-.6-.3 0-.7.5-1 .7.3.2.6.6 1 .6.8.1 1.6 0 2.4 0 1.4.1 2.3.9 2.3 2.3s-.9 2.3-2.4 2.3h-2.6c-1.3-.1-1.9-.7-2.1-2.3.4 0 1-.1 1.1.1.9 1.4 2.3.7 3.5.8.3 0 .7-.6 1.1-.9-.4-.3-.7-.9-1.2-1-.7-.2-1.5 0-2.3-.1-1.5-.1-2.3-.8-2.3-2.1 0-1.2.8-2 2.3-2.1.9 0 1.8-.1 2.7 0 1.3.4 2.1.9 2.2 2.3h0zm-23.6-2h4.1c1.2 0 2.3.3 2.6 1.6.3 1.2-.4 2-1.6 2.5l1.5 3.1c-.9.4-1.5.2-1.9-.7-.2-.4-.4-.7-.5-1.1-.5-1.3-1.4-1.6-2.9-1.4v2.3c.1 1-.4 1.2-1.3.9v-7.2h0zm1.3 1.3v1.4h3.2c.3 0 .6-.4.9-.7-.3-.2-.6-.6-.9-.7h-3.2zm-26 6h-1.3v-7.2l6.2 4.6v-4.7c.5 0 .9.1 1.3.1v7.4l-6.2-4.6v4.4zm16-7.2c1-.3 1.4 0 1.3.9v2.7c0 1.5.9 2.4 2.3 2.5s2.5-.9 2.6-2.3c.1-1.2 0-2.4 0-3.6 1-.3 1.5-.2 1.4.8-.1 1.2 0 2.5-.2 3.7-.4 1.9-2.1 2.9-4.2 2.7-1.8-.2-3.1-1.7-3.2-3.6v-3.8h0zm-34 0c1-.4 1.5-.1 1.9.7.5 1.2 1.2 2.3 1.9 3.6l1.8-3.5c.4-.9.9-1.2 2-.9l-3.8 7.4-3.8-7.3zm29.7 7.3h-1.3v-6H91c-.4-1-.3-1.5.8-1.4h5.6c.9 0 1.1.4.9 1.3l-3.1.1v6z" fill="#171717"/></svg>