<svg xmlns="http://www.w3.org/2000/svg" width="164" height="64" xmlns:v="https://vecta.io/nano"><path d="M18.9 18.9h-.1-.2 0L.5 24c-.2 0-.3.1-.4.3-.1.1-.2.3-.2.5s.1.3.2.5c.1.1.3.2.4.3h0l11.2 3.1 7 1.9h.2 0 .1.2 0l6.9-1.9 11.1-3.1c.2 0 .3-.1.4-.3.1-.1.2-.3.2-.5s-.1-.3-.2-.5c-.1-.1-.3-.2-.4-.3h0l-18.1-5c-.1-.1-.2-.1-.2-.1h0zm.2 13.2h-.5-.2 0l-9.2-2.6h-.4 0L.6 31.8c-.2 0-.3.1-.4.3-.1.1-.2.3-.2.5s.1.3.2.5c.1.1.3.2.4.3h0l11.1 3.1 6.9 1.9h.2 0 .1.2 0l7-1.9 11.2-3.1c.2 0 .3-.1.4-.3.1-.1.2-.3.2-.5s-.1-.3-.2-.5c-.1-.1-.3-.2-.4-.3h0L29 29.5h-.4 0l-9.2 2.6h-.3 0zm0 7.8h-.5-.2 0l-9.2-2.6h-.4 0L.6 39.6c-.2 0-.3.1-.4.3-.2.1-.3.2-.3.4s.1.3.2.5c.1.1.3.2.4.3h0l18.1 5.1h.2 0 .1.2 0l18.1-5.1c.2 0 .3-.1.4-.3.1-.1.2-.3.2-.5s-.1-.3-.2-.5c-.1-.1-.3-.2-.4-.3h0L29 37.2h-.4 0l-9.2 2.6c-.2.1-.3.1-.3.1zm28.4 3V22.8h4.7v7.9h8.6v-7.9h4.7v20.1h-4.7v-8.2h-8.6v8.2h-4.7 0zm33.6-5c-.7 3.2-3.2 5.4-6.8 5.4-4.4 0-7.5-2.7-7.5-7.2 0-1 .1-2 .5-3 .4-.9.9-1.8 1.6-2.5s1.5-1.3 2.5-1.7c.9-.4 1.9-.6 2.9-.5 4.6 0 7 3.2 7 7.1h0v1.4h-10c.1 1.9 1.5 3 3.2 3 1.6 0 2.5-.6 3-1.9h0c0-.1 3.6-.1 3.6-.1zm-4.2-3.5c0-.4-.1-.7-.2-1s-.3-.6-.6-.9-.5-.4-.9-.6c-.3-.1-.7-.2-1-.2-1.8 0-2.7 1.2-2.9 2.7h0 5.6zm26.8 8.5V26.8h-6.8v-4h18.5v4h-6.9V43c-.1 0-4.8 0-4.8-.1zm19.2-9.6c-.7-.4-1.5-.6-2.4-.6-1.9 0-3.1 1.1-3.1 3.6h0V43h-4.5V28.8h4.5v2.6c.3-.8.8-1.6 1.5-2.1s1.5-.8 2.4-.9c.7 0 1.4.2 1.9.6h0c0 0-.3 4.3-.3 4.3zm10.9-4.5h4.5V43h-4.5v-2.2c-.8 1.6-2.3 2.6-4.4 2.6-3.7 0-4.9-2.6-4.9-5.6h0v-8.9h4.5v7.8c0 2 .7 3.1 2.3 3.1s2.5-1.4 2.5-3.7h0v-7.3h0zm9.7 9.4c.2 1.4 1.3 2.1 2.9 2.1 1.2 0 2-.4 2-1.2s-.4-1.1-1.6-1.3h0l-2.1-.3c-3.2-.5-4.9-1.6-4.9-4.4s2.3-4.7 6.1-4.7c3.9 0 6.3 1.8 6.6 4.8h0l-3.7.1c-.2-1.2-1.2-2-2.9-2-1.1 0-1.8.5-1.8 1.2 0 .6.4.9 1.1 1h0l2.7.5c3 .5 4.8 1.9 4.8 4.6 0 3-2.5 4.6-6.2 4.6s-6.6-1.6-6.8-5h0c-.1.1 3.8 0 3.8 0zm-52.7-3.3l4.6-6.1h-4.7l-2.2 3.1 2.3 3h0zm2.1 4l-2.5-3.4-2.3-3-2.6-3.7h-5l5.1 6.9-5.5 7.2h4.7l3.1-4.2 3.1 4.2h5l-3.1-4h0zm68.9.8c-1.1 0-1.6-.5-1.6-1.7h0v-6-3.2-3.9h-2.8l-.5 1.9c-.3 1.3-.7 2-2.1 2.3h0l-1 .2V32h1.9v7.2c0 3.2 2 4.1 4.3 4.1 1.4.1 2.9-.4 4-1.2h0v-3c-.7.3-1.4.5-2.2.6h0zm2-10.9h-2.9V32h2.9v-3.2z" fill="#494949"/></svg>