<svg xmlns="http://www.w3.org/2000/svg" width="83" height="64" xmlns:v="https://vecta.io/nano"><linearGradient id="htr-group-A" gradientUnits="userSpaceOnUse" x1="7.942" y1="15.557" x2="32.678" y2="40.265"><stop offset="0" stop-color="#595959"/><stop offset=".583" stop-color="#3e3e3e"/><stop offset=".734" stop-color="#3d3d3d"/><stop offset=".915" stop-color="#302f2f"/><stop offset="1" stop-color="#272727"/></linearGradient><path d="M32.7 40.3h0 0 0z" fill="url(#htr-group-A)"/><linearGradient id="htr-group-B" gradientUnits="userSpaceOnUse" x1="72.514" y1="51.273" x2="8.439" y2="52.55"><stop offset="0" stop-color="#565656"/><stop offset=".206" stop-color="#404040"/><stop offset=".559" stop-color="#414141"/><stop offset=".988" stop-color="#333" stop-opacity=".8"/></linearGradient><path d="M11.9 56.9v-3.5H7.6v3.5H6v-8.7h1.6v3.7h4.3v-3.7h1.6v8.7h-1.6z" fill="url(#htr-group-B)"/><linearGradient id="htr-group-C" gradientUnits="userSpaceOnUse" x1="72.517" y1="51.412" x2="8.442" y2="52.689"><stop offset="0" stop-color="#565656"/><stop offset=".206" stop-color="#404040"/><stop offset=".559" stop-color="#414141"/><stop offset=".988" stop-color="#333" stop-opacity=".8"/></linearGradient><path d="M17.3 49.7h-2.8v-1.5h7.1v1.5h-2.8v7.2h-1.6l.1-7.2z" fill="url(#htr-group-C)"/><linearGradient id="htr-group-D" gradientUnits="userSpaceOnUse" x1="72.519" y1="51.599" x2="8.444" y2="52.876"><stop offset="0" stop-color="#565656"/><stop offset=".206" stop-color="#404040"/><stop offset=".559" stop-color="#414141"/><stop offset=".988" stop-color="#333" stop-opacity=".8"/></linearGradient><path d="M30.4 56.9h-1.9L25.9 54h-1.6v2.9h-1.6v-8.7h4.1c2.1 0 3.1 1.4 3.1 2.9 0 1.2-.6 2.4-2.2 2.7l2.6 3v.1zm-6.1-7.2v2.8h2.5c1 0 1.5-.7 1.5-1.4s-.5-1.4-1.5-1.4h-2.5z" fill="url(#htr-group-D)"/><linearGradient id="htr-group-E" gradientUnits="userSpaceOnUse" x1="72.523" y1="51.797" x2="8.448" y2="53.074"><stop offset="0" stop-color="#565656"/><stop offset=".206" stop-color="#404040"/><stop offset=".559" stop-color="#414141"/><stop offset=".988" stop-color="#333" stop-opacity=".8"/></linearGradient><path d="M40 50.3c-.6-.6-1.4-.9-2.2-.9-1.9 0-3 1.4-3 3.2 0 1.4.8 2.9 3 2.9.7 0 1.3-.2 2-.7v-1.5h-2.2v-1.5h3.7v3.7c-.9 1-1.9 1.6-3.5 1.6-3.3 0-4.6-2.1-4.6-4.4 0-2.5 1.5-4.7 4.6-4.7 1.2 0 2.3.4 3.2 1.3l-1 1z" fill="url(#htr-group-E)"/><linearGradient id="F" gradientUnits="userSpaceOnUse" x1="72.528" y1="51.993" x2="8.453" y2="53.27"><stop offset="0" stop-color="#565656"/><stop offset=".206" stop-color="#404040"/><stop offset=".559" stop-color="#414141"/><stop offset=".988" stop-color="#333" stop-opacity=".8"/></linearGradient><path d="M50.2 56.9h-1.9L45.7 54h-1.6v2.9h-1.6v-8.7h4.1c2.1 0 3.1 1.4 3.1 2.9 0 1.2-.6 2.4-2.2 2.7l2.6 3 .1.1h0zm-6.1-7.2v2.8h2.5c1 0 1.5-.7 1.5-1.4s-.5-1.4-1.5-1.4h-2.5z" fill="url(#F)"/><linearGradient id="G" gradientUnits="userSpaceOnUse" x1="72.533" y1="52.181" x2="8.458" y2="53.458"><stop offset="0" stop-color="#565656"/><stop offset=".206" stop-color="#404040"/><stop offset=".559" stop-color="#414141"/><stop offset=".988" stop-color="#333" stop-opacity=".8"/></linearGradient><path d="M59.3 52.6c0 2.2-1.4 4.5-4.4 4.5-3.1 0-4.5-2.2-4.5-4.5s1.5-4.6 4.5-4.6 4.5 2.3 4.4 4.6zm-7.2 0c0 1.4.8 3 2.8 3 2.1 0 2.8-1.5 2.8-3s-.8-3.1-2.8-3.1c-2.1 0-2.9 1.6-2.8 3.1z" fill="url(#G)"/><linearGradient id="H" gradientUnits="userSpaceOnUse" x1="72.537" y1="52.41" x2="8.462" y2="53.687"><stop offset="0" stop-color="#565656"/><stop offset=".206" stop-color="#404040"/><stop offset=".559" stop-color="#414141"/><stop offset=".988" stop-color="#333" stop-opacity=".8"/></linearGradient><path d="M68.2 48.2v5c0 2.6-1.6 3.9-3.8 3.9-2.1 0-3.9-1.3-3.9-3.9v-5h1.6v5c0 1.6.9 2.4 2.2 2.4s2.1-.9 2.1-2.4v-5h1.8z" fill="url(#H)"/><linearGradient id="I" gradientUnits="userSpaceOnUse" x1="72.538" y1="52.485" x2="8.463" y2="53.762"><stop offset="0" stop-color="#565656"/><stop offset=".206" stop-color="#404040"/><stop offset=".559" stop-color="#414141"/><stop offset=".988" stop-color="#333" stop-opacity=".8"/></linearGradient><path d="M73.8 54.3h-2.4v2.6h-1.6v-8.7h4.1c4.2 0 4.2 6.1-.1 6.1zm-2.4-1.5h2.4c2.1 0 2.1-3.1 0-3.1h-2.4v3.1z" fill="url(#I)"/><path d="M66.2 7H50.4h0L40.3 17.1l7.9 7.9 10.1-10.1 8.9 8.9-16.8 16.8h15.8l8.8-8.9 7.9-7.9L66.2 7zM16.8 40.6h0 15.8 0l7.7-7.7-7.9-7.9-7.7 7.7-8.9-9L32.6 6.9H16.8l-8.9 8.9h0l-7.9 8 16.8 16.8z" fill="#474748"/></svg>