<svg xmlns="http://www.w3.org/2000/svg" width="205.4" height="64" xmlns:v="https://vecta.io/nano"><path d="M107.4 26.3L103.2 39 99 26.3c-.2-.5-.6-.8-1.1-.8h-3.4l6.3 19.1h.6 3.7.6l6.3-19.1h-3.4c-.6 0-1.1.4-1.2.8zm27.1 4c-2.5 0-2.8.6-2.8.6 0-.6-.5-1-1-1H128c-.2 0-.3.2-.3.3v14.1c0 .5.4.8.8.8h2.7c.3 0 .5-.2.5-.4v-.1-9.3s.6-1.9 2.6-1.9c.7 0 1.3.3 1.7.6.6.5.9 1.3.9 2v8.2c0 .5.4.8.8.8h2.7c.3 0 .5-.2.5-.4v-.1-9.2c-.6-4.1-3.9-5-6.4-5zm16-.4H147v-3.2c0-.6-.5-1.1-1.2-1.1h-2.3c-.4 0-.7.3-.7.6v14.9c0 2.2 1.8 4 4.1 4h4.5a.65.65 0 0 0 .6-.6v-1.3c0-.9-.7-1.6-1.7-1.6h-1.7c-.9 0-1.7-.8-1.7-1.7v-6h4.6c.3 0 .5-.2.5-.4v-.1-2c.2-.8-.6-1.5-1.5-1.5h0zm16.1 0h-2.4c-.6 0-1 .5-1 1v8.5c0 1.2-1 2.3-2.2 2.3h-.1-.1-.1c-1.3 0-2.3-1.1-2.3-2.3V31c0-.6-.5-1-1-1h-2.6c-.3 0-.5.2-.5.4v.1 8.4c0 1.8.8 3.4 2.1 4.6 1 .8 2.4 1.5 4.4 1.5 1.4 0 2.6-.4 3.4-.9a6 6 0 0 0 3-5.2v-8.3c0-.4-.3-.7-.6-.7h0zm8 .1c-5.3 0-5.4 4.6-5.4 4.6v9.1c0 .8.6 1.4 1.4 1.4h2.2c.2 0 .4-.2.4-.4v-9.2c0-1.1.8-2.1 2-2.2h.2c.8 0 1.3.2 1.7.3.3.1.6-.1.6-.4v-1.5c0-.3-.1-.6-.4-.9-.6-.4-1.4-.8-2.7-.8zM119 30c-6.3 0-6.6 6.5-6.6 7.5s.5 7.3 6.5 7.3c6.1 0 6.5-4.6 6.5-4.6h-3.3s-.4 1.7-3.3 1.7-2.8-3.2-2.8-3.2h9.4c.1.1 1.2-8.7-6.4-8.7h0zm-2.9 5.8c.1-.8.6-2.8 2.9-2.8 2.9 0 3 2.8 3 2.8h-5.9zm70.2-5.8c-6.3 0-6.6 6.5-6.6 7.5s.5 7.3 6.5 7.3c6.1 0 6.5-4.6 6.5-4.6h-3.3s-.4 1.7-3.3 1.7-2.8-3.2-2.8-3.2h9.5c.1.1 1-8.7-6.5-8.7h0zm-2.9 5.8c.1-.8.6-2.8 2.9-2.8 2.9 0 3 2.8 3 2.8h-5.9zm18.6.7c-3.7-1.1-4.1-3.5-1.1-3.5 1.4 0 2.5.6 3.2 1.1.3.2.8 0 .8-.4V31s-.8-1.1-3.7-1.1-6 1.3-6 4.5 3.2 4 3.2 4c3.8 1.4 3.6 2 3.6 2s.7 1.6-1.8 1.6c-1.5 0-3-.4-4.3-1.2-.2-.1-.5 0-.5.3V44c.8.5 2.1.8 4.1.8 5.8 0 5.9-3.6 5.9-4.5 0-.5.3-2.7-3.4-3.8zM32.9 25.6V33h-7.4v-6.4c0-.5-.4-1-1-1h0H22v17.6c0 .5.4 1 1 1h0 2.5V36h7.4v7.3c0 .5.4 1 1 1h0 0 2.5V26.5c0-.5-.4-1-1-1h0l-2.5.1h0zm14.7 4.6V39c0 .8-.4 1.6-1.1 2-2 1.1-4-.3-4-2.1h0v-7.7c0-.5-.4-1-1-1h0H39v9c0 2.9 2.4 5.2 5.3 5.3h0 1.4a5.34 5.34 0 0 0 5.3-5.3h0v-8c0-.5-.4-1-1-1h0c0 0-2.4 0-2.4 0z" fill="#222"/><path d="M85.6 44.2h2.5V31.6c0-.5-.4-1-1-1h0-2.5v12.5c0 .6.4 1.1 1 1.1h0zm2.5-16a1.96 1.96 0 0 0-1-2.5 1.96 1.96 0 0 0-2.5 1 1.96 1.96 0 0 0 1 2.5c.9.4 2-.1 2.5-1z" fill="#797979"/><path d="M60 30.2c-3.6 0-6.6 2.6-6.6 6.2h0v1.9c0 3.6 3 6.2 6.6 6.2s6.6-2.6 6.6-6.2h0v-1.9c0-3.7-2.9-6.2-6.6-6.2zm3.2 8.3c0 1.7-1.4 2.8-3.1 2.8S57 40.2 57 38.5h0v-2.4c0-1.7 1.4-2.8 3.1-2.8s3.1 1.1 3.1 2.8h0v2.4z" fill="#222"/><path d="M75.6 30.2c-1.1 0-2.2.2-3.1.7h0v-4.3c0-.5-.4-1-1-1h0H69v12.7c0 3.6 3 6.2 6.6 6.2s6.6-2.6 6.6-6.2h0v-1.9c0-3.7-2.9-6.2-6.6-6.2zm3.2 8.3c0 1.7-1.4 2.8-3.1 2.8s-3.1-1.1-3.1-2.8h0v-2.4c0-1.7 1.4-2.8 3.1-2.8s3.1 1.1 3.1 2.8h0v2.4z" fill="#797979"/><path d="M11.4 27.1c0-3.7-1.8-7-3.3-8 0 0-.1-.1-.1.1-.1 7.2-3.9 9.2-5.9 11.8-4.8 6.1-.3 12.8 4.2 14 2.5.7-.6-1.2-1-5.3-.4-4.8 6.1-8.6 6.1-12.6z" fill="#222"/><path d="M13.6 29.5s-.1 0 0 0c-.2.9-1.1 2.9-2.3 4.7-4.1 6.1-1.7 9-.4 10.6.8.9 0 0 1.9-.9 2.3-1.4 3.8-3.8 4.1-6.5.3-4.3-2.4-7.1-3.3-7.9z" fill="#797979"/></svg>