<svg xmlns="http://www.w3.org/2000/svg" width="93.1" height="64" fill="#171717" xmlns:v="https://vecta.io/nano"><path d="M.7 31.6l5.5-13.4h14.1l-5.6 13.4H.7zm19.9 0l10.8-26h19.3c10.3 0 19.4 8.7 19.1 18.9-.3 11.2-9.5 20.1-19.8 20.1h-6.7 0l-5.5 13.2H24l11-26.1h13.9c4.7 0 7.9-4.2 7.9-7.3s-2.9-6.3-5.8-6.3H40.1h0l-5.6 13.4-13.9.1zM1.9 47.7h2.8L3 57.2H.3l1.6-9.5zm6.9 9.6c-1.1 0-4.3-.4-4.3-3.8s2.8-6.1 6-6.1c.8 0 1.5.2 2.2.6h0l-.5 3s-.3.1-.5-.2a2.04 2.04 0 0 0-1.6-.8c-.8 0-2.8.8-2.8 3 0 1.1.8 1.5 1.8 1.5s1.7-.5 1.9-.7.5 0 .5 0h0l-.4 2.9c-.7.4-1.5.6-2.3.6h0zm9.8-9.9c-4.6 0-6.2 3.9-6.2 5.8 0 2.8 2 4.2 4.5 4.2 4.5 0 6.1-3.8 6.1-5.9s-1.6-4.1-4.4-4.1zm-1.2 7.3c-1.1 0-2.1-.6-2.1-1.9 0-.9.7-2.7 2.9-2.7 1.3 0 2.1.9 2.1 1.9a2.78 2.78 0 0 1-2.9 2.7h0zM49 48h-4.2 0l-1.4 9.5H46l.5-3.1h1.8c.9 0 3.4-.7 3.4-3.8 0-1.7-1.5-2.6-2.7-2.6zm-1.2 4.1h-.9 0l.3-1.9h.7c.6 0 .9.4.9.8s-.6 1.1-1 1.1h0zm9.1-1.2s-.1.6-.3.3-.8-.5-1.4-.5c-2.4 0-3.9 2.3-3.9 4.2 0 2.2 1.8 2.8 2.7 2.8s1.4-.3 1.7-.6.4.4.4.4h0 2.3l.9-6.6h-2.4 0 0zm-2 4.4c-.8 0-1-.7-1-.8 0-.6.6-1.5 1.5-1.5.6 0 1 .6 1 1 0 .7-.7 1.3-1.5 1.3zm35.6-4.4s-.1.6-.3.3-.8-.5-1.4-.5c-2.4 0-3.9 2.3-3.9 4.2 0 2.2 1.8 2.8 2.7 2.8s1.4-.3 1.7-.6.4.4.4.4h0H92l.9-6.6h-2.4 0 0zm-2 4.4c-.8 0-1-.7-1-.8 0-.6.6-1.5 1.5-1.5.6 0 1 .6 1 1 0 .7-.7 1.3-1.5 1.3h0zm-29.1 2.2l1.2-6.8h2.3s-.2.6.1.6.6-.6 1.9-.6c1.4 0 2.1.6 2.1 2.1s-.8 4.7-.8 4.7h0-2.5l.7-4c0-.7-.3-.7-.6-.7s-.9.2-1.1 1l-.7 3.7h0-2.6 0 0zm8.2 0l.8-4.4h-.8l.4-2.3h.8l.3-1.7h2.4l-.2 1.7h1.2l-.3 2.2h-1.3l-.7 4.4c.1.1-2.6.1-2.6.1z"/><path d="M79 54.7s.1-.7.1-1.1c0-1.8-1.1-2.9-3-2.9-3.2 0-4.3 2.6-4.3 4.2 0 .5.1 2.8 3.2 2.8s3.7-2.5 3.7-2.5h0-2.3c0 .3-.6.7-1.1.7-1.2 0-1.1-1.1-1.1-1.1h0l4.8-.1h0zm-3.1-2.3c.9 0 .9.7.9.7h0-2.1c0 0 .2-.7 1.2-.7zm4.5-1.6l-1.1 6.8h2.6l.5-3.2a1.6 1.6 0 0 1 1.5-1.3c.4 0 .8.5 1 0s.5-2.1.4-2.1-.5-.1-.9-.1a2.2 2.2 0 0 0-1.2.5c-.2.2-.5 0-.5-.1l.1-.4h0l-2.4-.1h0z"/></svg>