<svg xmlns="http://www.w3.org/2000/svg" width="172.6" height="64" xmlns:v="https://vecta.io/nano"><path d="M20.7 36.2c-.1 0-.2.1-.2.1-.1.1-.1.2-.1.3-.2.9-.5 1.7-1 2.5-.4.7-.8 1.4-1.4 2-.7.7-1.5 1.3-2.5 1.5-.4.3-1 .4-1.5.4H7.5h-.3v-.4-9.1-12.9-.3c0-.1.1-.2.2-.2h.2H11h0v-.5H0h0v.5h3.8v11.4 11.4H0v.4h.3 20.6 0v-7.1c0 .1 0 .1-.2 0zm5.2-22.6h-.8v36.1h.8V13.6zm18.9 15.3c-.1-.3-.1-.6-.2-.8-.4-1.3-1-2.5-1.7-3.6-.5-.6-1-1.2-1.6-1.7s-1.2-.9-1.8-1.2c-.7-.4-1.4-.7-2.2-1-.7-.2-1.3-.4-2-.5l-1.6-.2-1.1-.1-1.8-.1c-.4 0-.8 0-1.1.1l-1 .1c.1.4.1.4.4.4l1.3-.1c1 0 2.1 0 3.1.2l1.4.3c.6.2 1.2.4 1.7.7.6.4 1.2.8 1.7 1.3.8.8 1.3 1.7 1.7 2.7.4 1.1.7 2.2.8 3.4v.4c.2 2.6.1 4.7.1 4.7v.2l-.3 1.8c-.2.8-.4 1.5-.7 2.2l-.7 1.4c-.3.6-.7 1.1-1.2 1.6-.9.8-2 1.4-3.1 1.7-.8.2-1.6.3-2.4.3-.8.1-1.6 0-2.4 0h-1.3c-.1.3-.1.4.2.4l.7.1 4.4-.1 2-.3c.9-.2 1.7-.5 2.5-1 .6-.3 1.3-.7 1.9-1.2.9-.6 1.7-1.4 2.3-2.2.5-.8 1-1.5 1.4-2.4.3-.8.6-1.7.7-2.5v-.3c.3-2.4-.1-4.7-.1-4.7 0 .2 0 0 0 0h0zM66.9 41c-4.3 0-7.7-3.5-7.7-7.7s3.5-7.7 7.7-7.7c2 0 4 .8 5.4 2.2h0l1.2-1.2c-1.8-1.7-4.1-2.7-6.6-2.7a9.39 9.39 0 1 0 0 18.8c2.5 0 4.9-1 6.6-2.7h0l-1.2-1.2c-1.4 1.4-3.4 2.2-5.4 2.2zm51.9-16.9h-1.7v18.1h1.7V24.1zm4.3 1.5h6.5v16.6h1.7V25.6h6.5v-1.7h-14.7v1.7h0zm39.2 15V24h-1.7v18.2h12v-1.7h-10.3zm-56.9-16.7h-7.7v.8 11.7 5.7h1.7v-5.7h6c3.5 0 6.3-2.8 6.3-6.3 0-3.4-2.8-6.2-6.3-6.2h0zm0 10.9h-6v-9.2h6c2.5 0 4.6 2.1 4.6 4.6s-2.1 4.6-4.6 4.6zM83.7 24.1l-8.1 18.2h1.9l2.2-4.9h10.1l2.2 4.9h1.9l-8.3-18.2h-1.9zm-3.3 11.6l4.2-9.6 4.4 9.6h-8.6zM146.2 24L138 42.2h1.9l2.2-4.9h10.1l2.2 4.9h1.9L148 24h-1.8zm-3.4 11.7l4.3-9.6 4.4 9.6h-8.7 0z" fill="#171717"/></svg>