<svg xmlns="http://www.w3.org/2000/svg" width="192.1" height="64" xmlns:v="https://vecta.io/nano"><path d="M67 47.7H55.8V32.3H59V45h5.5v-2.1h2.6c-.1 0-.1 4.8-.1 4.8zm.8-15.3H71v8.9.1c0 1.3.2 2.2.5 2.7s.9.7 1.9.7c.4 0 .8-.1 1.3-.2.4-.1.7-.3.8-.6.3-.6.5-1.5.5-2.9h0v-8.9h3v9.7c0 1.1-.1 1.9-.2 2.5-.1.5-.3 1-.6 1.4-.5.7-1.1 1.2-1.8 1.6-.3.2-.8.3-1.4.4s-1.1.2-1.7.2c-1.4 0-2.4-.1-2.9-.4-.7-.4-1.3-.9-1.8-1.6-.3-.5-.5-.9-.6-1.3s-.2-1.2-.2-2.3h0v-.2-9.8h0 0zm19.6 9.8l-3.2 5.4h-3.5l5.1-7.8-5-7.6h3.5l3.1 5.3 3.1-5.3H94l-5 7.6 5.1 7.8h-3.5l-3.2-5.4h0z"/><path d="M116.6 36.9h-3.8c-.5-.6-1-1-1.7-1.3s-1.3-.4-2.1-.4c-1.4 0-2.5.5-3.5 1.4s-1.4 2.1-1.4 3.5.5 2.5 1.4 3.5c1 .9 2.2 1.4 3.5 1.4.8 0 1.5-.1 2-.4.6-.3 1.1-.7 1.6-1.2h0 3.8c-.3.7-.8 1.4-1.3 2.1-.5.6-1.1 1.1-1.7 1.5-1.2.8-2.7 1.2-4.5 1.2-2.3 0-4.2-.8-5.8-2.3-.5-.5-1-1.1-1.3-1.7-.4-.6-.6-1.3-.8-2s-.3-1.4-.3-2.1c0-1.1.2-2.1.6-3 .4-1 1.1-1.8 1.9-2.6a7.82 7.82 0 0 1 2.6-1.7 8.15 8.15 0 0 1 3.1-.6c.9 0 1.7.1 2.4.3s1.4.5 2 .9 1.2.9 1.7 1.5 1.2 1.2 1.6 2zm6.8 7.6l-1.2 3.2H119l5.5-12.9h-4.1v-2.5h6.8l6.9 15.4h-3.4l-1.3-3.2c0 0-6 0-6 0zm4.9-2.9l-1.9-4.9-1.9 4.9h3.8zm12 6.1h-3.1v-5.8H135v-2.7h2.2v-6.9h4l2 .1 1.7.2c.6.1 1.1.3 1.4.5.7.4 1.2 1 1.6 1.7.4.8.6 1.5.6 2.2 0 1.5-.5 2.6-1.5 3.5-.5.4-1.2.7-2.3.9a16.28 16.28 0 0 1-3.1.3h0-1.2l-.1 6h0 0zm0-8.5h.8l2-.1c.7-.1 1.2-.2 1.4-.3.5-.4.7-.9.7-1.6s-.2-1.2-.7-1.6c-.2-.1-.7-.3-1.4-.4l-1.9-.2h0-.8l-.1 4.2h0 0zm9.2 8.5V32.3h3.1v15.4c0 0-3.1 0-3.1 0zM163 32.3V35h-3v12.7h-3.1V35h-3v-2.7c-.1 0 9.1 0 9.1 0zm6.1 12.2l-1.2 3.2h-3.2l5.5-12.9h-4.1v-2.5h6.8l6.9 15.4h-3.4l-1.3-3.2h-6 0zm4.9-2.9l-1.9-4.9-1.9 4.9h3.8zm18.1 6.1h-11.2V32.3h3.1V45h5.5v-2.1h2.6v4.8z" fill="#232323"/><path d="M13.2 40.4l5.1-10.3-4.8-9.8L.4 47.5h26.3l-.1-.1-3.4-7h-10 0z"/><path d="M51.1 47.5l-3.2-6.9H34.7l-8-16.4h15.4L39 17.3H15.4l14.3 30.2h21.4 0z" fill="#232323"/></svg>