<svg xmlns="http://www.w3.org/2000/svg" width="186" height="64" xmlns:v="https://vecta.io/nano"><path d="M105.9 29.2h2V40h11v1.6h-13V29.2zm46 3c0-8.9-7.4-16.1-16.6-16.1s-16.6 7.2-16.6 16.1c0 7.6 5.5 14 12.8 15.7 0-.1-.1-.1-.1-.2-6.1-2-10.5-7.6-10.5-14.2 0-8.3 6.9-15 15.5-15 8.5 0 15.5 6.7 15.5 15v1c-.1-.8 0-1.6 0-2.3h0z" fill="#464646"/><g fill="#606060"><path d="M145 37.8c0-.8-2.2-1.3-1.5-1.8 2.1-.2-.9-1-1.7-.7h.1c.7-.8 2.9-2.1 3.2-3.7-2.6 1.2-1.7-2.4-.7-3.6-1.3-.1-3.5 3.3-3.6.8-3.6 5.8-1.7 1.6-3.2-2-1 2.7-3.4-1.7-4.2-2-.4 8.2-4.5-.2-.2 8.8-1.2-.2-2.6-2-3.7-1.7 1.2 2.1-2.5.3-3.6 1 1.4.4 4.3 2.9 1.4 3.4 1.4 1.1 3.2 1.2 4.9 1.4-.8.3-1.9 1.1-2 1.9 2.2-1.1.2.9.6 2 .8 0 3-2 2.5.3 2.6-3 5.7-5.6 3.9.9.4-.3.9 0 .9.4.4-5.9-1-5.8 5.3-3.9-2.2-1.7 1-1 1.6-1.5z"/><path d="M141.6 35.2h0zm-8.5 6.8s0 .1 0 0v.2c0-.1-.1-.2 0-.2z"/></g><path d="M.1 29.2h2.4l6 9.7 6.2-9.7h2.4v12.5h-2v-9.6l-5.6 8.7h-2l-5.3-8.6v9.5h-2V29.2H.1zm26.3 0h2.8l6.5 12.5h-2.2L32 38.8h-8.4l-1.5 2.8H20c0 0 6.4-12.4 6.4-12.4zm-2 8h6.7l-3.4-6.4-3.3 6.4zm14-8h8.9c1.7 0 3 .3 3.9 1s1.3 1.6 1.3 2.9c0 1.2-.4 2.2-1.3 2.9s-2.2 1-3.9 1h0-6.9v4.6h-2V29.2h0zm2 6.2h6.9c2.1 0 3.2-.8 3.2-2.3 0-.8-.3-1.3-.8-1.7s-1.3-.6-2.4-.6h0-6.9v4.6zm15.1-6.2h2V40h11v1.6h-13V29.2h0zm15.6 12.4V29.2h14.1v1.6H73.1v3.8H84v1.6H73.1V40h12.1v1.6H71.1h0zm27.1-12.4c.8 0 1.6.1 2.2.4s1.1.7 1.5 1.2c.3.5.5 1.1.5 1.8 0 .5-.1 1.1-.4 1.5-.3.5-.6.9-1.1 1.2.5.3.8.7 1.1 1.2s.4 1 .4 1.5c0 .7-.2 1.3-.5 1.9-.3.5-.8.9-1.5 1.2-.6.3-1.4.4-2.2.4h0-10.1V29.2h10.1zm-8.1 1.6v3.8h8.1c.7 0 1.3-.2 1.6-.5.4-.4.5-.8.5-1.4s-.2-1-.5-1.4c-.4-.4-.9-.5-1.6-.5h0-8.1zm8.1 9.2c.7 0 1.3-.2 1.6-.5.4-.4.5-.8.5-1.4s-.2-1-.5-1.4c-.4-.4-.9-.5-1.6-.5h0-8.1V40h8.1 0zm55.9-4.6c0-1.2.3-2.3 1-3.3s1.7-1.8 2.9-2.4 2.6-.9 4.2-.9c2.9 0 5.1.9 6.6 2.6h0l-1.4 1.1c-.5-.6-1.2-1.1-2.1-1.5s-1.9-.5-3.1-.5-2.3.2-3.3.7c-1 .4-1.7 1-2.2 1.8-.5.7-.8 1.5-.8 2.4 0 .8.3 1.6.8 2.4.5.7 1.3 1.3 2.2 1.8 1 .4 2 .7 3.3.7 1.2 0 2.3-.2 3.1-.5.9-.4 1.6-.9 2.1-1.5h0l1.4 1.1c-1.5 1.7-3.7 2.6-6.6 2.6-1.4 0-2.9-.3-4.2-.9-1.2-.6-2.2-1.4-2.9-2.4s-1-2.1-1-3.3zm17.3-6.2h2V35l8.9-5.8h3.2l-8.7 5.8 9.2 6.7h-3.3l-7.6-5.5-1.7 1.1v4.4h-2V29.2h0z" fill="#464646"/></svg>