<svg xmlns="http://www.w3.org/2000/svg" width="155.3" height="64" xmlns:v="https://vecta.io/nano"><path d="M68.4 35.7H67l-4-7.4h1.7l3 5.6 3-5.6h1.7l-4 7.4zm15.2-7.4v1.5h-7.5v-1.5h7.5zm-7.5 4.4v-1.5h7.5v1.5h-7.5zm7.5 1.5v1.5h-7.5v-1.5h7.5zm5.1-4.1v5.6h-1.5v-7.4H89l5.7 5.6v-5.6h1.5v7.4h-1.8l-5.7-5.6zm19.4-1.8v1.5h-3.4v5.9h-1.5v-5.9h-3.3v-1.5c0 0 8.2 0 8.2 0zm6.7 7.4c-.8 0-1.5-.3-2.1-.9s-.9-1.3-.9-2.1h0v-4.4h1.5v4.4a1.53 1.53 0 0 0 .4 1c.3.3.7.4 1 .4h0 2.7a1.54 1.54 0 0 0 1.5-1.5h0v-4.4h1.5v4.4c0 .8-.3 1.5-.9 2.1s-1.3.9-2.1.9h0l-2.6.1h0zm10.8-2.5v2.5h-1.5v-7.4h5.2c.4 0 .9.1 1.2.3a1.96 1.96 0 0 1 .9.9c.2.4.3.8.3 1.3 0 .4-.1.9-.4 1.3-.2.4-.6.7-1 .9h0l1.4 2.7H130l-1.3-2.4-3.1-.1h0zm0-3.4v2h3.7c.3 0 .5-.1.7-.3.4-.4.4-1 0-1.4-.2-.2-.4-.3-.7-.3h0-3.7 0zm17.4-1.5v1.5h-7.5v-1.5h7.5zm-7.5 4.4v-1.5h7.5v1.5h-7.5zm7.5 1.5v1.5h-7.5v-1.5h7.5zm4.4-2a2.3 2.3 0 0 1-.5-2.8c.2-.3.5-.6.8-.8s.7-.3 1.1-.3h0 6.1v1.5h-6.1c-.1 0-.3 0-.4.1l-.3.3c-.1.1-.1.3 0 .4a.76.76 0 0 0 .2.4c.1.1.3.2.5.2h.6 0 .1 1.7 0 .2.8.3.7c.3 0 .5.1.8.2.6.3 1 .8 1.2 1.6.1.3.1.7 0 1s-.3.7-.5.9a3.04 3.04 0 0 1-.7.5c-.3.1-.6.2-.9.2h0-6.3v-1.5h6.3c.3 0 .6-.2.7-.5v-.3c0-.1-.1-.2-.1-.3l-.2-.2c-.2-.1-.5-.1-.8-.1h-.3-.9 0-.2-1.8 0-.1c-.3 0-.7 0-1-.1-.3 0-.6-.2-1-.4h0zM30.9 40.9l-3-6.5-3 6.5h-5.3l-3-6.5-3 6.5H8.5l8.3-18.3L22.4 35 28 22.6l8.3 18.3h-5.4 0zm15.6 0h-4.7v-6.5h-6l-2-4.7h8v-6.5h4.7v17.7h0zM55 56.2H0V7.8h55v48.4h0zM3.5 52.7h48V11.3h-48v41.4z" fill="#303030"/></svg>