<svg xmlns="http://www.w3.org/2000/svg" xmlns:xlink="http://www.w3.org/1999/xlink" width="115.1" height="64" xmlns:v="https://vecta.io/nano"><path d="M64.7 32.5c0 1.4-.2 2.6-.7 3.8-.4 1.2-1.1 2.2-1.9 3.1s-1.8 1.6-3 2.1a10.7 10.7 0 0 1-4.1.8 10.7 10.7 0 0 1-4.1-.8c-1.2-.5-2.2-1.2-3-2.1s-1.5-2-1.9-3.1c-.4-1.2-.6-2.5-.6-3.8s.2-2.6.6-3.8 1.1-2.3 1.9-3.2 1.8-1.6 3-2.1a10.7 10.7 0 0 1 4.1-.8 10.7 10.7 0 0 1 4.1.8c1.2.5 2.2 1.2 3 2.1s1.4 2 1.9 3.2c.4 1.1.7 2.4.7 3.8zM55 39.2c.9 0 1.8-.2 2.5-.5s1.3-.8 1.8-1.4.8-1.3 1.1-2.1.3-1.7.3-2.7-.1-1.9-.3-2.7-.6-1.5-1.1-2.1-1.1-1.1-1.8-1.4-1.5-.6-2.5-.6-1.8.2-2.5.5-1.3.8-1.8 1.4-.8 1.3-1.1 2.1-.3 1.7-.3 2.7.1 1.9.3 2.7.6 1.5 1.1 2.1 1.1 1.1 1.8 1.4c.8.5 1.6.6 2.5.6zM67.2 42V22.9h4v9.2l6.6-9.2h4.7l-7.1 9.5L83 42h-5l-6.8-9.4V42h-4 0zm17.4-19.1h11.5v3.2h-7.5v4.6h7.1v3.2h-7.1v4.9h7.6V42H84.6V22.9zm25.9 0h4.4l-6.3 9.5L115 42h-4.4l-4.1-6.5-4.1 6.5H98l6.4-9.6-6.4-9.5h4.4l4.1 6.5 4-6.5h0z"/><use xlink:href="#B" fill="#999"/><use xlink:href="#B" y="22.2" fill="#6b6b6b"/><use xlink:href="#B" x="11.1" y="11.1" fill="gray"/><path d="M9.3 41.7c5.1 0 9.2-4.1 9.2-9.2s-4.1-9.2-9.2-9.2S.1 27.4.1 32.5c.1 5.1 4.2 9.2 9.2 9.2z" fill="#626262"/><path d="M18.3 30.3c-3.3-.8-5.9-3.4-6.8-6.8 3.4.9 6 3.5 6.8 6.8z" fill="#5d5d5d"/><path d="M11.5 41.4c.8-3.3 3.4-5.9 6.8-6.8a9.07 9.07 0 0 1-6.8 6.8z" fill="#545454"/><path d="M22.6 34.7c3.3.8 5.9 3.4 6.8 6.8a9.72 9.72 0 0 1-6.8-6.8z" fill="#5c5c5c"/><path d="M29.4 23.6c-.8 3.3-3.4 5.9-6.8 6.8.9-3.4 3.5-6 6.8-6.8z" fill="#6d6d6d"/><defs ><path id="B" d="M20.5 30.6c5.1 0 9.2-4.1 9.2-9.2s-4.1-9.2-9.2-9.2-9.2 4.1-9.2 9.2 4.1 9.2 9.2 9.2z"/></defs></svg>