<svg xmlns="http://www.w3.org/2000/svg" width="93.7" height="64" xmlns:v="https://vecta.io/nano"><path d="M65.7 26.7v-8c0-.2.2-.4.4-.4h0 8.6c.2 0 .4.2.4.4h0v8c0 .2-.2.4-.4.4h0-8.6c-.2 0-.4-.1-.4-.4zm27.6-8.4h-8.6c-.2 0-.4.2-.4.4h0v8c0 .2.2.4.4.4h0 8.6c.2 0 .4-.2.4-.4h0v-8c0-.2-.2-.4-.4-.4zM74.7 35.7h-8.6c-.2 0-.4.2-.4.4h0v8c0 .2.2.4.4.4h0 8.6c.3 0 .5-.2.4-.4h0v-8c.1-.2-.1-.4-.4-.4zm18.6 0h-8.6c-.2 0-.4.2-.4.4h0v8c0 .2.2.4.4.4h0 8.6c.2 0 .4-.2.4-.4h0v-8c0-.2-.2-.4-.4-.4zm-8.8-.2v-8c0-.2-.2-.4-.4-.4h0-8.6c-.2 0-.4.2-.4.4h0v8c0 .2.2.4.4.4h0H84c.3 0 .5-.2.5-.4zM60.4 18.3h-8.6c-.2 0-.4.2-.4.4h0v8c0 .2.2.4.4.4h0 8.6c.2 0 .4-.2.4-.4h0v-8c.1-.2-.2-.4-.4-.4zm0 17.4h-8.6c-.2 0-.4.2-.4.4h0v8c0 .2.2.4.4.4h0 8.6c.2 0 .4-.2.4-.4h0v-8c.1-.2-.2-.4-.4-.4zm-8.8-.2v-8c0-.2-.2-.4-.4-.4h0-8.6c-.1 0-.2 0-.3.1h0v-8.4c0-.2-.2-.4-.4-.4h0-8.6c-.2 0-.4.2-.4.4h0v25.4c0 .2.2.4.4.4h0 8.6c.3 0 .5-.2.4-.4h0v-8.3c.1.1.2.1.3.1h0 8.6c.2-.1.4-.3.4-.5h0zM27.9 18.4c.1.1.2.2.2.3h0v8 .1h0V36v.1h0v8 .2c-.1.2-.2.3-.4.3h0H19h-.1 0-9.8H9h0H.4.2c-.1-.1-.2-.3-.2-.5h0v-8-.1h0v-9.1-.1h0v-8c0-.1 0-.2.1-.3s.2-.1.3-.1h0H9h.1 0 9.7.1 0 8.6c.2-.1.3-.1.4 0h0zm-9.4 8.8H9.4v8.5h9.1v-8.5z" fill="#171717"/></svg>