<svg xmlns="http://www.w3.org/2000/svg" width="86.2" height="64" xmlns:v="https://vecta.io/nano"><path d="M27.6 9.5l-.5.4c-.2-.2-.4-.4-.5-.7h0l.5-.3c.1.2.3.4.5.6zm-.3-.7c.2.2.3.4.5.6l.4-.3c-.2-.2-.4-.4-.5-.6l-.4.3zm5.5 2.3c.2.1.3.2.4.2l.2-.4c-.1-.1-.2-.1-.3-.2l-.3.4zm-.5.8l.4.2.2-.4c-.1-.1-.2-.2-.4-.2l-.2.4zm-.4.7l.4.2.2-.3c-.1-.1-.2-.2-.4-.2l-.2.3zm-.5.8c.1.1.2.2.4.2l.2-.5c-.1-.1-.2-.2-.4-.2l-.2.5zm-.8-.5c.1.1.3.2.4.3l.3-.5c-.1-.1-.3-.2-.4-.3l-.3.5zm1.1-.9c-.1-.1-.3-.2-.4-.3l-.2.4a1.38 1.38 0 0 1 .4.3l.2-.4zm-.2-.6c.1.1.3.2.4.3l.3-.4c-.1-.1-.3-.2-.4-.3l-.3.4zm.9-.5l.3-.4c-.2-.1-.3-.2-.5-.3h0l.1.1-.3.4c.2 0 .3.1.4.2zm-.7-.4l.3-.4c-.2-.1-.3-.2-.5-.3h0 0l-.3.4c.3.1.4.2.5.3zm-.2.3c-.1-.1-.3-.2-.4-.3l-.3.5c.2.1.3.2.5.3l.2-.5zm-.5.7c-.2-.1-.3-.2-.4-.3l-.3.4c.2.1.3.2.5.3l.2-.4zm-1.2.8c.2.1.3.2.5.3l.3-.5a1.38 1.38 0 0 1-.4-.3l-.4.5zm.8-2.6c.1.1.3.2.5.3l.3-.4a1.38 1.38 0 0 1-.4-.3l-.4.4zm.3.5c-.1-.1-.3-.2-.4-.4l-.4.5c.2.1.3.2.5.4l.3-.5zm-.6.8c-.2-.1-.3-.3-.5-.4l-.3.4c.2.1.3.3.5.4l.3-.4zm-1 .2l-.4.5c.2.1.4.3.5.4l.4-.5c-.2-.1-.3-.3-.5-.4zm.6-2.1c.2.1.3.3.5.4l.3-.4c-.2-.1-.3-.3-.5-.4l-.3.4zm.3.6c-.2-.2-.3-.3-.5-.4l-.5.5c.2.2.4.3.5.4l.5-.5zm-.6.7c-.2-.2-.4-.3-.5-.5l-.4.4c.2.2.4.3.5.5l.4-.4zm-1.1.1l-.5.5c.2.2.4.4.6.5l.4-.5c-.1-.2-.3-.4-.5-.5zm1.2-2.4l-.4.4.5.5.4-.4-.5-.5zm-1.2.9c.2.2.4.4.6.5l.5-.4c-.2-.2-.4-.3-.5-.5l-.6.4zm-.2.2l-.4.3.6.6.4-.4c-.2-.2-.4-.3-.6-.5zm-.6.5l-.5.4c.2.2.4.4.6.7l.5-.4c-.2-.3-.4-.5-.6-.7zm1-1.9l.5.5.5-.4c-.2-.2-.3-.3-.4-.5l-.6.4zm-.8.6c.2.2.3.4.5.6l.5-.4c-.2-.2-.3-.4-.5-.5l-.5.3zm27-7.3l-.1-.6c-.3 0-.5.1-.8.1h0l.1.6c.4 0 .7-.1.8-.1h0zm-.6.9c.3-.1.5-.1.7-.2v-.5c-.3 0-.5.1-.8.2h0l.1.5zm.4 15.2c-5.1 4.7-12.1 8-17.7 3.2.9 3.4 5.7 13.4 8.4 7.9h0c.9.4 1.9.9 2.8 1.3C38.2 44 25.4 7.5 39.9 4c-3.4-1.2-14.2-1.6-10.8 3.4-.8.6-1.7 1.2-2.6 1.8C19-7.1 57.2.8 52.7 14.8c2.7-2.3 8.5-11.5 2.5-11h0L54.9.7c9.4-.3 6.8 9.9-.2 16.5h0zM40 18.6c4.6 3 11-1.8 9.5-7.1-3.8-11.5-19.4.1-9.5 7.1zm-3.2 1.7l-.1-.1c.1 0 .1.1.1.1h0zM50.5 5.4l-.2-.4c-.2.1-.3.2-.3.2h0l.3.4c-.1-.1 0-.2.2-.2zm-.5-.8l-.2-.4-.4.2h0l.2.4c.2-.1.3-.1.4-.2zm-1-.9l.2.3c.4-.1.4-.3.2-.6-.3.2-.4.3-.4.3zm.2-.6l-.3-.5c-.1.1-.2.2-.4.2h0l.3.4c.1 0 .2 0 .4-.1zm.8-.4l-.2-.5c-.2.1-.3.2-.4.2h0l.2.5c.1-.1.3-.1.4-.2zm.4.7l-.2-.4c-.2.1-.3.2-.4.2h0l.2.4c.1-.1.2-.1.4-.2zm.2.3c-.2.1-.3.2-.4.2h0l.2.5c.2-.1.3-.1.5-.2 0 0-.3-.5-.3-.5zm.7 1.2h0l-.3-.4c-.2.1-.3.2-.4.2h0l.2.4c.1 0 .3-.1.5-.2zm.7-.3h0l-.3-.4c-.2.1-.3.2-.5.2h0l.2.4c.3-.1.4-.1.6-.2zm-.4-.7l-.2-.5c-.2.1-.3.2-.5.2h0l.2.5c.2-.1.4-.2.5-.2zm-1.1-1.1l.2.4c.2-.1.3-.2.5-.2l-.2-.4c-.1.1-.3.2-.5.2zm.4-.5l-.2-.5c-.2.1-.3.2-.5.2h0l.2.5c.2-.1.3-.1.5-.2zm1.8 2l-.2-.5c-.2.1-.4.1-.5.2h0l.2.5c.2-.1.3-.1.5-.2zM52.2 3c-.2.1-.4.2-.6.2h0l.2.5c.2-.1.4-.1.5-.2l-.1-.5zm-.6-.1c.2-.1.4-.2.6-.2l-.2-.5c-.2.1-.4.2-.6.2h0l.2.5zm.3-1l-.2-.6c-.2.1-.4.2-.6.2h0l.2.6c.2 0 .4-.1.6-.2zM53.5 4l-.1-.5c-.2.1-.4.1-.6.2h0l.2.5c.1-.1.3-.1.5-.2zm-.2-.8l-.2-.6c-.2.1-.4.2-.6.2h0l.2.6c.2 0 .4-.1.6-.2zm-.9-.6c.2-.1.5-.2.7-.2l-.1-.5c-.2.1-.5.2-.7.2h0l.1.5zm.5-1l-.2-.6c-.2.1-.5.2-.7.2h0l.2.6c.2-.1.5-.1.7-.2h0zm1 2.3c.2 0 .3-.1.5-.1l-.1-.6c-.2.1-.4.1-.7.2h0l.1.6c.1-.1.1-.1.2-.1zm.3-.9l-.1-.7c-.2.1-.5.1-.7.2h0l.2.6c.2 0 .4-.1.6-.1zm-.9-.7c.3-.1.5-.2.8-.2l-.1-.5c-.3.1-.5.1-.8.2h0l.1.5zm.7-1l-.1-.6c-.3.1-.6.1-.9.2h0l.2.6c.3-.1.5-.1.8-.2zm1.1 2.4V3c-.2.1-.4.1-.7.2h0l.1.6c.2-.1.4-.1.6-.1zm-.8-1.4l.1.7c.3-.1.5-.1.7-.2l-.1-.7c-.2.1-.5.1-.7.2zm-6.5 26.9l.5.2c.1-.2.2-.5.3-.8l-.6-.2c-.1.4-.2.7-.2.8zm0-.8l-.5-.2c-.1.3-.2.5-.2.7h0l.5.2c.1-.2.1-.5.2-.7zm-1.5-5.6v.4h0 .5v-.4h-.5zm1.4 0h-.5v.4h0 .5v-.4zm.8 0h-.4v.4h0 .4v-.4zm.4-.1v.5h0 .5v-.5h-.5zm0 1.5h.6v-.5H49c-.1.1-.1.3-.1.5zm-.8-.1h.4v-.5h-.4v.5zm-.9 0h.5v-.5h-.5v.5zm-.9 0h.5v-.5h-.5v.5h0 0zm-.1.9h0 .5v-.5h-.5c.1.1.1.3 0 .5zm.9 0h.6v-.5h-.5c-.1.1-.1.3-.1.5zm.9.1h.5v-.6H48v.6zm.8 0l.6.1v-.6h-.6v.5zm-2.7.6l.5.1c0-.2.1-.4.1-.6l-.5-.1c0 .2 0 .4-.1.6zm.8.1l.6.1c0-.2.1-.4.1-.6l-.6-.1c0 .3 0 .5-.1.6zm.9.2l.5.1c0-.2.1-.4.1-.6l-.5-.1c0 .2 0 .4-.1.6zm.8.2l.6.1c0-.2.1-.4.1-.7l-.6-.1c0 .2-.1.5-.1.7zm-2.6.4l.5.1c0-.2.1-.4.1-.6l-.5-.1c0 .2-.1.4-.1.6zm.8.2l.6.2c0-.2.1-.5.1-.7l-.6-.1c-.1.2-.1.4-.1.6zm.8.2l.5.1c.1-.2.1-.5.1-.7l-.5-.1c0 .3 0 .5-.1.7zm.8.2l.6.2c.1-.2.1-.5.2-.8l-.6-.1c-.1.2-.2.5-.2.7zm-2-.3l-.5-.2c0 .2-.1.4-.2.6h0l.5.2c.1-.1.2-.4.2-.6zm.9.3l-.6-.2c-.1.2-.1.5-.2.7h0l.6.2c.1-.2.2-.5.2-.7zm.1.8l.5.2c.1-.3.2-.5.2-.8l-.5-.2c-.1.3-.2.6-.2.8zm.7.3l.6.2.3-.9-.6-.2c-.2.4-.2.7-.3.9zm-2.6-.1l.6.3c.1-.2.1-.4.2-.7l-.5-.2c-.2.2-.2.4-.3.6zm1.6-.1l-.6-.2c-.1.3-.1.5-.2.7h0l.6.3c.1-.3.1-.6.2-.8zm-13.2 21h5.4v2.3h-5.4-2.2v-2.3-8.2h2.2v8.2zM9 44.3c0 .9-.4 1.8-1 2.4s-1.5 1-2.4 1h0-3.3v3.7H.1v-3.7-6.8h2.2 3.4c1.8 0 3.3 1.6 3.3 3.4h0zm-2.2 0c0-.7-.6-1.3-1.3-1.3h0-3.1v2.7h3.1c.7 0 1.3-.6 1.3-1.4zm15.6 3c0 1.2-.9 2.1-2.1 2.1h0-.8c-1.2 0-2.1-1-2.1-2.1h0v-6.4h-2.2v6.4c0 2.3 1.8 4.1 4.1 4.1h0 1.3c2.3 0 4.1-1.8 4.1-4.1h0v-6.4h-2.2l-.1 6.4zM69.7 49l1.1 2.4h-2.2L67.5 49h-5.2l-1.1 2.4h-2.3L60 49l1-2.1 2.7-6H66l2.7 6 1 2.1zm-3.2-2.1l-1.6-3.5-1.6 3.5h3.2 0zm19.6 4.5h-2.5l-1.3-2.7c-.5-1-1-1-1-1h0-2.8v3.7h-2.2v-3.7-6.8h2.2 3.1c1.9 0 3.4 1.5 3.4 3.3v.1c0 .9-.4 1.8-1 2.4-.1.1-.2.2-.3.2 1.1 1.3 2.4 4.5 2.4 4.5h0zm-7.6-5.7h2.9c.7 0 1.3-.6 1.3-1.3s-.6-1.3-1.3-1.3h0-2.9v2.6zm-28.4-.6s-3.3-.4-3-1.5c.3-1 3.3-1.4 5 .5h0l1.5-1.4s-1.3-1.9-4.6-1.9-4 2-4 2-1.3 3 3.2 3.9c0 0 3.7.6 3.4 1.7s-3.3 1.7-5.5-.5h0l-1.6 1.5s1.4 2 5 2 4.3-2.1 4.3-2.1 1.1-3.2-3.7-4.2zM21.3 59.3h3.4v.9h-1.2v3h-1.1v-3h-1.2l.1-.9zm9.4 2.6l.8 1.2h-1.1l-.7-1h-.6v1H28v-3.8c.9-.2 2-.1 2.5.2.7.4 1.1 1.3.2 2.4zm-.4-1.2c0-.4-.3-.6-.7-.6H29v1.1c.6.1 1.4.2 1.3-.5zm6.9-1.4l1.7 3.8h-1.2l-.3-.7h-1.6l-.3.7h-1.1l1.7-3.8c0 0 1.1 0 1.1 0zm-.1 2.3l-.5-1.2-.5 1.2h1zm8.5-1.4c.8 1.3-.3 3-1.9 2.9h-1.8v-3.8c1.2.1 3.1-.3 3.7.9zm-.8 1c0-.7-.4-1.1-1.1-1H43v2.1c.9 0 1.9-.1 1.8-1.1zm4.5 1.9h1.1v-3.8h-1.1v3.8zm7.3-1.8l-1.7-2H54v3.8h1.1v-2l1.7 2h.9v-3.8h-1.1v2h0zm6.5.5h.8v.4c-2.6.9-1.7-3.5.4-1.6h0l.7-.6c-4.5-3.3-5.1 5.5-.1 2.8h0v-1.7h-1.7l-.1.7h0 0z" fill="#2c2c2c"/></svg>