<svg xmlns="http://www.w3.org/2000/svg" width="116.4" height="64" xmlns:v="https://vecta.io/nano"><path d="M40.6 21.9c1.7-.2 3.2-1.1 4.9-2.1h0 .1c1.9-1.1 4-2.3 6.5-2.3s4.6 1.2 6.5 2.3h0 .1c2 1.2 3.7 2.2 5.8 2.2s3.8-1 5.8-2.2h0 .1c1-.6 2.1-1.3 3.3-1.7-.9-8.2-8-14.6-16.6-14.6-9.2 0-16.6 7.3-16.6 16.3-.1.7 0 1.4.1 2.1z" fill="#1a1a1a"/><path d="M41.3 24.8c1.4-.4 2.7-1.1 4.1-1.9h0 .1c1.9-1.1 4-2.3 6.5-2.3s4.6 1.2 6.5 2.3h0 .1c2 1.2 3.7 2.2 5.8 2.2s3.8-1 5.8-2.2h0 .1c1.1-.6 2.2-1.3 3.5-1.8 0 .6-.1 1.2-.2 1.7L71 24.2h0-.1c-1.9 1.1-4 2.3-6.5 2.3s-4.6-1.2-6.5-2.3h0-.1C55.8 23 54.1 22 52 22s-3.8 1-5.8 2.2h0-.1c-1.3.8-2.7 1.6-4.3 2 .1 0-.5-1.4-.5-1.4zm1.9 3.8l.9 1.2 2.1-1.2h0 .1c2-1.2 3.7-2.2 5.8-2.2s3.8 1 5.8 2.2h0 .1c1.9 1.1 4 2.3 6.5 2.3s4.6-1.2 6.5-2.3h0 .1l.2-.1c.5-.8 1-1.6 1.3-2.5l-2.3 1.2h0-.1c-2 1.2-3.7 2.2-5.8 2.2s-3.8-1-5.8-2.2h0-.1c-1.9-1.1-4-2.3-6.5-2.3s-4.6 1.2-6.5 2.3h0-.1c.1.2-2.2 1.4-2.2 1.4zM64.4 34c.3 0 .6 0 .9-.1h0 0c1.7-.2 3.2-1.1 4.8-2.1h0 .1c1.9-1.1 3.9-2.3 6.5-2.3h0V31c-2.1 0-3.8 1-5.8 2.1h0-.1c-1.9 1.1-3.9 2.3-6.5 2.3s-4.6-1.2-6.5-2.3h0-.1c-2-1.1-3.7-2.2-5.8-2.2h0c-1.8 0-3.3.7-5 1.7l-1.3-1c1.8-1.1 3.8-2.2 6.2-2.2 2.5 0 4.6 1.2 6.5 2.3h0 .1c2.2 1.3 4 2.3 6 2.3h0zM58 36c-1.7-1-3.7-2-6-2-.8 0-1.5.1-2.3.3 2.2 1.1 4.8 1.7 7.4 1.7.1.1.9 0 .9 0zM10.1 60.5h10v-1.4l-5.6.2h0 0c4.1-1 5.7-3.7 5.7-7.2 0-4.4-3.4-7.9-10.1-7.9C3.3 44.2 0 47.7 0 52.3c0 4.9 3.3 8.2 10.1 8.2h0zm0-1.4c-5.7 0-8.5-2.7-8.5-6.8 0-3.8 2.8-6.7 8.5-6.7s8.5 2.9 8.5 6.7-2.6 6.8-8.5 6.8zm24.8 1.4c5.7 0 9-2.4 9-7.4h0v-8.6h-1.5V53c0 4.2-2.7 6.1-7.5 6.1-4.7 0-7.4-2-7.4-6.1h0v-8.5h-1.6v8.6c-.1 5 3.3 7.4 9 7.4zm15.2-.3h8.2c6.5 0 9-2.9 9-7.9 0-4.2-2.3-7.9-9.7-7.9h0-7.5v15.8h0zm1.6-1.4V45.9h5.9c6.2 0 8.1 2.9 8.1 6.5 0 4.3-2.1 6.5-7.5 6.5h0c0-.1-6.5-.1-6.5-.1zm38.9 1.4h1.9l-10-15.7h-1.8l-10 15.7h1.8l2.5-3.9h13.2l2.4 3.9h0zM75.7 55l5.8-9.1h0l5.8 9.1H75.7zm20.8 5.2h2.2l7.7-7 7.8 7h2.3l-8.8-8 8.6-7.7h-2.2l-7.4 6.8-7.7-6.8h-2.3l8.6 7.7-8.8 8h0z"/></svg>