<svg xmlns="http://www.w3.org/2000/svg" width="173.2" height="64" xmlns:v="https://vecta.io/nano"><path d="M67.7 17.8H56.9l-2.2-3.1h12.9c3.6 0 5.4 1.4 5.4 4.1h0v1c0 2.2-1.2 3.5-3.5 4h0l3.5 5.3h-5.4l-5.4-8.3h5.4c.7 0 1.1-.3 1.1-1h0v-1c0-.7-.3-1-1-1zm-6.5 11.4h-4.3V18.8h4.3v10.4h0zm30-11.4H76.1l-2.2-3.1h17.2v3.1zm-15.1 1h4.3V26h10.8v3.1H76.1V18.8h0zM91.2 24h-6.5l-3.2-3.1h9.7V24zm13.8-6.2H94.2L92 14.7h13c3.6 0 5.4 1.4 5.4 4.1h0V25c0 2.8-1.8 4.1-5.4 4.1h0-5.4V26h5.4c.7 0 1.1-.3 1.1-1h0v-6.2c0-.7-.4-1-1.1-1h0zm-6.5 11.4h-4.3V18.8h4.3v10.4h0zm19.2-4.2h-4.3V14.7h4.3V25zm-4.3 1.1h15.1v3.1h-15.1v-3.1zm18.1-11.4h4.3v14.5h-4.3V14.7zm7.4-3.1L155 27.1v5.2l-16.2-15.5c.1-.1.1-5.2.1-5.2zm4.3 10.7v6.8h-4.3v-11l4.3 4.2h0zm7.5-.8v-6.8h4.3v11l-4.3-4.2h0zm22.5-3.7h-15.1l-2.2-3.1h17.2l.1 3.1h0zm-15.1 1h4.3V26h10.8v3.1h-15.1V18.8h0zm15.1 5.2h-6.5l-3.2-3.1h9.7V24h0zM68.5 39.7H57.7l-2.2-3.1h12.9c3.6 0 5.4 1.4 5.4 4.1h0v6.2c0 2.8-1.8 4.1-5.4 4.1h0H63v-3h5.4c.7 0 1.1-.3 1.1-1h0v-6.2c.1-.8-.3-1.1-1-1.1zM62 51.1h-4.3V40.7H62v10.4h0zm21.1-6.6L79.6 51H75l5.8-10.8 2.3 4.3h0zM81.5 39l2.2-4.1 8.7 16.2h-4.6L81.5 39h0zm16.3 7.9c0 .7.4 1 1.1 1h0V51c-3.6 0-5.4-1.4-5.4-4.1h0v-6.2c0-2.8 1.8-4.1 5.4-4.1h0 4.3v3.1h-4.3c-.7 0-1.1.3-1.1 1h0v6.2zm7.6-6.2c0-.7-.4-1-1.1-1h0v-3.1c3.6 0 5.4 1.4 5.4 4.1h0v6.2c0 2.8-1.8 4.1-5.4 4.1h0-4.3v-3h4.3c.7 0 1.1-.3 1.1-1h0v-6.3z" fill="#303030"/><g fill="#b8b8b8"><path d="M23.3 55.8C10.7 55.8.3 46.6.1 35.2h0l-.1-4 1.8 3.5c4.2 8 12.4 12.9 21.5 12.9s17.3-5 21.5-12.9h0l1.8-3.5-.1 4c-.2 11.4-10.6 20.6-23.2 20.6zm0-17.1l-2 1.8.8-29.4H19L23.3 7l4.3 4.2h-3.1l.8 29.4-2-1.9h0z"/><path d="M23.3 22.5c6.4 0 12.3 2 16.7 5.3-1.2-3.4-3.4-6.3-6.4-8.4s-6.6-3.2-10.3-3.2S16 17.4 13 19.5s-5.3 5-6.4 8.4c4.4-3.4 10.3-5.4 16.7-5.4h0z"/></g></svg>