<svg xmlns="http://www.w3.org/2000/svg" width="98.6" height="64" xmlns:v="https://vecta.io/nano"><path d="M10.1 11.4c1.4 0 2.7.3 3.9.8a9.45 9.45 0 0 1 3.1 2.1c1.6 1.7 2.5 3.7 2.6 5.9h0v.3 2.8H14V22v-.3c0-1.2-.4-2.2-.9-3.1-.6-1-1.7-1.4-3.1-1.4-.8 0-1.4.2-1.9.5s-.9.7-1.2 1.1c-.3.5-.5 1.1-.6 1.7-.2.6-.3 1.2-.3 1.9l.1 2c.1.5.2 1 .4 1.4s.6.8 1 1.1.9.5 1.5.8h0l.3.1 4.4 1.8.4.2c1.1.5 2 1 2.7 1.6.8.7 1.4 1.4 1.9 2.3.4.9.7 1.9.8 3.1l.2 3.9c0 1.7-.2 3.3-.5 4.7h0l2.4-.7c-.3 1.2-.8 2.3-1.5 3.2-.8 1.1-1.8 1.9-3.1 2.5s-2.8.6-4.6.6c-1.4 0-2.7-.2-3.9-.7-.6-.2-1.1-.5-1.6-.9h0l-3.1.9c-.3-.3-.6-.5-.9-.8-.9-.9-1.6-1.9-2-3-.5-1-.7-2.2-.8-3.4h0v-.4-2.1h5.7v1.8.3c0 .9.4 1.8.9 2.6.6.8 1.7 1.3 3.1 1.3 1 0 1.7-.1 2.3-.4.5-.3 1-.7 1.3-1.2s.5-1.2.5-1.9l.1-2.5-.2-2.6c-.1-.7-.2-1.2-.4-1.6-.3-.4-.6-.8-1-1-.5-.3-.9-.5-1.4-.7h0l-.3-.1-4.1-1.7-.4-.2c-2.3-1-3.8-2.3-4.6-3.9C.8 27.1.3 25 .3 22.5a15.4 15.4 0 0 1 .6-4.3c.4-1.4 1-2.5 1.9-3.5.8-1 1.8-1.8 3-2.3s2.7-1 4.3-1h0zm67 0c1.2 0 2.3.2 3.4.6s2.2 1 3.1 1.8 1.6 1.9 2.2 3.1c.5 1.1.8 2.4.8 3.9h0v.4 3.6l2.5-.8v17.2.4c0 1.5-.3 2.8-.8 3.9-.6 1.2-1.3 2.2-2.2 3s-2 1.4-3.1 1.9c-1 .4-2.2.6-3.3.6a10.16 10.16 0 0 1-3.4-.6c-1.1-.4-2.2-1-3.1-1.9-.9-.8-1.7-1.8-2.2-3-.5-1.1-.8-2.4-.8-3.9h0v-.4-10.9l-2.5.8v-9.9-.4c0-1.4.3-2.7.8-3.9.6-1.2 1.3-2.3 2.2-3.1s1.9-1.4 3.1-1.8c1-.4 2.2-.6 3.3-.6h0zm-41.3.4l7.3 21.3h.1l7.3-21.3h5.6v22.3l2.5-.8v17.4h-5.7V35.5l-2.5.8v-8.8h-.1l-3 9.2 2.4-.7-2.5 7.5h-2.9l-1.6-4.9-2.7.8-3.9-11.9H36v12.6l2.5-.8v11.4h-5.7v-9.1l-2.5.8V11.8h5.5 0zm41.3 5.4c-1 0-2 .3-2.7 1-.7.6-1.1 1.5-1.1 2.8h0v.3 7.6l2.5-.8v13.1.3c0 1.3.4 2.2 1.1 2.8a3.94 3.94 0 0 0 2.7 1c1 0 2-.3 2.7-1 .7-.6 1.1-1.5 1.1-2.8h0v-.3-14.9l-2.4.8v-5.8-.3c0-1.3-.4-2.2-1.1-2.8-.8-.7-1.7-1-2.8-1h0zm15 .1l6.5 3.5-3.5 6.8-3-10.3z" fill="#303030"/></svg>