<svg xmlns="http://www.w3.org/2000/svg" width="54.2" height="64" xmlns:v="https://vecta.io/nano"><path d="M3.5 42.9H0v-1.6h8.7v1.6H5.3V53H3.5V42.9zm7.3-1.6h1.8V53h-1.8V41.3zm7.3 1.6h-3.5v-1.6h8.7v1.6h-3.5V53H18V42.9zm19.7 3.2l-1.1-1.3c0 .6.1 1.1.1 1.7h0V53h-1.7V41.1h.2l6.4 6.9 1.1 1.3-.1-1.7h0v-6.4h1.7V53h-.2l-6.4-6.9h0zm8.4 4.6l1.5-.8c.6.9 1.3 1.6 2.7 1.6 1.2 0 2-.6 2-1.6s-.7-1.5-2-2h0l-.8-.3c-1.6-.8-2.6-1.7-2.6-3.5 0-1.7 1.3-3 3.3-3 1.5 0 2.6.6 3.3 1.8h0l-1.4.9c-.4-.8-1-1.1-1.9-1.1s-1.5.6-1.5 1.4c0 .9.5 1.3 1.7 1.8h0l.8.3c2 .9 3.1 1.8 3.1 3.7 0 2-1.6 3.2-3.8 3.2-2.4 0-3.7-1.1-4.4-2.4h0zM31.3 53h1.9l-5.1-11.8h-.2l-5 11.8h1.8l.6-1.4h5.5c0-.1.5 1.4.5 1.4zm-5.5-2.9l1.6-3.9c.3-.7.6-1.7.6-1.7s.3 1 .6 1.7h0l1.6 3.9h-4.4zM9.7 61.6l-.1.1-.1-.1h0l-1.9-4.8h-.5l2.4 6.1h.3l2.4-6.1h-.6l-1.9 4.8h0zm4-.9h2.7v-.5h-2.7v-2.9h3v-.5h-3.6v6.1h3.7v-.5h-3.1v-1.7zm8.3.9h0l-3.7-4.9H18v6.1h.6V58h0l3.7 4.9h.3v-6.1H22v4.8zm1.4-4.3h1.8v5.5h.6v-5.5h1.8v-.5h-4.2v.5zm8.6 3.4c0 1-.6 1.6-1.5 1.6s-1.5-.6-1.5-1.6h0v-4h-.6v4c0 1.3.8 2.1 2.1 2.1 1.2 0 2.1-.8 2.1-2.1h0v-4H32v4zm5.7-1.7c0-1.4-.9-2.2-2.4-2.2h0H34v6.1h.6v-1.6h.7c.2 0 .4 0 .7-.1h0l1.2 1.6h.7L36.6 61c.7-.4 1.1-1.1 1.1-2zm-3-1.7h.7c1.6 0 1.8 1.1 1.8 1.7s-.2 1.7-1.8 1.7h0-.7v-3.4zm4.9 3.4h2.7v-.5h-2.7v-2.9h3v-.5H39v6.1h3.7v-.5h-3.1v-1.7zm6.1-1.3l-.5-.2c-.7-.3-.9-.6-.9-1.1s.4-.9 1-.9.9.3 1.1.7h0l.1.1.5-.3-.1-.1c-.4-.6-.9-.9-1.6-.9-.9 0-1.5.6-1.5 1.4s.5 1.2 1.3 1.6h0l.5.2c.8.4 1.1.7 1.1 1.3s-.5 1.1-1.2 1.1c-.9 0-1.3-.5-1.5-.9h0l-.1-.1-.5.2.1.1c.3.6.8 1.2 2 1.2 1.1 0 1.8-.7 1.8-1.6-.1-.7-.6-1.3-1.6-1.8h0zM27.8 20.9L19.9 8.6h6.7v5.8l1.9 2.7v-11H15.3L27.8 25 38.9 8.6h4.9l-16 25.1L10 6.3v-.2H7.3l20.3 31.3.2.4L48.4 6.1H37.7l-9.9 14.8h0zM4.1 0l1.3 2.1h44.8L51.6 0H4.1z" fill="#171717"/></svg>