<svg xmlns="http://www.w3.org/2000/svg" width="151.6" height="64" xmlns:v="https://vecta.io/nano"><path d="M110.5 30.8c-.1 0-.1 0 0 0h.1-.1zm-7.4-1.5v-7.8c0-.2 0-.4.1-.6 1.8-.2 2.7.3 2.8 1.6.1.7 0 1.5-.4 2.1-.3.5-1.1.7-1.6 1 .2.4.6.9.9 1.5 1.4 3.2 2.1 3.7 5.6 3.6-.5-.5-1.2-1-1.6-1.6l-2.4-3.2c1.6-.8 2.3-1.8 2-3.3-.2-1.3-1.2-2.2-2.8-2.3-1.8-.1-3.7 0-5.7 0 .8.3 1 .8 1 1.5v7.4c0 .7-.2 1.3-1.1 1.5h4.3c-.9-.2-1.1-.7-1.1-1.4zm34.6-7.7v4.1 1.6l-7.6-7.2v9.2c0 .7-.1 1.3-1 1.5h4c-.8-.2-1-.7-.9-1.5V27v-3.2l7.6 7.2v-9.2c0-.6.1-1.2 1-1.4h-3.9c.7.1.8.6.8 1.2h0zM93.4 36c-1.8-.1-3.7 0-5.7 0 .8.3 1 .8 1 1.5v7.4c0 .7-.1 1.2-.9 1.5h4c-.8-.2-.9-.8-.9-1.5v-7.7c0-.2 0-.5.1-.7 1.8-.2 2.7.3 2.9 1.7.2 1.6-.6 2.7-2.3 3.1 0 0 0 .1.1.1.1.1.1.1.2.1 1.2.6 2.4.5 3.4-.4s1.3-2.1.9-3.3c-.5-1.2-1.6-1.7-2.8-1.8zm-8.6-15.6c-1.9-.1-3.8 0-5.5 0 .2.4.5.9.5 1.4v7.6c0 .7-.2 1.2-.9 1.5h3.8c-.2-.3-.6-.7-.6-1.1v-8.2c0-.2.3-.5.5-.5 1.7-.2 2.7.9 2.5 2.5-.2 1.4-1 2.1-2.4 2.3 1.2.8 2.4.8 3.5 0 1-.7 1.5-1.9 1.2-3.3-.3-1.3-1.2-2.2-2.6-2.2zm61.6 9.7V26c2.5-.3 2.9-.1 3.4 1v-1.5V24c-.4 1.2-1 1.4-3.4 1.1v-4.4c1.5.3 3.3-.8 4.1 1.3v-1.9h-6.9c.2.5.5 1 .6 1.5V29c0 .7-.1 1.3-1.1 1.6h7.7l.6-2.8c-1.1 2.3-2 2.6-5 2.3h0zM58.5 17.2c-1.2.6-1.9 1.7-2.4 2.9l-2.9 6.7-.4.9-2.5-6.2c-.1-.3.1-.7.2-1h-3.7c.3.4.8.8 1 1.3l4.4 9.4 4.9-10.7c.8-1.7 1.8-3.2 3.8-3.8-.9-.1-1.7.1-2.4.5zm.6 13.5h7.1c.2 0 .5-.1.6-.3l.6-2.5c-1.1 2-2.7 2.7-5 2v-4.2c1.2.2 2.6-.6 3.4 1.3v-1.5-1.4c-.5 1.1-1 1.3-3.4 1V23v-2.2h2.5c.9 0 1.4.6 1.7 1.5v-2.2h-7.2c.7.4.8.8.8 1.5v7.6c-.2.8-.4 1.3-1.1 1.5zm33.7-.6v-4.2c1.2.2 2.6-.6 3.3 1.1v-2.9c-.6 1.2-1.5 1.5-3.3 1v-4.3h1.9c1.1-.1 1.9.2 2.2 1.6v-2.3h-7.2c.7.4.8.9.8 1.5v7.6c0 .7-.2 1.2-.9 1.4h7.5l.6-2.8c-1.1 2.3-1.9 2.6-4.9 2.3h0zm-8 14.8c.3.6.8 1.1 1.1 1.5h0-4.2c.7-.3.7-.8.5-1.3-.6-1.6-.6-1.6-2.3-1.6h0-.2c-1.8 0-1.8 0-2.4 1.6-.2.5-.2 1 .5 1.3h0-2.6c.3-.4.9-.9 1.1-1.5l4.2-9.3 2.4 5.2 1.9 4.1zm-3.4-2l-1.5-3.7-1.6 3.7h0 3.1zm44.5 3.5h-4.3c.6-.4.6-.9.3-1.4-.1-.3-.2-.7-.4-1-.2-.2-.5-.5-.8-.5-.8-.1-1.7-.1-2.5 0-.2 0-.5.3-.7.5-.2.3-.3.7-.5 1-.3.6-.3 1.1.5 1.4h0-2.9c.8-.2 1.1-.8 1.4-1.5 1.3-3.1 2.7-6.1 4.1-9.3.2.4.3.7.5 1l3.8 8.2c.4.8.7 1.4 1.5 1.6h0zm-4.8-3.6c-.5-1.2-.9-2.4-1.5-3.7-.6 1.3-1 2.5-1.5 3.7h0 3zm-47.7-.4l-.3 1.2c-.6 1.7-1.6 2.4-3.4 2.5-1.6.1-2.9-.7-3.5-2.3-.6-1.7-.7-3.5.1-5.3.6-1.4 1.8-2.1 3.3-2.1 1.6 0 2.7.7 3.3 2.1.1.1.1.3.2.4.1-.5.1-1.1.1-1.6.1-.6-.2-.9-.7-1-1.9-.6-3.8-.7-5.7-.1-1.6.5-2.8 1.6-3.2 3.3-1.1 3.7 1.2 6.9 5.1 7.1 1.5.1 3.1.1 4.3-1 .3-.3.7-.8.7-1.2.1-.6 0-1.3-.1-2 0 0-.2 0-.2 0zm1.8-17L72 23.3c-.5-.3-.9-.7-.8-1.4s.6-1.1 1.3-1.2c.6-.1 1.2-.1 1.7.1s.9.8 1.3 1.2c0-.5.1-1.1.1-1.9-1.3 0-2.5-.1-3.6 0-1.3.1-2.2.9-2.4 2-.3 1.3.1 2.4 1.3 3.1l3.2 2.1c.6.4.9.9.7 1.7-.2.7-.7 1.1-1.4 1.3-1.9.4-3.3-.6-3.5-2.6-.1 0-.2 0-.2-.1-.1.6-.3 1.2-.3 1.8 0 .3.3.8.6 1 1.6.7 3.4.8 5 0 2-1 2.1-3.7.2-5zm39.8-4.5v8.3c0 .7-.1 1.3-1.1 1.6h4.5c-.9-.2-1.2-.7-1.2-1.4v-6-2.5h2.2c.8 0 1.2.6 1.5 1.4v-2.1h-9.6v2.1c.5-1.5 1.2-1.7 3.7-1.4h0zm-4 25.5s-.1 0 0 0c-.1.1-.1.1 0 0 0 .1 0 .1 0 0zm-6.7-8.3c.5-1.5 1.4-1.9 3.7-1.4v.8 7.3c0 .7-.1 1.4-1.2 1.7h4.1c-.2-.4-.6-.8-.7-1.2-.1-2.8 0-5.7 0-8.5 0-.1.1-.1.1-.2 2.3-.3 2.9-.1 3.5 1.2v-2h-9.6c.1.7.1 1.4.1 2.3h0zm6.7 8.3h0zm19.5-.7V45v-7.6c0-.7.2-1.2.9-1.5h-4.2c.9.3 1 .8 1 1.4v7.6c0 .7-.2 1.2-1.2 1.4h7.8l.6-2.8c-1 2.2-1.8 2.6-4.9 2.2h0zm-4.6-16.4v-7.7c0-.5.3-.9.5-1.4h-3.7c.9.3 1 .9 1 1.5V29c0 .7-.1 1.3-1.1 1.7h4.2c-.7-.2-.9-.7-.9-1.4zM102.4 36h-4.1c.8.3 1 .7 1 1.3v7.5c0 .7-.1 1.3-1.1 1.6h4.2c-.8-.2-.9-.8-.9-1.5v-7.4c0-.7.1-1.2.9-1.5h0zm-64-16.5l1.8-4h-5.7-3-5.1L24.8 19l-1.6-3.6H10.9c3.1-2 6.7-3 10.3-3 2.7 0 5.2.5 7.5 1.5h3.7c-3.3-2-7.1-3.2-11.2-3.2-5 0-9.7 1.8-13.3 4.7H2l1.9 4.2C1.5 23 0 27.2 0 31.8c0 10.3 7.4 18.9 17.3 20.7l-.9-1.9C8 48.5 1.7 40.9 1.7 31.8c0-3.8 1.1-7.4 3-10.3L21 57.4l2.1-4.6c10.7-1 19.1-10 19.1-21 .2-4.6-1.3-8.8-3.8-12.3zM23 44.8L12.2 21.2h-.9l11.2 24.5-1.4 3L7.6 19H21l1 2.2 2.8 6.1 2.8-6.1 1-2.2h6.2l-1 2.2h-3.7l-5.3 11.6-5.3-11.6h-4.8L24.2 42 23 44.8zm1.1 6.2l4-8.7-1.9-4.5 6-13.1h3.9l1.5-3.4c2 3 3.1 6.6 3.1 10.5 0 9.7-7.2 17.8-16.6 19.2z" fill="#222"/><path d="M34.7 19l-.9 2.2h-3.7l-5.3 11.6-5.3-11.6h-4.8L24.2 42 23 44.8 12.2 21.2h-.9l11.2 24.6-1.3 2.9L7.6 19H21l1 2.2 2.8 6.2 2.8-6.2 1-2.2h6.1z" fill="#bababa"/></svg>