<svg xmlns="http://www.w3.org/2000/svg" width="160.9" height="64" xmlns:v="https://vecta.io/nano"><g fill="#0f101c"><path d="M11 42.7c-.3 0-.6-.1-.8-.3-.5-.4-.6-1.2-.2-1.8l15.7-19c.4-.5 1.2-.6 1.8-.2.5.5.6 1.2.2 1.8L12 42.2c-.3.3-.6.5-1 .5zm6.8 0c-.3 0-.6-.1-.8-.3-.5-.4-.6-1.2-.2-1.8l15.7-19c.4-.5 1.2-.6 1.8-.2.5.5.6 1.2.2 1.8l-15.7 19c-.2.3-.6.5-1 .5z" enable-background="new"/><path d="M17.9 22.5l4.4 5.1-3.2 3.9-6.6-7.7c-.9-1.1-.2-2.7 1.2-2.7H15c1.1.1 2.2.6 2.9 1.4zm13.6 20h-1.3c-1.1 0-2.1-.5-2.8-1.3l-4.8-5.5 3.2-3.9 6.9 8.1c.9 1 .2 2.6-1.2 2.6zM22.6 9.4A22.58 22.58 0 0 0 0 32a22.58 22.58 0 0 0 22.6 22.6c12.5 0 22.5-10.1 22.5-22.6S35 9.4 22.6 9.4zm0 41.9C11.9 51.3 3.2 42.7 3.2 32s8.7-19.3 19.3-19.3S41.9 21.3 41.9 32s-8.7 19.3-19.3 19.3z"/></g><g fill="#2f2f35"><path d="M70.3 41.2h-5.6l-15-18.7h5.5z"/><path d="M49.7 41.2h5.5l15.1-18.7h-5.6zm39.5-18.7v3.1H69.3l2.6-3.1z"/><path d="M77.4 24.9H82v16.3h-4.6z"/><circle cx="87.4" cy="38" r="2.1"/><path d="M97.9 31.8c0 1.5.6 2.8 1.5 3.7.9 1 2.3 1.5 3.7 1.5h6.8v4.1h-8.2c-4.8 0-8.8-3.9-8.8-8.8v-1.2c0-4.8 3.9-8.8 8.8-8.8h8.2v4.1h-6.8c-2.9.2-5.2 2.5-5.2 5.4zm23.9-9.3c-5.4 0-9.8 4.2-9.8 9.4s4.4 9.4 9.8 9.4 9.8-4.2 9.8-9.4-4.4-9.4-9.8-9.4zm0 15.1c-2.6 0-4.7-2.6-4.7-5.7 0-3.2 2.1-5.7 4.7-5.7s4.7 2.6 4.7 5.7-2.1 5.7-4.7 5.7z"/></g><path d="M126.5 31.8c0 3.2-2.1 5.7-4.7 5.7s-4.7-2.6-4.7-5.7c0-3.2 2.1-5.7 4.7-5.7s4.7 2.6 4.7 5.7z" fill="none" stroke="#2f2f35" stroke-miterlimit="10"/><path d="M160.9 28v13.2h-4.8V29c0-1.3-1.1-2.3-2.4-2.3h-3.1v14.6h-5V26.6h-5.5v14.6h-4.8V22.7h20.2c3 0 5.4 2.4 5.4 5.3z" fill="#2f2f35"/></svg>