<svg width="104" height="103" viewBox="0 0 104 103" fill="none" xmlns="http://www.w3.org/2000/svg">
<path d="M52 102.865C80.6936 102.865 103.964 79.8579 103.964 51.4897C103.964 23.1215 80.6936 0.135254 52 0.135254C23.3064 0.135254 0.0357361 23.1215 0.0357361 51.5102C0.0357361 79.8784 23.3064 102.865 52 102.865Z" fill="#070A0E"/>
<path fill-rule="evenodd" clip-rule="evenodd" d="M30.0591 68.7242C28.5008 67.7793 27.545 66.1154 27.545 64.3078V54.2628C27.545 53.8725 27.6489 53.5028 27.8359 53.1741C28.4384 52.147 29.789 51.7978 30.8278 52.3935L53.7453 65.6019C55.0751 66.3825 55.9062 67.7999 55.9062 69.32V79.7141C55.9062 80.1866 55.7815 80.659 55.5322 81.0699C54.7842 82.2818 53.1636 82.6721 51.9377 81.9326L30.0591 68.7242ZM64.2171 49.6615C65.5469 50.4421 66.378 51.8594 66.378 53.3795V74.4759C66.378 75.0922 66.0455 75.6674 65.4845 75.9755L60.4772 78.7897C60.4149 78.8308 60.3525 78.8513 60.2694 78.8719V67.1631C60.2694 65.643 59.4591 64.2461 58.1501 63.4655L38.0376 51.5719V38.3224C38.0376 37.9321 38.1415 37.5624 38.3285 37.2337C38.931 36.2066 40.2816 35.8574 41.3204 36.4531L64.2171 49.6615ZM74.2318 34.0908C75.5824 34.8508 76.4135 36.2888 76.4135 37.8294V68.6421C76.4135 69.2789 76.0602 69.854 75.4993 70.1622L70.7412 72.7093V51.2432C70.7412 49.7231 69.9309 48.3263 68.6219 47.5457L48.0523 35.3438V22.7928C48.0523 22.4025 48.1562 22.0328 48.3432 21.7041C48.9457 20.677 50.2963 20.3278 51.3351 20.9235L74.2318 34.0908Z" fill="#00D395"/>
</svg>
