<svg xmlns="http://www.w3.org/2000/svg" width="32" height="32.3" xmlns:v="https://vecta.io/nano"><path d="M9.4 15.9l.5-.2.6-.1-1.6-.2-.6.1-.5.2-.1.1-.4.3-1.3-.2-1-.4-.5.7-.4.8 1 .2 1.3.1h1.8l.3-.6h2.1l.4-.4.4-.4z" fill="gold"/><path d="M13.7 24.4l-2.2.5-1.4.2-2.7 1.1.5.6 3.6-1.6 2.3-.7z" fill="#008cff"/><path d="M32 14.7l-.1-.7v-.1l-.4-1.6-.2 1.2-.9 1.1-1.5.9-2 .8-2.4.7-.2-.3-2.5.5-2.5.4-2.3.3-2 .1-1.7.2 1.6 5 .8-.2 2-.6 7.1-1.7.1-1.1 2.4-.6 2-.7 1.5-.8.9-.9.2-.9.1-1z" fill="#7dff7a"/><path d="M13.4 25.7l-.4.5 5.4-1.8 5.1-1.3 3.3-.9 1.9-.6 1.3-.7.4-.3.4-.5-.9.5-1.4.6-4.3 1.2.1-.2-4.9 1.3-2.3.6-2 .8z" fill="#00e4f8"/><path d="M12.4 15.7l2.3-.1.5.1-2.2.1-.6-.1h0z" fill="#fc0"/><path d="M13 17.5l1.7-.1.4.7-1.7.2-.4-.8h0z" fill="#fbf100"/><path d="M23.1 14.6l-1.6-.3-1.8-.3h0l-1.7-.1h0l-1.5.1-1.3.1-.9.4v1.6l.9-.4 1-.2h.9l.9-.2 1.8.1 1.7.1 1.6.3z" fill="#5aff9d"/><path d="M18.8 16.4l-2.3.3-1.7.1v.6h-.1l-.4-.6-.4-.5-.5-.3 1.3-.4 2.4-.1h.5l.4.2.4.3z" fill="#ffe600"/><path d="M23.1 13.5l-1.6-.5-1.7-.3-1.7-.2-1.6-.1-1.3.1h0l-.9.2v1.8h0l.1-.1h0 .1.1l.6-.3h0l1.3-.1 1.5-.1h0l1.7.1 1.8.3 1.6.3 1.3.5.1-1.1z" fill="#80ff77"/><path d="M20 8.6L18.2 8l-1.7-.4-1.4-.2.1 1.7 1.3.1 1.6.3 1.8.4.1-1.3z" fill="#fc0"/><path d="M15.1 7.4H14l.2 1.7h1l-.1-1.7z" fill="#ffc100"/><path d="M18.3 6.7l-1.8-.5-1.5-.4.1 1.6 1.4.2 1.7.4 1.8.6.2-1.2z" fill="#ff9800"/><path d="M18.4 5.5h0 0l-1.9-.6-1.6-.5.1 1.4 1.5.4 1.8.5 1.9.7.2-1.1z" fill="#ff6c00"/><path d="M15 5.8l-1.2-.1.2 1.7h1.1L15 5.8h0z" fill="#ff8900"/><path d="M24.6 13l-1.4-.7-1.6-.5h0l-1.8-.5-1.7-.3h0 0 0l-1.6-.2h-1.3l-.9.1h0 0l-.5.3h-.1 0v.4l.1 1v.5l.1-.1h0l.2-.1h0l.2-.1h0v-.1l.9-.2 1.3-.1 1.6.1 1.7.2 1.7.3 1.6.5 1.4.5.9.6.1-.9z" fill="#a0ff56"/><path d="M14 7.4l-.7.1.3 1.8.6-.2-.2-1.7z" fill="#ffb900"/><path d="M14.9 4.4l-1.4-.2.3 1.5 1.2.1-.1-1.4z" fill="#ff5d00"/><path d="M24.7 11.9l-1.4-.7-1.6-.7-1.8-.6-1.8-.4V11l1.7.3 1.8.5 1.6.5 1.4.7.9.7.2-1z" fill="#c1ff36"/><path d="M13.8 5.7l-.8.1.3 1.7.7-.1-.2-1.7h0z" fill="#ff7e00"/><path d="M23.8 9.1l-1.7-.9-1.9-.8-.2 1.2 1.9.7 1.7.8 1.4.8.3-.9z" fill="#ffe600"/><path d="M13.5 4.2h-1l.4 1.6.8-.1-.2-1.5h0z" fill="#ff4e00"/><path d="M24.2 8.2l-1.8-1-2-.9-.2 1.1 1.9.8 1.7.9 1.5.9.3-.8z" fill="#ffc400"/><path d="M13.5 9.3l-.1.2-.1.2h-.1v-.3l-.2-.7-.1-.9.4-.3z" fill="#ffae00"/><path d="M26.2 13.5l-.5-.8-.2.9.5.7.2-.8z" fill="#baff3c"/><path d="M12.9 5.8l-.5.2.5 1.8.4-.3-.4-1.7z" fill="#ff7300"/><path d="M26.4 12.7l-.3.8-.4-.8-.9-.7h0l.2-1.1.9.9z" fill="#e4ff13"/><path d="M12.9 7.8v.5l.4 1.9v-.5l-.4-1.9h0z" fill="#ffab00"/><path d="M26.3 11l-1-1-.3.9.9.9.5.9.3-.7z" fill="#eeff09"/><path d="M31.2 11.6l-.5-1.3-.4-.6.5 1.3.4.6z" fill="#ffde00"/><path d="M26.6 10.3l-1-1.1-.3.8 1 1 .4 1 .4-.6z" fill="#ffe600"/><path d="M12.4 6l-.1.4.6 1.8v-.5L12.4 6z" fill="#ff6c00"/><path d="M14.7 3.2l-.2-1-.2-.8-.2-.5-.1-.3-2.2-.5L9.9 0 8.4.1l-.7.1-1.2.3.9-.1h0l.9.3.9.6.8.9.8 1.2.8 1.4.3-.4h0l.6-.2h1l1.4.2-.2-1.2z" fill="#d10000"/><path d="M30.4 9.7l-.5-.5h0l-1.1-1.3-.5-.4-.4-.1h-.5l-.5.2-.4.4-.5.6-.4.6 1 1.1.5 1.1.4-.6.5-.3.5-.3.5-.1h.5l.5.2.4.3.5.4z" fill="#ffab00"/><path d="M12.3 6.5l.1.6.6 1.8-.2-.6-.5-1.8z" fill="#ff6400"/><path d="M4.6 7.4l-.3-1.3-.2-1.3L4 3.7l.1-1.1.6-1-.9.8-.3.4h0 0l-.4.6-.2 1.1H3h-.1l.2 1.2.2 1.2.3 1.3.2 1.3 1-.8z" fill="#df0000"/><path d="M5.7 6.9h0l-.2-1.3-.3-1.2h0v-.2l-.1-1h0 0 0l.1-1.1.5-.9.8-.7-.8.5-1 .6-.6 1L4 3.7l.1 1.1.2 1.3.3 1.3h0l.2 1.3 1-.5-.1-1.3z" fill="#c80000"/><path d="M3.8 9.5l.1 1.2 1-.7-.1-1.3-1 .8h0z" fill="#ff1300"/><path d="M3.9 10.7l.1 1.1.9-.7V9.9l-1 .8h0z" fill="#ff2500"/><path d="M8.4 15.3l-.6-.2-.7.1-.6.3-.5.4 1.3.2.5-.4.5-.2.6-.1.6.1z" fill="#ff9400"/><path d="M11.4 9.4l-.1-1.3-.2-1.2-.1-1.2-.1-1-.1-.7.1-.6-.9-1.2-.2.6v.8l.1.9.1 1.2.2 1.3.1 1.3v1.3l1.1 1.1V9.4h0z" fill="#c80000"/><path d="M8.5 15.2l-.8-.4-.7-.1-.7.1-.6.3-.6-.5-.6.5.5.4 1 .4.5-.4.6-.3.7-.1.6.2.7.2z" fill="#ff7e00"/><path d="M9 15.2l-.8-.6-.8-.3-.8-.1-.7.1-.8.3.6.5.6-.3.7-.1.7.1.8.4.7.5z" fill="#ff6400"/><path d="M9 15.2l.2.5.7.7-.1-.4-.8-.8z" fill="#ff7e00"/><path d="M9.1 14.6l-.9-.6-.8-.4-.9-.1-.8.1-.8.3-.7.6.3.6.6-.5.8-.3.7-.1.8.1.8.3.8.6.7.7.1-.5z" fill="#ff4a00"/><path d="M.1 16.3l.1 1.1-.1-2-.1-1.1.1 2z" fill="#53ffa4"/><path d="M0 14.3l.1 1.1v-2L0 12.3v2z" fill="#97ff60"/><path d="M.3 17.4l.3 1.1-.1-2-.3-1.1.1 2h0z" fill="#53ffa4"/><path d="M.1 15.4l.3 1.1v-2l-.3-1.1v2h0z" fill="#97ff60"/><path d="M.6 18.5l.3 1-.1-1.9-.3-1.1.1 2h0z" fill="#56ffa0"/><path d="M.4 16.5l.3 1.1v-1.9l-.3-1.1c.1 0 0 1.9 0 1.9z" fill="#97ff60"/><path d="M.9 19.5l.3.9-.2-1.8-.3-1 .2 1.9h0z" fill="#56ffa0"/><path d="M.7 17.6l.3 1v-1.9l-.3-1v1.9h0z" fill="#94ff63"/><path d="M1.2 20.4l.2.8-.1-1.8-.3-.8.2 1.8z" fill="#56ffa0"/><g fill="#0040ff"><path d="M5.2 30.4v-.2l-.8-.9v.2l.8.9h0z"/><path d="M4.3 29.5v-.2l-.7-1.1-.1.1c.1 0 .8 1.2.8 1.2z"/></g><path d="M3.1 5.7l-.2-1.2.2-1.1-.8 1.1-.8 1.4L1.3 7l.1 1.2.3 1.2.7-1.4.9-1.1z" fill="#ff2d00"/><g fill="#0040ff"><path d="M5.1 30.2v-.4l-.7-.9-.1.4.8.9h0z"/><path d="M4.3 29.3l.1-.4-.7-1-.1.3.7 1.1z"/></g><path d="M1 18.6l.2.9v-1.8l-.2-.9v1.8z" fill="#94ff63"/><path d="M1.4 21.2l.2.6-.1-1.7-.2-.7.1 1.8z" fill="#5aff9d"/><path d="M5.2 29.8l.2-.6-.7-.8-.3.5.8.9z" fill="#0040ff"/><path d="M16.5 9.2L15.2 9l-1 .1-.7.2-.1.2v.2l.2.7v.1l.1.7h0 .1l.5-.3h0 0l.9-.1h1.3l1.6.2V9.5z" fill="#e4ff13"/><path d="M13.7 10.6l-.1-.1-.3-.8-.1-.3L13 9l-.1-.2-.1-.7-.1-.2v-.1l.2.4.1.5.4.8v.2l.2.7z" fill="#ff6000"/><path d="M4.4 28.9l.3-.5-.6-1-.3.5.6 1z" fill="#0040ff"/><path d="M14.3 12.7v.4-.3z" fill="#b7ff40"/><path d="M3.6 26.3l-.4.4-.2.2h-.1l.7 1.4v-.1l.2-.3.3-.5z" fill="#0054ff"/><path d="M14.9 23.5l-.2-.1-1.6-.4-.4-.1-.6-.3-5.6 2.1-1.3.6-1 .6-.6.4.5 1.1.6 1 .9-1h0L6 27l1.4-.8 2.7-1.1 1.4-.2.5-.1 1.7-.4 1.1-.2 1.4-.3z" fill="#0098ff"/><path d="M6.7 27.7v-.1h0z" fill="#00d8ff"/><path d="M1.3 19.4l.2.7v-1.7l-.2-.8v1.8h0z" fill="#94ff63"/><path d="M1.6 21.8l.1.4-.1-1.6-.2-.5.2 1.7z" fill="#5aff9d"/><path d="M12.1 22.6l-.1-.4v-.1l-4 1.1-1.8.6-1.4.5-1 .5-.7.3-.4.3-.2.1h-.1l-.1-.3.5 1.6.1.1h0 0 0 0H3l.2-.2.4-.4.6-.4 1-.6 1.3-.6z" fill="#00e4f8"/><path d="M9.8 31.9l-.3-.3h0l-.3-.6-.1-.7-.7.2h-.8l-.8-.2-.7-.4-.7-.6-.2.6v.4.2l.9.8 1.1.7 1 .3 1 .1 1-.2-.4-.3z" fill="#0020ff"/><path d="M13.7 10.6l.1 1.2.6 2-.1-1.2-.6-2z" fill="#ff9f00"/><path d="M3.3 6.9L2.4 8l-.7 1.4.3 1.2.7-1.3.9-1.1z" fill="#ff2d00"/><path d="M11.3 27.4l1.3-.9-.5.3-1.4.9.6-.3z" fill="#00acff"/><path d="M2 10.6l-.3-1.2-.3-1.2L1.3 7l.2-1.1L1 7.4.7 8.6.8 9.7l.3 1.2.3 1.2.3 1.2.5-1.5z" fill="#ff2d00"/><path d="M12.9 8.8l.1 1.1.7 1.8-.1-1.2-.7-1.7h0z" fill="#ff6000"/><path d="M1.4 20.1l.2.5V19l-.2-.6v1.7z" fill="#90ff66"/><path d="M11.9 30.8h0-.4l-.5-.3-.4-.5-.2-.6-.6.6-.7.3.1.7.3.6.3.3.3.2.9-.5.3-.2.9-.7z" fill="#0040ff"/><path d="M12.7 17.1l-.2.6-1.6.1h-.1l-.8.1.3-.6.2-.1h.1z" fill="#d1ff26"/><path d="M3.6 8.2l-.9 1.1-.7 1.3.2 1.2.8-1.3.8-1z" fill="#ff2d00"/><path d="M13.8 11.8l.1 1.2.6 1.9-.1-1.2-.6-1.9h0z" fill="#ffa300"/><g fill="#0054ff"><path d="M12.6 29.9h-.4 0l-.5-.3-.7.9.5.3h.4l.3-.1.8-1.1z"/><path d="M11.2 29.2l-.2-.5-.6.7.2.6.4.5.7-.9z"/></g><path d="M12.2 19.1l-2.5.3-2.1.3-1.8.2-1.5.1-1 .1-.7-.1-.5-.2-.3-.3-.2-.4v1.5l.1 1.7.2.2.3.1 1.1-.2 1.1-.2 1.4-.4 1.8-.4 2.2-.4 2.4-.4-.1-.8z" fill="#8dff6a"/><path d="M13 9.9l.1 1.2.7 1.8-.1-1.2-.7-1.8h0z" fill="#ff6400"/><path d="M13.6 28.4l-.6 1.2-.4.3h-.4l-.5-.3-.5-.4-.2-.5V28l.3-.6.1-.2v.1.5l.3.5.5.3.5.1h.5z" fill="#0098ff"/><path d="M2.1 15.3l-.2-1-.2-1-.3-1.2-.3-1.2-.3-1.2-.1-1.1-.4 1.8.1 1.1.3 1.2.3 1.1.3 1.1.2 1 .2.9.1.7.4-1.4z" fill="#ffb600"/><path d="M10 17.9l-2.1.1-1.8.1-1.4-.1-.2 1-.2 1 1.5-.1 1.8-.2 2.1-.3 2.5-.3.1-.8.2-.6z" fill="#caff2c"/><path d="M13.9 13l.1 1.2.5 1.9V15l-.6-2z" fill="#ffa700"/><path d="M14.4 26.4l-.5 1.5-.3.5-.4.3h-.5l-.5-.1-.5-.3-.3-.5v-.5-.1l.4-1v.5l.2.2.1.2.5.3h.6l.5-.1.4-.4z" fill="#00d8ff"/><path d="M3.7 17.9l-.7-.2h0l-.4-.4-.3-.5-.1-.7-.4 1.4-.3-1.6-.2-1-.3-1.1-.3-1.1-.3-1.2-.1-1.1-.2 1.9.1 1.1.3 1.2.3 1.1.3 1 .2.9h0v.1l.1.2.1.5.1.7.2.3v.1-.1.1l.3.4.5.1.7.1 1-.1.2-1 .2-1z" fill="#caff2c"/><path d="M3.7 17.9l1 .1.3-.8-1-.2c.1 0-.3.9-.3.9z" fill="#f4f802"/><path d="M13.2 11.2l.1 1.2.7 1.8-.1-1.2-.7-1.8h0z" fill="#ff6c00"/><path d="M14.8 24.7l-.4 1.7-.3.5-.4.4-.5.1h-.6l-.5-.3-.1-.2-.2-.2v-.5l.2-1.1v.4.1l.4.2.5.2h.6l.5-.3.5-.4v-.1-.1z" fill="#29ffce"/><path d="M14 14.1l-.1 1.1.5 1.8.1-1.1-.5-1.8h0z" fill="#ffae00"/><path d="M14.9 18v-1.1h0l-.3-2.3v-.2l-.3-1.3v-.3l-.1-.2.1.2v.7l.2 1.4V16l-.1 1.1h0l-.3.9.4 1.9.3-.9.1-1h0z" fill="#f8f500"/><path d="M4.5 15.1l-.3-.6-.6.8-.5 1-.2-.6-.1-.7-.5 1.3.1.7.2.5.4.2.7.3.4-1 .5-.8.4-.7-.5-.4zm-.6.7h0" fill="#ff4a00"/><path d="M4 13.7v-.9-1l-.1-1.1-.1-1.2-.8 1-.8 1.3-.5 1.5.2 1 .2 1 .1.8.5-1.3.1.8.2.6.5-1 .7-.7z" fill="#ff2d00"/><path d="M13.2 12.4l-.1 1.2.7 1.7.1-1.1-.7-1.8z" fill="#ff7300"/><path d="M13.9 15.2l-.2 1 .5 1.8.3-.9-.6-1.9z" fill="#ffb600"/><path d="M13.2 13.5l-.2 1.1.7 1.7.2-1-.7-1.8h0z" fill="#ff7e00"/><path d="M11.4 19.1v.1l.3 1.2h0l-.3-1.3h0z" fill="#f4f802"/><path d="M13 14.6l-.4 1 .6 1.6.4-.9-.6-1.7h0z" fill="#ff8900"/><path d="M10.9 17.9v.2l.4 1.1v-.1l-.4-1.2zm2.7-1.6l-.4.8-.5.7-.5.6-.5.4-.3.3.4 1.2.3-.1h0l.5-.3.6-.5.5-.6.4-.8z" fill="#ffd300"/><path d="M10.4 17.2v-.1h0V17l.2-.3h-.3-.2-1.6l-.3.6H6.4l-1.3-.1-.4.9h1.4l1.8-.1 2.1-.1.3-.6.2-.1h-.1z" fill="#eeff09"/><path d="M11.2 17.5l-.3.4.5 1.2.3-.3-.5-1.3h0z" fill="#ffc400"/><path d="M12.6 15.6l-.5.8.6 1.5.5-.7-.6-1.6h0z" fill="#ff9400"/><path d="M11.6 17l-.4.5.5 1.3.5-.4-.6-1.4h0z" fill="#ffb200"/><path d="M12.1 16.4l-.5.6.6 1.4.5-.6-.6-1.4h0z" fill="#ffa300"/><path d="M12.3 9.5L12 7.1l-.1-.9-.3-.8v-.6l-.7-1.4-.1.6.1.7.1 1 .1 1.2.3 2.5v1.3l.9 1.3v.1-.1l.1-1.2z" fill="#c80000"/><path d="M12.3 12v.1l-.1 1-.4 1.1-.4.8-.8 1.4h-.1l-.7-1 .4-.7.4-.8.4-1 .2-1.1.2-1.1z" fill="#ff3400"/><path d="M12.1 16.4l-.5.6-.4.5z" fill="#f50"/><path d="M26.6 12.9l.1-.9-.3.7-.1.9.3-.7h0z" fill="#e4ff13"/><path d="M26.9 12.4l.1-1-.3.6-.1.9.3-.5h0z" fill="#f8f500"/><path d="M31 12.8l.2-1.2-.3-.6-.2 1.2.3.6h0z" fill="#feed00"/><path d="M27.4 11.9l.1-1.1-.4.5-.1 1 .4-.4z" fill="#ffde00"/><path d="M30.1 13.9l.9-1.1-.4-.5-.9 1.1.4.5h0z" fill="#f4f802"/><path d="M31.2 11.6l-.2 1.2-.9 1.1-.3-.5-1.5.9-.4-.4-2 .8h0l-2.3.7.4.4.3.5.2.6 2.4-.7 2-.8 1.5-.9.9-1.1.2-1.1z" fill="#f1fc06"/><path d="M31.6 18.1l.2-.8.1-.9-.2.9-.1.8z" fill="#50ffa7"/><path d="M31.7 17.3l.2-.9.1-.9-.2.9-.1.9h0z" fill="#6aff8d"/><path d="M30.5 19.6l.9-.7.2-.7-.9.8-.2.6h0z" fill="#3cffba"/><path d="M31.8 17.2v-.7l-.9.8-4.2 1.8-1.7.5-.2.8h.1l-.1.6h0l2.4-.7 2-.7 1.5-.7.9-.8.1-.7.1-.1z" fill="#5aff9d"/><path d="M24.4 22.1h0l-.1.1h0l.1-.2z" fill="#1fffd7"/><path d="M10.9 17.9l.3-.4-.6-1.1h0l-.8-1-.1.5.1.4.6.9h.1l.3.6.1.3v-.2z" fill="#ff7e00"/><path d="M30.5 19.6h0 0 0l.2-.7-1.5.7-2 .7h0l-2.4.7.1-.3-2.5.5-2.4.6h0 0 0l-2.3.6h0l-2 .6-.8.3h-.1l-.1.1-.5.1-.1.1-.2.6v.2h0l-.2.7-.4.6L15 25l2-.8 2.3-.7h0l2.5-.6h0 0l2.4-.6h0 .1l-.1.2 2.3-.7h0l2-.6 1.5-.6.8-.5.3-.6.3-.6z" fill="#30ffc7"/><path d="M12.5 22.1l-.2-.8-.1-.7-2.5.4-2.1.4-1.8.4-1.4.4-1.1.2-.7.2h-.4l-.3-.1-.2-.2-.1-.5-.2-.6-.3-.8-.2-.9-.3-1-.3-1.1.3 2 .3 1.1.3.9.3.9.2.7.1.5.2.4.1.2h.3l.4-.2.3 1.2.7-.3 1-.5 1.4-.5 1.8-.6 4-1.1.7.7z" fill="#3cffba"/><path d="M14.1 18h0l-.4.8-.5.6h0l-.4.4-.2.1h0 0l-.5.3-.3.1h0 0l-.1.1.3 1.2h0 0v.1l.4-.1.5-.2.6-.3.5-.5.5-.7h0z" fill="#deff19"/><path d="M24.1 16h0l-.3-.4-2.5.5-2.5.3-2.3.3-1.7.1v.6h-.1 0l.4.7 2-.3 2.4-.3 2.4-.4 2.5-.5z" fill="#f8f500"/><path d="M10.3 9.6l-1.1-.8-2.3-.7-1.1.1-.4-2.6-.2-1.3-.1-1.1.1-1.1.5-.9.8-.7h.9l.9.2.9.6.8.9-.2.6v.8l.1.9.1 1.2.2 1.3.1 1.3z" fill="#b00"/><path d="M26.6 6.1l-2.2-1.3-2.5-1.3-.3-.1-.2.2-.3.3-.2.6-.3.8-.2 1 2 .9 1.8 1h0l1.4 1 .4-.6.5-.6h0l.4-.4.5-.2h.5l.4.1z" fill="#ff7300"/><path d="M19 2.3l-2.6-.9L14 .6l.2.2.2.5.2.8.2 1 .2 1.2 1.7.4 1.9.6h0 0l2 .8.2-1 .2-.8.2-.6.3-.4.3-.1-2.8-.9z" fill="#ff4300"/><path d="M10.3 9.6l-.1 1.2-.2 1.1-1-.7-2.1-.6-1 .1-1 .4V10l-.1-1.3 1-.5 1.1-.1 2.3.7z" fill="#f10800"/><g fill="#ff3400"><path d="M9 11.2l-.3 1.1-1-.5-1-.1.2-1.1z"/><path d="M11 12.8v.1l-.4 1-.4.8-.4.7-.7-.8-.9-.6-.8-.4-.9-.1-.8.1-.8.3-.7.6-.2-.8v-.9-1l.9-.7 1-.4 1-.1-.2 1.1 1 .1 1 .5.3-1.1h0l1 .7z"/></g><g fill="#ff2d00"><path d="M12.4 6l.5-.2-.4-1.6-.6.2h0l-.3.4.7 1.7z"/><path d="M12.4 7.1l-.1-.6-.7-1.7v.6l.3.7.8 1.7z"/><path d="M13.2 11.2L13 9.9l-.1-1.1-.2-1-.8-1.7.1 1 .2 1.2.1 1.2.1 1.3-.1 1.2-.2 1.1-.3 1-.4.9-.8 1.4h0l.6 1.1.9-1.1h0l.5-.8.4-1 .2-1.1v-1.1z"/></g><path d="M11.4 10.7l-.2 1.1-1-1 .1-1.2z" fill="#ff1300"/><path d="M11.2 11.8l-.2 1-1-.9.2-1.1z" fill="#ff2500"/><path d="M26.2 15l-.3-.3-.4-.3-.4-.2-.4-.1h-.5l-2.2.6-3 .5-1.9.3h.5l.4.2.4.3.4.4 2.5-.3 2.5-.5h0z" fill="#ffe600"/><path d="M30.4 10.6l-.4-.3-.5-.2h0-.5l-.5.1-.5.3h0-.1 0l-.4.4-.1 1-.8 1-.9.6-1.9.7.4-.1h.5l.4.1.4.2.4.3.3.3 2.1-.7 1.5-.9.9-1.1.2-1.3z" fill="#ffc400"/><path d="M2.8 23.9l-.4.1-.3.1-.1-.2-.2-.6v.1l-.1-.4-.2-.7-.3-.9-.3-.9.5 1.9.3.9.2.8.2.7.2.4.1.3h.1l.2-.1.4-.3z" fill="#00d8ff"/><g fill="#008cff"><path d="M11.4 27.2l-.2.3-.5.2-.9.9-.5.9-.2.8.7-.3.6-.6.6-.7v-.4h0 0V28h0 0l.3-.6zm-4-1L6 27l-.4.4h0l-.9 1 .7.8 1.1-1.5.2-.1h0l1.2-.8z"/><path d="M6.5 27.7l-1.1 1.5h0z"/><path d="M12 25v.1l-.2 1.1-.4 1-.1.2-.6.3-.9.9-.5.9-.2.8-.7.2h-.8l-.8-.3-.7-.4-.7-.5v-.1l1.1-1.5 1.4-.9 1.6-.8z"/></g><path d="M14.9 22.8v.4.1l-.1.7v.6.1l-.3.4v.1.1l-.5.4-.5.3h-.6l-.5-.2-.4-.2v-.1-.4-.1-.3l.1-.7.1.3.3.2h.6l.6-.1.5-.3.5-.6z" fill="#4dffaa"/><path d="M14.9 20.9l-.2.8-.5.6-.5.5-.6.2h0-.2l-.4.1-.2-.1h-.1l-.1-.2v-.2l-.1-.4v-.1-.5.1l.4-.1.5-.2h0l.6-.3.5-.5.5-.7.3-.9z" fill="#baff3c"/><path d="M14.7 21.7l-.5.6-.5.5-.6.2-.6.1-.2-.1h-.1l-.1-.2v.4.8l.1.3.3.2h.6l.6-.1.5-.3.5-.6.2-.7v-1.9z" fill="#80ff77"/><g fill="#fbf100"><path d="M23.6 10.1l-1.7-.8-1.9-.7-.1 1.3 1.8.6 1.6.7 1.4.7.1.1.2-1.1z"/><path d="M24.8 12h0l-1.5-.8 1.4.7z"/></g></svg>