<svg width="228" height="228" viewBox="0 0 228 228" fill="none" xmlns="http://www.w3.org/2000/svg">
<g clip-path="url(#clip0_2_14)">
<path d="M114 228C176.962 228 228 176.962 228 114C228 51.0378 176.962 0 114 0C51.0378 0 0 51.0378 0 114C0 176.962 51.0378 228 114 228Z" fill="#070A0E"/>
<path d="M142.899 51.5622L55.746 176.426H82.5018L170.111 51.5622H142.899Z" fill="white"/>
<path d="M85.2948 51.5622L110.933 88.35L97.5498 108.414L57.969 51.5622H85.2948Z" fill="url(#paint0_linear_2_14)"/>
<path d="M145.498 176.438L117.067 135.74L130.45 116.223L172.265 176.426H145.498V176.438Z" fill="url(#paint1_linear_2_14)"/>
</g>
<defs>
<linearGradient id="paint0_linear_2_14" x1="97.8037" y1="98.0894" x2="46.7318" y2="-9.5264" gradientUnits="userSpaceOnUse">
<stop stop-color="white"/>
<stop offset="1"/>
</linearGradient>
<linearGradient id="paint1_linear_2_14" x1="152.689" y1="166.174" x2="107.586" y2="105.371" gradientUnits="userSpaceOnUse">
<stop stop-color="#6966FF"/>
<stop offset="1" stop-color="#6966FF" stop-opacity="0.36"/>
</linearGradient>
<clipPath id="clip0_2_14">
<rect width="228" height="228" fill="white"/>
</clipPath>
</defs>
</svg>
