<svg width="32" height="32" viewBox="0 0 32 32" fill="none" xmlns="http://www.w3.org/2000/svg">
<g clip-path="url(#clip0_1092_10335)">
<path d="M16.0801 32C24.9166 32 32.0801 24.8366 32.0801 16C32.0801 7.16344 24.9166 0 16.0801 0C7.24352 0 0.0800781 7.16344 0.0800781 16C0.0800781 24.8366 7.24352 32 16.0801 32Z" fill="url(#paint0_linear_1092_10335)"/>
<path d="M8.20496 20.8V13.2693L13.9159 17.5675V20.8H15.3735V17.264C15.3732 17.1326 15.3425 17.0031 15.2837 16.8855C15.225 16.768 15.1398 16.6657 15.0348 16.5867L8.10896 11.3723C7.98228 11.2782 7.83199 11.2211 7.6748 11.2073C7.51761 11.1934 7.35967 11.2235 7.21853 11.2941C7.07739 11.3646 6.95858 11.473 6.87531 11.607C6.79204 11.741 6.74756 11.8955 6.74683 12.0533V20.8H8.20496ZM23.9991 20.8V13.2693L18.2882 17.5675V20.8H16.8306V17.264C16.8308 17.1326 16.8615 17.0031 16.9203 16.8855C16.9791 16.768 17.0643 16.6657 17.1692 16.5867L24.0951 11.3744C24.2216 11.2804 24.3717 11.2233 24.5287 11.2094C24.6857 11.1955 24.8435 11.2254 24.9846 11.2957C25.1256 11.366 25.2445 11.474 25.3279 11.6078C25.4113 11.7415 25.4561 11.8957 25.4572 12.0533V20.8H23.9991Z" fill="white"/>
</g>
<defs>
<linearGradient id="paint0_linear_1092_10335" x1="16.0801" y1="0" x2="16.0801" y2="32" gradientUnits="userSpaceOnUse">
<stop stop-color="#4FA89B"/>
<stop offset="1" stop-color="#6ACEBB"/>
</linearGradient>
<clipPath id="clip0_1092_10335">
<rect width="32" height="32" fill="white" transform="translate(0.0800781)"/>
</clipPath>
</defs>
</svg>
