<svg width="30" height="30" viewBox="0 0 30 30" fill="none" xmlns="http://www.w3.org/2000/svg">
<rect width="30" height="30" fill="black"/>
<path d="M6.5625 6.82198V11.8943C6.5625 12.037 6.685 12.1537 6.83473 12.1537H12.1569C12.3202 12.1537 12.4427 12.037 12.4291 11.8943V6.82198C12.4291 6.67928 12.3066 6.56253 12.1569 6.56253H6.83473C6.685 6.56253 6.5625 6.67928 6.5625 6.82198Z" fill="white"/>
<path d="M18.3365 6.5755H23.6587C23.8084 6.5755 23.9309 6.69226 23.9309 6.83495V11.9072C23.9309 12.0499 23.8084 12.1667 23.6587 12.1667H18.3365C18.1868 12.1667 18.0643 12.0499 18.0643 11.9072V6.83495C18.0643 6.69226 18.1868 6.5755 18.3365 6.5755Z" fill="white"/>
<path d="M6.83473 17.5503H12.1569C12.3066 17.5503 12.4291 17.6671 12.4291 17.8098V22.882C12.4427 23.0118 12.3202 23.1415 12.1569 23.1415H6.83473C6.685 23.1415 6.5625 23.0247 6.5625 22.882V17.8098C6.5625 17.6671 6.685 17.5503 6.83473 17.5503Z" fill="white"/>
<path d="M18.3365 17.5503H23.6587C23.8084 17.5503 23.9309 17.6671 23.9309 17.8098V22.882C23.9309 23.0247 23.8084 23.1415 23.6587 23.1415H18.3365C18.1868 23.1415 18.0643 23.0247 18.0643 22.882V17.8098C18.0643 17.6671 18.1868 17.5503 18.3365 17.5503Z" fill="white"/>
<path d="M18.1868 12.3483V17.4206C18.1868 17.5503 18.0643 17.6671 17.9146 17.68H12.5924C12.4427 17.68 12.3202 17.5633 12.3202 17.4206V12.3483C12.3202 12.2056 12.4427 12.0888 12.5924 12.0888H17.9146C18.0643 12.0888 18.1868 12.2056 18.1868 12.3483Z" fill="white"/>
</svg>
